<svg id="Layer_1" data-name="Layer 1" xmlns="http://www.w3.org/2000/svg" viewBox="0 0 533.258 327.698">
  <defs>
    <style>
      .cls-1 {
        fill: #fdded3;
      }

      .cls-2 {
        fill: #fefefd;
      }

      .cls-3 {
        fill: #fff;
      }
    </style>
  </defs>
  <title>chicago</title>
  <path d="M1069,681c2.118-51.932.911-103.872.241-155.809-.044-3.439.8-4.664,4.395-4.482,6.646.336,13.328.468,19.972.164,4.2-.192,5.613.716,5.514,5.328-.964,44.615-.4,89.236-.076,133.855A174.091,174.091,0,0,0,1100,681Zm7.952-151.051c1.609-.354,3.182-.7,3.022-2.934-.073-1.021-.007-1.691-1.451-1.949-1.748-.312-3.4-1.142-5.11-.065-1.01.636-.915,1.7-.715,2.658.543,2.59,2.84.67,4.056,1.533.2.139.2.555.286.843-1.675.273-4.32-1.093-4.085,2.412.116,1.724.868,2.868,2.767,2.58,3.75-.568.679-3.1,1.257-4.593A1.246,1.246,0,0,0,1076.952,529.949Zm10.184,29.64c.569,2.63-1.758,5.905,2.209,6.515,4.386.674.321-7.064,5.55-5.876-.017-.628.224-1.475-.093-1.846a6.492,6.492,0,0,0-6.1-2.432C1085.707,556.393,1087.268,558.58,1087.136,559.589Zm-2.416-17.32c1.828-.417,4.318,1.643,4.287-1.8-.021-2.278-1.521-2.74-3.366-2.5-1.77.231-4.481-.739-4.466,2.375C1081.188,543.179,1083.595,542.053,1084.72,542.27Zm9.366,49.774c1.663.188,2.346-.73,2.183-2.345-.108-1.064.122-2.6-1.717-2.286-1.695.29-3.3.935-3.139,3.1C1091.529,592.13,1092.791,592.11,1094.086,592.044Zm-16.8-38.45c-.248-2.3-.047-3.719-1.822-3.444-1.684.261-3.177.951-3.155,3.007.015,1.433.956,1.871,2.292,1.854C1076.382,554.988,1077.372,554.3,1077.282,553.594Zm18.752,52.246c.032-1.708-.55-2.935-2.482-2.932-1.176,0-2.518.086-2.125,1.821.3,1.344.241,3.107,2.425,3.085C1095.22,607.8,1096.072,607.34,1096.035,605.84Zm-4.46-22.318c-.221-1.188-.421-2.366-2.146-1.964-1.588.37-2.783.982-2.66,2.943.114,1.813,1.39,1.5,2.521,1.549C1091.066,586.124,1091.61,585.1,1091.575,583.522Z" transform="translate(-659.742 -353.727)"/>
  <path d="M1102,648.015c-.812-2.31.369-3.012,2.426-3.01,2.289,0,4.577,0,7.006,0-.354-1.417-1.216-.979-1.8-.993-7.843-.19-9.514-2.448-7.807-10.205.343-1.56,1.107-1.807,2.366-1.8,1.646.011,3.292,0,5.726,0a6.608,6.608,0,0,0-5.324-1.182c-2.144.225-3.224-.436-2.571-2.764,3.283.371,7.3-2.358,9.573,2.276.974-4.168.975-4.205-2.692-4.288-2.315-.052-4.633.028-6.949.05.006-9.962.1-19.924-.044-29.884-.039-2.582.718-3.709,3.606-3.3-1.082-1.468-4.119-.08-3.509-2.986.441-2.1,2.1-1.8,3.519-1.855,1.955-.081,3.915-.02,5.89-1.052q-3.736,0-7.472,0c-1.042,0-2.058-.059-1.884-1.546.122-1.041.842-1.277,1.741-1.3a48.353,48.353,0,0,1,5.468-.125c2.744.245,2.8-1.349,2.841-3.367.054-2.486-1.291-2.661-3.188-2.366a39.672,39.672,0,0,1-3.958.432c-1.207.065-2.782.788-2.961-1.423-.153-1.894,1.022-2.17,2.492-2.222,1.16-.041,2.316-.164,3.474-.251l1.674-.215c-.263-1.063-1.067-.5-1.664-.552a34.658,34.658,0,0,1-4.282-.148c-2.546-.39-2.213-1.652-.756-3.107,2.994.828,6.9-1.782,8.884,2.822,1.111-3.309.559-4.881-2.957-4.52a67.328,67.328,0,0,1-6.928.038c.031-6.707.03-6.636,6.982-6.5,9.157.173,18.317.284,27.475.282,2.373,0,3.65.337,3.545,3.2-1.384,38.122.079,76.242.193,114.363A1.81,1.81,0,0,1,1140,681h-39c.026-10.354-.225-20.716.991-31.032l7.452-.5-.032-1.456Zm29.988-54.065c3.338,1.244,5.151.024,4.975-3.235-.192-3.564-2.882-2.768-5.178-2.409-1.459.228-2.925.453-4.4.55-2.523.166-2.776,1.816-2.663,3.8.147,2.567,1.759,2.273,3.511,1.893C1129.519,594.268,1130.833,594.128,1131.984,593.95Zm2.7-10.9c2.174.269,3.43-.553,3.194-3.006-.141-1.461-.13-3.611-2.208-2.794-1.622.638-4.664.122-4.477,3.494C1131.331,583.2,1132.849,583.213,1134.686,583.051Zm-20.71-11.184c-.163,2.028.252,3.266,2.646,3.031,2.368-.232,3.517-1.189,3.5-3.681-.014-1.964-.808-2.519-2.661-2.407C1115.341,568.938,1113.38,568.992,1113.976,571.867Zm9.909,3.157c2.163.26,3.421-.4,3.224-2.926-.132-1.7.1-3.388-2.472-3.119-2.159.225-3.736.726-3.759,3.455C1120.858,574.751,1121.865,575.321,1123.884,575.024Zm-7.535,2.091c-.429.168-2.819-.742-2.16,1.709.444,1.65.043,4.415,3.362,4.334,2.361-.058,2.567-1.155,2.566-3.045C1120.117,577.961,1119.677,576.541,1116.35,577.115Zm3.72,31.333c.079-1.267-.021-2.547-2.291-2.521-3.351.039-1.452,2.725-2.057,4.048-.73,1.6.858,1.985,2.263,1.987C1120.308,611.964,1120.029,610.292,1120.07,608.448Zm5.491,28.373c-1.837.7-4.717-1.4-4.663,2.682.03,2.277.279,3.733,3.194,3.672,2.874-.061,3.436-1.18,2.641-3.63-1.771-.432-1.452,2.883-3.392,1.907a2.486,2.486,0,0,1-1.024-1.581C1121.75,637.159,1125.105,638.917,1125.561,636.821Zm-11-29.721c-.2.275-.45.473-.458.68a2.574,2.574,0,0,0,.269.844c.183-.163.5-.315.516-.493A3.259,3.259,0,0,0,1114.563,607.1Z" transform="translate(-659.742 -353.727)"/>
  <path d="M803,681c1.65-16.6,1.205-33.206.377-49.821-.1-1.993-.177-3.987-.265-5.98l13.923-.352c.629-.013,1.316-.074,1.121-.924-.06-.263-.7-.393-1.074-.583-4.713-.187-9.434-.653-14.115.37-1.871,6.06-1.184,12.374-1.747,18.561-.228,2.5-.39,3.868-3.5,3.848-3.36-.022-2.856-2-2.7-3.928,1.723-21.973.883-43.946-.086-65.911-.157-3.558.9-4.621,4.4-4.349,6.47.5,12.968.708,19.458.872,2.211.056,2.852.849,2.7,3-1.019,14.5.87,28.988.309,43.436-.224,5.766,1.3,6.158,5.968,5.973,4.595-.182,10.58-.991,13.453,1.436,2.715,2.294.659,8.478.708,12.948.116,10.661.093,21.323.162,31.985A33.517,33.517,0,0,0,843,681Zm21.353-33.164c1.365-.67,3.73.161,3.862-2.647.1-2.218-1.192-2.387-2.832-2.21-1.927.208-4.218.018-4.337,2.837C820.946,648.155,822.889,647.592,824.353,647.836Zm-16.287,11.082c2.747-.487,5.791,1.391,6.914-2.361a1.779,1.779,0,0,0-1.5-2.553C810.124,653.46,808.876,655.413,808.066,658.919Zm11.515,19.935c1.914-.089,3.54.054,3.466-2.517-.073-2.516-1.635-2.523-3.309-2.363-1.225.117-3.257-.889-3.116,1.749C816.73,677.751,817.3,679.318,819.581,678.854Zm13.163-38.63c1.495-.551,3.889.845,4.2-2.1.235-2.211-1.146-2.357-2.779-2.246-1.929.131-4.234-.214-4.53,2.55C829.348,641.109,831.649,639.679,832.744,640.224Zm-17.473-9.895c-3.258-.27-5.968-.985-7.249,2.146a1.746,1.746,0,0,0,1.375,2.561C813.074,635.911,813.372,632.8,815.271,630.329Zm13.748,12.841c.425,3.662,2.365,4.521,5.452,3.954,1.533-.281,1.982-.907,1.368-2.294C834.252,641.246,831.46,643.5,829.019,643.17Zm-17.049-3.14c1.7.065,3.144.223,3-2.168-.142-2.363-1.755-2.2-3.125-1.945-1.059.2-3.013-.943-3.109,1.28S809.883,640.437,811.97,640.029Z" transform="translate(-659.742 -353.727)"/>
  <path d="M1142,681c.316-21.153.687-42.305.884-63.459.026-2.808.747-3.719,3.62-3.631,14.151.433,28.306.783,42.463.912,3.564.032,3,2.114,3,4.233.031,14.994-.01,29.989.145,44.982.059,5.657.577,11.309.886,16.963Z" transform="translate(-659.742 -353.727)"/>
  <path d="M885,681c1.893-15.256.842-30.58.873-45.87.009-4.617.549-6.906,5.979-6.485,5.1.395,10.3-.232,15.427-.711,3.766-.352,5.12.684,5.05,4.77-.257,14.946-.1,29.9.983,44.888,2.311-12.793,2.549-25.691,2.663-38.6,1.8-.342,4.163.564,4.973-2.011a2.8,2.8,0,0,0-.277-2.349c-1.482-1.492-3.012-.233-4.5.292l-.215-16.936c3.65-1.062-.02-3.411.6-4.9,2.549,0,4.823-.014,7.1,0,1.651.014,2.41-.73,2.317-2.418-.084-1.53-.9-1.805-2.286-1.856-2.711-.1-5.412-.446-8.118-.691.162-.967.178-2.724.509-2.785,5.944-1.106,4.566-6.429,5.977-10.113a12.327,12.327,0,0,1,1.036-2.783c.65-.911,1.583-2.1,2.52-2.223,1.617-.218,1.294,1.556,1.614,2.567.648,2.051,1.187,4.137,1.846,6.184.3.928.765,2.573,1.172,2.578,6.184.079,3.782,4.688,3.8,7.534.145,20.491.034,40.985.113,61.477.013,3.478.552,6.954.848,10.431Zm44.485-54.667c.5-.072,2.977,1.715,3.366-1.564.271-2.279-1.534-3.358-3.6-2.817-1.775.464-5.058-1.862-5.068,2.431C924.171,628.178,926.716,626.012,929.485,626.333Zm-3.525,15.89c.084-1.335-.307-2.286-1.864-2.228-1.846.068-3.209.658-3.142,2.867.043,1.405.616,2.275,2.1,1.913C924.4,644.443,926.153,644.382,925.96,642.223Z" transform="translate(-659.742 -353.727)"/>
  <path d="M717,681c1.175-9.432.943-18.915,1.028-28.387.016-1.771-.465-3.724,2.524-3.663,24.762.5,49.492-1.94,74.275-.743,5.039.243,6.678,1.793,6.337,6.9-.577,8.621.154,17.271.836,25.891Z" transform="translate(-659.742 -353.727)"/>
  <path d="M1048,681c1.628-38.254.765-76.509-.064-114.761-.082-3.775,1.236-4.5,4.534-4.125a62.122,62.122,0,0,0,10.456.495c3.668-.21,4.274,1.3,4.249,4.611-.17,22.793-.259,45.588-.117,68.382.094,15.134.613,30.266.942,45.4Z" transform="translate(-659.742 -353.727)"/>
  <path d="M844,681c1.785-8.9.783-17.91.914-26.867.045-3.111.716-4.2,4.084-4.28,10.325-.252,20.576,1.18,30.876,1.023,3.075-.047,2.865,1.648,2.985,3.786.492,8.776-.742,17.627,1.141,26.339Z" transform="translate(-659.742 -353.727)"/>
  <path d="M871.994,620.426c0-44.1.06-88.2-.1-132.3-.014-4.074.872-5.273,5.113-5.253,14.315.068,28.635-.269,42.946-.694,3.4-.1,4.1.854,3.921,4.168-1.736,31.4-3.286,62.807-4.9,94.212q-.46,8.973-.985,17.943c-.072,1.25.365,3.132-1.576,3.062-4.55-.163-3.965,3.012-4.024,5.763-.114,5.327-.294,10.66-.139,15.981.086,2.947-1.014,3.7-3.778,3.534-6.811-.4-13.653-.355-20.448-.91-4.313-.353-5.4,1.263-5.11,5.3.31,4.3-.1,8.651-.094,12.98.006,6.162-4.753,2.818-7.34,3.622-2.791.867-3.613-.643-3.555-3.428C872.1,636.413,871.992,628.418,871.994,620.426Zm31.029-128.384c-.8.095-1.608.175-2.409.287-1.411.2-2.68.51-2.183,2.446.41,1.6,1.16,2.755,3.033,2.615,2.092-.156,1.533-1.751,1.569-2.985.024-.813-.057-1.63-.091-2.445a20.4,20.4,0,0,0,2.481-.108c1.568-.252,2.9-.756,2.633-2.821-.135-1.039-.194-1.9-1.56-2.06-2.193-.249-2.256,1.389-2.681,2.77C903.577,490.514,903.289,491.275,903.023,492.042Zm-9.071,31.9c1.343-.44,2.972.418,4.35-1.17-.358-.408-.989-.8-1.1-1.3-.7-3.321-3.253-2.8-5.552-2.733-1.26.035-2.177.54-2.261,2.035-.213,3.788,3.315,1.374,4.52,2.778.1.111.085.313.124.474-1.563.568-4.367-.889-4.119,2.631.134,1.894,1.133,2.813,2.859,2.489,3.59-.673.612-3.164,1.155-4.71A1.685,1.685,0,0,0,893.952,523.939ZM880.081,491.9a27.62,27.62,0,0,0,3.878-.662c1.2-.373,1-1.562.968-2.547-.031-.92-.436-1.773-1.424-1.616-2.608.416-5.414-1.235-7.742.178-2.151,1.306.069,3.641-.388,5.5-.6,2.45-.052,4.745,2.848,4.493,3.384-.294,1.365-2.937,1.344-4.657Q879.819,492.244,880.081,491.9ZM882.3,534.74c-1.509-.086-2.419.256-2.373,1.838.043,1.508-.069,3.112,2.064,3.146,1.322.021,2.849-.134,2.645-1.987C884.479,536.315,884.095,534.754,882.3,534.74Zm3.769,52.7c-.143-1.954-.955-3.1-2.791-3.035-1.323.05-2.223.779-1.9,2.279.315,1.459.551,3.013,2.729,2.746C885.508,589.253,886.282,588.727,886.069,587.435ZM882.754,519c-1.667.177-2.823.83-2.815,2.767.006,1.365.364,2.313,1.959,2.142,1.765-.189,3.287-.591,3.082-2.949C884.853,519.487,884.2,518.859,882.754,519Zm22.154,15.808c-1.245-.1-2,.416-1.948,1.945.05,1.627.348,3.012,2.356,2.985,1.366-.019,2.76-.256,2.537-2.141C907.663,535.993,906.9,534.822,904.908,534.806Zm-14.105,15c2.428-.384,3.563-.974,3.379-3-.141-1.552-.824-2.043-2.238-1.82-1.663.262-2.828,1.06-2.731,2.916C889.289,549.369,890.241,549.865,890.8,549.8Zm15.069-30.787c-1.386.178-2.92.535-2.9,2.766.011,1.349.474,2.285,1.956,2.1,1.386-.17,3.087-.1,3.1-2.236C908.04,520.341,908.2,518.912,905.871,519.017Zm2.254-18.117c-1.074-.087-2.268.486-2.319,2.413-.034,1.29.256,2.335,1.914,2.031,1.4-.256,3.108-.118,3.034-2.323C910.711,501.712,910.286,500.792,908.125,500.9Zm-12.139,39.21c1.4-.129,3.187.3,3.047-2.081-.064-1.091.239-2.7-1.5-2.428-1.416.22-3.485.008-3.563,2.478C893.923,539.566,894.515,540.221,895.986,540.11Zm18.644-17.018c1.6-.087,2.962-.6,3.152-2.413.14-1.338-.587-2.3-2.008-2.132-1.369.163-3.1.128-2.94,2.362C912.917,522.1,912.884,523.3,914.63,523.092Z" transform="translate(-659.742 -353.727)"/>
  <path d="M869.025,622.5c0,7.32-.117,14.643.059,21.959.067,2.8-.8,3.749-3.616,3.663-5.647-.173-11.261.91-16.945.5-2.742-.2-3.615-1.195-3.524-3.952.192-5.816-.236-11.658.084-17.463.219-3.97-1.311-4.937-4.9-4.529-2.965.337-5.994.091-8.97.363-2.694.246-3.574-.776-3.218-3.366.933-6.776,1.463-13.566.129-20.359-.432-2.2.849-2.416,2.566-2.433,11.983-.115,23.95.267,35.916.875,2.572.131,2.414,1.565,2.409,3.279-.018,7.154-.008,14.309-.008,21.463Z" transform="translate(-659.742 -353.727)"/>
  <path d="M1003.809,611.894l-1.707.051-.753-7.033V562.686l-1.116,0q0,21.131,0,42.262l-.357,6.983c-3.638.674-5.149-.324-5.051-4.517.284-12.121.052-24.254.022-36.382.066-2.162.061-4.33.218-6.486.149-2.05-.546-3.076-2.74-3.15-2.038-.069-3.17.507-3.166,2.736q.034,21.659.012,43.319l2.151,0V563.206c3.062,2.249,1.173,5.4,2.578,7.806.058,11.146.25,22.293.133,33.437-.1,9.452,1.5,7.534-6.93,7.718-6.105.133-2.715-5.251-2.864-7.836-.537-9.291-.281-18.628-.349-27.948,0-.291-.265-.579-.988-2.06,0,9.321,0,17.459,0,25.6,0,3.495.037,6.989.034,10.484,0,1.021-.095,2.129-1.431,2.185-1.382.058-1.472-1.049-1.494-2.073-.062-2.827-.1-5.654-.155-8.481V562.188A189.22,189.22,0,0,0,978.995,602q0,4.994,0,9.988l-5.077.807-1.028-.75q-.008-1.036-.017-2.072a247.948,247.948,0,0,0,.291-46.783c-.343-4.063.818-5.165,4.767-4.946,8.786.488,17.594.661,26.4.784,2.661.037,3.754.689,3.749,3.639-.024,15.116-.551,30.247.9,45.337.186,1.93.57,4.269-2.728,3.859-.885-12.763.359-25.632-1.837-38.34-.455,6.313-.436,12.615-.46,18.916C1003.925,598.923,1003.858,605.409,1003.809,611.894Z" transform="translate(-659.742 -353.727)"/>
  <path d="M990.882,645.694c-8.482,0-16.965-.075-25.446.041-2.939.04-3.878-1.042-3.233-3.862a31.728,31.728,0,0,0,.643-4.941c.532-7.929.514-7.917,8.281-7.942,6.817-.022,13.621-.072,20.43-.765a93.373,93.373,0,0,1,13.959-.17c4.417.215,10.836-.611,12.709,1.832,2.465,3.213,1.3,9.18,1.784,13.954.269,2.659-1.578,2.375-3.2,2.5A157.725,157.725,0,0,1,990.882,645.694Z" transform="translate(-659.742 -353.727)"/>
  <path d="M776.1,616.86c-.543,8.163.715,16.949,1.077,25.769.145,3.538-1.013,4.316-4.176,4.089-4.983-.358-9.986-.459-14.981-.629-1.615-.055-2.754-.046-2.543-2.426.439-4.969.493-9.976.567-14.97.037-2.487.029-4.755,3.452-4.687,1.381.028,1.516-.971,1.44-2.055-.073-1.037-.7-1.6-1.629-1.308-3.38,1.059-3.04-1.246-3.094-3.271-.048-1.832-.266-3.67-.171-5.493.09-1.742.54-2.558,2.951-2.228,3.584.491,1.71-2.761,1.893-4.32.191-1.636,1.325-4.644-2.311-3.965-2.386.446-2.951-.254-2.959-2.43-.01-2.453,1.654-2.035,3.092-2.017,4.332.054,8.666.274,12.995.192,3.324-.063,4.739,1,4.483,4.613C775.84,606.518,776.1,611.353,776.1,616.86Zm-6.076-2.868c-.017-1.664-.29-2.659-1.657-2.387-1.53.3-3.577.1-3.876,2.287-.218,1.592,1.215,1.981,2.322,1.731C768.055,615.341,770.012,615.685,770.019,613.992Z" transform="translate(-659.742 -353.727)"/>
  <path d="M869.006,558.364c-.575,9.134.727,20.088.791,31.075.022,3.744-.791,5.259-4.866,5.291-8.157.064-8.567.272-7.816-7.938,1.479-16.161.238-32.275-.252-48.4-.123-4.036,1.229-4.709,4.8-4.329,7.334.78,7.348.632,7.343,7.951C869,546.845,869.006,551.673,869.006,558.364Z" transform="translate(-659.742 -353.727)"/>
  <path class="cls-1" d="M926.414,482.194c5.068-1.137,8.227-5.288,12.344-7.922,4.839-3.1,9.34-6.722,14.477-10.475-6.454-4.175-12.4-8.265-18.6-11.936-3.239-1.919-3.247-3.226-.587-5.7,4.228-3.926,8.12-8.212,12.174-12.326,1.857-1.884,1.93-3.031-.348-5.134-2.479-2.289-6.876-3.186-6.882-7.731,3.308,1.093,5.206,4,7.665,6.139,2.257,1.968,3.813,2.661,6.071-.1a99.069,99.069,0,0,1,8.915-9.217c1.269-1.193,2.585-2.614,5.361-2.757-4.366,4.622-8.135,9.13-12.46,13.019-3.154,2.837-2.1,4.342.521,6.45,4.02,3.233,7.849,6.7,11.752,10.08,6.123,5.3,5.954,8.277-.615,12.789-2.736,1.879-5.372,3.905-8.766,6.386l17.756,11.311c.889.514.843,1.319.676,2.163-3.134.345-4.51,3.134-6.6,4.875-5.474,4.561-10.775,9.33-16.526,14.348,6.445,4.022,12.568,7.806,18.653,11.652,4.566,2.885,4.787,4.817.749,8.334-3.869,3.37-7.922,6.528-11.895,9.779l-.931-.8c4.006-3.673,7.957-7.408,12.04-10.994,2.126-1.868,1.875-3.184-.437-4.536-5.968-3.49-11.97-6.931-17.826-10.6-1.825-1.144-2.984-.713-4.284.515l-1.079-1.1c.378-1.022,1.215-2.053-.284-2.932-6.617-3.879-13.213-7.794-19.846-11.643-.336-.2-.951.091-1.436.153A1.946,1.946,0,0,1,926.414,482.194Zm4.053.78c6.5,3.991,12.42,7.577,18.28,11.254,1.293.812,2.286,1.057,3.532-.064,6.586-5.931,13.217-11.813,20.181-18.022-5.477-3.513-10.378-6.578-15.184-9.786-1.457-.972-2.366-.9-3.815.169C946.11,471.931,938.632,477.162,930.467,482.975Zm38.355-31.988a5.814,5.814,0,0,0-1.908-3.33c-5.1-4.441-10.2-8.884-15.19-13.452-1.719-1.575-2.509-.45-3.566.663-3.771,3.969-7.5,7.984-11.4,11.819-1.77,1.738-1.758,2.711.4,4.041,5.352,3.3,10.619,6.736,15.86,10.21,1.574,1.043,2.857,1.273,4.467.044,2.763-2.11,5.674-4.025,8.5-6.049A6.184,6.184,0,0,0,968.822,450.987Z" transform="translate(-659.742 -353.727)"/>
  <path d="M980.065,615.04c.165-.019.332-.027.5-.057,8.208-1.552,8.208-1.552,9.683,6.46.233-.143.6-.236.663-.427.536-1.679-.759-3.681.847-5.116.21-.188,1.5.265,1.628.643a13.256,13.256,0,0,1,.134,8.261c-.165.534-2.45.535-.405,1.558a1.263,1.263,0,0,0,1.774-1.161q.138-3.982.055-7.971c-.034-1.7.11-2.925,2.383-2.619,1.641.221,2.906.393,2.734,2.537a23.1,23.1,0,0,0,.243,5.34c1.482-7.578,1.482-7.578,9.663-7.543l1.994.009c6.814.031,8.885,2.948,7.076,9.556-.558,2.04-1.924,1.365-3.093,1.485-10.6,1.09-21.193.657-31.788-.074v-9.267c-1.794,1.727-1.542,3.544-1.463,5.346.037.846-.039,1.7-1.115,1.864-1.538.231-1.478-.933-1.5-1.888C980.035,619.664,980.064,617.352,980.065,615.04Z" transform="translate(-659.742 -353.727)"/>
  <path d="M1091.587,507.869c.47,10.841.466,10.7-10.616,11.034-3.4.1-4.5-.978-4.058-4.159a18.135,18.135,0,0,0,.016-2.491c0-11.68.005-11.643,11.469-14.256,2.24-.511,3.45-.369,3.23,2.4C1091.432,502.873,1091.587,505.377,1091.587,507.869Z" transform="translate(-659.742 -353.727)"/>
  <path d="M1025.939,626.538c0-5.327.091-10.656-.039-15.979-.062-2.551.3-3.974,3.448-3.768,2.581.169,3.813.515,3.753,3.569-.211,10.656-.186,21.319-.075,31.978.028,2.673-.528,3.815-3.509,3.772-2.751-.04-3.749-.654-3.6-3.592.26-5.315.074-10.652.074-15.98Z" transform="translate(-659.742 -353.727)"/>
  <path d="M1120.209,561.008c-1.665,0-3.336.1-4.992-.029-1.433-.108-3.608.905-3.522-2.017.06-2.046.667-3.759,2.966-3.843,3.989-.145,7.993-.176,11.978,0a3.352,3.352,0,0,1,3.274,3.7c-.014,2.756-2.282,1.828-3.719,1.954-1.981.174-3.989.044-5.986.044Z" transform="translate(-659.742 -353.727)"/>
  <path class="cls-1" d="M993.9,571.012c-1.4-2.406.484-5.558-2.578-7.806v44.252l-2.151,0q0-21.659-.012-43.319c0-2.229,1.128-2.8,3.166-2.736,2.194.074,2.889,1.1,2.74,3.15-.156,2.156-.152,4.323-.218,6.486Q994.372,571.045,993.9,571.012Z" transform="translate(-659.742 -353.727)"/>
  <path d="M991.039,557.022c-2.326,0-3.989.053-5.648-.018-1.212-.052-2.953.5-2.873-1.656.055-1.488.272-3.264,2.243-3.317,4.477-.12,8.961-.093,13.438.046,1.318.041,1.861,1.2,1.906,2.513.055,1.609-1.034,1.89-2.268,1.979C995.352,556.749,992.865,556.9,991.039,557.022Z" transform="translate(-659.742 -353.727)"/>
  <path class="cls-1" d="M978.995,602a189.22,189.22,0,0,1,.861-39.811v39.845Q979.425,602.018,978.995,602Z" transform="translate(-659.742 -353.727)"/>
  <path class="cls-1" d="M1003.809,611.894c.049-6.486.117-12.971.142-19.457.024-6.3.005-12.6.46-18.916,2.2,12.709.952,25.578,1.837,38.34Z" transform="translate(-659.742 -353.727)"/>
  <path class="cls-1" d="M915.563,608.132c2.705.245,5.407.592,8.118.691,1.386.051,2.2.326,2.286,1.856.093,1.689-.666,2.432-2.317,2.418-2.274-.019-4.548,0-7.1,0-.616,1.485,3.053,3.834-.6,4.9C914.224,614.767,914.721,611.456,915.563,608.132Z" transform="translate(-659.742 -353.727)"/>
  <path class="cls-1" d="M980.065,615.04c0,2.311-.03,4.623.012,6.934.017.955-.042,2.119,1.5,1.888,1.076-.162,1.152-1.018,1.115-1.864-.079-1.8-.331-3.618,1.463-5.346v9.267l-5.315-.009c-.132-3.072-.377-6.144-.367-9.215.012-3.516-2.716-2.351-4.5-2.832l-.053-1.072,5.077-.807C979.123,613.084,978.852,614.323,980.065,615.04Z" transform="translate(-659.742 -353.727)"/>
  <path class="cls-1" d="M991.61,532.463v16.965l-1.126.01V532.52Z" transform="translate(-659.742 -353.727)"/>
  <path class="cls-1" d="M916.173,634.925c1.487-.525,3.016-1.784,4.5-.292a2.8,2.8,0,0,1,.277,2.349c-.809,2.574-3.171,1.668-4.973,2.011C914.619,637.568,914.609,636.208,916.173,634.925Z" transform="translate(-659.742 -353.727)"/>
  <path class="cls-1" d="M817.035,624.848l-13.923.352-.145-1.489c4.681-1.023,9.4-.558,14.115-.369Q817.058,624.1,817.035,624.848Z" transform="translate(-659.742 -353.727)"/>
  <path d="M1106.223,583.157c-1.452-.607-4.062,1.02-4.063-1.485,0-3.427,3.017-1.3,4.586-1.57,1.282-.223,3.972-1.218,3.99,1.157C1110.762,584.56,1107.629,582.228,1106.223,583.157Z" transform="translate(-659.742 -353.727)"/>
  <path class="cls-1" d="M1101.952,626.1c2.317-.021,4.634-.1,6.949-.05,3.667.083,3.666.12,2.692,4.288-2.269-4.634-6.29-1.9-9.573-2.276Z" transform="translate(-659.742 -353.727)"/>
  <path class="cls-1" d="M1101.94,569.175a67.328,67.328,0,0,0,6.928-.038c3.516-.362,4.068,1.211,2.957,4.52-1.982-4.6-5.89-1.995-8.884-2.822Z" transform="translate(-659.742 -353.727)"/>
  <path class="cls-1" d="M1102,648.015h7.415l.032,1.456-7.452.5Q1101.993,648.991,1102,648.015Z" transform="translate(-659.742 -353.727)"/>
  <path class="cls-1" d="M1001.349,604.913l.753,7.032-2.226-.012.357-6.983Z" transform="translate(-659.742 -353.727)"/>
  <path class="cls-1" d="M972.871,609.971q.008,1.036.017,2.072a3.284,3.284,0,0,1-.814-.012q.026-1.03.053-2.059A2.468,2.468,0,0,0,972.871,609.971Z" transform="translate(-659.742 -353.727)"/>
  <path class="cls-1" d="M1107.978,574.09c.6.056,1.4-.511,1.664.552l-1.674.215A6.03,6.03,0,0,0,1107.978,574.09Z" transform="translate(-659.742 -353.727)"/>
  <path class="cls-1" d="M959.165,527.177l-4.464,3.808,24.2,16.094c-1.664,4.095-5.816,5.915-6.854,9.964-2.75.6-3.355,3.569-5.42,4.928l-.913-1.223,10.731-13.166c-6.857-4.5-13.567-8.785-20.132-13.278-2.4-1.639-3.925-1.165-6.015.631-7.059,6.065-14.33,11.882-21.52,17.794l-1.064-1,23.465-20.238c-7.421-5.648-15.353-10-23.549-15.267l12.076-10.512,1.059,1.033c-2.387,2.269-4.7,4.622-7.181,6.783-2.323,2.023-1.891,3.168.668,4.621a99.662,99.662,0,0,1,12.038,7.726c4.134,3.211,7.911,4.718,12.084.366Z" transform="translate(-659.742 -353.727)"/>
  <path class="cls-1" d="M941.739,576.242c-4.682-5.783-9.431-11.514-14.012-17.376-1.743-2.23-2.41-4.757-.009-7.136l1.064,1c-1.546,2.23-.461,3.885.982,5.705,4.4,5.549,8.656,11.211,12.969,16.829Z" transform="translate(-659.742 -353.727)"/>
  <path class="cls-1" d="M969.773,656.909c-.507,1.807,1.664,4.627-1.664,4.884-3.437.266-2.905-2.777-3.171-4.979-.288-2.39.128-4.663,3.007-4.446C971.161,652.611,969.188,655.434,969.773,656.909Z" transform="translate(-659.742 -353.727)"/>
  <path class="cls-1" d="M957.051,663.931c-1.9.276-1.155,1.624-1.048,2.668.164,1.6-.293,2.438-2.123,2.5a2.144,2.144,0,0,1-2.515-2.341,49.7,49.7,0,0,1,.626-6.251c.134-1.033,1-1.22,1.853-1.261.84-.04,1.729.01,2.052.975.415,1.243.721,2.523,1.074,3.786Z" transform="translate(-659.742 -353.727)"/>
  <path class="cls-1" d="M962.005,654.54c.171,1.605-.238,2.6-2.115,2.519-1.933-.079-2.558-1.21-2.712-2.88-.138-1.5.644-2.054,2.038-2.173C961.14,651.842,962,652.725,962.005,654.54Z" transform="translate(-659.742 -353.727)"/>
  <path class="cls-1" d="M985.264,659.205c2.153.127,2.417,1.657,2.567,3.175.175,1.771-1.189,1.758-2.339,1.726-1.915-.053-2.513-1.324-2.495-3.03C983.014,659.462,984.176,659.3,985.264,659.205Z" transform="translate(-659.742 -353.727)"/>
  <path class="cls-1" d="M981.569,669.25c-1.447-1.806-4.752-.313-4.515-3.65.109-1.532,1.5-1.688,2.618-1.448C982.386,664.734,981.967,666.722,981.569,669.25Z" transform="translate(-659.742 -353.727)"/>
  <path class="cls-1" d="M939.709,505.714a38.114,38.114,0,0,1,8.021-7.008l1.079,1.1a45.945,45.945,0,0,1-8.041,6.939Z" transform="translate(-659.742 -353.727)"/>
  <path class="cls-1" d="M956.97,664.005a24.229,24.229,0,0,0,3.15,1.121c1.017.22,1.3.45.838,1.521-.44,1.02-.386,2.3-1.983,2.279-.86-.01-1.735-.117-1.845-1.121-.14-1.279-.063-2.581-.079-3.874Z" transform="translate(-659.742 -353.727)"/>
  <path class="cls-2" d="M972.074,612.031a3.284,3.284,0,0,0,.814.012l1.028.75.053,1.072h-9.128c1.367-2.328,3.035-1.443,4.264-1.813l.408.048.407-.059Z" transform="translate(-659.742 -353.727)"/>
  <path class="cls-1" d="M945.742,583.741l0-2.461.792-.918c2.3,1.292,2.511-1.524,3.919-1.986l.75.843c-.489,1.772-3.451,2.81-1.571,5.286l-.808.676c-.752-.332-1.39-1.423-2.352-.352Z" transform="translate(-659.742 -353.727)"/>
  <path class="cls-1" d="M966.631,561.972l-5.192,5.929-.7-1.135a21.439,21.439,0,0,1,4.979-6.017Z" transform="translate(-659.742 -353.727)"/>
  <path class="cls-1" d="M959.255,570.243l-3.72,4.369-.753-.81,3.485-4.51Z" transform="translate(-659.742 -353.727)"/>
  <path class="cls-1" d="M944.746,580.234a9.545,9.545,0,0,1-3.007-3.992l.994-.978,3.047,4.077Z" transform="translate(-659.742 -353.727)"/>
  <path class="cls-1" d="M954.738,575.517,953.1,577.1l-.8-.649,1.536-1.6Z" transform="translate(-659.742 -353.727)"/>
  <path class="cls-1" d="M960.953,568.393l-1.7,1.85-.988-.951,1.52-1.5Z" transform="translate(-659.742 -353.727)"/>
  <path class="cls-1" d="M945.919,585.417l-1.688,1.818-1.014-.692L944.8,584.8Z" transform="translate(-659.742 -353.727)"/>
  <path class="cls-1" d="M961.439,567.9a1.776,1.776,0,0,1-.488.492l-1.164-.6.953-1.027Z" transform="translate(-659.742 -353.727)"/>
  <path class="cls-1" d="M944.8,584.8l.941-1.057.733,1.088a1.738,1.738,0,0,1-.56.587Z" transform="translate(-659.742 -353.727)"/>
  <path class="cls-1" d="M949.635,584.505c.3.472.827.973.054,1.417-.109.063-.566-.479-.862-.741Z" transform="translate(-659.742 -353.727)"/>
  <path class="cls-1" d="M944.23,587.234c-.328.257-.772.8-.963.722-.891-.362-.332-.92-.048-1.413Z" transform="translate(-659.742 -353.727)"/>
  <path class="cls-1" d="M953.1,577.1l-.94,1.069-.793-.784.935-.934Z" transform="translate(-659.742 -353.727)"/>
  <path class="cls-1" d="M955.535,574.612q-.4.452-.8.905l-.894-.668.94-1.047Z" transform="translate(-659.742 -353.727)"/>
  <path class="cls-1" d="M952.164,578.165l-.959,1.054-.749-.843.914-1Z" transform="translate(-659.742 -353.727)"/>
  <path class="cls-1" d="M945.745,581.28l-1-1.046,1.033-.893.758,1.021Z" transform="translate(-659.742 -353.727)"/>
  <path class="cls-1" d="M969.92,612.04l-.407.059-.408-.048.25-.725Z" transform="translate(-659.742 -353.727)"/>
  <path class="cls-1" d="M1087.136,559.589c.132-1.009-1.429-3.2,1.562-3.64a6.492,6.492,0,0,1,6.1,2.432c.317.371.077,1.219.093,1.846-5.23-1.187-1.164,6.55-5.55,5.876C1085.378,565.494,1087.7,562.219,1087.136,559.589Zm2.578.5-1.012.422c.273.211.54.582.821.594.405.017,1.063-.12,1.181-.384C1090.937,560.205,1090.443,560.057,1089.714,560.093Z" transform="translate(-659.742 -353.727)"/>
  <path class="cls-1" d="M1084.72,542.27c-1.125-.217-3.532.909-3.545-1.926-.015-3.114,2.7-2.144,4.466-2.375,1.845-.241,3.346.221,3.366,2.5C1089.038,543.913,1086.548,541.853,1084.72,542.27Z" transform="translate(-659.742 -353.727)"/>
  <path class="cls-1" d="M1077.041,530.036c-.09-.288-.09-.7-.286-.843-1.216-.863-3.513,1.057-4.056-1.533-.2-.956-.3-2.023.715-2.658,1.712-1.077,3.362-.247,5.11.065,1.444.258,1.378.928,1.451,1.949.161,2.236-1.413,2.579-3.022,2.934Z" transform="translate(-659.742 -353.727)"/>
  <path class="cls-1" d="M1094.086,592.044c-1.295.066-2.557.086-2.674-1.526-.157-2.169,1.445-2.815,3.139-3.1,1.839-.315,1.609,1.221,1.717,2.286C1096.432,591.314,1095.749,592.232,1094.086,592.044Z" transform="translate(-659.742 -353.727)"/>
  <path class="cls-1" d="M1077.282,553.594c.09.708-.9,1.394-2.685,1.417-1.336.017-2.276-.421-2.292-1.854-.022-2.057,1.471-2.746,3.155-3.007C1077.236,549.874,1077.034,551.291,1077.282,553.594Z" transform="translate(-659.742 -353.727)"/>
  <path class="cls-1" d="M1096.036,605.837c.036,1.5-.816,1.963-2.184,1.977-2.183.022-2.121-1.742-2.425-3.085-.393-1.735.949-1.819,2.125-1.821C1095.484,602.9,1096.067,604.132,1096.036,605.837Z" transform="translate(-659.742 -353.727)"/>
  <path class="cls-1" d="M1076.952,529.949a1.246,1.246,0,0,1,.028.486c-.578,1.494,2.493,4.025-1.257,4.593-1.9.287-2.652-.856-2.767-2.58-.235-3.505,2.41-2.139,4.085-2.412Z" transform="translate(-659.742 -353.727)"/>
  <path class="cls-1" d="M1091.573,583.529c.037,1.568-.507,2.595-2.283,2.521-1.131-.047-2.407.264-2.521-1.549-.123-1.96,1.072-2.573,2.66-2.943C1091.154,581.156,1091.354,582.334,1091.573,583.529Z" transform="translate(-659.742 -353.727)"/>
  <path class="cls-1" d="M1131.984,593.95c-1.151.178-2.465.319-3.75.6-1.752.379-3.364.674-3.511-1.893-.113-1.983.14-3.632,2.663-3.8,1.471-.1,2.937-.322,4.4-.55,2.3-.359,4.986-1.155,5.178,2.409C1137.135,593.974,1135.322,595.194,1131.984,593.95Z" transform="translate(-659.742 -353.727)"/>
  <path class="cls-1" d="M1134.686,583.051c-1.837.162-3.355.149-3.491-2.306-.187-3.372,2.855-2.856,4.477-3.494,2.077-.817,2.067,1.333,2.208,2.794C1138.116,582.5,1136.86,583.32,1134.686,583.051Z" transform="translate(-659.742 -353.727)"/>
  <path class="cls-1" d="M1113.976,571.867c-.6-2.875,1.365-2.929,3.484-3.057,1.853-.112,2.647.443,2.661,2.407.017,2.492-1.132,3.449-3.5,3.681C1114.227,575.133,1113.813,573.9,1113.976,571.867Z" transform="translate(-659.742 -353.727)"/>
  <path class="cls-1" d="M1123.884,575.024c-2.019.3-3.026-.273-3.007-2.59.023-2.729,1.6-3.23,3.759-3.455,2.575-.269,2.34,1.42,2.472,3.119C1127.305,574.62,1126.047,575.284,1123.884,575.024Z" transform="translate(-659.742 -353.727)"/>
  <path class="cls-1" d="M1116.35,577.115c3.328-.574,3.768.847,3.768,3,0,1.89-.205,2.987-2.566,3.045-3.319.081-2.918-2.684-3.362-4.334C1113.531,576.373,1115.921,577.283,1116.35,577.115Z" transform="translate(-659.742 -353.727)"/>
  <path class="cls-1" d="M1120.07,608.448c-.041,1.844.238,3.516-2.085,3.514-1.406,0-2.993-.391-2.263-1.987.605-1.323-1.294-4.009,2.057-4.048C1120.049,605.9,1120.149,607.18,1120.07,608.448Z" transform="translate(-659.742 -353.727)"/>
  <path class="cls-1" d="M1125.561,636.821c-.456,2.1-3.811.338-3.244,3.049a2.486,2.486,0,0,0,1.024,1.581c1.939.976,1.621-2.338,3.392-1.907.795,2.45.233,3.569-2.641,3.63-2.916.062-3.164-1.4-3.194-3.672C1120.845,635.419,1123.724,637.518,1125.561,636.821Z" transform="translate(-659.742 -353.727)"/>
  <path class="cls-1" d="M1114.563,607.1a3.259,3.259,0,0,1,.328,1.031c-.015.177-.334.329-.516.493a2.574,2.574,0,0,1-.269-.844C1114.112,607.573,1114.366,607.374,1114.563,607.1Z" transform="translate(-659.742 -353.727)"/>
  <path class="cls-1" d="M824.353,647.836c-1.464-.244-3.407.319-3.308-2.021.119-2.818,2.41-2.629,4.337-2.837,1.641-.177,2.936-.007,2.832,2.21C828.083,648,825.718,647.166,824.353,647.836Z" transform="translate(-659.742 -353.727)"/>
  <path class="cls-1" d="M808.066,658.919c.81-3.506,2.058-5.459,5.418-4.913a1.779,1.779,0,0,1,1.5,2.553C813.857,660.31,810.813,658.431,808.066,658.919Z" transform="translate(-659.742 -353.727)"/>
  <path class="cls-1" d="M819.581,678.854c-2.278.464-2.851-1.1-2.96-3.131-.141-2.638,1.891-1.632,3.116-1.749,1.675-.16,3.237-.153,3.309,2.363C823.121,678.908,821.495,678.765,819.581,678.854Z" transform="translate(-659.742 -353.727)"/>
  <path class="cls-1" d="M832.744,640.224c-1.094-.545-3.4.885-3.109-1.792.3-2.764,2.6-2.419,4.53-2.55,1.633-.111,3.014.035,2.779,2.246C836.632,641.069,834.239,639.673,832.744,640.224Z" transform="translate(-659.742 -353.727)"/>
  <path class="cls-1" d="M815.271,630.329c-1.9,2.469-2.2,5.582-5.873,4.707a1.746,1.746,0,0,1-1.375-2.561C809.3,629.344,812.013,630.059,815.271,630.329Z" transform="translate(-659.742 -353.727)"/>
  <path class="cls-2" d="M829.019,643.17c2.441.327,5.232-1.924,6.82,1.66.614,1.387.165,2.013-1.368,2.294C831.384,647.69,829.444,646.832,829.019,643.17Z" transform="translate(-659.742 -353.727)"/>
  <path class="cls-2" d="M811.97,640.029c-2.088.408-3.329-.614-3.233-2.832s2.05-1.084,3.109-1.28c1.369-.254,2.983-.418,3.125,1.945C815.114,640.252,813.674,640.094,811.97,640.029Z" transform="translate(-659.742 -353.727)"/>
  <path class="cls-2" d="M817.035,624.848q.023-.752.046-1.506c.375.189,1.015.319,1.075.582C818.352,624.774,817.664,624.835,817.035,624.848Z" transform="translate(-659.742 -353.727)"/>
  <path class="cls-1" d="M929.485,626.333c-2.769-.321-5.314,1.845-5.3-1.951.01-4.292,3.293-1.967,5.068-2.431,2.07-.541,3.874.538,3.6,2.817C932.462,628.047,929.981,626.26,929.485,626.333Z" transform="translate(-659.742 -353.727)"/>
  <path class="cls-1" d="M925.96,642.223c.193,2.159-1.561,2.22-2.911,2.551-1.48.362-2.053-.507-2.1-1.913-.067-2.209,1.3-2.8,3.142-2.867C925.653,639.937,926.044,640.888,925.96,642.223Z" transform="translate(-659.742 -353.727)"/>
  <path class="cls-1" d="M879.566,492.591c.021,1.72,2.04,4.363-1.344,4.657-2.9.252-3.452-2.042-2.848-4.493.457-1.858-1.764-4.193.388-5.5,2.328-1.413,5.134.238,7.742-.178.988-.158,1.392.7,1.424,1.616.034.985.228,2.173-.968,2.547a27.628,27.628,0,0,1-3.878.662c-1.083-1.923-2.421-.675-4.509-.184Z" transform="translate(-659.742 -353.727)"/>
  <path class="cls-1" d="M894.037,524.02c-.039-.16-.028-.362-.124-.473-1.2-1.4-4.733,1.011-4.52-2.778.084-1.494,1-2,2.261-2.035,2.3-.064,4.848-.588,5.552,2.733.106.5.737.893,1.1,1.3-1.378,1.588-3.007.73-4.35,1.17Z" transform="translate(-659.742 -353.727)"/>
  <path class="cls-1" d="M902.943,491.958c.034.815.116,1.632.091,2.445-.037,1.234.523,2.829-1.569,2.985-1.873.14-2.623-1.018-3.033-2.615-.5-1.937.771-2.25,2.183-2.446.8-.111,1.606-.192,2.409-.287Z" transform="translate(-659.742 -353.727)"/>
  <path class="cls-1" d="M882.3,534.74c1.795.014,2.179,1.575,2.335,3,.2,1.853-1.323,2.008-2.645,1.987-2.133-.034-2.02-1.638-2.064-3.146C879.881,535,880.791,534.654,882.3,534.74Z" transform="translate(-659.742 -353.727)"/>
  <path class="cls-1" d="M886.069,587.435c.213,1.292-.561,1.818-1.963,1.99-2.178.267-2.414-1.287-2.729-2.746-.324-1.5.577-2.229,1.9-2.279C885.114,584.331,885.926,585.482,886.069,587.435Z" transform="translate(-659.742 -353.727)"/>
  <path class="cls-1" d="M882.754,519c1.448-.145,2.1.483,2.226,1.955.2,2.358-1.318,2.759-3.082,2.949-1.595.171-1.953-.778-1.959-2.142C879.931,519.829,881.087,519.176,882.754,519Z" transform="translate(-659.742 -353.727)"/>
  <path class="cls-1" d="M904.908,534.806c1.991.016,2.755,1.187,2.945,2.789.223,1.885-1.171,2.123-2.537,2.141-2.008.027-2.306-1.358-2.356-2.985C902.912,535.222,903.663,534.706,904.908,534.806Z" transform="translate(-659.742 -353.727)"/>
  <path class="cls-1" d="M890.8,549.8c-.561.061-1.514-.435-1.59-1.9-.1-1.856,1.068-2.654,2.731-2.916,1.414-.223,2.1.268,2.238,1.82C894.366,548.83,893.23,549.42,890.8,549.8Z" transform="translate(-659.742 -353.727)"/>
  <path class="cls-1" d="M905.871,519.017c2.333-.105,2.169,1.324,2.158,2.634-.017,2.14-1.718,2.066-3.1,2.236-1.483.181-1.945-.755-1.956-2.1C902.952,519.552,904.486,519.2,905.871,519.017Z" transform="translate(-659.742 -353.727)"/>
  <path class="cls-1" d="M903.023,492.042c.266-.767.554-1.527.792-2.3.425-1.381.488-3.019,2.681-2.77,1.366.155,1.425,1.021,1.56,2.06.269,2.065-1.065,2.569-2.633,2.821a20.38,20.38,0,0,1-2.481.108Z" transform="translate(-659.742 -353.727)"/>
  <path class="cls-1" d="M908.125,500.9c2.161-.108,2.586.812,2.629,2.122.073,2.2-1.638,2.067-3.034,2.323-1.658.3-1.948-.741-1.914-2.031C905.857,501.386,907.051,500.813,908.125,500.9Z" transform="translate(-659.742 -353.727)"/>
  <path class="cls-1" d="M893.952,523.939a1.685,1.685,0,0,1-.02.491c-.543,1.546,2.435,4.037-1.155,4.71-1.726.323-2.726-.6-2.859-2.489-.248-3.519,2.556-2.063,4.119-2.631Z" transform="translate(-659.742 -353.727)"/>
  <path class="cls-1" d="M895.989,540.1c-1.474.118-2.066-.537-2.019-2.024.078-2.47,2.147-2.258,3.563-2.478,1.74-.27,1.436,1.337,1.5,2.428C899.173,540.408,897.386,539.981,895.989,540.1Z" transform="translate(-659.742 -353.727)"/>
  <path class="cls-1" d="M914.632,523.086c-1.748.213-1.715-.985-1.8-2.177-.159-2.234,1.572-2.2,2.94-2.362,1.421-.169,2.148.794,2.008,2.132C917.592,522.491,916.231,523,914.632,523.086Z" transform="translate(-659.742 -353.727)"/>
  <path class="cls-1" d="M938.048,420.017c-2.607.663-3.446-1.052-4.083-3.037C936.35,416.616,936.938,418.669,938.048,420.017Z" transform="translate(-659.742 -353.727)"/>
  <path class="cls-1" d="M934.024,417.033c-1.637.221-1.882-1.637-3.084-2.065C931.742,415.994,934.394,414.257,934.024,417.033Z" transform="translate(-659.742 -353.727)"/>
  <path class="cls-1" d="M939.03,421.02c-1.377.664-1.406-.014-1.059-1.065C938.66,419.975,939.084,420.26,939.03,421.02Z" transform="translate(-659.742 -353.727)"/>
  <path class="cls-2" d="M1001.349,604.913l-1.116.038V562.689l1.116,0Z" transform="translate(-659.742 -353.727)"/>
  <path class="cls-1" d="M770.019,613.992c-.007,1.693-1.964,1.349-3.211,1.631-1.107.25-2.539-.139-2.322-1.731.3-2.188,2.346-1.982,3.876-2.287C769.729,611.333,770,612.328,770.019,613.992Z" transform="translate(-659.742 -353.727)"/>
  <path class="cls-1" d="M960.248,526.228l-1.084.949-.787-.935.939-.816Z" transform="translate(-659.742 -353.727)"/>
  <path d="M936,681c.781-25.315,1.269-50.629.081-75.949-.134-2.863-.18-5.511-3.816-5.351-2.033.089-1.521-1.432-1.939-2.217a17.6,17.6,0,0,1-1.091-3.805c-1.838-6.979-1.838-6.979-8.535-3.583,1.835-35.541,3.649-70.676,5.463-105.811.485-.062,1.1-.348,1.436-.153,6.634,3.85,13.23,7.764,19.846,11.643,1.5.879.662,1.91.284,2.932a38.115,38.115,0,0,0-8.021,7.008l-12.076,10.512c8.2,5.266,16.128,9.619,23.549,15.267l-23.465,20.238c-2.4,2.379-1.734,4.906.009,7.136,4.582,5.861,9.33,11.593,14.012,17.376a9.543,9.543,0,0,0,3.008,3.992l1,1.046q0,1.231,0,2.461L944.8,584.8q-.792.872-1.582,1.744c-.284.493-.842,1.051.048,1.413.192.078.636-.465.963-.722q.844-.909,1.686-1.818a1.759,1.759,0,0,0,.56-.585c.961-1.073,1.6.018,2.351.35.3.262.752.8.862.741.773-.444.25-.945-.054-1.417-1.88-2.476,1.082-3.514,1.57-5.286l.959-1.054.94-1.069q.817-.789,1.632-1.578.4-.453.8-.905l3.72-4.369q.849-.925,1.7-1.85a1.777,1.777,0,0,0,.488-.492l5.192-5.929c2.065-1.359,2.67-4.323,5.42-4.927l.012.031c-1.1,17.633-1.785,35.266.064,52.9q-.028,1.03-.053,2.059l-2.155.009-.565-.714-.25.725c-1.229.37-2.9-.515-4.264,1.813h9.128c1.783.481,4.51-.685,4.5,2.832-.01,3.071.235,6.143.367,9.215-4.328-.064-8.658-.244-12.982-.144-2.178.05-3.071-.657-2.872-2.827.317-3.462-1.135-7.221,2.189-10.223-3.737-1.433-5.287-.548-5.153,3.251.3,8.473-.652,16.991.789,25.422.48,2.805.154,4.128-3.336,4.149-11.777.072-11.752.228-11.089,12.28.367,6.661.637,13.327.951,19.991l1.317.015q.508-9.7,1.018-19.4c.511-9.435.518-9.477,9.854-9.444,20.309.071,40.588-1.616,60.908-.988,12.046.373,12.1.287,12.341,12.183.12,5.881.021,11.767.021,18.294,2.923-1.4,2.1-3.1,2.168-4.366,1.311-22.79-.234-45.581-.011-68.373.021-2.164.036-4.331-.061-6.492-.181-4.025,1.158-7.105,5.587-7.192,4.552-.089,5.64,3.04,5.617,7.07-.094,16.649-.056,33.3-.083,49.948-.017,10.657.088,21.31.992,31.938Zm21.05-17.068c.016,1.292-.061,2.595.079,3.874.11,1,.985,1.11,1.845,1.121,1.6.019,1.543-1.26,1.983-2.279.462-1.071.179-1.3-.838-1.521a24.229,24.229,0,0,1-3.15-1.121c-.353-1.264-.659-2.543-1.074-3.786-.323-.965-1.212-1.015-2.052-.975-.855.04-1.719.227-1.853,1.261a49.7,49.7,0,0,0-.626,6.251,2.144,2.144,0,0,0,2.515,2.341c1.83-.059,2.287-.893,2.123-2.5C955.9,665.555,955.15,664.207,957.05,663.932Zm12.723-7.023c-.586-1.475,1.388-4.3-1.828-4.541-2.879-.217-3.3,2.056-3.007,4.446.266,2.2-.266,5.245,3.171,4.979C971.437,661.536,969.266,658.716,969.773,656.909Zm-7.768-2.369c-.007-1.815-.866-2.7-2.789-2.534-1.394.119-2.176.674-2.038,2.173.154,1.67.779,2.8,2.712,2.88C961.767,657.137,962.176,656.146,962.005,654.54Zm23.258,4.665c-1.087.1-2.249.257-2.267,1.872-.018,1.705.58,2.977,2.495,3.03,1.15.032,2.514.045,2.339-1.726C987.68,660.862,987.417,659.333,985.264,659.205Zm-3.7,10.045c.4-2.529.817-4.516-1.9-5.1-1.121-.24-2.509-.084-2.618,1.448C976.817,668.937,980.122,667.444,981.569,669.25Z" transform="translate(-659.742 -353.727)"/>
  <path d="M931.017,415.014c-1.535-5.079.467-10.152.036-15.241-.176-2.075,1.62-1.719,2.864-1.725,11.469-.056,22.94.038,34.406-.173,3.3-.061,3.324,1.772,3.435,4.051.731,14.928,1.524,29.852,2.237,44.781.452,9.455.8,18.914,1.194,28.372l-17.756-11.311c3.394-2.48,6.03-4.507,8.766-6.386,6.569-4.511,6.738-7.49.615-12.789-3.9-3.378-7.732-6.848-11.752-10.08-2.621-2.108-3.675-3.613-.521-6.45,4.325-3.889,8.094-8.4,12.46-13.019-2.776.143-4.093,1.564-5.361,2.757a99.069,99.069,0,0,0-8.915,9.217c-2.258,2.756-3.814,2.064-6.071.1-2.458-2.144-4.356-5.046-7.665-6.139l.041.047c.053-.759-.37-1.044-1.059-1.065l.077.063c-1.111-1.349-1.7-3.4-4.083-3.036l.059.052c.37-2.776-2.282-1.039-3.084-2.065Z" transform="translate(-659.742 -353.727)"/>
  <path d="M975.865,477.24q2,35.368,3.991,70.736a34.45,34.45,0,0,0,.178,3.986c.716,4.081-.71,5.9-4.98,5.131a16.806,16.806,0,0,0-2.991-.017l-.013-.032c1.038-4.049,5.19-5.869,6.854-9.964l-24.2-16.094,4.464-3.809,1.084-.949c3.972-3.251,8.026-6.409,11.895-9.779,4.038-3.518,3.816-5.449-.749-8.334-6.084-3.845-12.207-7.63-18.653-11.652,5.75-5.018,11.052-9.787,16.526-14.348C971.356,480.374,972.732,477.585,975.865,477.24Z" transform="translate(-659.742 -353.727)"/>
  <path d="M926.414,482.194q1.288-22.639,2.569-45.278c.379-6.8.7-13.609,1.036-20.414a1.4,1.4,0,0,1,1-1.489l-.077-.045c1.2.428,1.447,2.287,3.084,2.065l-.059-.052c.638,1.985,1.476,3.7,4.083,3.037l-.077-.063c-.346,1.051-.317,1.728,1.059,1.065l-.041-.047c.006,4.545,4.4,5.442,6.882,7.731,2.278,2.1,2.205,3.25.348,5.134-4.055,4.114-7.947,8.4-12.174,12.326-2.661,2.471-2.653,3.778.587,5.7,6.2,3.672,12.149,7.761,18.6,11.936-5.137,3.754-9.637,7.38-14.477,10.475C934.641,476.906,931.482,481.058,926.414,482.194Z" transform="translate(-659.742 -353.727)"/>
  <path d="M951.152,390.8q5.73,0,11.459,0c1.813,0,3.351.382,3.483,2.616.168,2.827-1.977,2.149-3.463,2.138q-11.458-.084-22.914-.369c-1.251-.033-3.395.727-3.154-1.854.163-1.749,1.354-2.481,3.128-2.457,3.819.053,7.64.016,11.46.016Z" transform="translate(-659.742 -353.727)"/>
  <path class="cls-1" d="M961.735,354.139v34.868C959.114,385.12,959.257,357.242,961.735,354.139Z" transform="translate(-659.742 -353.727)"/>
  <path d="M942.29,387.569V353.727l.508,0v33.842Z" transform="translate(-659.742 -353.727)"/>
  <path d="M959.317,525.426l-.939.816c-4.173,4.353-7.95,2.846-12.084-.366a99.662,99.662,0,0,0-12.038-7.726c-2.559-1.453-2.991-2.6-.668-4.621,2.481-2.161,4.795-4.514,7.181-6.783a45.941,45.941,0,0,0,8.041-6.939c1.3-1.227,2.459-1.659,4.284-.515,5.856,3.672,11.857,7.113,17.826,10.6,2.312,1.352,2.564,2.668.437,4.536C967.274,518.018,963.323,521.753,959.317,525.426Z" transform="translate(-659.742 -353.727)"/>
  <path d="M930.467,482.975c8.166-5.813,15.644-11.043,22.993-16.448,1.449-1.066,2.358-1.142,3.815-.169,4.806,3.208,9.707,6.273,15.184,9.786-6.964,6.209-13.595,12.09-20.181,18.022-1.245,1.121-2.239.876-3.532.064C942.887,490.552,936.97,486.966,930.467,482.975Z" transform="translate(-659.742 -353.727)"/>
  <path d="M968.822,450.987a6.184,6.184,0,0,1-2.837,3.946c-2.829,2.024-5.74,3.94-8.5,6.049-1.61,1.229-2.893,1-4.467-.044-5.24-3.474-10.507-6.913-15.86-10.21-2.16-1.33-2.171-2.3-.4-4.041,3.9-3.835,7.632-7.85,11.4-11.819,1.057-1.113,1.847-2.238,3.566-.663,4.986,4.569,10.089,9.011,15.19,13.452A5.814,5.814,0,0,1,968.822,450.987Z" transform="translate(-659.742 -353.727)"/>
  <path d="M946.537,580.362l-.758-1.021-3.047-4.077c-4.312-5.618-8.569-11.28-12.969-16.829-1.443-1.82-2.528-3.476-.982-5.705,7.19-5.912,14.461-11.729,21.52-17.794,2.09-1.8,3.62-2.27,6.015-.631,6.566,4.493,13.275,8.777,20.132,13.278l-10.731,13.166a21.439,21.439,0,0,0-4.979,6.017l-.953,1.027-1.52,1.5-3.485,4.51-.94,1.047-1.536,1.6-.935.934-.914,1C949.049,578.838,948.834,581.654,946.537,580.362Z" transform="translate(-659.742 -353.727)"/>
  <path d="M1089.714,560.093c.729-.036,1.223.112.991.631-.118.264-.776.4-1.181.384-.281-.012-.548-.383-.821-.594Z" transform="translate(-659.742 -353.727)"/>
  <path d="M879.566,492.591l-3.994-.873c2.088-.491,3.426-1.739,4.509.184Q879.819,492.244,879.566,492.591Z" transform="translate(-659.742 -353.727)"/>
  <path d="M903.572,534.581c1.406.786,3.871-.887,4.394,1.145a4.449,4.449,0,0,1-3.051,5.178c-4.154,1.132-4.276,4.264-4.9,7.47a87.3,87.3,0,0,1-4.839,16.733c-1.589,3.84-2.537,7.289,2.729,9a14.705,14.705,0,0,1,2.387,1.226c-1.159,2.243-2.3,1.667-3.136,1.65-2-.04-3.43-.074-3.375,2.767s1.738,2.3,3.288,2.193c4.422-.3,3.233,2.05,1.923,4.185-2.75,4.485-8.219,4.213-13.284-.844a161.659,161.659,0,0,1-14.919,19.7c-1.88,2.093-2.372,4.46,1.138,5.812a5.766,5.766,0,0,1,3.6,3.364c-1.11,1.461-2.7.579-4.02.67-1.988.137-1.922,1.364-1.923,2.75,0,1.54.3,2.444,2.257,2.3,1.317-.1,3.528-1.034,3.937.755.45,1.967-.977,3.872-2.687,5.031a7.252,7.252,0,0,1-9.224-.332c-1.36-1.066-2.446-2.6-2.222-4.268.3-2.231,2.414-1.3,3.633-1.177,2.122.222,2.108-.96,2.148-2.367s.063-2.726-1.951-2.651c-2.563.1-5.04-.551-7.408,1.65a72.1,72.1,0,0,1-10.05,7.36c-1.987,1.287-2.765,2.15-1.373,4.628q11.589,20.63,22.742,41.5c1.281,2.393,3.715,2.593,5.424,4.048,1.63,1.388,3.853,2.91,3,5.233-.613,1.669-2.956.664-4.5.693-5.656.107-11.315.042-17.016.042a5.039,5.039,0,0,1,2.6-5.639c3.538-1.758,3.024-3.481,1.361-6.41-6.64-11.7-12.949-23.586-19.522-35.324-.622-1.111-.685-3.935-3.183-2.634-2.4,1.25-5.609,1.469-6.863,4.353-.482,1.108.16,2.21,1.616,2.578,1.992.5,3.411,1.749,4.742,4.077-1.865,0-3.15.1-4.415-.023-1.835-.172-2.734.282-2.657,2.4.065,1.789.363,2.669,2.427,2.8,1.51.1,4.169-1.416,4.391,1.331.193,2.38-1.582,4.3-3.86,5.353-3.593,1.666-8.424-.048-9.783-3.5-.81-2.055-.734-3.636,2.21-3.284,1.632.2,3.441,1.194,3.545-2.071.1-3.172-1.54-3.093-3.655-3.019-.638.022-1.281-.068-2.275-.128.72-2.569,2.624-3.4,4.647-4.006,1.261-.379,1.582-1.194,1.152-2.238-.412-1-1.078-.168-1.594.034-12.916,5.056-26.4,7.471-41.093,8.3,2.241,2.79,5.925,2.637,6.479,5.8-1.331.842-2.869.326-4.327.429-1.711.121-2.172,1.041-2.237,2.627-.074,1.8.74,2.143,2.337,2.36,1.533.209,4.215-1.368,4.411,1.293.189,2.576-1.706,4.608-4.256,5.6-3.607,1.4-7.956-.217-9.372-3.548-.81-1.906-1.1-3.6,2.015-3.468,1.4.059,3.682,1.695,3.727-1.847.039-3.059-1.623-3.131-3.79-3.026a15.157,15.157,0,0,1-2.006-.169c1.442-2.595,1.442-2.595,6.854-5.946a151.1,151.1,0,0,1-41.864-6.678c1.013,2.143,2.994,2.212,2.948,3.943-.394,1.021-1.341.647-2.082.664-1.954.045-3.883-.461-3.808,2.837.074,3.22,2.015,2.4,3.639,2.239,3.336-.331,3.241,1.356,2.153,3.527a6.788,6.788,0,0,1-6.467,3.916,6.926,6.926,0,0,1-6.685-4.36c-.912-2-.753-3.158,1.839-3.071,1.709.057,3.585.655,3.631-2.456.053-3.52-2.221-2.435-3.984-2.634a13.608,13.608,0,0,1-1.522-.371c.633-2.117,2.217-2.934,3.871-3.618.909-.376,2.058-.5,2-1.785s-1.357-1.31-2.178-1.738c-8-4.177-7.995-4.16-12.441,3.948-5.672,10.344-11.314,20.705-17.082,31-1.363,2.431-2.81,4.372.886,6.142,1.811.868,2.549,2.933,2.75,5.249H689.47c0-3.385,1.733-5.855,4.517-6.61,3.516-.953,5-3.324,6.523-6.133,6.814-12.56,13.656-25.105,20.643-37.569,1.367-2.439,1.591-3.822-1.216-5.32a55.454,55.454,0,0,1-8.181-5.682c-1.724-1.37-3.542-1.529-5.578-1.518-1.973.011-2.05,1.137-1.977,2.6.067,1.335-.223,2.767,1.985,2.444a32.286,32.286,0,0,1,4.325-.035c0,3.95-1.826,6.3-5.386,7.2a6.753,6.753,0,0,1-8.064-3.424c-1.3-2.24-1.67-4.211,2.079-3.824,1.857.192,3.068-.009,3.07-2.515,0-2.626-1.427-2.5-3.169-2.429-.66.027-1.325-.064-2.183-.112.248-3.54,3.646-3.392,6.036-5.193-6.992-7.575-14.076-14.907-19.362-23.71-4.806,4.491-8.658,5.223-11.988,2.384a5.861,5.861,0,0,1-2.483-4.686c.049-1.094,1.186-.825,1.971-.927,2.2-.286,3.948.016,3.567,3.357.066-4.243,3.094-9.985-4.7-8.636-.571-1.091-.014-1.83.441-1.979,6.79-2.216,4.315-6.38,2.509-10.687a98.714,98.714,0,0,1-3.8-11.323c-1.128-3.986-1.071-8.413-6.512-9.784-1.963-.495-2.975-2.983-2.765-5.193,1.429-1.8,5.336,1.681,5.317-3.175-.017-4.289-3.541-1.51-4.732-2.74a3.211,3.211,0,0,1-.159-.712c5.929-3.247,4.649-8.939,4.759-14.123a110.444,110.444,0,0,1,3.96-26.989,118.844,118.844,0,0,1,107.748-87.632c50.823-3.12,98.146,26.995,117.348,74.206a115.192,115.192,0,0,1,8.167,37.26c.278,4.935.02,9.944,6.878,12.26-3.146,1.767-8.124-.7-6.772,4.639-.232,1.395-.637,2.8.175,4.558ZM750.253,560.251c.514-.381,1.127-.969.508-1.459-.934-.74-1.295.333-1.753.907l-.3.3c-1.528,1.4-3.743,2.322-3.756,5.17,2.48-.55,3.384-2.242,4.3-3.919Zm67.261-2.521.756.754c1.733,1.731,2.853,4.2,6.535,5.235a11.662,11.662,0,0,0-5.56-5.961l-1-1c-.435-.783-1.264-1.292-1.808-.562C815.749,557.114,817.137,557.2,817.513,557.73Zm-.835-68.713c-.55.481-1.692.908-1.265,1.643.532.915,1.328.281,1.828-.423.45-.289,1.236-.418.825-1.208C817.682,488.291,817.147,488.619,816.678,489.017Zm24.882,3.192a1,1,0,0,0-.908-1.169l0-.035c2.152-.505,1.409-1.762.665-2.87-1.647-2.455-3.041-5.11-5.327-7.087-.355-1.361-2.094-.675-2.626-1.774-3.317.313-4.26,3.2-6.259,5.36,2.565.84,4.269,2.137,4.791,5.178l2.735-3.577,1.7,3.622c-4.741,1.454-.6,4.112-.713,6.17-.019.338.066,2.362,1.6,1.767a23.443,23.443,0,0,0,6.154-3.076c.775-.615-1.318-1.461-1.609-2.525Zm-93.307-2.46-1-1c-1.074-1.535-1.842-3.417-4.035-3.7-.2-.026-.679.438-.654.622.308,2.182,2.432,2.764,3.71,4.1a1.5,1.5,0,0,0,.431.224l.3.3c.592.575.917,2.017,1.985,1.242C749.7,491.025,749.054,490.142,748.252,489.749ZM818.7,571.07H818.7c-6.172,2.393,2.366,4.19.324,6.635-.383.459.52,2.1,1.637,2.629.226.108.616-.153.937-.216,3.707-.723,3.665-5.772,7.424-6.432-.669-2.147-2.578-3.306-3.943-4.89-2.543-2.952-2.433.021-3,1.419-.866,1.088-2.5-1.057-3.193.757Zm11.244-5.142c2.589-2.139,2.929,2.583,5.534,1.458,0-2.229.031-4.69-.016-7.15-.018-.927.263-2.077-1.025-2.479-1.011-.316-1.382.676-2,1.117-2.518,1.79-4.188,3.9-2.4,7.145-1.807.849-2.464-3.343-4.353-1.14-1.315,1.533.843,2.252,1.564,2.936,1.459,1.385,2.758,4.976,4.866,3.292C835.092,568.729,829.4,568.291,829.947,565.928Zm-152.4-13.3c-2.169,2.022-.494,4.736-1.243,7.052-.423,1.307-.8,3.525.558,3.927,1.276.379,3.24-.534,4.513-1.431,1.623-1.144-.231-2.361-.653-3.4a62.219,62.219,0,0,0-3.248-6.123c-2-4.218-1.475-8.713-1.468-13.156,0-1.98-.084-3.959-.14-5.939-.026-.936-.4-1.6-1.454-1.476a2.642,2.642,0,0,0-1.114.5c1.137,3.71-2.834,1.319-3.513,3.089,1.295,1.273.36,4.044,3.463,4.606.893.162,1.756,3.273-.3,4.5-1.115.665-2.08,1.175-1.715,2.5,1.071,3.889,1.425,8.018,3.515,11.719C676.531,557.048,673.9,553.494,677.55,552.631Zm166.562,68.487c6.89-2.312,10.412-9.181,16.71-12.341,2.191-1.1.836-2.528-.375-3.417-.974-.715-1.972-3.439-3.359-1.219-3.292,5.268-9.419,6.466-13.664,10.277-.434.454-1.768.54-.964,1.5.513.615,1.376.039,1.985-.425l2.405-.649q.313.361.616.73-2.093,2.472-4.184,4.944l-.045,1.136Zm-174.2-106.207a6.005,6.005,0,0,0,.722.6c-.554,1.825-2.543,3.645-1.213,5.469.936,1.282,3.206.808,4.672.371,2.619-.78,1.379-3.389,1.625-5.12.617-4.347-2.243-8.478-1.04-13,.3-1.142-1.319-1.17-2.153-1.6-1.03-.526-1.45-.14-1.59.89C670.378,506.634,668.778,510.659,669.913,514.911Zm132.517,30.632-1.153-.255.411,1.024c3.914,7.282,7.928,14.512,11.691,21.871,1.445,2.825,2.917,2.188,4.418.465,1.267-1.455,5.452-1.894,2-5.337C813.926,557.467,808.211,551.472,802.429,545.544Zm-84.045-13.9c-3.925,2.088-1.346,5.182-.84,7.587,1.858,8.826,2.1,8.838,10.035,5.444.211-.09.28-.515.424-.8-2.846-3.272-2.631-7.417-3.306-11.338-.2-1.164,1.727-3.405-1.017-3.415-2.155-.008-4.625-.678-6.468,1.189a10.637,10.637,0,0,0,1.063,1.429ZM798.693,580.7c-2.744.443-5.652.219-8.048,2.059-.758.582-2.213-.483-2.508,1.513-.709,4.8,1.207,7.161,6.162,6.716a33.713,33.713,0,0,0,10.5-2.836c1.349-.588,1.627-.863,1.274-2.319-1.465-6.04-2.4-6.43-7.037-2.611-.15.124-.531-.032-.93-.069l1-2.052c.382-.088.924-.052.649-.689A7,7,0,0,0,798.693,580.7ZM841.932,509.1c-.561.281-1.767-2.282-1.636.143.148,2.749,1.154,5.446,1.7,8.183.276,1.392.555,2.738,2.382,2.379,2.037-.4,5.36.749,5.906-1.315a16.463,16.463,0,0,0-3.426-15.432c-2.4-2.771-4.553.8-6.894,1.044-.194.02-.354.373-.526.567,1.816,2.2,1.816,2.2,2.417,4.575Zm-44.5-42.71c.226-.824.93-1.116,1.429-.583,3.747,4,4.083.751,5.453-2.119,2.319-4.858-2.624-4-4.173-5.481-1.211-1.159-3.742-1.006-5.706-1.3-8.868-1.33-9.293-.9-8.212,7.878,1.528,1.069,3.021-1.682,4.343-.169,1.987,2.274,4.361,2.235,6.94,1.758Zm4.068-52.019c1.835,1.3,4.993-.17,5.855,1.248,2.407,3.961,6.492,3.982,10,5.334,2.939,1.133,2.547-1.808,3.3-3.153.5-.9,1.1-2.331-.822-2.637-6.3-1-12.064-3.924-18.444-4.881-3.653-.548-7.061.89-10.6.1-1.3-.291-3.079-2.751-3.988.143-.79,2.516.512,4.907,3.06,5.225,3.648.455,7.481,1.178,11.064-.651A5.05,5.05,0,0,0,801.5,414.367Zm-70.755,9.051c-3.62.641-6.678,2.459-9.8,4.311-5.712,3.388-10.136,8.327-15.39,12.248a1.243,1.243,0,0,0-.043,2.1c1.77,1.7,3.115,4.633,6.1,1.033A46.925,46.925,0,0,1,732.747,428.3a36.287,36.287,0,0,0,4.169-2.289c-3.609.157-5.806.191-6.165-2.607l.348.708.375-.289Zm43.368,94.516-.124.643.574-.106-.577-.455c-8.02-8.634-17.37-15.808-26.052-23.717-8.2-7.472-8.214-7.348-13.661,2.5-1.365,2.468-1.705,3.778,1.447,5.131,11.879,5.1,23.618,10.521,35.455,15.719C771.972,518,773,519.434,774.11,517.933Zm-78.231,3.854v.336c4.487,0,8.979-.116,13.46.046,2.454.088,3.581-.491,3.569-3.228a45.305,45.305,0,0,1,2.532-14.663c.845-2.5-.1-3.172-2.081-3.862-8.916-3.105-17.845-6.178-26.679-9.5-2.136-.8-2.915-.359-3.486,1.594a113.865,113.865,0,0,0-4.622,26.414c-.106,2.142.667,2.956,2.85,2.9C686.24,521.708,691.061,521.787,695.88,521.787ZM786.1,418.88c4.54,3.921-.228,6.436-.025,9.674a172.493,172.493,0,0,1-.111,18.914c-.181,3.815.177,5.939,5.021,5.884,4.206-.048,8.481,1.358,12.629,2.478,2.486.671,3.509.035,4.314-2.329q4.4-12.918,9.144-25.715c.826-2.229,1.091-3.41-1.793-4.244A106.326,106.326,0,0,0,786.1,418.88ZM888.621,531.355c.348-2.508.485-4.232-2.714-4.208-9.473.071-18.949-.108-28.422-.308-2.1-.044-2.912.587-3.03,2.741a53.175,53.175,0,0,1-2.693,14.651c-.919,2.63-.238,3.387,2.159,4.2q12.939,4.389,25.728,9.21c2.669,1.011,3.634.485,4.453-2.241A115.08,115.08,0,0,0,888.621,531.355ZM731.8,572.627c-.4-.482-.695-.878-1.028-1.241a63.813,63.813,0,0,1-9.7-13.836c-1.123-2.171-2.345-1.13-3.635-.524-8.556,4.023-17.092,8.088-25.661,12.083-1.792.835-2.426,1.578-1.3,3.662a113.691,113.691,0,0,0,15.093,21.605c1.293,1.453,2.2,2.021,3.921.3,6.714-6.693,13.605-13.209,20.411-19.811A28.617,28.617,0,0,0,731.8,572.627Zm49.165,39.505h.458c0-4.646-.06-9.294.028-13.939.039-2.057-.1-3.282-2.806-3.415A53.975,53.975,0,0,1,764,592.159c-1.988-.671-3.247-.612-4.083,1.852-3.03,8.937-6.3,17.794-9.528,26.662-.678,1.86-.645,2.881,1.667,3.6a113.6,113.6,0,0,0,25.873,4.74c2.357.163,3.207-.414,3.093-2.926C780.817,621.441,780.967,616.783,780.967,612.133ZM849.053,492.22c.458-.215,1.209-.566,1.959-.92,5.694-2.685,11.4-5.355,17.08-8.06,11.015-5.24,11.034-5.262,4.311-15.74-2.5-3.9-4.34-8.647-10.512-7.918-1.38.163-2.742-1.192-3.6-2.452-1.263-1.862-2.276-1.234-3.538.007-5.685,5.6-11.376,11.187-17.172,16.666-1.376,1.3-1.535,2.216-.263,3.6a67.411,67.411,0,0,1,9.332,13.483C847.1,491.709,847.337,492.893,849.053,492.22ZM730.746,433.067c-.808.486-1.091.664-1.38.829-6.1,3.488-11.483,7.932-16.81,12.458-1.85,1.572-.333,2.61.654,3.632,6.589,6.827,13.254,13.582,19.773,20.475,1.307,1.382,2.134,1.715,3.589.331a65.132,65.132,0,0,1,13.413-9.486c.967-.539,2.212-.741,1.367-2.478-3.194-6.566-5.338-13.933-9.777-19.477C739.461,436.711,732.479,438.725,730.746,433.067Zm140.163,84.945.01.132c4.961-.341,9.918-.841,14.884-.956,2.507-.058,2.841-.861,2.636-3.2-.7-7.96-2.81-15.582-4.873-23.245-.76-2.821-1.92-2.663-4.157-1.766-7.369,2.957-14.818,5.713-22.237,8.543-6.3,2.4-6.232,2.385-4.585,9.146a49.3,49.3,0,0,1,1.505,8.805c.158,2.791,1.145,3.8,3.932,3.5C862.305,518.529,866.613,518.322,870.909,518.012ZM678.915,534.127a120.66,120.66,0,0,0,5.359,24.408c.749,2.255,1.917,2.031,3.656,1.358q13.223-5.12,26.5-10.106c1.688-.638,2.563-1.128,1.845-3.456a113.313,113.313,0,0,1-3.125-14.065c-.324-1.867-.828-2.453-2.776-2.311q-14.413,1.049-28.847,1.794C679.291,531.863,678.526,532.645,678.915,534.127Zm114.351,94.615A117.776,117.776,0,0,0,818,623.422c2.262-.751,1.59-1.882,1.043-3.307-2.848-7.432-5.642-14.884-8.493-22.315-2.537-6.614-2.543-6.533-9.252-4.981-3.231.747-6.526,1.258-9.817,1.689-1.8.236-2.592.822-2.448,2.8.712,9.771,1.327,19.549,1.916,29.329C791.047,628.22,791.4,629.221,793.266,628.742Zm85.408-59.755c.155-1.455-1.334-1.45-2.233-1.855-8.436-3.807-16.968-7.411-25.318-11.4-2.711-1.294-3.815-.513-4.9,1.8a42.73,42.73,0,0,1-6.784,10.359c-2.025,2.26-1.341,3.395.649,5.1q10.382,8.9,20.464,18.146c1.73,1.585,2.662,1.723,4.209-.195a109.2,109.2,0,0,0,13.182-20.406C878.162,570.09,878.367,569.638,878.674,568.987ZM778.041,440.3l-.573,0c-.128-2.318-.728-4.73-.289-6.936.985-4.947-3.1-8.486-3.166-13.1-.018-1.312-1.39-1-2.384-.876a133.95,133.95,0,0,0-21.812,4.816c-2.7.812-2.591,2.1-1.729,4.255,2.709,6.76,5.286,13.573,7.89,20.375,3.038,7.935,3.075,8.119,11.2,5.926,3.6-.974,8.863.367,10.506-2.734S778.041,444.271,778.041,440.3ZM707.3,458.271c-1.626,4.222-4.236,6.77-8.75,6.2-1.517-.19-2.107.6-2.688,1.617-2.308,4.025-4.534,8.1-6.909,12.081-1.025,1.718-.723,2.428,1.151,3.238q13.232,5.716,26.32,11.765c1.871.862,2.854.929,3.818-1.194a53.588,53.588,0,0,1,7.721-12.149c1.255-1.5,1.121-2.366-.336-3.629C720.871,470.352,714.213,464.391,707.3,458.271Zm122.4,11.425c1.543.063,2-1.166,2.725-1.972,3.537-3.949,7.131-7.854,10.517-11.93,3.134-3.773,9.48-7.335,8.682-11.257-.849-4.176-7.314-6.607-11.628-9.4-2.888-1.868-5.746-4.781-8.637.162a3.571,3.571,0,0,1-3.043,1.343c-4.34-1.014-5.231,1.983-6.4,4.936-1.034,2.614-2.272,5.147-3.417,7.717-1.414,3.171-4.3,6.57-3.851,9.456.512,3.33,5.67,3.661,8.385,5.95,1.513,1.276,3.211,2.332,4.812,3.507C828.5,468.7,829.118,469.233,829.695,469.7Zm2.44,106.452a86.891,86.891,0,0,1-7.154,5.576c-2.241,1.414-2.781,2.56-1.336,5.05,4.575,7.883,9.034,15.844,13.191,23.953,1.485,2.9,2.738,2.609,4.8,1,3.79-2.964,7.6-5.9,11.464-8.769,2.173-1.612,2.474-2.879.319-5-6.631-6.521-13.034-13.273-19.522-19.937C833.336,577.45,832.8,576.858,832.135,576.148ZM715.149,603.5c3.81,3.7,8.15,6.46,12.348,9.415,1.63,1.147,2.4.767,3.3-.911,4.642-8.61,9.34-17.191,14.162-25.7,1.021-1.8.512-2.57-1.011-3.469a24.2,24.2,0,0,1-4.032-2.914c-1.627-1.486-2.684-1.6-4.293.279C728.941,588.019,722.058,595.673,715.149,603.5Zm79.212-83.871c-.47-.618.517-1.811,1.615-2.325,9.428-4.414,18.83-8.885,28.249-13.318,11.538-5.43,11.542-5.421,3.169-15.453a7.157,7.157,0,0,1-.6-.789c-1.04-1.675-2.048-1.763-3.425-.23Q808.905,503.609,794.361,519.628Zm-8.781-4.579c.966-.7,1.029-2.245,1.5-3.552,3.7-10.3,7.578-20.551,10.925-30.968,1.066-3.32,5.436-7.177,1.654-10.279-2.819-2.312-7.512-2.208-11.536-2.423-2.092-.112-2.555.81-2.553,2.589C785.588,485.342,785.58,500.268,785.58,515.049Zm-8.507.982c1.165-1.95-.027-3.005-.539-4.1-4.429-9.448-8.755-18.951-13.509-28.234-1.671-3.263-1.649-9-5.848-9.067-3.485-.056-6.742,3.8-9.853,6.3-1.623,1.307-1.944,2.3-.336,3.946C757.019,495.179,766.969,505.552,777.073,516.031Zm-2.44,6.382c-11.58-4.179-22.62-8.184-33.673-12.148-12.2-4.375-12.521-4.148-13.4,8.951a2.583,2.583,0,0,1-.031.5c-.528,1.939.2,2.723,2.209,2.718C744.528,522.4,759.315,522.414,774.633,522.414Zm17.425,3.8c12.4,4.47,23.551,8.509,34.718,12.516,11.1,3.981,11.045,3.958,12.9-7.8.5-3.173.273-4.86-3.749-4.8C821.8,526.346,807.664,526.212,792.058,526.212Zm-18.328,5.1c-1.557-1.043-2.75.414-3.98.985q-13.287,6.167-26.477,12.543c-11.112,5.343-11.1,5.651-2.915,15.127,1.869,2.164,2.9,2.248,4.936.177,6.047-6.158,12.4-12.009,18.509-18.112C767.254,538.583,770.448,534.875,773.729,531.314Zm8.056,3.711c-1.272.835-1.42,1.982-1.8,3.036q-5.247,14.708-10.543,29.4c-3.947,10.981-3.158,12.087,8.952,12.526.33.012.659.067.989.106,1.635.192,2.425-.391,2.42-2.179C781.768,563.68,781.785,549.448,781.785,535.024Zm-.66-20.3.924-.21c-.348-5.543-.709-11.086-1.042-16.63-.539-8.97-1.014-17.943-1.649-26.906-.075-1.058.562-3.08-1.565-3.01a34.6,34.6,0,0,0-12.107,2.677c-1.822.754-.479,2.267-.142,3.43.23.8.571,1.558.866,2.334,1.889,4.966,3.766,9.938,5.673,14.9Q776.588,503.025,781.125,514.728Zm8.1-.1.87.622c1.1-1.164,2.225-2.3,3.287-3.5,6.725-7.572,13.412-15.177,20.158-22.731,7.742-8.67,7.55-9.516-2.977-14.647-2.117-1.032-3.018-.812-4.01,1.454C800.869,488.81,795.015,501.708,789.22,514.633Zm4.47,7.126c1.422,1.727,2.885,1.315,4.024,1.154,10.666-1.509,21.44-1.421,32.143-2.316,11.562-.967,11.5-1.032,8.049-12.2-.734-2.379-1.585-3.036-4.056-2.069C820.63,511.506,807.349,516.529,793.69,521.759ZM773.712,527.1l-.109-1.09c-14.4.935-28.787,1.982-43.193,2.742-5.049.266-2.59,3.866-2.077,5.239,1.138,3.045-.156,9.837,4.516,8.414C746.735,538.173,760.127,532.318,773.712,527.1Zm16.769,53.027c3.075-.717,6.143-1.463,9.226-2.14,2.342-.514,2.848-1.634,1.894-3.908-1.99-4.743-3.738-9.588-5.574-14.395-2.667-6.981-5.305-13.973-8.007-20.94-.436-1.125-.562-3.161-2.336-2.491-1.373.519-.894,2.381-.4,3.491.862,1.936.56,3.927.69,5.885.7,10.458,1.311,20.921,1.952,31.383C788.025,578.625,787.652,580.64,790.481,580.125Zm3.3-49.969c.225,2.654,1.643,3.153,2.583,4,7.412,6.637,14.878,13.214,22.3,19.841,8.568,7.651,9.163,7.538,14.38-3.005a7.869,7.869,0,0,1,.5-.859c.873-1.315.346-2.069-.952-2.647C819.826,541.8,807.072,536.093,793.782,530.156Zm-12.96,104.78c.63-2.188-.668-2.751-3.011-2.44a31.251,31.251,0,0,1-6.425.459c-2.972-.228-7.086,2.46-8.425.54-3.109-4.459-8.345-2.982-11.8-5.737-1.939-1.547-3.137-.883-3.873,1.415-.678,2.118-1.109,4.159,1.926,4.168,3.73.011,6.864,1.865,10.235,2.882,6.141,1.852,12.613.284,18.694,2.357C781.11,639.59,780.834,637.241,780.822,634.936Zm-60.428-112.6c2.692.043,3.913.894,4.434-2.585.6-4,.939-8.2,2.036-12.1.606-2.153.324-2.194-1.4-2.872-6.454-2.543-6.461-2.648-8.048,4.014a54.36,54.36,0,0,0-1.276,7.359C715.793,519.8,716,523.208,720.394,522.336Zm125.276,4.55c-.386.2-2.966-1.646-3.059.887-.173,4.729-2.712,8.93-2.6,13.716.023.991-.338,1.6.66,2.258,4.812,3.167,7.7,2.081,9.025-3.682a49.66,49.66,0,0,0,1.383-9.272C851.175,528.087,850.4,525.515,845.67,526.886ZM783.5,612.029H783c0,4.819.107,9.642-.047,14.456-.072,2.264.787,2.846,2.879,2.715,2.032-.126,3.323-.232,3.088-3.022-.807-9.591-1.283-19.209-1.923-28.814-.066-.992.542-2.431-1.5-2.4-1.975.026-2.012,1.208-2.005,2.631C783.514,602.4,783.5,607.216,783.5,612.029Zm-87.865-87.862v-.334c-4.816,0-9.636.1-14.448-.042-2.326-.068-2.815.971-2.719,2.992.087,1.818.093,3.2,2.666,3,9.6-.716,19.206-1.231,28.808-1.859,1.238-.081,2.841.2,2.86-1.851.023-2.474-1.86-1.87-3.212-1.887C704.94,524.131,700.288,524.167,695.636,524.167Zm192.843,48.151c-2.867-.519-4.58-3.611-6.4-1.472-1.457,1.708-3.3,4.23-3.66,5.907-1.561,7.366-7.125,11.691-11.45,16.892-1.878,2.258-.285,2.737.772,3.822,1.231,1.262,2.915,2.6,3.822.163,2.353-6.31,8.885-9.688,11.055-15.828C883.8,578.45,884.492,575.12,888.479,572.318Zm-172.9-73.282a1.723,1.723,0,0,0,2.085-1.3c.8-2.027-1.038-2.132-2.1-2.611-8.466-3.829-17-7.52-25.425-11.428-2.286-1.06-3.314-1.023-4.443,1.579-1.339,3.086.521,3.254,2.473,3.94,8.456,2.971,16.886,6.014,25.324,9.034C714.276,498.533,715.049,498.837,715.579,499.036Zm3.269,53.978c-.612-1.474-1.142-2.354-2.983-1.629-9.223,3.637-18.476,7.208-27.791,10.6-2.589.943-1.653,2.216-1,3.747.7,1.644,1.21,2.81,3.553,1.654,8.744-4.316,17.625-8.354,26.428-12.552C717.825,554.468,719.09,554.281,718.848,553.014ZM828.78,425.434a44.147,44.147,0,0,0,5.933,2.557c5.846,1.516,11.211,3.527,14.48,9.212a12.9,12.9,0,0,0,4.416,3.935c2.92,1.841,3.463-1.415,4.63-2.7,1.534-1.692-.444-2.1-1.565-2.5-2.121-.739-3.371-2.9-4.725-3.787C845.294,427.816,839.683,418.735,828.78,425.434Zm42.824,99.4v.336c4.663,0,9.329-.091,13.989.038,2.354.065,3.56-.267,3.508-3.161-.057-3.157-1.807-3-3.887-2.868-9.3.6-18.59,1.228-27.887,1.811-1.346.084-2.69-.177-2.516,1.976.162,2,1.455,1.871,2.8,1.87Q864.609,524.829,871.6,524.831Zm-44.46,94.088a6.778,6.778,0,0,0-.218-.773q-6.653-14.113-13.335-28.212a1.4,1.4,0,0,0-2.077-.673c-.945.482-1.664.959-1.161,2.265,3.68,9.549,7.31,19.118,10.973,28.673.5,1.3,1.363,1.8,2.654.91C825.072,620.362,826.988,620.634,827.144,618.919Zm34.546-24.441a29.909,29.909,0,0,1-2.6-1.833c-6.954-6.147-13.872-12.335-20.836-18.471-1.024-.9-2.076-2.516-3.647-.6-1.363,1.665.3,2.4,1.091,3.225q9.836,10.21,19.8,20.3c.66.67,1.121,2.419,2.609,1.1C859.188,597.238,860.129,596.113,861.69,594.478ZM732.948,473.943a8.592,8.592,0,0,0-.851-1.351c-7.128-7.431-14.225-14.893-21.445-22.234-1.735-1.764-2.481.6-3.477,1.382-1.074.848-1.934,1.856-.4,3.205q11.4,10.046,22.751,20.15c.628.556,1.318,1.113,2.14.32C732.123,474.973,732.509,474.453,732.948,473.943Zm117.569,75.43c-.4-.183-.861.889-1.21,1.757-.688,1.713.888,1.842,1.848,2.275,8.779,3.96,17.629,7.768,26.325,11.9,2.718,1.291,2.958-.262,3.813-2,1.026-2.085.466-2.809-1.65-3.511-6.616-2.193-13.152-4.63-19.714-6.984C857.117,551.8,854.316,550.762,850.517,549.373Zm-164.862,34.5c-.071.508,1.081,1.426,1.715,2.486,2.96,4.948,6.791,9.217,10.634,13.482.927,1.029,1.468,3.115,2.922,2.658a7.06,7.06,0,0,0,3.544-3.34c.926-1.749-1.151-2.473-2.154-3.207-2.674-1.958-4.735-4.56-8.2-5.816-1.7-.616-3.165-3.875-5.014-5.714,3.834-3.427-.842-5.96-1.022-8.981-.078-1.3-.521-3.42-2.326-3.219-1.685.188-4,.8-4.593,2.465-.564,1.59,1.412,2.757,2.437,4.043C684.582,579.958,687.558,580.185,685.655,583.871Zm72.813,8.016a1.3,1.3,0,0,0-.936-1.882c-1.8-.668-2.23.495-2.815,1.816-3.891,8.786-7.756,17.586-11.851,26.278-1.049,2.227-.167,2.805,1.57,3.547,2.019.862,3.3.842,4.07-1.657,1.272-4.107,2.876-8.111,4.32-12.166C754.716,602.516,756.584,597.2,758.468,591.886ZM713.7,602.211a12.886,12.886,0,0,1,.937-1.428Q724.7,589.386,734.788,578c.695-.786,1.129-1.534.1-2.51-1.233-1.168-2.019-.49-2.921.385-7.041,6.832-14.108,13.638-21.126,20.494-.709.693-2.212,1.415-.775,2.756C711.125,600.119,712.274,601.012,713.7,602.211Zm120.7-128.338c.6-.547,1.091-.976,1.561-1.429,6.92-6.663,13.8-13.363,20.778-19.969,1.655-1.568,1.923-2.528.045-4.295-2.009-1.889-3.088-1.562-4.594.4-1.711,2.226-3.674,4.259-5.54,6.365-4.393,4.961-8.813,9.9-13.166,14.893-.554.636-1.828,1.235-.915,2.417A12.589,12.589,0,0,0,834.394,473.873Zm46.8,10.564c-1.05-1.395-.421-4.98-4.338-3.053-8.641,4.252-17.368,8.328-26.087,12.418-1.163.546-2.134,1.005-1.654,2.514.622,1.957,1.882,1.259,3.148.777,9-3.432,18.009-6.82,26.99-10.291C880.163,486.451,881.729,486.383,881.2,484.437Zm-149.071-3.521a8.576,8.576,0,0,0-1.175.742c-3.406,2.994-5.293,7.115-7.588,10.873-.331.542-1.729,4.71,2.294,4.778,1.85.032,3.478,3.7,5.621-.745,1.373-2.85,4.213-5.166,4.96-8.645.22-1.026,3.171-1.029,1.379-2.786C736.017,483.564,734.557,481.652,732.128,480.916Zm33.158,98.47c-.812,3.22-3.655,5.573-2,8.483,1.465,2.572,14.581,4.755,17.045,3,2.312-1.647,1.24-4.5,1.352-6.781s-2.174-1.233-3.011-.985C773.587,584.61,769.314,583.153,765.286,579.386Zm-8.37-122.135c-.885-2.311-1.6-4.16-2.3-6.011-2.88-7.558-5.745-15.122-8.653-22.669-.439-1.139-.691-2.8-2.638-1.8-1.238.635-3.208.569-3.33,2.38-.123,1.832,1.475,1.948,2.844,1.834,2.786-.234,2.5,1.341,1.882,3.1-.41,1.167-1.706,2.019-.964,3.574,3.2,6.7,6.332,13.443,9.512,20.157a1.586,1.586,0,0,0,2.412.87C756.438,458.28,757.085,457.8,756.915,457.251Zm68.321-29.009c-4.3-3.694-4.726-3.634-6.446,1.115q-4.571,12.621-9.069,25.268c-.4,1.12-1.6,2.442.383,3.337,2.145.969,2.443-.714,3.047-2.067,2.568-5.747,5.122-11.5,7.784-17.2.958-2.053,1.419-3.742-.127-5.9-1.836-2.562-.759-3.939,2.4-3.65C823.981,429.213,824.9,429.3,825.236,428.241Zm-73.553,46.112a2.668,2.668,0,0,0-3.114-.474c-.729.264-.362,2.647-1.7,1.024-.338-.412-1.382-.746-1.167-1.67,1.783.553,2.808-2.191,3.2-1.783,2.789,2.867,5.454-.631,8.872.847l-4.054-8.54c-2.169,3.818-6.578,2.069-9.531,4.525-2.553,2.123-2.885,5.852-6.539,6.8,2.126,2.187,3.5,4.488,6.119,6C744.457,476.417,750.244,478.121,751.684,474.353Zm-59.654-13.548c-.309-2.758-.1-5.087,3.925-3.654,1.115.4,2.445.482,2.477-1.28.021-1.121.129-2.689-.513-3.268-.975-.879-2-.139-3.258.753-6.944,4.914-9.769,12.661-13.807,19.523-.777,1.32-1.534,3.969,1.744,5.349s3.265-.943,4.015-2.476c2.1-4.3.7-10.15,5.832-13.156C692.588,462.513,692.207,461.536,692.029,460.806Zm81.667-3.856c-3.131-.007-5.981,1.57-8.857,1.57-3.025,0,.5,3.454-1.793,2.742-2.16-.671-2.681.025-1.719,1.654.979,1.657.135,4.857,3.585,4.672,2.9-.156,4.707-3.289,8.1-2.483,5.105,1.211,6.022-.011,5.9-5C778.813,455.639,775.652,457.524,773.7,456.949Zm98.811-5.355c-.227,3.47-1.984,7.918.592,10.186,3.864,3.4,4.643,7.9,6.638,11.985.541,1.109.671,3.089,2.165,2.822a8,8,0,0,0,4.633-2.525c.8-1.022-.986-2.154-1.847-3.133-1.279-1.455-3.424-2.973-3.484-4.531C880.95,459.857,875.664,456.514,872.507,451.595Zm24.248,92.414c.426-2.22-.683-4.288-1.272-3.72-1.592,1.536-4.621-1.831-5.174,1.843-.734,4.878-.145,10-2.837,14.548-.511.864-2.3,2.132-.658,3.287a7.605,7.605,0,0,0,4.559,1.629c1.627-.161,1.633-2.191,1.666-3.645.03-1.314-.681-3.459-.134-3.818C897.044,551.418,895.092,546.652,896.756,544.008ZM747.137,416.168c2.99,0,6-.19,8.965.062,2.234.189,4.932-1.718,6.1-.83,3.5,2.652,6.855,1,10.261.741,3.118-.233,3.442-3.139,3.173-5-.437-3.031-2.363-.561-3.7-.356a17.728,17.728,0,0,1-3.943.259C760.544,410.495,753.8,413.15,747.137,416.168Zm69.908,217.6c-7.657-2.176-15.3-3.055-23.126-1.693-1.971.343-2.734.434-2.7,2.8.051,4.061,2.44,3.744,4.9,3.034,2.174-.628,4.993-3.211,6.127-2.545C807.96,638.731,812.109,633.758,817.045,633.771Zm-52.609-85.966c-5.06,5.7-10.169,11.572-15.41,17.322-2.506,2.75.466,3.21,1.635,4.426,1.786,1.86,2.9,1.24,4.023-.878,3.336-6.314,6.853-12.532,10.233-18.822C765.182,549.362,766.289,548.513,764.436,547.805Zm-10.671,40.821-1.568-.776q-7.862,14.272-15.733,28.539c-1.017,1.837.779,1.832,1.545,2.363,1.151.8,2.164.527,2.764-.867,1.05-2.438,2.128-4.863,3.207-7.288Q748.868,599.61,753.765,588.626ZM784,440.427h.167c0-3.327-.028-6.654.012-9.98.02-1.623.019-2.868-2.315-2.657-1.863.168-3.1.176-2.91,2.652.521,6.794.847,13.6,1.188,20.411.069,1.372.409,2.1,1.971,2.176,2.172.109,1.878-1.313,1.883-2.61C784.007,447.088,784,443.757,784,440.427ZM712.746,606.235a33.068,33.068,0,0,0-3.32,3.876c-.931,1.463.881,1.8,1.527,2.587,1.545,1.878,5.1.761,5.87,3.546,1.018,3.693,4.7,3.734,7.066,5.494,1.369,1.017,2.377-.481,1.872-2.112-1.949-6.3-8.842-8.035-12.18-13.072C713.512,606.448,713.3,606.438,712.746,606.235Zm179.136-96.8c-.122,2-.318,3.643-.3,5.289.027,2.588,2,2.2,3.585,2.052,1.381-.133,3.593-.164,2.787-2.341-1.758-4.751-.357-9.845-1.951-14.581-.373-1.108-.6-1.927-1.9-1.258-.713.368-2.2.056-1.7,1.707C893.4,503.529,890.767,506.545,891.883,509.436Zm-66.82-37.722.148-1.35c-1.023-.8-2.013-1.644-3.076-2.384-1.362-.948-2.743-1.882-4.186-2.7-4.631-2.616-5.772-1.97-8.152,3.269-1.15,2.533-.9,3.2,1.877,3.816C816.361,473.415,820.4,469.778,825.063,471.714Zm-92.585,96.547c1.8-4.45-1.365-8.149-.579-12.4,1.009-5.448.171-5.405-5.016-3.565-3.776,1.34-2.219,3.589-1.636,5.416C726.561,561.836,729.43,565.008,732.478,568.261Zm85.839,23.509-1.308.549q5.791,12.228,11.573,24.46c.47,1,.966,1.715,2.229,1.167s1.166-1.34.6-2.372Q824.841,603.683,818.316,591.77ZM745.6,569.039c-1.514,1.719-2.882,3.378-4.365,4.926a2.347,2.347,0,0,0,.154,3.441c2.144,1.1,3.772,3.511,6.294,3.325.8-.059,1.435-2.159,1.8-3.658C750.424,573.188,747.326,571.635,745.6,569.039Zm91.41-3.606a20.819,20.819,0,0,0,6.693-11.984c.406-2.206-3.4-2.514-5.388-3.305-2.224-.883-2.036,1.385-1.728,2.376C837.857,556.616,835.668,560.813,837.007,565.433ZM733.99,569.641l1.817,1.4q1.783-2.62,3.565-5.241c.416-.612,1.634-1.369.741-1.954-3.438-2.252-3.179-7.215-6.395-9.024-3.149,2.537,1.714,4.006.543,6.29C732.782,564,734.464,566.811,733.99,569.641Zm-62.278-39.516c1.341-.356,4.054.9,3.789-2.565-.14-1.836.736-4.362-2.627-4.042-1.715.163-4.515-1.019-3.9,2.555C669.242,527.656,667.717,530.516,671.712,530.125ZM811.264,632.151q4.873,0,9.747,0c1.773,0,2.675-.939,1.69-2.438-.689-1.05.052-4.234-2.729-2.8C817.087,628.4,813.641,628.613,811.264,632.151Zm-24.975.061c-2.807-.606-3.548.682-3.545,3.442,0,2.644.895,3.382,3.411,3.241,2.029-.114,3.791-.217,3.232-2.844C789.029,634.372,790.261,631.173,786.288,632.211ZM898.495,522.256c0-2.063.41-4.119-2.681-3.533-1.935.367-4.407-.64-3.944,3.171.293,2.415.623,3.4,3.31,3.375C897.707,525.244,899.017,524.769,898.495,522.256Zm-217.6-35.43c2.116-.73,2.491-3.026,2.707-4.562.366-2.6-2.584-2.887-4.107-3.089-2.992-.4-2.988,2.956-3.158,4.511C676.07,486.1,679.232,485.493,680.893,486.827Zm210.132,78.04c-.911-2.272-3.343-2.564-4.9-2.565-2.249,0-2.814,2.994-2.752,4.448.1,2.394,3.213,3.085,4.829,2.956C890.2,569.546,889.894,566.511,891.024,564.866ZM707.1,609.324c1.295-1.561,3.309-2.923,3.508-4.512.224-1.793-1.985-3.576-3.66-3.889-2.028-.379-3.826,2.025-4.066,3.459C702.512,606.572,705.3,607.448,707.1,609.324Zm-21.76-40.6c-1.649-1.188-.761-4.448-3.488-4.12-1.579.19-4.5.243-4.266,2.78.147,1.626.568,4.474,2.934,4.492A5.253,5.253,0,0,0,685.336,568.721Zm60.843,58.126c-.8-2.525-3.135-2.932-4.78-2.867-2.284.09-2.925,2.951-2.887,4.458.056,2.244,2.891,2.563,4.6,2.681C745.954,631.316,744.726,628.041,746.178,626.847ZM863.5,605.633c2.04-.871,3.9-2.336,4.333-4.04.549-2.174-2.069-3.679-3.594-4.082-2.07-.547-3.617,1.953-3.975,3.59C859.829,603.115,862.583,603.924,863.5,605.633ZM782.267,482.662l1.257-.105c0-4.391-.012-8.781.01-13.172,0-.9-.129-1.764-1.2-1.7-1.022.057-1.187.909-1.112,1.825C781.586,473.889,781.922,478.276,782.267,482.662ZM831.42,626.9c-1.817-.808-.758-4.276-3.492-3.876-1.535.225-4.489.4-4.106,3.077.213,1.488-.033,4.483,2.857,4.063C828.37,629.917,830.606,629.607,831.42,626.9ZM890.2,480.209c-1.643-.66-.618-4.06-3.236-3.317-1.477.419-4.543.346-4.08,3.1.237,1.413.357,4.344,2.535,3.923C886.983,483.616,889.691,483.231,890.2,480.209Zm-42.876,44.248c.944-.968,4.325,1.5,4.241-1.515-.079-2.841-3.157-1.049-4.9-1.242a19.144,19.144,0,0,0-3.476.2,1.108,1.108,0,0,0-1.15,1.277,1.179,1.179,0,0,0,1.206,1.271C844.411,524.49,845.576,524.457,847.328,524.457Zm44.558,6.357c.909,1.183-1.4,3.747,1.764,4.116A3.569,3.569,0,0,0,897.9,531.8c.765-3.537-2.768-1-3.474-2.34-.44-.834.915-2.978-1.572-2.17C891.067,527.872,892.141,529.527,891.885,530.814ZM744.106,417.238c1.9,5.925,4.22,6.129,9.7,1.124A16.628,16.628,0,0,0,744.106,417.238Zm40.737,164.078a22.66,22.66,0,0,0-1.3,9.259c.006,1.028.638,1.441,1.6,1.394.937-.046,1.7-.49,1.547-1.488C786.266,587.71,786.967,584.69,784.843,581.316Zm82.429-128.89c.836-.512,3.153,1.273,2.987-1.332-.106-1.656-.473-3.593-3.053-3.635-2.059-.034-2.5.933-2.383,2.675C864.918,451.594,864.649,453.3,867.272,452.426Zm-39.18,19.785c-3.8.814-7-1.065-8.835,1.255-1.036,1.312,1.22,5.3,2.3,5.217C824.386,478.467,825.6,475.451,828.092,472.211ZM720.236,527.292c1.294-.838,4.839.577,4.544-1.334-.438-2.828-4.04-1.258-6.236-1.737-1.218-.266-2.968-.31-2.627,1.747C716.367,528.689,718.477,526.967,720.236,527.292Zm100.422-4.057-.03.935q8.633,0,17.266,0c.778,0,1.84.261,1.962-.831.173-1.546-1.076-1.281-2.014-1.221Q829.249,522.66,820.658,523.235Zm-36.167,38.334v18.51C786.468,573.893,784.764,567.836,784.491,561.569ZM780.881,460.6c.725,1.29-1.018,4.6,1.317,4.577,3.161-.026,1.114-3.351,1.59-5.165a7.183,7.183,0,0,0-.045-2.937c-.171-1-1.041-1.089-1.9-1.019a1.06,1.06,0,0,0-1.126,1.242C780.77,458.284,780.815,459.268,780.881,460.6Zm-18.008,119.01c.106-.526-.2-1.609-1.078-1.4-2.5.6-2.241,3.288-3.179,5.042-.544,1.016-2.248,2.386-.27,3.675a1.317,1.317,0,0,0,2.032-.561,3.483,3.483,0,0,0,.253-.416C761.341,583.963,762.042,581.97,762.873,579.613Zm76.641-34.132c-1.3-.781-1.873.5-1.645.967,1.345,2.75,4.533,2.7,6.79,4.116,1.311.823,2.181-.79,1.989-1.26C845.354,546.144,841.774,546.921,839.514,545.48ZM707.1,446.7c-1.323-1.181-2.562-2.894-4.219-3.551-1.1-.437-2.18,1.278-2.308,2.655-.254,2.729,2.427,2.264,3.8,3.044C705.489,449.481,706.353,448.212,707.1,446.7Zm51.082,14.446c-2.411.632-2.575,1.648-2.008,2.9.682,1.5,1.368,3.01,2.168,4.452.426.767.6,2.123,2,1.629,1.824-.641.637-1.934.382-2.846-.443-1.583-1.187-3.079-1.757-4.63C758.671,461.822,758.349,461.112,758.184,461.146Zm-28.949,40.72c-1.127-1.8-3.26-2.022-5-2.814-1.121-.511-3.22-2.361-3.6.006-.574,3.59,3.394,2.376,5.18,3.544.752.492,2.3,1.868,3.269-.151A3.418,3.418,0,0,0,729.235,501.866ZM806.92,577.8c-.329.176-1.143.477-1.116.617a20.517,20.517,0,0,0,3.113,8.1c.469.665,1.568-.044,2.011-.748C811.545,584.79,808.142,577.942,806.92,577.8Zm19.5-95.091c.841-1.105,2.042-2.489,3.01-4.02.66-1.044,3.448-2.138,1.428-3.271-3.4-1.906-3.7,2.583-5.675,3.85-.82.526-2.024,1.5-.607,2.748A9.472,9.472,0,0,0,826.423,482.711ZM808.658,460.88a1.476,1.476,0,0,0-1.687,1.379c-.5,2.365-2.41,4.383-1.764,7.006.07.283,1.034.681,1.161.564,2.022-1.855,2.492-4.554,3.6-6.908C810.528,461.732,809.875,461.061,808.658,460.88ZM741.446,482.9c.059-.853-5.112-6.447-5.919-6.2-.661.2-1.719,1.27-1.627,1.446,1.39,2.663,3.788,4.351,6.277,5.853C740.828,484.388,741.235,483.527,741.446,482.9Zm2.012,42.966c-5.385-.207-10.808-2.505-16.079-.691l.046,1.537Zm-67.549-33.126c.857.161-1.175,2.262,1.256,2.015,2.243-.228,2.8-1.7,3.23-3.567.477-2.078-1.005-1.533-1.989-1.676C676.106,489.175,675.592,490.459,675.909,492.736Zm61.847,81.038c.879-.023,6.318-5.8,6.134-6.353a2.509,2.509,0,0,0-1.174-1.361c-.57-.269-6.75,5.729-6.454,6.246A6.8,6.8,0,0,0,737.756,573.774Zm-7.681-26.132c-.234-.313-.617-1.02-.75-.975a77.969,77.969,0,0,0-7.821,2.864c-.859.393-.325,1.709.358,2.035,2.135,1.022,3.615-.831,5.3-1.583C728.235,549.507,729.834,549.463,730.075,547.643Zm36.72,17.451c-1.76,3.773-3.042,6.552-4.355,9.315-.31.653-.431,1.2.278,1.658,1.14.736,1.519-.27,1.71-.933C765.268,572.212,767.264,569.585,766.794,565.094Zm79.67-67.08c-.289-.338-.777-1.246-1.056-1.186a16.062,16.062,0,0,0-7.747,3.78c-.126.117.2,1.117.456,1.185,2.425.644,4.23-1.181,6.373-1.721C845.467,499.824,846.366,499.447,846.464,498.013ZM735.29,627.955c1.993-.589,2.135-2.494,2.592-3.925.646-2.023-1.33-1.768-2.465-2.2-2.238-.86-2.9,1.106-2.981,2.276C732.314,625.817,734.132,626.762,735.29,627.955Zm26.219-155.777c-.034,4.311,2.447,7.656,4.284,11.249C765.741,479.15,764.01,475.517,761.509,472.179Zm72.8,154.873c.845-.859,2.842-.674,2.006-2.242-.8-1.5-.686-4.188-3.561-3.776-.8.114-1.844.519-1.353,1.51C832.178,624.116,832.276,626.267,834.306,627.052Zm-9.433-121.573c5.345,1.175,7.889-1.376,10.825-2.865C831.9,501.761,829.433,504.529,824.873,505.479ZM890,494.124c0-1.588.062-3.179-.022-4.762-.054-1.014.542-2.539-1.4-2.5-.809.016-2.036-.086-2.339.362-.767,1.133.331,2.181.865,3.128C887.848,491.668,889.208,492.589,890,494.124ZM740.6,506.915c-6.85-4.136-6.951-4.162-9.689-2.638C733.894,505.475,736.478,507.145,740.6,506.915Zm59.693-26.2c2.989-1.5,3.588-4.378,4.8-6.882.3-.616.929-1.582-.355-1.906-.962-.243-1.408.45-1.707,1.294C802.139,475.731,801.207,478.221,800.292,480.718Zm91.208,96.3c-5.819,3.026-1.787,5.085,0,7.036Zm-214.234,2.3v8.708C678.941,585.109,682.728,582.71,677.267,579.316ZM743,422.511c-.4-1.878.108-4.152-2.218-4.832-.815-.238-1.81.379-1.941,1.667C738.544,422.308,741.329,421.7,743,422.511Zm120.209,19.261c-.669-1.244-1.652-2.656-2.569-2.112a12.212,12.212,0,0,0-3.6,3.9c-.3.457.874,1.782,1.551,1.181C859.99,443.5,862.5,443.867,863.212,441.772ZM805.72,575.737c-.365-3.3-1.293-6.343-4.176-8.5C802.805,570.13,802.629,573.675,805.72,575.737ZM739.854,543.13c-3.047-.251-5.451,1.088-7.766,2.633-.08.053.33,1.2.485,1.193,2.59-.106,4.552-1.81,6.8-2.807C739.586,544.055,739.641,543.6,739.854,543.13Zm79.92-56.495c2.027-.278,3.094-1,3.161-2.708.009-.23-.4-.706-.533-.678C820.84,483.57,819.938,484.518,819.775,486.635Zm-68.065,70.472c-.443.171-.912.374-.592.955a.805.805,0,0,0,.737.252c.366-.128,1.01-.233.669-.872C752.418,557.243,751.992,557.214,751.709,557.108Z" transform="translate(-659.742 -353.727)"/>
  <path class="cls-3" d="M1071.474,669.71c-7.286,9.922-17.633,12.908-26.483,7.643-9.5-5.652-14.386-19.443-10.714-31.412,3.332-10.863,10.189-18.923,18.247-25.711,23.088-19.453,61.217-21.667,86.007-5.3,12.8,8.454,19.779,20.981,21.321,37.182a29.827,29.827,0,0,1-5.784,21.012c-5.846,7.878-13.768,8.5-21.552,3.043-12.041-8.436-24.839-14.85-39.605-14.524-6.1.135-11.482,2.872-17.047,5.03a4.683,4.683,0,0,1-.464-.483.345.345,0,0,1,.063-.3c5.763-4.185,11.658-8.1,18.291-10.384,11.007-3.79,21.321-2.938,30.449,5.708.577.547,1.131,1.509,2.078.61.276-.623-.115-1-.447-1.327-6.943-6.85-15.008-9.936-24.277-8.649-11.053,1.534-20.43,7.294-29.173,14.569a7.605,7.605,0,0,0-2.126,2.043C1069.427,670.088,1070.737,669.666,1071.474,669.71Z" transform="translate(-659.742 -353.727)"/>
  <path d="M1054.017,681.425a19.021,19.021,0,0,1-9.792-2.782c-10.218-6.078-15.218-20.635-11.383-33.141,3.006-9.8,8.953-18.194,18.715-26.419,23.647-19.923,62.214-22.3,87.8-5.4,12.988,8.575,20.386,21.458,21.988,38.291a31.431,31.431,0,0,1-6.072,22.049c-6.092,8.209-14.923,9.47-23.617,3.378-14.457-10.13-26.407-14.523-38.712-14.253-4.7.1-8.95,1.845-13.452,3.688-1.026.42-2.053.841-3.086,1.241l-.911.354-.8-.794a4.581,4.581,0,0,1-.5-.541,1.542,1.542,0,0,1-.1-.149q-.379.309-.762.628c-.19.158-.393.314-.6.471-.1.075-.2.15-.291.226l1.86.111-1.631,2.221C1067.489,677.673,1060.76,681.425,1054.017,681.425Zm45.844-75.819c-16.905,0-34.011,5.358-46.37,15.772-9.3,7.835-14.951,15.78-17.78,25-3.447,11.243.966,24.281,10.048,29.684,7.594,4.516,16.506,2.316,23.17-5.546a1.954,1.954,0,0,1-.135-.185,2.578,2.578,0,0,1,.126-2.556,6.455,6.455,0,0,1,2-2.117c.172-.132.343-.263.5-.4,10.577-8.8,20.086-13.537,29.927-14.9,9.5-1.325,18.1,1.73,25.537,9.067a2.571,2.571,0,0,1,.765,3l-.121.273-.217.205a2.441,2.441,0,0,1-1.844.78,3.01,3.01,0,0,1-2.082-1.163c-.072-.078-.144-.155-.215-.224-7.993-7.571-17.455-9.331-28.931-5.381a51.269,51.269,0,0,0-10.154,4.927,29.42,29.42,0,0,1,8.79-1.706c16.66-.356,30.392,7.714,40.5,14.8,7.416,5.2,14.337,4.233,19.487-2.708a28.478,28.478,0,0,0,5.5-19.978c-1.512-15.885-8.461-28.021-20.654-36.071C1126.944,609.079,1113.466,605.605,1099.86,605.605Z" transform="translate(-659.742 -353.727)"/>
</svg>
