<svg id="Layer_1" data-name="Layer 1" xmlns="http://www.w3.org/2000/svg" viewBox="0 0 406 235.5">
  <defs>
    <style>
      .cls-1 {
        fill: #fff;
      }
    </style>
  </defs>
  <title>denver</title>
  <polygon points="0 154 29 108 49 104 58 85 76 79 82 65 83 54 96 21 108 43 120 40 131 60 160 76 196 20 208 4 215 13 226 27 226 46 248 68 255 41 277 25 287 0 305 31 333 73 355 98 373.605 126.938 392.605 152.938 406 185 406 220 0 223 0 154"/>
  <path class="cls-1" d="M844.9,464.566,839,477l3,14-7,14H824l-6,15v9l21-9,14-16,6-15,3,13,5,1,6-2,3-12,11,5,5,7,3-4,5.1-7.322L913,499l13,9,6-9,6-10v-9l9-15,13-3v16l3,2,8-5,5-5,7,11,11,7h5l8,20,16-13,5-14-5-10,11-6s1-16,7-6l6,10,6-3,8-1,5,2,4-1-24.627-40.636L1037,446l-25,36-44.685-52.023L926,494l-23-6-15-5-11-20-11,3-13-22Z" transform="translate(-757 -423)"/>
  <path d="M817.5,529.758l.036-9.944,6.126-15.314h11.029l6.783-13.567-3-13.994,5.964-12.572,8.47-21.5,13.327,22.553,11.012-3,11.1,20.173,14.814,4.938,22.618,5.9,41.483-64.282.436.508,44.264,51.532,24.6-35.423,8.727-21.507,25.5,42.068-4.814,1.2-5.031-2.012-7.786.973-6.338,3.169-6.238-10.4c-1.288-2.147-2.444-3.223-3.263-3.021-1.672.407-2.61,5.611-2.81,8.795l-.018.275-10.818,5.9,4.88,9.759-5.119,14.333-16.636,13.517L998.661,488.5h-4.807l-11.276-7.231-6.665-10.474-4.648,4.629-8.273,5.171-3.491-2.328V462.628l-12.181,2.811-8.819,14.7v9l-6.071,10.119-6.295,9.443-13.418-9.29-12.492-9.03-4.813,6.9-3.42,4.561-5.319-7.447-10.332-4.7-2.921,11.684-6.386,2.128-5.447-1.089-2.714-11.759-5.5,13.662L839.3,520.415l-.1.044Zm1-9.662v8.146l20.2-8.657,13.869-15.85,6.561-16.4,3.286,14.241,4.553.911,5.614-1.872,3.079-12.316,11.668,5.3,4.681,6.553,2.59-3.453,5.385-7.725,13.308,9.62,12.573,8.7,5.718-8.577,5.916-9.861v-9l9.181-15.3,13.819-3.189v16.361l2.509,1.672,7.678-4.8,5.4-5.4,7.275,11.432,10.783,6.862h5.193l7.873,19.684,15.364-12.483,4.881-13.667-5.12-10.241,11.184-6.1c.127-1.691.821-8.763,3.552-9.428,1.327-.324,2.757.812,4.356,3.478l5.762,9.6,5.747-2.842,8.129-1.016,4.969,1.988,3.186-.8-23.759-39.2-8.051,19.81-25.369,36.531-44.67-52.005-41.148,63.764-23.35-6.091-15.218-5.071-10.9-19.827-10.988,3L853.09,445.135l-7.74,19.645-5.826,12.281,3,14.006L835.309,505.5H824.338Z" transform="translate(-757 -423)"/>
  <path class="cls-1" d="M771,641l56-100,28-17,11,15,1,12,20-2,13-15,10-18,8,10,14,3,2,4,6,8,9,4,4,6h7l6,5,4,10,9-10,15-7,6-9,5-6,15-8,7-6,10-15,14,8,6.5,10.5s-.5,3.135,12.5,9.318S1080,538,1083,539l3,1,7,16,10,20,9,10-1,18,3,12,9,6,6,26-361,4Z" transform="translate(-757 -423)"/>
  <path d="M767.343,652.507l3.221-11.751,56.064-100.115,28.5-17.306,11.354,15.483.97,11.634,19.3-1.93,12.835-14.811,10.337-18.606,8.354,10.443,14.061,3.013,2.107,4.215,5.875,7.819,9.014,4.006,3.932,5.9h6.914l6.236,5.2,3.749,9.371,8.622-9.521,14.873-6.94,5.923-8.884,5.181-6.164,14.951-7.974,6.906-5.919,10.221-15.331,14.516,8.294,6.665,10.766-.029.184h0s.068,3.008,12.221,8.787c6.508,3.1,9.046,4.411,10.266,5.042a12.4,12.4,0,0,0,2.678,1.118l3.211,1.07,7.089,16.2,9.959,19.916,9.094,10.1-1.007,18.132,2.935,11.739,9,6,6.185,26.8Zm4.123-11.315-2.81,10.3,359.716-3.986-5.815-25.2-9-6-3.064-12.261,0-.075.988-17.793-8.937-9.956-10-20-6.922-15.819-2.789-.93a13.2,13.2,0,0,1-2.822-1.178c-1.214-.629-3.742-1.939-10.234-5.027-11.543-5.49-12.707-8.727-12.783-9.623l-6.36-10.275-13.484-7.706-9.832,14.714-7.09,6.062-14.914,7.954-4.937,5.925-6.046,9.073-.126.06L979.3,556.41l-9.47,10.521L965.583,556.3l-5.764-4.8h-7.086l-4.068-6.1-8.986-3.994-6.078-8.1-1.939-3.861-13.94-2.987-7.646-9.557-9.7,17.433-13.13,15.15-20.7,2.07-1.03-12.366-10.646-14.517-27.5,16.694Z" transform="translate(-757 -423)"/>
  <polygon points="210 135.25 203.5 125.5 188.5 122.5 155.952 93.689 134.717 117.557 114.09 125.247 104.5 115.5 101.305 102.507 65.5 122.5 65.5 125.247 74.5 122.5 73.5 134.5 87.5 128.5 92.5 128.5 101.5 122.5 104.5 128.5 114.5 134.5 123.5 129.5 136.5 122.5 145.5 128.5 158.5 117.5 166.5 119.5 170.5 129.5 196.5 129.5 202.5 141.5 207.5 150.5 210 150.5 210 135.25"/>
  <path class="cls-1" d="M967.5,574h-3.294l-5.143-9.257L953.191,553H927.162l-4.031-10.077-7.5-1.876-13.092,11.078-9.063-6.042-12.736,6.857-9.247,5.137-10.373-6.224-2.812-5.623L849.651,552H844.6l-14.67,6.287,1.008-12.094L822,548.923v-3.717l.256-.143,36.378-20.312,3.318,13.5,9.267,9.418,20.207-7.533,21.484-24.148,32.821,29.052,15.071,3.015,6.7,10.048Zm-2.706-1H966.5V558.4l-6.3-9.452-14.929-2.985-.1-.09-32.175-28.479-20.986,23.588-21.046,7.846-9.914-10.076-3.071-12.489L823,545.794v1.777l9.06-2.765-.992,11.906L844.5,551h4.849l9.345-6.23,3.188,6.377,9.627,5.776,8.748-4.86,13.27-7.146,8.937,5.958,12.908-10.922,8.5,2.125L927.838,552h25.971l6.138,12.276Z" transform="translate(-757 -423)"/>
  <path d="M1003.1,595.623c-.543,16.089.715,33.407,1.077,50.79.145,6.974-1.013,8.507-4.176,8.059-4.983-.706-9.986-.9-14.981-1.239-1.615-.109-2.754-.091-2.543-4.782.439-9.793.493-19.663.567-29.506.037-4.9.029-9.372,3.452-9.238,1.381.054,1.516-1.914,1.44-4.05-.073-2.043-.7-3.149-1.629-2.579-3.38,2.086-3.04-2.456-3.094-6.446-.048-3.611-.266-7.233-.171-10.826.09-3.434.54-5.041,2.951-4.391,3.584.967,1.71-5.443,1.893-8.515.191-3.224,1.325-9.154-2.311-7.816-2.386.878-2.951-.5-2.959-4.789-.01-4.835,1.654-4.011,3.092-3.976,4.332.106,8.666.54,12.995.378,3.324-.124,4.739,1.962,4.483,9.092C1002.84,575.238,1003.1,584.768,1003.1,595.623Zm-6.076-5.653c-.017-3.279-.29-5.241-1.657-4.7-1.53.6-3.577.195-3.876,4.507-.218,3.138,1.215,3.9,2.322,3.412C995.055,592.629,997.012,593.308,997.019,589.97Z" transform="translate(-757 -423)"/>
  <path class="cls-1" d="M1000.907,655.045a7.072,7.072,0,0,1-.98-.077c-3.906-.554-7.9-.8-11.761-1.034-1.062-.065-2.123-.13-3.184-.2-2.05-.136-3.223-.557-3.009-5.3.417-9.328.487-18.877.556-28.111l.011-1.542c.028-3.879.053-7.229,1.661-8.765a3.078,3.078,0,0,1,2.31-.8.522.522,0,0,0,.436-.153c.584-.582.512-2.613.484-3.379-.054-1.535-.42-2.13-.606-2.229-.024-.014-.089-.048-.26.059a2.426,2.426,0,0,1-2.493.4c-1.334-.74-1.344-3.233-1.355-6.12,0-.384,0-.768-.008-1.147-.017-1.263-.055-2.527-.093-3.792-.068-2.313-.14-4.707-.078-7.055.062-2.33.291-3.919,1.247-4.632a2.61,2.61,0,0,1,2.333-.228c.731.194.982-.018,1.067-.087.748-.631.527-3.009.35-4.919a21.828,21.828,0,0,1-.153-3.057c.028-.473.076-1,.126-1.558.193-2.132.458-5.051-.469-5.763a1.36,1.36,0,0,0-1.3,0,2.61,2.61,0,0,1-2.4-.029c-1.017-.707-1.224-2.524-1.229-5.228,0-2.166.307-3.419,1.007-4.061a2.548,2.548,0,0,1,2.1-.451c.168.016.336.031.5.035,1.54.038,3.081.117,4.622.2,2.738.141,5.569.288,8.342.182a4.247,4.247,0,0,1,3.313,1.083c1.331,1.33,1.852,3.96,1.688,8.526-.234,6.516-.185,13.107-.131,20.086.023,3.141.048,6.371.048,9.729v.017c-.358,10.623.061,21.571.5,33.161.221,5.758.449,11.711.572,17.6.094,4.544-.362,6.837-1.576,7.913A3.209,3.209,0,0,1,1000.907,655.045Zm-14.565-44.84a2,2,0,0,0-1.45.529c-1.3,1.242-1.326,4.549-1.352,8.049l-.011,1.541c-.068,9.244-.139,18.8-.558,28.149-.185,4.111.586,4.162,1.984,4.255,1.152.077,2.212.142,3.271.207,3.882.237,7.895.483,11.841,1.042a2.791,2.791,0,0,0,2.365-.409c.943-.836,1.325-3.039,1.24-7.144-.122-5.883-.351-11.832-.571-17.585-.444-11.606-.865-22.569-.506-33.226,0-3.352-.024-6.577-.048-9.712-.054-6.99-.1-13.592.131-20.129.152-4.209-.291-6.682-1.394-7.783a3.2,3.2,0,0,0-2.57-.791c-2.817.1-5.67-.041-8.431-.184-1.531-.078-3.063-.157-4.6-.194-.187,0-.376-.021-.566-.039-.634-.056-1.039-.072-1.329.192-.457.418-.687,1.535-.683,3.321s.1,3.92.8,4.409c.291.2.776.173,1.485-.088a2.253,2.253,0,0,1,2.25.142c1.364,1.046,1.095,4.021.856,6.646-.049.545-.1,1.064-.124,1.526a21.5,21.5,0,0,0,.15,2.905c.221,2.364.447,4.81-.7,5.776a2.067,2.067,0,0,1-1.972.287,1.716,1.716,0,0,0-1.476.065c-.667.5-.8,2.146-.845,3.855-.062,2.32.01,4.7.078,7,.038,1.27.075,2.539.093,3.808,0,.383.007.771.008,1.157.009,2.136.02,4.794.841,5.25.374.208,1.014-.091,1.482-.38a1.223,1.223,0,0,1,1.258-.089c.863.462,1.093,1.927,1.134,3.075.06,1.679.007,3.341-.778,4.123a1.564,1.564,0,0,1-1.181.444Zm6.844-16.382a1.829,1.829,0,0,1-1.056-.336c-.61-.427-1.3-1.424-1.143-3.749.27-3.892,2-4.337,3.383-4.7a7.135,7.135,0,0,0,.81-.242,1.3,1.3,0,0,1,1.274.083c.871.591,1.051,2.312,1.065,5.084v0c-.006,2.958-1.531,3.24-2.646,3.447a3.923,3.923,0,0,0-.861.223A2.039,2.039,0,0,1,993.186,593.823Zm2.588-8.146a.636.636,0,0,0-.229.054,7.941,7.941,0,0,1-.925.279c-1.3.335-2.415.624-2.635,3.8-.1,1.43.162,2.473.718,2.861a.9.9,0,0,0,.9.06,4.723,4.723,0,0,1,1.086-.292c1.059-.2,1.823-.338,1.828-2.465,0-.955-.021-3.849-.627-4.259A.188.188,0,0,0,995.773,585.678Z" transform="translate(-757 -423)"/>
  <path d="M1032.1,595.623c-.543,16.089.715,33.407,1.077,50.79.145,6.974-1.013,8.507-4.176,8.059-4.983-.706-9.986-.9-14.981-1.239-1.615-.109-2.754-.091-2.543-4.782.439-9.793.493-19.663.567-29.506.037-4.9.029-9.372,3.452-9.238,1.381.054,1.516-1.914,1.44-4.05-.073-2.043-.7-3.149-1.629-2.579-3.38,2.086-3.04-2.456-3.094-6.446-.048-3.611-.266-7.233-.171-10.826.09-3.434.54-5.041,2.951-4.391,3.584.967,1.71-5.443,1.893-8.515.191-3.224,1.325-9.154-2.311-7.816-2.386.878-2.951-.5-2.959-4.789-.01-4.835,1.654-4.011,3.092-3.976,4.332.106,8.666.54,12.995.378,3.324-.124,4.739,1.962,4.483,9.092C1031.84,575.238,1032.1,584.768,1032.1,595.623Zm-6.076-5.653c-.017-3.279-.29-5.241-1.657-4.7-1.53.6-3.577.195-3.876,4.507-.218,3.138,1.215,3.9,2.322,3.412C1024.055,592.629,1026.012,593.308,1026.019,589.97Z" transform="translate(-757 -423)"/>
  <path class="cls-1" d="M1029.907,655.045a7.072,7.072,0,0,1-.98-.077c-3.906-.554-7.9-.8-11.761-1.034-1.062-.065-2.123-.13-3.184-.2-2.05-.136-3.223-.557-3.009-5.3.417-9.328.487-18.877.556-28.111l.011-1.542c.028-3.879.053-7.229,1.661-8.765a3.088,3.088,0,0,1,2.31-.8.518.518,0,0,0,.436-.153c.584-.582.512-2.613.484-3.379-.054-1.535-.42-2.13-.606-2.229-.024-.014-.089-.048-.26.059a2.426,2.426,0,0,1-2.493.4c-1.334-.74-1.344-3.233-1.355-6.12,0-.384,0-.768-.008-1.147-.017-1.263-.055-2.527-.093-3.792-.068-2.313-.14-4.707-.078-7.055.062-2.33.291-3.919,1.247-4.632a2.611,2.611,0,0,1,2.333-.228c.731.194.982-.018,1.067-.087.748-.631.527-3.009.35-4.919a21.828,21.828,0,0,1-.153-3.057c.028-.473.076-1,.126-1.558.193-2.132.458-5.051-.469-5.763a1.36,1.36,0,0,0-1.3,0,2.61,2.61,0,0,1-2.4-.029c-1.017-.707-1.224-2.524-1.229-5.228,0-2.166.307-3.419,1.007-4.061a2.549,2.549,0,0,1,2.1-.451c.168.016.336.031.5.035,1.54.038,3.081.117,4.622.2,2.737.141,5.57.288,8.342.182a4.243,4.243,0,0,1,3.313,1.083c1.331,1.33,1.852,3.96,1.688,8.526-.234,6.516-.185,13.107-.131,20.086.023,3.141.048,6.371.048,9.729v.017c-.358,10.623.061,21.571.5,33.161.221,5.758.449,11.711.572,17.6.094,4.544-.362,6.837-1.576,7.913A3.209,3.209,0,0,1,1029.907,655.045Zm-14.565-44.84a2,2,0,0,0-1.45.529c-1.3,1.242-1.326,4.549-1.352,8.049l-.011,1.541c-.068,9.244-.139,18.8-.558,28.149-.185,4.111.586,4.162,1.984,4.255,1.152.077,2.212.142,3.271.207,3.882.237,7.895.483,11.841,1.042a2.79,2.79,0,0,0,2.365-.409c.943-.836,1.325-3.039,1.24-7.144-.122-5.883-.351-11.832-.571-17.585-.444-11.606-.865-22.569-.506-33.226,0-3.352-.024-6.577-.048-9.712-.054-6.99-.1-13.592.131-20.129.152-4.209-.291-6.682-1.394-7.783a3.2,3.2,0,0,0-2.57-.791c-2.817.1-5.67-.041-8.431-.184-1.531-.078-3.063-.157-4.6-.194-.187,0-.376-.021-.566-.039-.634-.056-1.039-.072-1.329.192-.457.418-.687,1.535-.683,3.321s.1,3.92.8,4.409c.291.2.776.173,1.485-.088a2.253,2.253,0,0,1,2.25.142c1.364,1.046,1.095,4.021.856,6.646-.049.545-.1,1.064-.124,1.526a21.5,21.5,0,0,0,.15,2.905c.221,2.364.447,4.81-.7,5.776a2.067,2.067,0,0,1-1.972.287,1.716,1.716,0,0,0-1.476.065c-.667.5-.8,2.146-.845,3.855-.062,2.32.01,4.7.078,7,.038,1.27.075,2.539.093,3.808,0,.383.007.771.008,1.157.009,2.136.02,4.794.841,5.25.374.208,1.015-.091,1.482-.38a1.223,1.223,0,0,1,1.258-.089c.863.462,1.093,1.927,1.134,3.075.06,1.679.007,3.341-.778,4.123a1.572,1.572,0,0,1-1.181.444Zm6.844-16.382a1.829,1.829,0,0,1-1.056-.336c-.61-.427-1.3-1.424-1.143-3.749.27-3.892,2-4.337,3.383-4.7a7.135,7.135,0,0,0,.81-.242,1.3,1.3,0,0,1,1.274.083c.871.591,1.051,2.312,1.065,5.084v0c-.006,2.958-1.531,3.24-2.646,3.447a3.923,3.923,0,0,0-.861.223A2.039,2.039,0,0,1,1022.186,593.823Zm2.588-8.146a.636.636,0,0,0-.229.054,7.94,7.94,0,0,1-.925.279c-1.3.335-2.415.624-2.635,3.8-.1,1.43.162,2.473.718,2.861a.9.9,0,0,0,.9.06,4.723,4.723,0,0,1,1.086-.292c1.059-.2,1.823-.338,1.828-2.465,0-.955-.021-3.849-.627-4.259A.188.188,0,0,0,1024.773,585.678Z" transform="translate(-757 -423)"/>
  <path d="M838,655c3.211-28.832,1.381-57.668.366-86.5-.067-1.909,1.214-2.589,6.663-2.488,10.076.187,20.207.26,30.28.091,6.37-.107,8.511.4,8.36,2.958-1.462,24.77-.6,49.542-.116,74.314.076,3.883.1,7.766,1.448,11.627Zm12.057-83.86c2.44-.2,4.825-.387,4.582-1.629-.111-.567-.011-.939-2.2-1.082-2.65-.173-5.151-.634-7.747-.036-1.532.353-1.388.945-1.084,1.476.824,1.438,4.306.372,6.149.851.3.077.3.308.434.468-2.54.152-6.55-.607-6.194,1.339.175.957,1.316,1.592,4.2,1.433,5.686-.315,1.029-1.72,1.906-2.55C850.18,571.333,850.075,571.23,850.057,571.14Zm15.44,16.455c.863,1.46-2.665,3.278,3.349,3.617,6.65.374.486-3.922,8.415-3.262-.025-.349.34-.819-.141-1.025a20.806,20.806,0,0,0-9.254-1.35C863.33,585.82,865.7,587.035,865.5,587.595Zm-3.663-9.615c2.771-.232,6.547.912,6.5-1-.031-1.265-2.306-1.521-5.1-1.387-2.684.128-6.794-.41-6.772,1.319C856.478,578.484,860.127,577.859,861.833,577.979Zm14.2,27.634c2.522.1,3.557-.405,3.309-1.3-.163-.591.185-1.444-2.6-1.269-2.569.161-5,.519-4.76,1.724C872.157,605.661,874.071,605.65,876.034,605.613Zm-25.476-21.347c-.376-1.278-.071-2.065-2.762-1.912-2.553.145-4.817.528-4.784,1.67.023.8,1.449,1.039,3.475,1.029C849.193,585.041,850.693,584.659,850.557,584.266Zm28.431,29.006c.049-.948-.835-1.63-3.763-1.628-1.783,0-3.817.048-3.222,1.011.461.746.366,1.725,3.676,1.713C877.753,614.361,879.045,614.106,878.988,613.272Zm-6.762-12.39c-.335-.66-.639-1.314-3.254-1.091-2.408.205-4.219.545-4.033,1.634.173,1.007,2.107.834,3.822.86C871.454,602.326,872.279,601.756,872.226,600.882Z" transform="translate(-757 -423)"/>
  <path class="cls-1" d="M885.7,655.5H837.441l.062-.556c2.761-24.784,1.773-50.006.818-74.4q-.235-6.016-.455-12.032a2.374,2.374,0,0,1,.617-1.872c.873-.888,2.71-1.208,6.554-1.134,11.571.216,21.186.242,30.262.091,4.416-.076,7.035.114,8.194,1.325a2.722,2.722,0,0,1,.672,2.163c-1.258,21.31-.787,42.988-.332,63.953q.112,5.161.217,10.321l.009.468c.069,3.625.141,7.373,1.412,11Zm-47.146-1h45.75a37.408,37.408,0,0,1-1.247-10.65l-.009-.467q-.1-5.159-.217-10.319c-.456-20.984-.927-42.684.333-64.033a1.769,1.769,0,0,0-.4-1.413c-.9-.936-3.517-1.085-7.456-1.017-9.088.151-18.715.124-30.3-.091-3.443-.068-5.184.186-5.822.835a1.437,1.437,0,0,0-.332,1.136q.212,6.015.456,12.028C840.27,604.755,841.251,629.819,838.558,654.5Zm37.062-39.631c-2.854,0-3.431-.718-3.887-1.654-.049-.1-.1-.2-.155-.3a.933.933,0,0,1-.074-.985c.373-.67,1.5-.788,3.721-.789h.013c1.99,0,3.2.3,3.815.944a1.57,1.57,0,0,1,.436,1.181,1.126,1.126,0,0,1-.307.836c-.491.528-1.538.756-3.5.764Zm-3.188-2.479c.088.156.144.271.2.387.273.562.531,1.092,2.983,1.092h.061c2.06-.008,2.621-.282,2.772-.444a.134.134,0,0,0,.04-.118l0-.03v-.029a.585.585,0,0,0-.161-.469c-.275-.289-1.034-.634-3.09-.634h-.012A10.213,10.213,0,0,0,872.432,612.391Zm4.22-6.264q-.3,0-.624-.014c-2.109.039-4.278.075-4.539-1.25a1.22,1.22,0,0,1,.236-1.009c.574-.745,2.018-1.125,4.982-1.311,2.388-.147,2.934.411,3.08,1.431a1.588,1.588,0,0,0,.036.2,1.211,1.211,0,0,1-.206,1.123C879.18,605.855,878.206,606.127,876.652,606.127Zm-.612-1.014h.015c2.245.1,2.711-.344,2.782-.433.025-.032.067-.085.025-.235a2.687,2.687,0,0,1-.062-.329c-.048-.342-.1-.7-2.027-.574-2.469.155-3.9.466-4.253.923a.224.224,0,0,0-.047.205c.1.507,2.52.466,3.553.443Zm-7.012-2.326-.274,0c-.244,0-.493,0-.743,0-1.661,0-3.345,0-3.564-1.272a1.245,1.245,0,0,1,.243-1c.59-.764,2.06-1.032,4.24-1.218,2.7-.232,3.273.438,3.732,1.341l.064.217a1.448,1.448,0,0,1-.4,1.117C871.8,602.525,870.745,602.787,869.028,602.787Zm-.8-1c.181,0,.362,0,.541,0,2.014.028,2.645-.3,2.839-.508a.412.412,0,0,0,.12-.273c-.258-.494-.579-.895-2.713-.714-.846.072-3.094.264-3.534.833a.247.247,0,0,0-.048.217c.077.445,1.583.445,2.577.442Zm1.386-10.047c-.246,0-.511-.008-.8-.024-2.262-.127-3.418-.467-3.867-1.136a1.818,1.818,0,0,1,.008-1.688c.166-.478.255-.786.107-1.038l-.119-.2.046-.131c-.028-.054-.076-.131-.111-.187a1.274,1.274,0,0,1-.225-1.281c.3-.586,1.226-.868,3.181-.974a21.377,21.377,0,0,1,9.478,1.389.955.955,0,0,1,.483,1.254,1.234,1.234,0,0,0-.04.2l.021.563-.561-.03c-3.734-.312-3.964.47-4.2,1.3C872.69,590.865,872.215,591.735,869.614,591.735Zm-3.6-4.235a2.253,2.253,0,0,1-.106,1.715c-.14.4-.219.66-.123.8.135.2.717.561,3.093.694,2.775.159,2.954-.464,3.181-1.248.378-1.306.975-2.288,4.789-2.048l.014-.061a20.537,20.537,0,0,0-8.966-1.283c-2.039.111-2.326.409-2.352.443a2.638,2.638,0,0,1,.189.283A1.444,1.444,0,0,1,866.009,587.5Zm-19.652-1.947c-1.8,0-3.806-.187-3.846-1.514-.049-1.659,2.629-2.035,5.255-2.184,2.524-.148,2.872.568,3.142,1.757.036.157.074.326.126.506a.656.656,0,0,1-.1.585c-.486.688-2.688.842-4.45.85Zm2.156-2.722c-.2,0-.425.008-.69.022-4.026.229-4.318.942-4.312,1.156,0,.006.046.54,2.972.543a11.162,11.162,0,0,0,3.528-.387c-.029-.115-.054-.226-.079-.332C849.771,583.118,849.706,582.831,848.514,582.831Zm17.776-4.221c-.52,0-1.091-.038-1.693-.078a19.556,19.556,0,0,0-2.722-.055l-.038,0-.039,0c-.4-.029-.928-.013-1.489,0-1.571.046-3.195.095-3.949-.629a1.292,1.292,0,0,1-.4-.937,1.361,1.361,0,0,1,.4-1c.833-.839,2.8-.822,4.9-.808.681,0,1.352.011,1.952-.018,2.76-.139,4.4.134,5.15.835a1.444,1.444,0,0,1,.478,1.039,1.393,1.393,0,0,1-.417,1.086A3.045,3.045,0,0,1,866.29,578.61Zm-3.594-1.164c.649,0,1.316.045,1.967.089,1.248.082,2.663.177,3.061-.2a.4.4,0,0,0,.109-.339.44.44,0,0,0-.159-.332c-.3-.277-1.267-.716-4.421-.569-.617.03-1.309.024-2.008.02-1.624-.014-3.641-.028-4.178.513a.355.355,0,0,0-.11.28.293.293,0,0,0,.094.229c.452.434,2.057.388,3.228.351.57-.016,1.109-.034,1.55,0C862.112,577.456,862.4,577.446,862.7,577.446Zm-15.32-2.964c-2.343,0-3.643-.626-3.869-1.866a1.375,1.375,0,0,1,.283-1.193,1.656,1.656,0,0,1,.613-.432,1.919,1.919,0,0,1-1.229-.875,1.393,1.393,0,0,1-.174-1.245c.2-.456.7-.763,1.58-.966a19.064,19.064,0,0,1,6.171-.116c.568.051,1.141.1,1.721.141,1.9.124,2.471.42,2.638,1.378l.02.106a1.222,1.222,0,0,1-.222,1c-.562.742-1.986.972-3.729,1.132l.009.011-.641.085-.025.039a3.9,3.9,0,0,0,.355.378c.38.372.853.834.641,1.4-.194.515-.812.862-3.3,1Q847.778,574.483,847.375,574.482Zm-.529-2.817c-1.039,0-2.01.071-2.3.408-.031.036-.1.12-.059.363.144.784,1.452,1.146,3.676,1.023a7.609,7.609,0,0,0,2.341-.342,4.732,4.732,0,0,0-.328-.344,1.828,1.828,0,0,1-.691-1.065c-.461,0-.944-.01-1.416-.022C847.677,571.677,847.256,571.665,846.846,571.665Zm1.521-1.58a6.18,6.18,0,0,1,1.515.15.917.917,0,0,1,.542.373c1.556-.129,3.314-.308,3.685-.8a.223.223,0,0,0,.038-.2l-.023-.128c-.045-.259-.077-.445-1.718-.552-.588-.038-1.169-.091-1.745-.143a18.192,18.192,0,0,0-5.857.095c-.788.182-.884.384-.888.392s-.024.087.125.349c.358.624,1.818.561,3.105.5C847.554,570.1,847.967,570.085,848.368,570.085Z" transform="translate(-757 -423)"/>
  <path d="M1076.6,595.635c4.172-37.46,1.795-74.926.475-112.389-.087-2.48,1.578-3.364,8.657-3.233,13.092.243,26.255.338,39.341.119,8.276-.138,11.058.516,10.861,3.843-1.9,32.182-.782,64.369-.15,96.554.1,5.045.125,10.09,1.882,15.106Zm15.665-108.957c3.17-.256,6.269-.5,5.953-2.116-.144-.736-.015-1.22-2.858-1.406-3.443-.225-6.692-.824-10.065-.047-1.99.459-1.8,1.228-1.408,1.918,1.07,1.868,5.594.483,7.99,1.106.386.1.386.4.564.608-3.3.2-8.51-.789-8.047,1.74.228,1.244,1.71,2.069,5.451,1.861,7.387-.409,1.338-2.235,2.476-3.313C1092.423,486.929,1092.287,486.8,1092.263,486.678Zm20.06,21.38c1.121,1.9-3.462,4.26,4.351,4.7,8.64.486.631-5.1,10.933-4.239-.033-.453.441-1.064-.183-1.332a27.032,27.032,0,0,0-12.024-1.754C1109.509,505.752,1112.584,507.33,1112.324,508.058Zm-4.76-12.493c3.6-.3,8.506,1.185,8.445-1.3-.041-1.643-3-1.976-6.631-1.8-3.487.167-8.828-.533-8.8,1.713C1100.607,496.22,1105.348,495.408,1107.564,495.565Zm18.451,35.9c3.276.136,4.622-.526,4.3-1.691-.212-.768.241-1.876-3.382-1.649-3.338.209-6.493.675-6.184,2.239C1120.977,531.53,1123.464,531.516,1126.015,531.468Zm-33.1-27.735c-.488-1.661-.092-2.683-3.588-2.484-3.317.188-6.259.686-6.216,2.169.03,1.034,1.882,1.349,4.514,1.337C1091.141,504.739,1093.091,504.243,1092.914,503.733Zm36.939,37.687c.064-1.232-1.084-2.117-4.889-2.115-2.317,0-4.96.062-4.186,1.314.6.969.475,2.241,4.776,2.226C1128.249,542.834,1129.928,542.5,1129.853,541.42Zm-8.785-16.1c-.436-.857-.83-1.707-4.228-1.417-3.129.267-5.482.709-5.24,2.123.224,1.308,2.738,1.084,4.965,1.118C1120.065,527.2,1121.136,526.457,1121.068,525.321Z" transform="translate(-757 -423)"/>
  <path class="cls-1" d="M1138.369,596.135H1076.04l.062-.556c3.588-32.218,2.3-65,1.063-96.7q-.306-7.808-.592-15.616a2.951,2.951,0,0,1,.76-2.322c1.1-1.12,3.461-1.523,8.407-1.429,14.81.274,27.675.313,39.322.119,5.712-.1,9.069.144,10.537,1.675a3.4,3.4,0,0,1,.832,2.7c-1.634,27.688-1.022,55.852-.432,83.089q.146,6.712.282,13.425l.012.615c.091,4.719.184,9.6,1.842,14.336Zm-61.212-1h59.813c-1.5-4.673-1.588-9.4-1.676-13.982l-.012-.614q-.132-6.712-.282-13.423c-.591-27.257-1.2-55.441.434-83.17a2.432,2.432,0,0,0-.556-1.947c-1.2-1.255-4.646-1.453-9.8-1.367-11.661.195-24.536.156-39.358-.119-4.518-.083-6.813.254-7.676,1.13a2,2,0,0,0-.473,1.585q.274,7.806.591,15.612C1079.4,530.4,1080.677,563.021,1077.157,595.135Zm48.317-51.791c-3.62,0-4.345-.9-4.914-2.065a4.459,4.459,0,0,0-.209-.4,1.059,1.059,0,0,1-.092-1.129c.445-.8,1.934-.946,4.7-.948h.017c2.542,0,4.082.375,4.848,1.181a1.9,1.9,0,0,1,.526,1.431,1.322,1.322,0,0,1-.359.983c-.606.652-1.935.935-4.439.943Zm-4.337-3.111c.006,0,.019.047.065.123a5.354,5.354,0,0,1,.257.485c.379.779.723,1.489,4.092,1.5,2.6-.01,3.451-.345,3.711-.625a.316.316,0,0,0,.092-.265l0-.03,0-.029a.91.91,0,0,0-.251-.72c-.377-.4-1.4-.87-4.124-.87h-.016C1124.092,539.805,1121.449,539.807,1121.138,540.233Zm5.689-8.247q-.39,0-.818-.018c-2.675.051-5.435.1-5.751-1.5a1.437,1.437,0,0,1,.278-1.19c.707-.918,2.611-1.41,6.364-1.645,2.984-.187,3.667.493,3.845,1.73a2.318,2.318,0,0,0,.051.284,1.438,1.438,0,0,1-.24,1.329C1130.015,531.652,1128.791,531.986,1126.827,531.986Zm-.807-1.018h.015c2.831.114,3.558-.394,3.737-.62a.445.445,0,0,0,.06-.439,3.493,3.493,0,0,1-.077-.408c-.073-.511-.144-1.037-2.792-.874-1.213.076-4.9.307-5.635,1.258a.439.439,0,0,0-.09.386c.155.784,3.046.731,4.767.7Zm-9.105-3.321-.357,0c-.318,0-.644,0-.968,0-2.07.009-4.22.006-4.482-1.529a1.475,1.475,0,0,1,.287-1.18c.73-.945,2.688-1.293,5.4-1.525,3.431-.294,4.133.541,4.7,1.661l.067.225a1.714,1.714,0,0,1-.473,1.339C1120.434,527.322,1119.1,527.647,1116.915,527.647Zm-1.041-1.007c.234,0,.468,0,.7,0,2.554.049,3.471-.362,3.8-.706a.693.693,0,0,0,.2-.492c-.362-.706-.759-1.291-3.689-1.044-1.222.1-4.085.349-4.7,1.14a.467.467,0,0,0-.092.4c.12.7,1.985.695,3.5.7Zm1.795-13.354c-.315,0-.655-.01-1.022-.031-2.887-.162-4.354-.584-4.908-1.41a2.219,2.219,0,0,1,.027-2.061c.229-.662.353-1.091.127-1.473l-.119-.2.058-.161a2.536,2.536,0,0,0-.18-.315,1.516,1.516,0,0,1-.286-1.517c.367-.707,1.528-1.05,4.009-1.185a27.679,27.679,0,0,1,12.248,1.794,1.1,1.1,0,0,1,.541,1.453,1.31,1.31,0,0,0-.056.3l.042.583-.582-.049c-4.973-.411-5.289.657-5.618,1.791C1121.544,512.2,1120.949,513.287,1117.669,513.287Zm-4.828-5.319a2.785,2.785,0,0,1-.13,2.145c-.2.569-.306.933-.143,1.177.234.349,1.142.8,4.135.968,3.729.211,3.984-.689,4.285-1.729.477-1.644,1.252-2.876,6.192-2.544,0-.017.009-.033.013-.05a1.284,1.284,0,0,0,.056-.306,27.058,27.058,0,0,0-11.82-1.7c-2.84.154-3.149.6-3.176.646-.037.072.169.4.246.526A1.681,1.681,0,0,1,1112.841,507.968Zm-25.382-2.712c-2.269,0-4.8-.227-4.849-1.823-.06-2.026,3.347-2.494,6.687-2.683,3.05-.172,3.563.563,3.928,2.166.047.208.1.431.167.668a.709.709,0,0,1-.1.631c-.627.885-3.816,1.032-5.662,1.041Zm2.75-3.536c-.249,0-.532.009-.855.027-5.031.286-5.758,1.16-5.743,1.656.006.2.306.853,3.872.853h.14a13.526,13.526,0,0,0,4.761-.566c-.052-.193-.094-.377-.134-.552C1092.027,502.162,1091.927,501.72,1090.209,501.72Zm23.147-5.485c-.67,0-1.411-.05-2.192-.1a24.593,24.593,0,0,0-3.559-.071l-.039,0-.038,0c-.522-.036-1.217-.016-1.95.005-2.007.059-4.088.12-5.021-.776a1.53,1.53,0,0,1-.477-1.111,1.6,1.6,0,0,1,.477-1.19c1.038-1.044,3.567-1.021,6.251-1,.909.009,1.77.014,2.547-.023,3.538-.171,5.633.163,6.582,1.045a1.7,1.7,0,0,1,.572,1.244,1.668,1.668,0,0,1-.5,1.3A3.833,3.833,0,0,1,1113.356,496.235Zm-4.673-1.213c.839,0,1.7.058,2.547.114,1.735.117,3.527.235,4.091-.306a.673.673,0,0,0,.188-.553.723.723,0,0,0-.253-.537c-.494-.459-1.905-.965-5.854-.778-.8.039-1.716.032-2.6.024-2.241-.015-4.792-.036-5.534.71a.61.61,0,0,0-.186.472.524.524,0,0,0,.168.4c.633.606,2.755.544,4.3.5.741-.022,1.444-.042,2.011-.005C1107.927,495.034,1108.3,495.022,1108.684,495.022Zm-19.908-4.149c-2.958,0-4.6-.772-4.877-2.3a1.637,1.637,0,0,1,.335-1.427,2.4,2.4,0,0,1,1.239-.692,2.64,2.64,0,0,1-2.021-1.176,1.675,1.675,0,0,1-.22-1.484c.238-.546.858-.917,1.949-1.169a24.549,24.549,0,0,1,7.972-.148c.739.067,1.483.134,2.237.183,2.577.168,3.1.583,3.291,1.667l.025.142a1.439,1.439,0,0,1-.261,1.182c-.726.959-2.681,1.233-5.051,1.439l.08.093-.683.041a.628.628,0,0,1-.13.171,6.227,6.227,0,0,0,.563.589c.487.476,1.039,1.015.8,1.658-.224.6-1.016,1.029-4.152,1.2C1089.487,490.862,1089.122,490.873,1088.775,490.873Zm-.7-3.663c-1.4,0-2.667.1-3.08.583a.654.654,0,0,0-.109.6c.259,1.412,2.82,1.57,4.932,1.452,2.821-.156,3.229-.507,3.281-.576-.044-.057-.373-.379-.569-.571-.423-.413-.86-.84-.855-1.362q0-.031,0-.066c-.643.008-1.321-.011-1.985-.028C1089.156,487.225,1088.6,487.21,1088.072,487.21Zm2-1.753a7.881,7.881,0,0,1,1.932.191,1.05,1.05,0,0,1,.666.5c2.157-.177,4.454-.4,4.982-1.1a.444.444,0,0,0,.077-.385l-.03-.163c-.072-.417-.12-.693-2.37-.84-.763-.05-1.516-.118-2.263-.185a23.759,23.759,0,0,0-7.657.127c-1.029.237-1.223.515-1.257.595-.049.111.007.3.17.586.511.891,2.373.807,4.17.727C1089.016,485.481,1089.551,485.457,1090.068,485.457Z" transform="translate(-757 -423)"/>
  <path d="M805,653c2.255-22.353.97-44.709.257-67.063-.047-1.48.853-2.007,4.678-1.929,7.075.145,14.188.2,21.26.071,4.473-.083,5.976.308,5.87,2.293-1.027,19.2-.422,38.409-.081,57.614A30.92,30.92,0,0,0,838,653Zm8.465-65.015c1.713-.153,3.388-.3,3.217-1.263-.078-.439-.008-.728-1.545-.839-1.861-.134-3.616-.492-5.439-.028-1.076.274-.974.733-.761,1.144.578,1.115,3.023.288,4.318.66.209.06.208.239.3.363-1.783.118-4.6-.471-4.349,1.038.123.742.924,1.234,2.946,1.111,3.992-.244.723-1.334,1.338-1.977C813.552,588.135,813.478,588.055,813.465,587.985Zm10.841,12.758c.606,1.132-1.871,2.542,2.352,2.8,4.669.29.341-3.04,5.908-2.529-.018-.27.238-.635-.1-.795a13.365,13.365,0,0,0-6.5-1.047C822.785,599.366,824.447,600.308,824.306,600.742Zm-14,9c.606,1.132-1.871,2.542,2.352,2.8,4.669.29.341-3.04,5.908-2.529-.018-.27.238-.635-.1-.795a13.365,13.365,0,0,0-6.5-1.047C808.785,608.366,810.447,609.308,810.306,609.742Zm11.428-16.455c1.946-.18,4.6.707,4.564-.776-.022-.98-1.619-1.179-3.583-1.076-1.884.1-4.771-.318-4.755,1.022C817.974,593.679,820.536,593.194,821.734,593.287Zm9.971,21.424c1.771.081,2.5-.314,2.324-1.009-.115-.458.13-1.119-1.828-.984-1.8.125-3.509.4-3.342,1.336C828.982,614.748,830.326,614.74,831.7,614.711Zm-18,20c1.771.081,2.5-.314,2.324-1.009-.115-.458.13-1.119-1.828-.984-1.8.125-3.509.4-3.342,1.336C810.982,634.748,812.326,634.74,813.7,634.711Zm.112-36.55c-.264-.991-.05-1.6-1.939-1.482-1.793.112-3.382.409-3.359,1.294.016.617,1.017.805,2.44.8C812.859,598.762,813.912,598.466,813.817,598.162Zm15.215,12.882c-.236-.511-.449-1.018-2.285-.846-1.691.159-2.962.423-2.832,1.267.121.781,1.479.647,2.683.667C828.489,612.163,829.068,611.721,829.031,611.044Zm-13,16c-.236-.511-.449-1.018-2.285-.846-1.691.159-2.962.423-2.832,1.267.121.781,1.479.647,2.683.667C815.489,628.163,816.068,627.721,816.031,627.044Zm8-6c-.236-.511-.449-1.018-2.285-.846-1.691.159-2.962.423-2.832,1.267.121.781,1.479.647,2.683.667C823.489,622.163,824.068,621.721,824.031,621.044Zm-8-3c-.236-.511-.449-1.018-2.285-.846-1.691.159-2.962.423-2.832,1.267.121.781,1.479.647,2.683.667C815.489,619.163,816.068,618.721,816.031,618.044Z" transform="translate(-757 -423)"/>
  <path class="cls-1" d="M838.683,653.5H804.447l.056-.55c1.938-19.209,1.245-38.758.575-57.664q-.166-4.667-.32-9.334a2.054,2.054,0,0,1,.521-1.58c.67-.677,1.982-.914,4.667-.864,8.119.166,14.868.189,21.24.07,3.085-.055,4.926.087,5.812,1a2.3,2.3,0,0,1,.567,1.816c-.883,16.521-.553,33.328-.233,49.583q.078,4,.152,8l.006.362a29.417,29.417,0,0,0,.987,8.509Zm-33.131-1h31.779a32.394,32.394,0,0,1-.841-8.143l-.006-.362q-.071-4-.152-7.994c-.32-16.272-.651-33.1.233-49.655a1.3,1.3,0,0,0-.287-1.068c-.624-.646-2.482-.748-5.074-.7-6.385.119-13.146.1-21.279-.07-2.288-.047-3.5.128-3.936.567a1.036,1.036,0,0,0-.233.846q.149,4.664.32,9.33C806.741,614.01,807.429,633.4,805.552,652.5Zm7.395-17.278c-1.271,0-2.412-.134-2.581-1.079a1.1,1.1,0,0,1,.22-.9c.456-.585,1.493-.883,3.58-1.027,1.545-.108,2.2.233,2.324,1.212a1.165,1.165,0,0,0,.024.149,1.091,1.091,0,0,1-.2,1c-.4.487-1.256.7-2.612.635C813.447,635.217,813.194,635.222,812.947,635.222Zm.764-1.011h.017c1.492.069,1.781-.234,1.809-.27.01-.012.028-.033.006-.118a2.373,2.373,0,0,1-.045-.265c-.03-.229-.06-.428-1.263-.342-2.06.143-2.692.429-2.86.644a.111.111,0,0,0-.024.105c.023.133.451.282,2.344.244Zm.071-5.577-.192,0-.518,0c-1.173.025-2.481,0-2.651-1.087a1.125,1.125,0,0,1,.223-.884c.469-.6,1.517-.812,3.056-.958,2.009-.189,2.446.395,2.779,1.119l.052.2a1.274,1.274,0,0,1-.347.979A3.289,3.289,0,0,1,813.782,628.634Zm-.711-1,.536,0c1.38.021,1.753-.223,1.856-.329a.236.236,0,0,0,.068-.15c-.168-.349-.376-.587-1.737-.456s-2.163.322-2.361.576a.127.127,0,0,0-.023.116C811.447,627.632,812.506,627.646,813.07,627.629Zm8.711-5-.192,0-.518,0c-1.17.022-2.481,0-2.651-1.087a1.125,1.125,0,0,1,.223-.884c.469-.6,1.517-.812,3.056-.958,2.009-.191,2.446.395,2.779,1.119l.052.2a1.274,1.274,0,0,1-.347.979A3.289,3.289,0,0,1,821.782,622.634Zm-.711-1,.536,0c1.38.023,1.753-.223,1.856-.329a.236.236,0,0,0,.068-.15c-.167-.349-.375-.587-1.737-.456s-2.163.322-2.361.576a.127.127,0,0,0-.023.116C819.447,621.633,820.508,621.649,821.07,621.629Zm-7.289-2-.192,0-.518,0c-1.173.021-2.481,0-2.651-1.087a1.125,1.125,0,0,1,.223-.884c.469-.6,1.517-.812,3.056-.958,2.009-.19,2.446.4,2.779,1.119l.052.2a1.274,1.274,0,0,1-.347.979A3.289,3.289,0,0,1,813.782,619.634Zm-.711-1,.536,0c1.38.02,1.753-.223,1.856-.329a.236.236,0,0,0,.068-.15c-.168-.349-.376-.587-1.737-.456s-2.163.322-2.361.576a.127.127,0,0,0-.023.116C811.447,618.633,812.506,618.647,813.07,618.629Zm17.876-3.407c-1.271,0-2.412-.134-2.581-1.079a1.1,1.1,0,0,1,.22-.9c.456-.585,1.493-.883,3.58-1.027,1.546-.111,2.2.232,2.324,1.212a1.165,1.165,0,0,0,.024.149,1.091,1.091,0,0,1-.2,1c-.4.487-1.255.7-2.612.635C831.447,615.217,831.194,615.222,830.947,615.222Zm.764-1.011h.017c1.493.068,1.781-.234,1.809-.27.01-.012.028-.033.006-.118a2.373,2.373,0,0,1-.045-.265c-.029-.228-.062-.427-1.263-.342-2.06.143-2.692.429-2.86.644a.111.111,0,0,0-.024.105c.024.133.451.281,2.344.244Zm-18.52-1.147c-.175,0-.363-.006-.565-.019-1.6-.1-2.442-.367-2.805-.9a1.551,1.551,0,0,1-.039-1.429c.11-.352.171-.576.082-.742l-.1-.188.033-.1c-.018-.035-.042-.078-.061-.111a1.106,1.106,0,0,1-.139-1.112c.259-.476.937-.7,2.341-.788a13.906,13.906,0,0,1,6.742,1.094.869.869,0,0,1,.41,1.083,1.181,1.181,0,0,0-.026.135l-.011.536-.534-.01c-2.487-.228-2.628.3-2.789.911C815.5,612.32,815.132,613.063,813.191,613.063Zm-2.377-3.411a2.017,2.017,0,0,1-.077,1.368c-.07.224-.15.478-.092.563s.373.36,2.043.464c1.824.109,1.92-.279,2.076-.874.254-.967.678-1.75,3.017-1.705a13.411,13.411,0,0,0-5.782-.793,4.118,4.118,0,0,0-1.477.251c.024.051.06.114.085.159A1.3,1.3,0,0,1,810.814,609.652Zm15.968,2.981-.192,0-.518,0c-1.18.019-2.481,0-2.651-1.087a1.125,1.125,0,0,1,.223-.884c.469-.6,1.517-.812,3.056-.958,2.01-.188,2.446.395,2.779,1.119l.052.2a1.274,1.274,0,0,1-.347.979A3.289,3.289,0,0,1,826.782,612.634Zm-.711-1,.536,0c1.376.021,1.753-.223,1.856-.329a.236.236,0,0,0,.068-.15c-.168-.349-.376-.586-1.737-.456s-2.163.322-2.361.576a.127.127,0,0,0-.023.116C824.447,611.633,825.509,611.648,826.07,611.629Zm1.121-7.565c-.175,0-.363-.006-.565-.019-1.6-.1-2.442-.367-2.805-.9a1.551,1.551,0,0,1-.039-1.429c.11-.352.171-.576.082-.742l-.1-.188.033-.1c-.018-.035-.042-.078-.061-.111a1.106,1.106,0,0,1-.139-1.112c.259-.476.937-.7,2.341-.788a13.943,13.943,0,0,1,6.742,1.094.869.869,0,0,1,.41,1.083,1.181,1.181,0,0,0-.026.135l-.011.536-.534-.01c-2.486-.229-2.628.3-2.789.911C829.5,603.32,829.132,604.063,827.191,604.063Zm-2.377-3.411a2.017,2.017,0,0,1-.077,1.368c-.07.224-.15.478-.092.563s.373.36,2.043.464c1.82.111,1.92-.28,2.076-.874.254-.968.682-1.756,3.017-1.705a13.412,13.412,0,0,0-5.782-.793,4.118,4.118,0,0,0-1.477.251c.024.051.06.114.085.159A1.3,1.3,0,0,1,824.814,600.652Zm-.993.087Zm-13.044-1.467c-.943,0-2.726-.07-2.758-1.286-.037-1.376,1.914-1.686,3.827-1.807,1.9-.124,2.173.53,2.365,1.46.025.12.051.249.087.386a.638.638,0,0,1-.1.556c-.408.559-1.984.684-3.234.69Zm1.64-2.114c-.14,0-.307.007-.507.02-2.825.179-2.892.721-2.89.782,0,.007.23.317,1.937.312a8.008,8.008,0,0,0,2.314-.25c-.014-.062-.026-.122-.038-.181C813.125,597.324,813.091,597.158,812.417,597.158Zm12.45-3.269c-.372,0-.779-.03-1.208-.062a11.773,11.773,0,0,0-1.879-.043l-.042,0-.042,0c-.281-.021-.643-.007-1.025,0-1.112.041-2.264.075-2.857-.493a1.138,1.138,0,0,1-.354-.831,1.2,1.2,0,0,1,.352-.884c.652-.654,2.043-.644,3.515-.63.476,0,.943.008,1.361-.014,1.934-.107,3.109.1,3.692.643a1.272,1.272,0,0,1,.417.921,1.226,1.226,0,0,1-.366.952A2.21,2.21,0,0,1,824.867,593.89Zm-2.53-1.128c.462,0,.934.035,1.4.069.785.057,1.764.13,2.01-.1.016-.015.058-.055.054-.205a.269.269,0,0,0-.1-.209c-.2-.188-.857-.488-2.959-.378-.437.024-.925.019-1.423.016-1.031-.012-2.442-.021-2.8.336a.2.2,0,0,0-.06.166.143.143,0,0,0,.044.12c.289.276,1.4.241,2.134.217.4-.013.788-.024,1.092,0C821.929,592.769,822.132,592.762,822.337,592.762Zm-10.76-2.072c-1.728,0-2.689-.519-2.859-1.547a1.187,1.187,0,0,1,.5-1.253,1.421,1.421,0,0,1-.722-.66,1.225,1.225,0,0,1-.11-1.071,1.676,1.676,0,0,1,1.192-.787,12.4,12.4,0,0,1,4.4-.1c.4.04.8.079,1.2.108,1.415.1,1.861.365,1.988,1.169a1.168,1.168,0,0,1-.193.968,3.642,3.642,0,0,1-2.479.868l.028.036-.5.052c.048.056.1.114.144.159.278.3.659.711.459,1.209s-.862.729-2.435.825Q811.868,590.689,811.577,590.689Zm-.339-2.185c-.665,0-1.326.045-1.507.252-.015.017-.054.062-.027.222.121.726,1.569.743,2.422.693a6.46,6.46,0,0,0,1.446-.2c-.048-.056-.1-.113-.143-.157a1.921,1.921,0,0,1-.5-.777c-.284,0-.576-.009-.863-.018C811.816,588.514,811.527,588.5,811.238,588.5Zm1.041-1.45a4.115,4.115,0,0,1,1.114.124.78.78,0,0,1,.413.272c.984-.091,2.13-.227,2.368-.538.013-.018.028-.036.016-.1l-.017-.1a.962.962,0,0,0-.029-.146,2.669,2.669,0,0,0-1.042-.181c-.415-.03-.824-.071-1.23-.111a11.515,11.515,0,0,0-4.049.069c-.421.107-.515.215-.526.229h0a1.345,1.345,0,0,0,.085.2c.21.4,1.178.358,2.032.314C811.7,587.069,811.995,587.055,812.279,587.055Z" transform="translate(-757 -423)"/>
  <path d="M1036,657c2.255-44.058.97-88.122.257-132.183-.047-2.917.853-3.957,4.678-3.8,7.075.285,14.188.4,21.26.14,4.473-.163,5.976.607,5.87,4.52-1.027,37.85-.422,75.705-.081,113.559A117.976,117.976,0,0,0,1069,657Zm8.465-128.146c1.713-.3,3.388-.592,3.217-2.489-.078-.866-.008-1.435-1.545-1.653-1.861-.265-3.616-.969-5.439-.055-1.076.539-.974,1.444-.761,2.255.578,2.2,3.023.568,4.318,1.3.209.118.208.471.3.715-1.783.232-4.6-.927-4.349,2.046.123,1.463.924,2.433,2.946,2.189,3.992-.481.723-2.629,1.338-3.9C1044.552,529.149,1044.478,528.992,1044.465,528.854ZM1055.306,554c.606,2.231-1.871,5.01,2.352,5.527,4.669.572.341-5.992,5.908-4.985-.018-.533.238-1.252-.1-1.567a7.857,7.857,0,0,0-6.5-2.063C1053.785,551.287,1055.447,553.143,1055.306,554Zm-14,17.739c.606,2.231-1.871,5.01,2.352,5.527,4.669.572.341-5.992,5.908-4.985-.018-.533.238-1.252-.1-1.567a7.857,7.857,0,0,0-6.5-2.063C1039.785,569.026,1041.447,570.882,1041.306,571.738Zm11.428-32.432c1.946-.354,4.6,1.394,4.564-1.529-.022-1.932-1.619-2.325-3.583-2.12-1.884.2-4.771-.627-4.755,2.015C1048.974,540.077,1051.536,539.122,1052.734,539.306Zm9.971,42.227c1.771.16,2.5-.619,2.324-1.989-.115-.9.13-2.206-1.828-1.939-1.8.246-3.509.794-3.342,2.634C1059.982,581.605,1061.326,581.588,1062.7,581.533Zm-18,39.42c1.771.16,2.5-.619,2.324-1.989-.115-.9.13-2.206-1.828-1.939-1.8.246-3.509.794-3.342,2.634C1041.982,621.026,1043.326,621.009,1044.7,620.953Zm.112-72.04c-.264-1.953-.05-3.155-1.939-2.922-1.793.222-3.382.806-3.359,2.551.016,1.216,1.017,1.587,2.44,1.573C1043.859,550.1,1044.912,549.513,1044.817,548.913Zm15.215,25.391c-.236-1.008-.449-2.007-2.285-1.667-1.691.314-2.962.833-2.832,2.5.121,1.538,1.479,1.274,2.683,1.314C1059.489,576.51,1060.068,575.639,1060.031,574.3Zm-13,31.536c-.236-1.008-.449-2.007-2.285-1.667-1.691.314-2.962.833-2.832,2.5.121,1.538,1.479,1.274,2.683,1.314C1046.489,608.046,1047.068,607.175,1047.031,605.839Zm8-11.826c-.236-1.008-.449-2.007-2.285-1.667-1.691.314-2.962.833-2.832,2.5.121,1.538,1.479,1.274,2.683,1.314C1054.489,596.22,1055.068,595.349,1055.031,594.013Zm-8-5.913c-.236-1.008-.449-2.007-2.285-1.667-1.691.314-2.962.833-2.832,2.5.121,1.538,1.479,1.274,2.683,1.314C1046.489,590.307,1047.068,589.436,1047.031,588.1Z" transform="translate(-757 -423)"/>
  <path class="cls-1" d="M1069.587,657.5h-34.113l.027-.525c1.939-37.91,1.246-76.468.576-113.755q-.166-9.2-.32-18.394c-.027-1.664.256-2.662.947-3.337.79-.771,2.063-1.063,4.251-.974,8,.323,14.941.369,21.222.14,2.427-.085,4.253.07,5.32,1.127.79.783,1.119,1.988,1.067,3.906-.884,32.572-.553,65.7-.233,97.735q.079,7.9.152,15.8l.007.73a113.211,113.211,0,0,0,1,16.962Zm-33.061-1h31.89a117.891,117.891,0,0,1-.926-16.532l-.007-.729q-.072-7.9-.152-15.8c-.319-32.045-.65-65.181.233-97.772.044-1.619-.193-2.6-.771-3.168-.694-.689-2.019-.93-4.579-.839-6.309.23-13.274.185-21.3-.14-1.862-.076-2.946.138-3.511.69-.476.464-.669,1.243-.646,2.6q.149,9.2.319,18.392C1037.744,580.333,1038.435,618.726,1036.526,656.5Zm8.611-35.026c-.143,0-.291-.007-.445-.02-1.271.05-3.163.112-3.332-1.751-.238-2.627,2.676-3.024,3.772-3.174a1.8,1.8,0,0,1,2.359,1.993c.009.131.017.258.032.378a2.23,2.23,0,0,1-.507,1.918A2.5,2.5,0,0,1,1045.138,621.474Zm-.421-1.021.032,0a1.905,1.905,0,0,0,1.549-.33,1.3,1.3,0,0,0,.234-1.1c-.018-.139-.027-.287-.038-.437-.025-.394-.053-.8-.251-.963a1.392,1.392,0,0,0-.976-.106c-2.176.3-3.02.9-2.911,2.094.066.73.569.915,2.327.84Zm.071-11.966-.206,0c-.169-.006-.34-.006-.51,0-1,0-2.516.009-2.655-1.771-.188-2.392,2.126-2.82,3.238-3.026,2.285-.428,2.63,1.042,2.855,2.014l.021.131a2.527,2.527,0,0,1-.644,1.967A2.842,2.842,0,0,1,1044.788,608.486Zm-.56-1.008c.13,0,.259,0,.387,0a2.092,2.092,0,0,0,1.566-.4,1.566,1.566,0,0,0,.351-1.182c-.231-.99-.353-1.482-1.7-1.238-1.876.349-2.51.862-2.424,1.966.06.754.376.845,1.656.849Zm8.56-10.818-.206,0c-.169-.006-.34-.006-.51,0-1.027,0-2.516.007-2.655-1.771-.188-2.392,2.126-2.82,3.238-3.026,2.283-.429,2.63,1.042,2.855,2.014l.021.131a2.526,2.526,0,0,1-.644,1.967A2.842,2.842,0,0,1,1052.788,596.66Zm-.56-1.008c.129,0,.259,0,.387,0a2.1,2.1,0,0,0,1.566-.4,1.566,1.566,0,0,0,.351-1.182c-.231-.99-.352-1.483-1.7-1.238-1.876.349-2.51.862-2.424,1.966.061.754.435.867,1.656.849Zm-7.44-4.905-.206,0c-.169-.006-.34-.006-.51,0-1.02-.008-2.516.007-2.655-1.771-.188-2.392,2.126-2.82,3.238-3.026,2.285-.427,2.63,1.042,2.855,2.014l.021.131a2.526,2.526,0,0,1-.644,1.967A2.841,2.841,0,0,1,1044.788,590.747Zm-.561-1.008c.13,0,.26,0,.388,0a2.1,2.1,0,0,0,1.566-.4,1.566,1.566,0,0,0,.351-1.182c-.231-.99-.353-1.48-1.7-1.238-1.876.349-2.511.862-2.424,1.966.059.739.375.849,1.584.849Zm18.912-7.687c-.143,0-.292-.007-.447-.02-1.275.052-3.163.112-3.332-1.75-.238-2.627,2.676-3.024,3.772-3.174a2.2,2.2,0,0,1,1.743.322,2.179,2.179,0,0,1,.616,1.671c.009.13.017.258.032.378a2.232,2.232,0,0,1-.507,1.919A2.5,2.5,0,0,1,1063.14,582.053Zm-.423-1.021.032,0a1.926,1.926,0,0,0,1.549-.329,1.3,1.3,0,0,0,.234-1.1c-.018-.139-.027-.287-.038-.437-.025-.394-.053-.8-.251-.963a1.387,1.387,0,0,0-.976-.106c-2.176.3-3.02.9-2.911,2.094.071.79.677.909,2.327.839ZM1044.2,577.8a5.018,5.018,0,0,1-.6-.039,3.531,3.531,0,0,1-2.547-1.128,3.477,3.477,0,0,1-.283-2.748,5.008,5.008,0,0,0,.057-2.016l-.028-.1.018-.107a2.13,2.13,0,0,0-.121-.591,2.252,2.252,0,0,1,.057-1.932,2.844,2.844,0,0,1,2.162-.98,8.368,8.368,0,0,1,6.9,2.193,1.612,1.612,0,0,1,.292,1.448,3.3,3.3,0,0,0-.034.468l.021.619-.609-.11a2.763,2.763,0,0,0-2.032.172c-.491.359-.593,1.122-.7,1.93C1046.577,576.124,1046.354,577.8,1044.2,577.8Zm-2.389-6.1a6.025,6.025,0,0,1-.059,2.341c-.132.825-.245,1.538.095,1.989a2.758,2.758,0,0,0,1.869.737c1.674.205,1.833-.516,2.035-2.026a3.549,3.549,0,0,1,1.1-2.605,3.16,3.16,0,0,1,2.248-.429l0-.027a1.806,1.806,0,0,0,.013-.61,7.42,7.42,0,0,0-6.092-1.924c-.975.115-1.324.358-1.446.542-.171.257-.048.687.071,1.1A2.8,2.8,0,0,1,1041.813,571.7Zm15.976,5.249-.206,0c-.168-.006-.339,0-.51,0-1.017-.008-2.516.008-2.655-1.771-.188-2.392,2.126-2.82,3.238-3.026,2.283-.427,2.628,1.041,2.855,2.012l.021.132a2.526,2.526,0,0,1-.645,1.968A2.838,2.838,0,0,1,1057.788,576.95Zm-.561-1.008c.13,0,.26,0,.388,0a2.087,2.087,0,0,0,1.566-.4,1.569,1.569,0,0,0,.351-1.183c-.231-.99-.36-1.479-1.7-1.237-1.876.349-2.51.862-2.424,1.966.059.739.375.849,1.584.849Zm.974-15.882a5.018,5.018,0,0,1-.6-.039,3.531,3.531,0,0,1-2.547-1.128,3.477,3.477,0,0,1-.283-2.748,5.008,5.008,0,0,0,.057-2.016l-.028-.1.018-.107a2.13,2.13,0,0,0-.121-.591,2.252,2.252,0,0,1,.057-1.932,2.844,2.844,0,0,1,2.162-.98,8.364,8.364,0,0,1,6.9,2.194,1.606,1.606,0,0,1,.292,1.447,3.3,3.3,0,0,0-.034.468l.021.619-.609-.11a2.768,2.768,0,0,0-2.032.172c-.491.359-.593,1.122-.7,1.93C1060.577,558.385,1060.354,560.061,1058.2,560.061Zm-2.389-6.1a6.025,6.025,0,0,1-.059,2.341c-.132.825-.245,1.538.095,1.989a2.758,2.758,0,0,0,1.869.737c1.676.205,1.833-.516,2.035-2.026a3.549,3.549,0,0,1,1.1-2.605,3.15,3.15,0,0,1,2.248-.429l0-.027a1.8,1.8,0,0,0,.013-.609,7.415,7.415,0,0,0-6.092-1.925c-.975.115-1.324.358-1.446.542-.171.257-.048.687.071,1.1A2.8,2.8,0,0,1,1055.813,553.962Zm-13.927-3.347c-2.344,0-2.854-1.12-2.867-2.066-.034-2.58,2.85-2.937,3.8-3.054a2.11,2.11,0,0,1,1.64.31c.578.461.659,1.239.762,2.227.026.252.055.522.094.81a1.032,1.032,0,0,1-.258.84,4.238,4.238,0,0,1-3.091.935Zm1.423-4.153a3.1,3.1,0,0,0-.369.025c-2.609.322-2.932,1.264-2.921,2.048,0,.357-.012,1.08,1.935,1.08,1.691-.018,2.338-.5,2.37-.632v0c-.041-.3-.07-.582-.1-.845-.078-.754-.141-1.349-.39-1.547A.854.854,0,0,0,1043.309,546.462ZM1055.861,540a8.814,8.814,0,0,1-1.236-.122,5.956,5.956,0,0,0-1.8-.085l-.083.015-.083-.013a5.319,5.319,0,0,0-.973.009,3.46,3.46,0,0,1-2.624-.514,2.133,2.133,0,0,1-.6-1.62,2.359,2.359,0,0,1,.624-1.765c.772-.765,2.025-.744,3.247-.725a11.582,11.582,0,0,0,1.331-.026,4.247,4.247,0,0,1,3.351.677,2.509,2.509,0,0,1,.785,1.935,2.251,2.251,0,0,1-.615,1.821A1.926,1.926,0,0,1,1055.861,540Zm-2.525-1.249a10.021,10.021,0,0,1,1.434.137c.747.109,1.452.21,1.755-.054a1.51,1.51,0,0,0,.273-1.057,1.535,1.535,0,0,0-.45-1.2,3.423,3.423,0,0,0-2.582-.429,12.936,12.936,0,0,1-1.451.031c-1-.019-2.053-.034-2.527.436a1.4,1.4,0,0,0-.327,1.048,1.188,1.188,0,0,0,.282.895c.368.343,1.168.293,1.879.248a6.461,6.461,0,0,1,1.1-.011A3.987,3.987,0,0,1,1053.336,538.756ZM1042.57,533.7a2.633,2.633,0,0,1-2.857-2.684,2.441,2.441,0,0,1,.53-2.008,1.824,1.824,0,0,1,.722-.449,1.859,1.859,0,0,1-1.511-1.52,2.2,2.2,0,0,1,1.021-2.83,6.636,6.636,0,0,1,4.544-.206c.393.077.788.155,1.189.212,1.694.241,1.88.953,1.957,1.932l.015.172c.187,2.057-1.417,2.6-2.965,2.9l.046.116-.273.036a.749.749,0,0,1-.042.108c-.11.228.109.7.3,1.109a2.2,2.2,0,0,1,.266,2.02c-.311.562-1.041.894-2.3,1.046A5.453,5.453,0,0,1,1042.57,533.7Zm-.372-4.308a1.77,1.77,0,0,0-1.238.314,1.57,1.57,0,0,0-.251,1.226,1.951,1.951,0,0,0,.6,1.409,2.337,2.337,0,0,0,1.785.326c1.205-.145,1.48-.424,1.543-.537.122-.22-.1-.693-.3-1.11a3.009,3.009,0,0,1-.42-1.558c-.288,0-.582-.019-.871-.035S1042.473,529.392,1042.2,529.392Zm1.089-1.886a2.409,2.409,0,0,1,1.214.272.886.886,0,0,1,.391.49c1.676-.323,2.4-.67,2.292-1.857l-.015-.183c-.057-.706-.069-.874-1.1-1.02-.419-.06-.832-.141-1.242-.221a5.789,5.789,0,0,0-3.9.118c-.623.313-.75.737-.5,1.681.229.865.721.9,1.969.78C1042.688,527.535,1042.99,527.505,1043.287,527.505Z" transform="translate(-757 -423)"/>
  <path d="M887,636.687c-.812-1.283.369-1.672,2.426-1.671h7.006c-.354-.787-1.216-.543-1.8-.551-7.843-.106-9.514-1.359-7.807-5.666.343-.866,1.107-1,2.366-1,1.646.006,3.292,0,5.726,0a11.057,11.057,0,0,0-5.324-.656c-2.144.125-3.224-.242-2.571-1.534,3.283.206,7.3-1.309,9.573,1.263.974-2.314.975-2.335-2.692-2.381-2.315-.029-4.633.016-6.949.028.006-5.53.1-11.062-.044-16.591-.039-1.433.718-2.059,3.606-1.832-1.082-.815-4.119-.044-3.509-1.658.441-1.167,2.1-1,3.519-1.03a22.409,22.409,0,0,0,5.89-.584q-3.736,0-7.472,0c-1.042,0-2.058-.033-1.884-.858.122-.578.842-.709,1.741-.722,1.824-.025,3.663-.159,5.468-.069,2.744.136,2.8-.749,2.841-1.869.054-1.38-1.291-1.477-3.188-1.313-1.31.113-2.634.2-3.958.24-1.207.036-2.782.437-2.961-.79-.153-1.052,1.022-1.2,2.492-1.234,1.16-.023,2.316-.091,3.474-.139l1.674-.119c-.263-.59-1.067-.276-1.664-.307-1.429-.022-2.88.037-4.282-.082-2.546-.216-2.213-.917-.756-1.725,2.994.46,6.9-.989,8.884,1.567,1.111-1.837.559-2.71-2.957-2.509-2.286.131-4.617.022-6.928.021.031-3.724.03-3.684,6.982-3.611q13.736.144,27.475.156c2.373,0,3.65.187,3.545,1.779-1.384,21.165.079,42.328.193,63.492,0,.089-.089.177-.136.266H886c.026-5.748-.225-11.5.991-17.228l7.452-.276-.032-.808Zm29.988-30.016c3.338.691,5.151.013,4.975-1.8-.192-1.979-2.882-1.537-5.178-1.337-1.459.127-2.925.251-4.4.305-2.523.092-2.776,1.008-2.663,2.109.147,1.425,1.759,1.262,3.511,1.051C914.519,606.848,915.833,606.77,916.984,606.671Zm2.7-6.051c2.174.149,3.43-.307,3.194-1.669-.141-.811-.13-2-2.208-1.551-1.622.354-4.664.068-4.477,1.94C916.331,600.7,917.849,600.711,919.686,600.621Zm-20.71-6.209c-.163,1.126.252,1.813,2.646,1.683,2.368-.129,3.517-.66,3.5-2.044-.014-1.09-.808-1.4-2.661-1.337C900.341,592.785,898.38,592.816,898.976,594.411Zm9.909,1.753c2.163.144,3.421-.224,3.224-1.625-.132-.943.1-1.881-2.472-1.732-2.159.125-3.736.4-3.759,1.918C905.858,596.013,906.865,596.329,908.884,596.164Zm-7.535,1.161c-.429.093-2.819-.412-2.16.949.444.916.043,2.451,3.362,2.406,2.361-.032,2.567-.641,2.566-1.691C905.117,597.795,904.677,597.006,901.35,597.325Zm3.72,17.4c.079-.7-.021-1.414-2.291-1.4-3.351.022-1.452,1.513-2.057,2.247-.73.886.858,1.1,2.263,1.1C905.308,616.672,905.029,615.744,905.07,614.72Zm5.491,15.752c-1.837.387-4.717-.778-4.663,1.489.03,1.264.279,2.073,3.194,2.039,2.874-.034,3.436-.655,2.641-2.015-1.771-.24-1.452,1.6-3.392,1.059a1.645,1.645,0,0,1-1.024-.878C906.75,630.66,910.105,631.637,910.561,630.472Zm-11-16.5c-.2.153-.45.262-.458.377-.01.154.17.312.269.469.183-.091.5-.175.516-.274C899.913,614.393,899.726,614.233,899.563,613.972Z" transform="translate(-757 -423)"/>
  <path class="cls-1" d="M925,655.5H885.5l0-.5c0-.911,0-1.821,0-2.732a68.794,68.794,0,0,1,1-14.6l.081-.382,2.672-.1H886.72l-.147-.232a1.45,1.45,0,0,1-.2-1.521c.333-.6,1.2-.89,2.8-.915a4.461,4.461,0,0,1-3.007-1.611c-.654-.978-.594-2.3.2-4.292a1.823,1.823,0,0,1,1.095-1.1,1.543,1.543,0,0,1-.936-.6,1.467,1.467,0,0,1,.057-1.525l.148-.294.329.021A21.13,21.13,0,0,0,890,625l-.87.008-2.673.021v-.5c0-1.508.01-3.017.019-4.525.022-3.952.045-8.038-.063-12.052a2.143,2.143,0,0,1,.582-1.71,1.929,1.929,0,0,1,.415-.3,1.362,1.362,0,0,1-.828-.56,1.216,1.216,0,0,1-.04-1.11,1.784,1.784,0,0,1,1.007-1.041,1.352,1.352,0,0,1-.786-.439,1.053,1.053,0,0,1-.189-.919c.23-1.092,1.627-1.11,2.224-1.118s1.189-.028,1.786-.048c1.219-.041,2.479-.083,3.713-.021a3.184,3.184,0,0,0,2.056-.318c.217-.2.24-.536.261-1.071a.654.654,0,0,0-.166-.555c-.389-.371-1.53-.324-2.479-.241-1.434.125-2.737.2-3.986.242-.211.006-.433.024-.657.042-1.035.086-2.6.21-2.813-1.26a1.323,1.323,0,0,1,.277-1.088,1.7,1.7,0,0,1,.841-.508c-.8-.169-1.2-.45-1.3-.884-.146-.685.626-1.223,1.333-1.616q-.362,0-.723,0h-.5l0-.506c.014-1.667.023-2.674.693-3.331.854-.838,2.412-.822,6.581-.776l.214,0c10.042.106,19.011.145,27.47.156,1.557,0,2.9.06,3.587.792a1.922,1.922,0,0,1,.457,1.52c-.938,14.34-.561,28.93-.2,43.039.173,6.691.353,13.611.389,20.419a.8.8,0,0,1-.169.465l-.141.266Zm-38.5-1h38.133c-.04-6.722-.216-13.553-.387-20.161-.366-14.132-.744-28.745.2-43.13a.936.936,0,0,0-.188-.771c-.437-.466-1.788-.483-3.077-.477-8.382,0-17.3-.051-27.261-.156l-.214,0c-3.538-.038-5.313-.057-5.87.49-.327.321-.374,1.013-.388,2.125.551,0,1.1.012,1.655.02,1.563.024,3.18.046,4.739-.042,2.188-.122,3.359.155,3.812.907s-.006,1.714-.4,2.36l-.377.623-.446-.575c-1.183-1.526-3.219-1.43-5.375-1.327a17.326,17.326,0,0,1-3.015-.028,3.206,3.206,0,0,0-.647.46,4.689,4.689,0,0,0,1.347.249c.945.08,1.943.081,2.9.075.45,0,.9,0,1.345,0a3.371,3.371,0,0,0,.471-.024c.521-.053,1.306-.128,1.642.628l.29.65-3.485.221c-.8.037-1.6.074-2.4.091-.459.009-1.677.033-1.957.364-.024.028-.08.095-.051.3.063.431.421.515,1.744.407.241-.019.48-.038.707-.045,1.229-.037,2.515-.115,3.93-.238,1.5-.128,2.622-.092,3.256.514a1.646,1.646,0,0,1,.475,1.317,2.318,2.318,0,0,1-.585,1.77,3.774,3.774,0,0,1-2.78.579c-1.19-.058-2.431-.017-3.63.022-.6.021-1.2.04-1.806.049-.986.013-1.229.184-1.258.325.129.253,1.082.254,1.4.255h10.992l-3.382.98a20.118,20.118,0,0,1-5.356.59l-.662.013c-.19,0-.384,0-.579.006-1.343.006-2.241.059-2.483.7a.414.414,0,0,0-.044.231c.1.161.877.242,1.3.285a4.25,4.25,0,0,1,2.091.565l1.371,1.032-1.711-.135c-1.5-.117-2.416,0-2.8.361-.134.128-.287.353-.271.958.108,4.03.085,8.125.063,12.085q-.011,2.008-.018,4.017l1.662-.014c1.6-.015,3.2-.031,4.792-.011,2.244.028,3.173.04,3.577.656.358.547.078,1.212-.43,2.419l-.309.733-.527-.6c-1.43-1.621-3.7-1.425-6.107-1.216a24.814,24.814,0,0,1-2.759.137.318.318,0,0,0,0,.235c.044.067.36.393,2.208.285a11.477,11.477,0,0,1,5.541.69l2.385.964h-4.8c-1.32,0-2.41,0-3.5,0-1.228,0-1.687.147-1.9.684-.655,1.653-.746,2.691-.294,3.366.716,1.069,3,1.552,7.643,1.614.1,0,.205-.007.317-.013a1.715,1.715,0,0,1,1.929.859l.316.705h-7.786c-1.891,0-2.143.358-2.166.4s-.018.13.043.271h7.6l.071,1.79-7.561.279a69.869,69.869,0,0,0-.9,14.006C886.5,653.009,886.5,653.754,886.5,654.5Zm7.659-29.5a4.948,4.948,0,0,1,2.251,1.01,2.226,2.226,0,0,0,.23-.822A8.948,8.948,0,0,0,894.161,625Zm-.283-31.6a4.854,4.854,0,0,1,2.831,1.15c.18-.433.139-.636.084-.727-.1-.172-.59-.558-2.9-.425ZM908.924,634.5c-2.909,0-3.487-.894-3.526-2.527a1.829,1.829,0,0,1,.49-1.412c.64-.627,1.682-.58,2.785-.528a7.778,7.778,0,0,0,1.785-.05l.906-.19-.338.862c-.32.816-1.324.92-2.21,1.011a3.326,3.326,0,0,0-1.068.21c.006.007.012.046.037.113a1.163,1.163,0,0,0,.69.572,1.117,1.117,0,0,0,1.343-.355,2.139,2.139,0,0,1,1.982-.717l.242.032.123.211a1.876,1.876,0,0,1,.243,1.789c-.38.672-1.339.955-3.31.979Zm2.5-2.038a1.214,1.214,0,0,0-.916.468,2.7,2.7,0,0,1-.738.547c1.4-.078,1.7-.332,1.769-.449C911.566,632.979,911.6,632.831,911.423,632.463Zm-4.227-1.422a1.082,1.082,0,0,0-.609.235c-.05.048-.2.2-.189.674.019.8.033,1.379,1.638,1.519a2.148,2.148,0,0,1-1.187-1.127,1.082,1.082,0,0,1,.043-.99A1.015,1.015,0,0,1,907.2,631.041Zm-4.2-13.87h-.007c-2.214,0-2.7-.482-2.867-.844a.972.972,0,0,1,.218-1.077c.039-.048,0-.263-.032-.413a1.08,1.08,0,0,1-.551.363c-.056.021-.112.043-.157.065l-.4.2-.241-.382c-.021-.033-.048-.065-.074-.1a.978.978,0,0,1-.271-.67.85.85,0,0,1,.486-.628c.054-.034.112-.071.164-.111l.437-.339.293.468c.045.072.093.136.136.192s.072.1.107.149a1.1,1.1,0,0,1,.241-.576c.358-.442,1.069-.644,2.306-.651a3.282,3.282,0,0,1,2.471.665,1.574,1.574,0,0,1,.322,1.272c0,.1,0,.2,0,.3C905.557,616.17,905.355,617.171,902.992,617.171Zm-1.914-1.247a4.844,4.844,0,0,0,1.907.247H903c1.562,0,1.563-.307,1.568-1.123,0-.113,0-.229.006-.348l0-.035c.036-.32,0-.436-.069-.511-.093-.1-.45-.326-1.721-.334-1.252.008-1.5.235-1.536.28-.058.072-.012.3.029.5a1.443,1.443,0,0,1-.168,1.289Zm10.476-8.282a2.723,2.723,0,0,1-1.726-.459,1.663,1.663,0,0,1-.6-1.181,2.224,2.224,0,0,1,.42-1.764,3.637,3.637,0,0,1,2.723-.9c1.4-.051,2.75-.163,4.37-.3l.594-.055c2.184-.208,4.9-.464,5.125,1.843a2.125,2.125,0,0,1-.659,1.866c-.882.794-2.514.956-4.845.481l-1.016.082c-.852.066-1.755.136-2.643.242A14.923,14.923,0,0,1,911.555,607.642Zm7.88-3.788c-.572,0-1.248.055-2.008.126l-.6.056c-1.635.143-3,.256-4.421.308a2.929,2.929,0,0,0-2,.552,1.264,1.264,0,0,0-.179,1.006.666.666,0,0,0,.232.5c.47.376,1.719.226,2.722.105.9-.108,1.819-.18,2.685-.247l1.154-.094.072.016c1.955.4,3.429.321,4.045-.232a1.139,1.139,0,0,0,.332-1.026C921.382,604.095,920.64,603.854,919.435,603.854Zm-17.024-2.672c-2.694,0-3.2-1.033-3.506-2.185a2.843,2.843,0,0,0-.165-.506,1.1,1.1,0,0,1-.014-1.146c.4-.6,1.39-.556,2.113-.521a3.2,3.2,0,0,0,.414.01l.049-.008c1.957-.186,3.109-.018,3.736.553a2.055,2.055,0,0,1,.58,1.609c0,1.607-.771,2.16-3.06,2.191Zm-2.84-3.286c.012.015.025.07.069.16a3.8,3.8,0,0,1,.231.683c.212.791.392,1.493,2.674,1.442,2.074-.028,2.074-.441,2.073-1.191a1.089,1.089,0,0,0-.252-.869c-.383-.349-1.374-.45-2.947-.3a3.438,3.438,0,0,1-.628,0A3.59,3.59,0,0,0,899.571,597.9Zm19.065,3.26c-1.38,0-2.788-.252-2.939-1.765-.191-1.919,1.985-2.142,3.575-2.3a12.375,12.375,0,0,0,1.293-.174,2.535,2.535,0,0,1,2.015.187,2.131,2.131,0,0,1,.761,1.571l.031.2a1.705,1.705,0,0,1-.371,1.5c-.557.618-1.638.867-3.32.753C919.35,601.138,918.994,601.155,918.636,601.155Zm2.847-3.354a3.405,3.405,0,0,0-.7.088,12.847,12.847,0,0,1-1.4.192c-1.918.2-2.761.417-2.682,1.21.074.744.767.937,2.969.831l.029,0,.029,0c1.768.12,2.349-.213,2.539-.423a.712.712,0,0,0,.128-.661l-.035-.218c-.068-.448-.129-.753-.339-.9A.942.942,0,0,0,921.483,597.8ZM908,596.7a2.935,2.935,0,0,1-2.1-.589,1.654,1.654,0,0,1-.5-1.013c-.573,1.143-2.176,1.405-3.752,1.491-1.457.085-2.323-.121-2.806-.65a1.807,1.807,0,0,1-.378-1.48,1.451,1.451,0,0,1,.116-1.3c.563-.841,2.03-.89,3.729-.946l.134,0c1.427-.047,2.209.122,2.694.585a1.576,1.576,0,0,1,.464.967c.657-1.264,2.625-1.377,4.007-1.457,2.558-.146,2.856.759,2.963,1.868.01.1.019.2.033.294a1.729,1.729,0,0,1-.4,1.487c-.559.6-1.583.822-3.317.707C908.564,596.691,908.269,596.7,908,596.7Zm2.219-3.415c-.163,0-.346.006-.553.018-2.444.142-3.273.5-3.288,1.427a.788.788,0,0,0,.207.651c.308.288,1.047.379,2.259.281l.037,0,.037,0c1.71.119,2.332-.147,2.555-.388a.738.738,0,0,0,.141-.668c-.016-.112-.027-.226-.038-.336C911.515,593.642,911.481,593.289,910.218,593.289Zm-7.345-.082c-.125,0-.257,0-.4.007l-.134,0c-1.182.04-2.653.089-2.932.5-.067.1-.056.274.033.515l.045.12-.019.126c-.074.516.027.7.11.786.173.189.658.4,2.014.327,2.809-.153,3.035-.874,3.026-1.538a.685.685,0,0,0-.174-.536A2.511,2.511,0,0,0,902.873,593.207Z" transform="translate(-757 -423)"/>
  <path d="M927,655c.316-44.767.687-89.533.884-134.3.026-5.943.747-7.871,3.62-7.685,14.151.917,28.306,1.657,42.463,1.93,3.564.069,3,4.474,3,8.959.031,31.733-.01,63.469.145,95.2.059,11.972.577,23.933.886,35.9Z" transform="translate(-757 -423)"/>
  <path class="cls-1" d="M978.513,655.5H926.5l.236-32.49c.247-33.534.5-68.209.652-102.315.02-4.388.436-6.4,1.537-7.429a3.294,3.294,0,0,1,2.615-.752c16.663,1.079,30.149,1.692,42.44,1.929,3.621.069,3.563,4.007,3.508,7.816-.008.541-.017,1.091-.016,1.643q.012,12.6.015,25.2c.008,22.942.017,46.666.131,70,.04,8.213.3,16.563.554,24.637.118,3.75.235,7.5.332,11.252Zm-51.009-1h49.983q-.141-5.367-.317-10.733c-.253-8.081-.515-16.437-.555-24.664-.114-23.332-.123-47.057-.131-70q-.006-12.6-.015-25.2c0-.557.008-1.112.016-1.658.062-4.186-.027-6.753-2.527-6.8-12.307-.237-25.806-.851-42.485-1.931A2.361,2.361,0,0,0,929.6,514c-.849.792-1.2,2.733-1.219,6.7-.15,34.107-.405,68.783-.652,102.317Z" transform="translate(-757 -423)"/>
  <path d="M1074,658c.411-19.252.893-38.5,1.149-57.755.034-2.556.97-3.385,4.7-3.3,18.386.394,36.778.713,55.171.83,4.631.03,3.894,1.924,3.9,3.853.04,13.647-.013,27.294.189,40.94.076,5.148.75,10.292,1.151,15.438Z" transform="translate(-757 -423)"/>
  <path class="cls-1" d="M1140.8,658.5h-67.313l.011-.511q.146-6.886.3-13.771c.321-14.414.652-29.32.848-43.98a3.884,3.884,0,0,1,.907-2.817c.771-.745,2.021-1.03,4.307-.98,21.639.465,39.167.729,55.162.83,1.932.013,3.14.343,3.8,1.039a3.311,3.311,0,0,1,.615,2.627c-.01.226-.021.455-.02.685q.016,5.421.019,10.842c.011,9.864.021,20.063.17,30.092.052,3.518.391,7.1.719,10.566.152,1.614.306,3.228.431,4.841Zm-66.292-1h65.211c-.117-1.429-.252-2.857-.387-4.285-.33-3.485-.671-7.09-.724-10.646-.148-10.036-.159-20.239-.17-30.106q-.006-5.42-.019-10.84c0-.245.01-.491.021-.732A2.545,2.545,0,0,0,1138.1,599c-.449-.473-1.486-.718-3.083-.728-16-.1-33.534-.366-55.178-.83-1.942-.051-3.047.175-3.591.7a2.842,2.842,0,0,0-.6,2.111c-.2,14.664-.527,29.572-.848,43.989Q1074.655,650.87,1074.511,657.5Z" transform="translate(-757 -423)"/>
  <path d="M785,654c1.628-12.54.765-25.08-.064-37.619-.082-1.238,1.236-1.474,4.534-1.352,3.464.128,6.989.227,10.456.162,3.668-.069,4.274.426,4.249,1.511-.17,7.472-.259,14.944-.117,22.416.094,4.961.613,9.921.942,14.882Z" transform="translate(-757 -423)"/>
  <path class="cls-1" d="M805.534,654.5h-21.1l.074-.564c1.6-12.324.769-24.879-.035-37.021l-.033-.5a1.48,1.48,0,0,1,.395-1.181c.691-.712,2.169-.794,4.657-.705,3.338.125,6.911.231,10.428.162,2.519-.045,3.735.165,4.324.757a1.659,1.659,0,0,1,.434,1.267c-.2,8.961-.241,15.868-.117,22.395.064,3.411.336,6.886.6,10.245.12,1.538.24,3.076.342,4.613Zm-19.967-1h18.9c-.093-1.356-.2-2.712-.305-4.068-.264-3.374-.536-6.864-.6-10.3-.124-6.542-.088-13.462.117-22.437.008-.339-.064-.459-.143-.538-.519-.52-2.837-.476-3.6-.462-3.542.067-7.131-.039-10.484-.162-1.678-.062-3.452-.063-3.9.4a.493.493,0,0,0-.114.418l.033.5C786.262,628.854,787.083,641.261,785.567,653.5Z" transform="translate(-757 -423)"/>
  <path d="M886.952,600.1c2.317-.021,4.634-.1,6.949-.05,3.667.083,3.666.12,2.692,4.288-2.269-4.634-6.29-1.9-9.573-2.276Z" transform="translate(-757 -423)"/>
  <path class="cls-1" d="M896.762,605.82l-.617-1.26c-1.436-2.93-3.549-2.6-6-2.216a12.169,12.169,0,0,1-3.18.218l-.428-.049-.1-2.906.513,0c.724-.007,1.448-.019,2.172-.031,1.569-.026,3.192-.053,4.792-.019,1.871.043,2.9.065,3.425.74.55.71.3,1.792-.257,4.162Zm-4.323-4.719a4.531,4.531,0,0,1,3.946,1.917c.241-1.1.356-1.863.163-2.113-.231-.3-1.3-.322-2.657-.353-1.58-.034-3.192-.009-4.753.019q-.833.015-1.667.025l.035,1a13.436,13.436,0,0,0,2.486-.242A16.073,16.073,0,0,1,892.438,601.1Z" transform="translate(-757 -423)"/>
  <path d="M886.94,592.917c2.311,0,4.641.11,6.928-.021,3.516-.2,4.068.672,2.957,2.509-1.982-2.556-5.89-1.107-8.884-1.567Z" transform="translate(-757 -423)"/>
  <path class="cls-1" d="M896.875,596.287l-.446-.575c-1.184-1.526-3.219-1.43-5.375-1.327a16.348,16.348,0,0,1-3.189-.053l-.151-.023-2.057-1.893h1.283c.719,0,1.439.011,2.159.021,1.563.023,3.179.046,4.739-.042,2.188-.122,3.359.155,3.812.907s-.006,1.714-.4,2.36Zm-3-2.892a4.854,4.854,0,0,1,2.831,1.15c.18-.433.139-.636.084-.727-.1-.172-.59-.558-2.9-.425Z" transform="translate(-757 -423)"/>
  <path d="M887,622.015h7.415l.032,1.456-7.452.5Q886.993,622.991,887,622.015Z" transform="translate(-757 -423)"/>
  <path class="cls-1" d="M886.489,624.5l.007-2.987h8.4l.053,2.423Zm1-1.987,0,.919,6.44-.43-.011-.489Z" transform="translate(-757 -423)"/>
  <path d="M872.136,587.595c.132-.56-1.429-1.775,1.562-2.021a9.594,9.594,0,0,1,6.1,1.35c.317.206.077.677.093,1.025-5.23-.659-1.164,3.636-5.55,3.262C870.378,590.873,872.7,589.055,872.136,587.595Zm2.578.28-1.012.234a2.487,2.487,0,0,0,.821.33,2.33,2.33,0,0,0,1.181-.213C875.937,587.937,875.443,587.855,874.714,587.875Z" transform="translate(-757 -423)"/>
  <path class="cls-1" d="M874.854,591.735c-.171,0-.354-.009-.551-.025-1.375-.117-2.166-.412-2.562-.956a2.108,2.108,0,0,1-.134-1.814,2.1,2.1,0,0,0,.064-1.163l-.057-.146.028-.12a2.15,2.15,0,0,0-.094-.256,1.424,1.424,0,0,1-.05-1.342c.293-.48.96-.738,2.16-.837a10.118,10.118,0,0,1,6.417,1.429,1.061,1.061,0,0,1,.35,1.173,1.46,1.46,0,0,0-.029.248l.028.594-.59-.074c-2.268-.283-2.385.326-2.563,1.252A2.1,2.1,0,0,1,874.854,591.735Zm-2.123-3.5a4.978,4.978,0,0,1-.15.927c-.113.5-.172.812-.032,1,.114.155.5.435,1.839.549,1.645.135,1.735-.337,1.9-1.2.233-1.219.649-2.3,3.167-2.107.005-.036.009-.071.011-.1a9.225,9.225,0,0,0-5.727-1.23c-1.215.1-1.382.352-1.389.362-.036.059.07.315.122.439a1.7,1.7,0,0,1,.172.659,1.932,1.932,0,0,1,.066.29l1.99-.448c.756-.021,1.3.047,1.5.45a.643.643,0,0,1-.1.713c-.319.4-1.3.4-1.582.4a1.779,1.779,0,0,1-.794-.264c-.071-.038-.142-.076-.213-.107Zm-1.086-.71Z" transform="translate(-757 -423)"/>
  <path d="M869.72,577.979c-1.125-.121-3.532.5-3.545-1.069-.015-1.729,2.7-1.19,4.466-1.319,1.845-.134,3.346.123,3.366,1.387C874.038,578.892,871.548,577.748,869.72,577.979Z" transform="translate(-757 -423)"/>
  <path class="cls-1" d="M872.659,578.61c-.36,0-.749-.039-1.146-.079a7.973,7.973,0,0,0-1.731-.056l-.058.007-.058-.006a7.427,7.427,0,0,0-.939.006,3.636,3.636,0,0,1-2.619-.493,1.437,1.437,0,0,1-.434-1.075,1.541,1.541,0,0,1,.441-1.151c.683-.683,1.977-.666,3.225-.652.439,0,.876.01,1.264-.018,1.657-.12,2.759.093,3.366.647a1.661,1.661,0,0,1,.536,1.23,1.548,1.548,0,0,1-.449,1.222A1.989,1.989,0,0,1,872.659,578.61Zm-2.37-1.164c.44,0,.888.046,1.325.09.709.071,1.512.154,1.767-.081a.618.618,0,0,0,.126-.468.657.657,0,0,0-.211-.509c-.267-.244-.934-.512-2.619-.388-.414.029-.879.024-1.348.02-.995-.012-2.121-.025-2.507.36a.55.55,0,0,0-.147.436.453.453,0,0,0,.122.357c.307.29,1.22.25,1.886.22a8.327,8.327,0,0,1,1.031-.007A5.11,5.11,0,0,1,870.289,577.446Z" transform="translate(-757 -423)"/>
  <path d="M862.041,571.188c-.09-.16-.09-.391-.286-.468-1.216-.479-3.513.587-4.056-.851-.2-.531-.3-1.123.715-1.476,1.712-.6,3.362-.137,5.11.036,1.444.143,1.378.515,1.451,1.082.161,1.242-1.413,1.432-3.022,1.629Z" transform="translate(-757 -423)"/>
  <path class="cls-1" d="M863.3,572.37l-2.507-1.285c-.229,0-.473.019-.714.035-1.062.072-2.383.161-2.851-1.075a1.624,1.624,0,0,1-.045-1.288,1.7,1.7,0,0,1,1.063-.836,8.677,8.677,0,0,1,4.2-.129c.371.051.745.1,1.124.139,1.474.146,1.791.588,1.885,1.406l.013.109a1.467,1.467,0,0,1-.282,1.126,3.568,3.568,0,0,1-2.362.958Zm-2.462-2.285a2.991,2.991,0,0,1,1.1.17.771.771,0,0,1,.391.334,3.743,3.743,0,0,0,2.069-.63.471.471,0,0,0,.08-.384l-.015-.125c-.039-.34-.049-.431-.99-.523-.391-.039-.777-.092-1.161-.145a7.827,7.827,0,0,0-3.735.082.849.849,0,0,0-.486.314.743.743,0,0,0,.075.513c.185.489.732.51,1.847.431C860.289,570.1,860.568,570.085,860.841,570.085Z" transform="translate(-757 -423)"/>
  <path d="M862.282,584.266c.09.393-.9.774-2.685.787-1.336.009-2.276-.234-2.292-1.029-.022-1.142,1.471-1.525,3.155-1.67C862.236,582.2,862.034,582.988,862.282,584.266Z" transform="translate(-757 -423)"/>
  <path class="cls-1" d="M859.455,585.554c-.793,0-2.622-.078-2.649-1.52-.037-1.864,2.615-2.092,3.612-2.178,1.84-.158,2.1.644,2.269,1.794.024.16.05.332.085.516a.743.743,0,0,1-.156.624c-.513.648-2.109.756-3.016.763Zm1.5-2.726c-.125,0-.274.009-.455.024-1.8.155-2.71.546-2.7,1.162.009.479,1.11.548,1.788.538a5.252,5.252,0,0,0,2.171-.336c-.026-.146-.047-.287-.066-.419C861.585,583.04,861.553,582.828,860.958,582.828Z" transform="translate(-757 -423)"/>
  <path d="M881.036,579.837c.036,1.5-.816,1.963-2.184,1.977-2.183.022-2.121-1.742-2.425-3.085-.393-1.735.949-1.819,2.125-1.821C880.484,576.9,881.067,578.132,881.036,579.837Z" transform="translate(-757 -423)"/>
  <path class="cls-1" d="M878.812,582.314c-2.245,0-2.542-1.666-2.758-2.885-.036-.2-.071-.4-.114-.59a1.965,1.965,0,0,1,.253-1.721,2.884,2.884,0,0,1,2.359-.711h.01a2.9,2.9,0,0,1,2.153.771,3.537,3.537,0,0,1,.821,2.657,2.388,2.388,0,0,1-.58,1.779,2.79,2.79,0,0,1-2.1.7Zm-.25-4.906h-.008c-.459,0-1.314,0-1.58.335a1.136,1.136,0,0,0-.059.876c.046.205.084.419.123.635.234,1.313.433,2.061,1.773,2.061h.036a1.941,1.941,0,0,0,1.39-.393,1.441,1.441,0,0,0,.3-1.072v-.021a2.67,2.67,0,0,0-.534-1.947A1.927,1.927,0,0,0,878.562,577.408Z" transform="translate(-757 -423)"/>
  <path d="M861.952,571.14c.012.091.081.193.028.27-.578.829,2.493,2.235-1.257,2.55-1.9.16-2.652-.475-2.767-1.433-.235-1.946,2.41-1.187,4.085-1.339Z" transform="translate(-757 -423)"/>
  <path class="cls-1" d="M860.186,574.482c-2.158,0-2.638-1.163-2.727-1.9a1.6,1.6,0,0,1,.356-1.333c.606-.655,1.751-.611,2.856-.565.24.01.484.02.718.021l-.063-.475,2.415,1.3-1.325.12a.431.431,0,0,1-.026.04c.02.045.188.294.288.442a1.445,1.445,0,0,1,.354,1.437c-.242.506-.92.771-2.266.883C860.56,574.475,860.367,574.482,860.186,574.482Zm-.349-2.817a2.016,2.016,0,0,0-1.288.266c-.036.039-.144.155-.1.536.035.288.142,1.168,2.229.994,1.255-.105,1.448-.321,1.455-.331-.022-.039-.188-.285-.288-.433a2.18,2.18,0,0,1-.442-.988c-.256,0-.518-.012-.775-.022S860.1,571.665,859.837,571.665Z" transform="translate(-757 -423)"/>
  <path d="M898.976,594.411c-.6-1.6,1.365-1.626,3.484-1.7,1.853-.062,2.647.246,2.661,1.337.017,1.383-1.132,1.915-3.5,2.044C899.227,596.224,898.813,595.538,898.976,594.411Z" transform="translate(-757 -423)"/>
  <path class="cls-1" d="M901.072,596.61a2.877,2.877,0,0,1-2.229-.667,1.807,1.807,0,0,1-.378-1.48,1.451,1.451,0,0,1,.116-1.3c.563-.841,2.03-.89,3.729-.946l.135,0c1.427-.047,2.209.122,2.694.585a1.68,1.68,0,0,1,.483,1.246c.026,2.054-1.994,2.441-3.972,2.549C901.445,596.605,901.253,596.61,901.072,596.61Zm1.8-3.4c-.125,0-.257,0-.4.007l-.134,0c-1.182.04-2.653.089-2.932.5-.067.1-.056.274.033.515l.045.12-.019.126c-.074.516.027.7.11.786.173.189.658.4,2.014.327,2.809-.153,3.035-.874,3.026-1.538a.685.685,0,0,0-.174-.536A2.511,2.511,0,0,0,902.873,593.207Z" transform="translate(-757 -423)"/>
  <path d="M908.884,596.164c-2.019.165-3.026-.152-3.007-1.438.023-1.515,1.6-1.793,3.759-1.918,2.575-.149,2.34.788,2.472,1.732C912.305,595.94,911.047,596.309,908.884,596.164Z" transform="translate(-757 -423)"/>
  <path class="cls-1" d="M908,596.7a2.935,2.935,0,0,1-2.1-.589,1.789,1.789,0,0,1-.523-1.4c.033-2.166,2.559-2.312,4.23-2.409,2.558-.146,2.856.759,2.963,1.868.01.1.019.2.033.294a1.729,1.729,0,0,1-.4,1.487c-.559.6-1.583.822-3.317.707C908.564,596.691,908.269,596.7,908,596.7Zm2.219-3.415c-.163,0-.346.006-.553.018-2.444.142-3.273.5-3.288,1.427a.788.788,0,0,0,.207.651c.308.288,1.047.379,2.259.281l.037,0,.037,0c1.71.119,2.332-.147,2.555-.388a.738.738,0,0,0,.141-.668c-.016-.112-.027-.226-.038-.336C911.515,593.642,911.481,593.289,910.218,593.289Z" transform="translate(-757 -423)"/>
  <path d="M910.561,610.821c-.456,2.1-3.811.338-3.244,3.049a2.486,2.486,0,0,0,1.024,1.581c1.939.976,1.621-2.338,3.392-1.907.795,2.45.233,3.569-2.641,3.63-2.916.062-3.164-1.4-3.194-3.672C905.845,609.419,908.724,611.518,910.561,610.821Z" transform="translate(-757 -423)"/>
  <path class="cls-1" d="M908.916,617.677a3.558,3.558,0,0,1-2.6-.8c-.815-.788-.9-2.04-.916-3.362a3.319,3.319,0,0,1,.766-2.594,3.106,3.106,0,0,1,2.526-.485,4.085,4.085,0,0,0,1.693-.078l.862-.327-.2.9c-.28,1.285-1.386,1.49-2.194,1.64-.45.083-.875.162-1.019.377a1.24,1.24,0,0,0-.032.824,2.051,2.051,0,0,0,.76,1.237c.547.275.7.134,1.165-.661.367-.628.92-1.578,2.122-1.284l.271.065.086.266c.483,1.489.474,2.472-.033,3.184s-1.486,1.067-3.073,1.1Zm-1.1-6.295a1.392,1.392,0,0,0-.966.265,2.565,2.565,0,0,0-.448,1.85c.017,1.326.123,2.186.61,2.657a2.867,2.867,0,0,0,2.073.521c1.227-.025,1.972-.248,2.279-.681a2.421,2.421,0,0,0-.008-1.982c-.253.04-.437.284-.759.837-.388.664-1.038,1.777-2.478,1.049a2.96,2.96,0,0,1-1.289-1.925,2.019,2.019,0,0,1,.18-1.586,2.354,2.354,0,0,1,1.667-.8c.2-.037.379-.073.533-.113-.2-.01-.4-.026-.6-.043C908.332,611.4,908.062,611.382,907.812,611.382Z" transform="translate(-757 -423)"/>
  <path d="M899.563,581.1a3.259,3.259,0,0,1,.328,1.031c-.015.177-.334.329-.516.493a2.574,2.574,0,0,1-.269-.844C899.112,581.573,899.366,581.374,899.563,581.1Z" transform="translate(-757 -423)"/>
  <path class="cls-1" d="M899.149,583.5l-.247-.706c-.025-.073-.058-.146-.09-.221a1.819,1.819,0,0,1-.206-.808,1.214,1.214,0,0,1,.378-.74c.057-.065.117-.135.172-.212l.562-.785.317.912c.05.143.1.268.149.381a1.819,1.819,0,0,1,.205.855,1.027,1.027,0,0,1-.53.711,1.8,1.8,0,0,0-.151.114Z" transform="translate(-757 -423)"/>
  <path d="M874.714,587.875c.729-.02,1.223.062.991.35a2.33,2.33,0,0,1-1.181.213,2.487,2.487,0,0,1-.821-.33Z" transform="translate(-757 -423)"/>
  <path class="cls-1" d="M874.61,588.939h-.1a1.779,1.779,0,0,1-.794-.264c-.071-.038-.142-.076-.213-.107l-1.406-.6,2.6-.589c.756-.021,1.3.047,1.5.45a.643.643,0,0,1-.1.713C875.806,588.9,874.979,588.939,874.61,588.939Z" transform="translate(-757 -423)"/>
</svg>
