<svg id="Layer_1" data-name="Layer 1" xmlns="http://www.w3.org/2000/svg" viewBox="0 0 329.252 174.928">
  <defs>
    <style>
      .cls-1 {
        fill: #fff;
      }

      .cls-2 {
        fill: #71c652;
      }

      .cls-3 {
        fill: #78aa61;
      }
    </style>
  </defs>
  <title>kc</title>
  <path d="M809.6,562.334c-1.805-.11-1.83-1.361-1.871-2.739-.172-5.843-.2-5.842-5.914-6.329q.039-14.109.069-28.218c0-1.66-.127-3.265,1.478-4.433,1.106-.805.754-2.148.755-3.294.013-15.992-.026-31.984.052-47.975.01-2.024-.509-3.257-2.43-4.1a11.077,11.077,0,0,1-4.663-3.032c2.526-.747,4.81-1.574,7.164-2.077,2.443-.522,3.616-1.652,2.538-4.122-1.1-2.514-.034-3.107,2.263-2.911a20.607,20.607,0,0,0,2.82,0c1.842-.1,2.393.678,1.557,2.313-1.537,3.005.05,3.792,2.7,4.135,2.313.3,4.588.886,6.93,1.356-.115.354-.144.655-.227.671-5.713,1.061-6.331,4.859-6.266,9.953.188,14.807-.245,29.621-.294,44.432-.02,6.108.361,12.217.462,18.327.027,1.626.516,2.3,2.225,2.275,5.055-.079,10.112-.023,15.168-.038,1.037,0,2.356.174,2.281-1.426-.305-6.55,2.864-12.563,2.275-19.322-.978-11.218-.955-22.532-1.105-33.809-.042-3.182-.678-5.417-4-6.351-.82-.231-1.883-.439-2.218-1.567.9-.85,2.108-.907,3.2-1.248,5.6-1.759,5.656-1.75,6.1-7.665.108-1.435.456-2.294,2.021-2.062,1.132.168,3.194-.679,3.016,1.288-.319,3.523,1.947,4.332,4.417,5.317,1.51.6,2.915,1.466,4.349,2.2-.107.356-.121.716-.24.755-5.446,1.772-6.239,5.684-6.043,10.937.487,13.037.379,26.1.425,39.148.01,2.755.153,5.392,1.808,7.73a2.2,2.2,0,0,1,.567,1.264c-.737,5.588,3.186,4.893,6.574,4.931,5.871,17.334-.525,25.6-17.767,25.81-1.127.013-.892,1.857-2.321,1.147-1.726-.857-3.384.685-5.136.375l.017.021-1.437-1.423.014.015c-1.147-2.573-3.785-1.008-5.163-1.766-3.788-2.085-6.332-.1-9.189,1.511l-5.973.108Z" transform="translate(-795.432 -453.072)"/>
  <path d="M876.137,535.355,865.526,545c-.038-16.481-.213-32.964-.023-49.44.052-4.482-.665-7.478-4.161-8.805a12.588,12.588,0,0,1-2.168-1.521c2.83-2.466,5.941-2.352,8.76-3.276,1.82-.6,2.561-1.459,2.45-3.9-.054-1.191-.812-3.355,1.3-3.263,1.536.067,3.1-.03,2.942,3.053-.129,2.575,1.914,2.716,3.121,3.682a33.613,33.613,0,0,0,3.72,2.311c-.169.471-.226.913-.359.956-3.845,1.231-4.688,4.36-4.625,9.3C876.655,507.844,876.289,521.6,876.137,535.355Z" transform="translate(-795.432 -453.072)"/>
  <path d="M901.737,535.84,893.147,540c-.142-8.329-.421-16.66-.371-24.985.028-4.7-.357-8.361-3.064-9.965-.512-.3-.931-1.152-1.452-1.825.942-2.524,2.413-2.225,3.615-3.015.777-.51,1.383-1.123,1.291-2.961s-.719-1.712-1.432-1.589c-1.212.21-1.423-1.243-1.409-3.046.013-1.773.1-3.571-.018-5.317-.289-4.212.4-6.476,2.917-5.667,2.414.776,2.589-2.145,2.669-5.431.041-1.7-.518-4.494,1.227-4.282,1.43.174,1.064,2.7.966,4.224-.279,4.3.666,5.892,2.894,5.228,2.058-.614,2.716,1.1,2.539,4.766-.2,4.1.975,9.4-3.343,9.482,1.617,2.905,3.574,1.913,4.9,3.941.988,1.513,1.437,2.533.055,3.719-2.737,2.349-2.844,6.588-2.875,11.424C902.21,521.743,902.751,528.871,901.737,535.84Z" transform="translate(-795.432 -453.072)"/>
  <rect x="6.568" y="88.928" width="98" height="83"/>
  <path d="M860.3,627c3.9-34.973,1.675-69.951.443-104.927-.082-2.316,1.473-3.141,8.082-3.018,12.223.227,24.512.315,36.729.111,7.727-.129,10.324.482,10.14,3.588-1.773,30.046-.73,60.1-.14,90.143.092,4.71.117,9.42,1.757,14.1Zm14.625-101.723c2.96-.239,5.853-.47,5.557-1.976-.135-.687-.014-1.139-2.669-1.312-3.215-.21-6.248-.769-9.4-.044-1.858.428-1.684,1.147-1.315,1.79,1,1.744,5.223.451,7.459,1.032.36.094.36.374.527.568-3.081.184-7.945-.736-7.513,1.624.212,1.161,1.6,1.931,5.089,1.738,6.9-.382,1.249-2.087,2.312-3.093C875.078,525.511,874.951,525.387,874.929,525.277Zm18.728,19.961c1.047,1.771-3.232,3.977,4.063,4.387,8.066.454.589-4.757,10.207-3.957-.03-.423.412-.994-.171-1.244a25.238,25.238,0,0,0-11.225-1.638C891.029,543.085,893.9,544.558,893.657,545.237Zm-4.444-11.664c3.362-.281,7.941,1.107,7.884-1.213-.038-1.534-2.8-1.845-6.191-1.683-3.255.156-8.242-.5-8.214,1.6C882.718,534.186,887.144,533.428,889.213,533.574Zm17.226,33.52c3.059.127,4.315-.491,4.014-1.579-.2-.717.225-1.751-3.158-1.539-3.116.2-6.061.63-5.773,2.091C901.736,567.151,904.058,567.138,906.439,567.094Zm-30.9-25.894c-.456-1.551-.086-2.5-3.35-2.319-3.1.176-5.844.64-5.8,2.025.028.965,1.757,1.26,4.215,1.248C873.881,542.139,875.7,541.676,875.536,541.2Zm34.487,35.185c.059-1.15-1.012-1.977-4.565-1.975-2.163,0-4.63.058-3.908,1.227.559.9.444,2.092,4.459,2.078C908.525,577.7,910.092,577.395,910.022,576.384Zm-8.2-15.029c-.407-.8-.775-1.593-3.947-1.323-2.921.249-5.118.662-4.892,1.982.209,1.221,2.556,1.012,4.636,1.043C900.884,563.107,901.884,562.415,901.821,561.355Zm-12,14c-.407-.8-.775-1.593-3.947-1.323-2.921.249-5.118.662-4.892,1.982.209,1.221,2.556,1.012,4.636,1.043C888.884,577.107,889.884,576.415,889.821,575.355Zm0,9c-.407-.8-.775-1.593-3.947-1.323-2.921.249-5.118.662-4.892,1.982.209,1.221,2.556,1.012,4.636,1.043C888.884,586.107,889.884,585.415,889.821,584.355Zm0,5c-.407-.8-.775-1.593-3.947-1.323-2.921.249-5.118.662-4.892,1.982.209,1.221,2.556,1.012,4.636,1.043C888.884,591.107,889.884,590.415,889.821,589.355Zm11,0c-.407-.8-.775-1.593-3.947-1.323-2.921.249-5.118.662-4.892,1.982.209,1.221,2.556,1.012,4.636,1.043C899.884,591.107,900.884,590.415,900.821,589.355Zm0,7c-.407-.8-.775-1.593-3.947-1.323-2.921.249-5.118.662-4.892,1.982.209,1.221,2.556,1.012,4.636,1.043C899.884,598.107,900.884,597.415,900.821,596.355Zm-11-35c-.407-.8-.775-1.593-3.947-1.323-2.921.249-5.118.662-4.892,1.982.209,1.221,2.556,1.012,4.636,1.043C888.884,563.107,889.884,562.415,889.821,561.355Z" transform="translate(-795.432 -453.072)"/>
  <path class="cls-1" d="M918.02,627.5H859.745l.062-.556c3.35-30.07,2.152-60.667.993-90.255q-.286-7.3-.552-14.6a2.782,2.782,0,0,1,.718-2.192c1.036-1.053,3.242-1.427,7.873-1.344,14.03.26,25.7.3,36.711.111,5.331-.086,8.482.135,9.861,1.574a3.2,3.2,0,0,1,.786,2.544c-1.525,25.847-.955,52.14-.4,77.568q.135,6.268.263,12.536l.011.574c.084,4.4.171,8.956,1.718,13.374Zm-57.158-1h55.759c-1.386-4.353-1.47-8.756-1.551-13.021l-.011-.573q-.122-6.267-.263-12.534c-.552-25.447-1.124-51.761.4-77.648a2.242,2.242,0,0,0-.51-1.793c-1.115-1.163-4.316-1.351-9.123-1.266-11.028.185-22.7.149-36.747-.111-4.208-.079-6.344.234-7.141,1.045a1.837,1.837,0,0,0-.433,1.456q.257,7.3.552,14.595C862.952,566.093,864.144,596.534,860.862,626.5Zm36.082-27.94-.334,0c-.3,0-.6,0-.9,0-1.961.012-3.971.006-4.222-1.454a1.406,1.406,0,0,1,.274-1.128c.689-.893,2.525-1.22,5.068-1.437,3.222-.272,3.885.512,4.422,1.568l.066.222a1.631,1.631,0,0,1-.45,1.275C900.246,598.252,898.994,598.56,896.944,598.56Zm-.955-1.007c.213,0,.425,0,.635,0,2.374.043,3.221-.332,3.523-.648a.612.612,0,0,0,.176-.429c-.332-.646-.709-1.178-3.407-.949-1.039.089-3.8.324-4.362,1.052a.409.409,0,0,0-.08.348c.108.629,1.844.645,3.235.623Zm.955-5.993-.334,0c-.3,0-.6,0-.9,0-1.961.017-3.971.006-4.222-1.454a1.406,1.406,0,0,1,.274-1.128c.689-.893,2.525-1.22,5.068-1.437,3.222-.273,3.885.511,4.422,1.568l.066.222a1.631,1.631,0,0,1-.45,1.275C900.246,591.252,898.994,591.56,896.944,591.56Zm-.955-1.007c.213,0,.425,0,.635,0,2.374.049,3.221-.332,3.523-.648a.612.612,0,0,0,.176-.429c-.332-.646-.709-1.179-3.407-.949-1.039.089-3.8.324-4.362,1.052a.409.409,0,0,0-.08.348c.108.629,1.844.641,3.235.623Zm-10.045,1.007-.334,0c-.3,0-.6,0-.9,0-1.963.017-3.971.006-4.222-1.454a1.406,1.406,0,0,1,.274-1.128c.689-.893,2.525-1.22,5.068-1.437,3.222-.273,3.885.511,4.422,1.568l.066.222a1.631,1.631,0,0,1-.45,1.275C889.246,591.252,887.994,591.56,885.944,591.56Zm-.955-1.007c.213,0,.425,0,.635,0,2.37.049,3.221-.332,3.523-.648a.612.612,0,0,0,.176-.429c-.332-.646-.708-1.179-3.407-.949-1.039.089-3.8.324-4.362,1.052a.409.409,0,0,0-.08.348c.108.629,1.838.641,3.235.623Zm.955-3.993-.334,0c-.3,0-.6,0-.9,0-1.963.018-3.971.006-4.222-1.454a1.406,1.406,0,0,1,.274-1.128c.689-.893,2.525-1.22,5.068-1.437,3.222-.272,3.885.512,4.422,1.568l.066.222a1.631,1.631,0,0,1-.45,1.275C889.246,586.252,887.994,586.56,885.944,586.56Zm-.955-1.007c.213,0,.425,0,.635,0,2.37.048,3.221-.332,3.523-.648a.612.612,0,0,0,.176-.429c-.332-.645-.708-1.18-3.407-.949-1.039.089-3.8.324-4.362,1.052a.409.409,0,0,0-.08.348c.108.629,1.838.644,3.235.623Zm20.945-7.339c-3.4,0-4.081-.844-4.616-1.946-.061-.125-.121-.249-.194-.368a1.021,1.021,0,0,1-.087-1.088c.424-.761,1.821-.9,4.42-.9h.02c2.38,0,3.825.354,4.546,1.112a1.8,1.8,0,0,1,.5,1.359,1.263,1.263,0,0,1-.344.94c-.573.617-1.82.884-4.168.892Zm-4.011-2.929c.008.009.022.041.051.089.091.147.167.3.242.456.349.718.693,1.355,3.79,1.384,2.411-.009,3.2-.316,3.44-.572a.265.265,0,0,0,.077-.223l0-.03v-.029a.818.818,0,0,0-.225-.648c-.348-.365-1.293-.8-3.822-.8h-.018C904.665,574.91,902.278,574.911,901.923,575.285Zm-15.979,2.274-.334,0c-.3,0-.6,0-.9,0-1.963.014-3.971.006-4.222-1.454a1.406,1.406,0,0,1,.274-1.128c.689-.893,2.525-1.22,5.068-1.437,3.222-.271,3.885.512,4.422,1.568l.066.222a1.631,1.631,0,0,1-.45,1.275C889.246,577.252,887.994,577.56,885.944,577.56Zm-.955-1.007c.213,0,.425,0,.635,0,2.37.048,3.221-.332,3.523-.648a.612.612,0,0,0,.176-.429c-.332-.646-.708-1.178-3.407-.949-1.039.089-3.8.324-4.362,1.052a.409.409,0,0,0-.08.348c.108.629,1.838.643,3.235.623ZM907.2,567.61q-.364,0-.764-.017c-2.508.046-5.1.091-5.4-1.431a1.379,1.379,0,0,1,.266-1.138c.667-.865,2.452-1.328,5.967-1.549,2.807-.177,3.456.47,3.624,1.644a2.087,2.087,0,0,0,.047.262,1.373,1.373,0,0,1-.231,1.269C910.193,567.294,909.042,567.61,907.2,567.61Zm-.752-1.017h.015c2.708.122,3.334-.4,3.462-.565a.382.382,0,0,0,.05-.381,3.116,3.116,0,0,1-.073-.385c-.066-.463-.14-.94-2.571-.788-3.027.189-4.789.58-5.237,1.161a.38.38,0,0,0-.077.334c.138.7,2.923.65,4.417.624Zm-8.5-3.034-.334,0c-.3,0-.6,0-.9,0-1.958.021-3.971.006-4.222-1.454a1.406,1.406,0,0,1,.274-1.128c.689-.893,2.525-1.22,5.068-1.437,3.222-.272,3.885.512,4.422,1.568l.066.222a1.631,1.631,0,0,1-.45,1.275C901.246,563.252,899.994,563.56,897.944,563.56Zm-.955-1.007c.213,0,.425,0,.635,0,2.365.048,3.221-.332,3.523-.648a.612.612,0,0,0,.176-.429c-.332-.645-.709-1.177-3.407-.949-1.039.089-3.8.324-4.362,1.052a.409.409,0,0,0-.08.348c.108.629,1.839.644,3.235.623Zm-11.045,1.007-.334,0c-.3,0-.6,0-.9,0-1.963.021-3.971.006-4.222-1.454a1.406,1.406,0,0,1,.274-1.128c.689-.893,2.525-1.22,5.068-1.437,3.222-.272,3.885.512,4.422,1.568l.066.222a1.631,1.631,0,0,1-.45,1.275C889.246,563.252,887.994,563.56,885.944,563.56Zm-.955-1.007c.213,0,.425,0,.635,0,2.37.048,3.221-.332,3.523-.648a.612.612,0,0,0,.176-.429c-.332-.645-.708-1.177-3.407-.949-1.039.089-3.8.324-4.362,1.052a.409.409,0,0,0-.08.348c.108.629,1.838.644,3.235.623Zm13.658-12.4c-.295,0-.613-.009-.956-.028-2.707-.152-4.085-.551-4.608-1.331a2.093,2.093,0,0,1,.022-1.953c.211-.609.324-1,.121-1.349l-.119-.2.055-.153a2.813,2.813,0,0,0-.16-.277,1.438,1.438,0,0,1-.269-1.448c.349-.672,1.441-1,3.77-1.124a25.86,25.86,0,0,1,11.45,1.677,1.051,1.051,0,0,1,.524,1.4,1.286,1.286,0,0,0-.051.271l.042.583-.583-.049c-4.623-.385-4.908.6-5.21,1.648C902.293,549.132,901.733,550.152,898.647,550.152Zm-4.474-5.006a2.632,2.632,0,0,1-.123,2.021c-.181.521-.281.854-.137,1.069.214.319,1.053.732,3.834.89,3.455.186,3.69-.634,3.967-1.591.448-1.547,1.174-2.705,5.788-2.4l0-.02a1.235,1.235,0,0,0,.051-.272,25.536,25.536,0,0,0-11-1.557c-2.694.146-2.928.568-2.937.586a1.516,1.516,0,0,0,.229.458A1.615,1.615,0,0,1,894.173,545.146Zm-23.733-2.492c-2.133,0-4.513-.215-4.558-1.734-.056-1.919,3.141-2.361,6.275-2.539,2.885-.16,3.356.533,3.7,2.049.044.193.091.4.155.621a.692.692,0,0,1-.1.616c-.593.839-3.583.979-5.312.986Zm2.567-3.3c-.231,0-.494.008-.793.025-4.67.266-5.345,1.062-5.332,1.512,0,.13.186.745,3.712.763a12.5,12.5,0,0,0,4.4-.514c-.045-.171-.082-.334-.117-.489C874.68,539.759,874.588,539.354,873.007,539.354Zm21.613-5.121c-.626,0-1.319-.046-2.048-.095a22.985,22.985,0,0,0-3.317-.066l-.038,0-.039,0c-.486-.034-1.132-.016-1.817,0-1.885.055-3.831.112-4.713-.733a1.462,1.462,0,0,1-.455-1.06,1.545,1.545,0,0,1,.455-1.136c.979-.985,3.348-.967,5.859-.948.828.006,1.646.013,2.376-.022,3.318-.159,5.277.155,6.169.985a1.647,1.647,0,0,1,.545,1.186,1.586,1.586,0,0,1-.473,1.238A3.6,3.6,0,0,1,894.621,534.233Zm-4.361-1.2c.784,0,1.591.054,2.379.107,1.611.106,3.278.219,3.793-.276a.6.6,0,0,0,.165-.492.643.643,0,0,0-.226-.478c-.457-.424-1.771-.895-5.44-.718-.752.036-1.607.029-2.431.023-1.991-.011-4.459-.033-5.143.653a.539.539,0,0,0-.164.417.459.459,0,0,0,.147.352c.58.556,2.553.5,3.992.456.693-.02,1.348-.039,1.878-.005C889.552,533.045,889.9,533.034,890.259,533.034Zm-18.583-3.808c-2.783,0-4.324-.73-4.589-2.177a1.566,1.566,0,0,1,.319-1.359,2.155,2.155,0,0,1,1.035-.617,2.417,2.417,0,0,1-1.769-1.089,1.6,1.6,0,0,1-.206-1.416c.228-.52.813-.873,1.842-1.11a22.927,22.927,0,0,1,7.455-.139c.689.062,1.383.125,2.087.171,2.427.159,2.923.553,3.1,1.583l.024.132a1.382,1.382,0,0,1-.25,1.13c-.68.9-2.484,1.158-4.675,1.351l.077.089-.686.041a.629.629,0,0,1-.119.151c.045.033.346.327.525.5.462.452.985.963.752,1.583-.22.585-.95.98-3.905,1.144Q872.16,529.226,871.676,529.226Zm-.623-3.418c-1.292,0-2.51.092-2.887.532a.58.58,0,0,0-.1.529c.237,1.294,2.617,1.433,4.57,1.329,2.224-.124,2.831-.376,2.991-.484a3.689,3.689,0,0,0-.481-.53c-.4-.391-.812-.794-.809-1.3v-.028c-.592.006-1.209-.01-1.816-.026C872.053,525.821,871.547,525.808,871.053,525.808Zm1.827-1.7a7.377,7.377,0,0,1,1.811.18,1.019,1.019,0,0,1,.63.459c1.923-.158,4.126-.376,4.608-1.012A.378.378,0,0,0,880,523.4l-.028-.153c-.065-.374-.108-.621-2.183-.757-.711-.046-1.414-.11-2.111-.173a22.22,22.22,0,0,0-7.141.118c-.945.218-1.12.465-1.15.536-.041.093.011.263.157.519.466.814,2.195.737,3.863.662C871.9,524.126,872.4,524.1,872.88,524.1Z" transform="translate(-795.432 -453.072)"/>
  <path d="M820.275,624.574c2.735-27.114,1.176-54.232.311-81.348-.057-1.8,1.034-2.435,5.675-2.34,8.582.176,17.21.244,25.789.086,5.425-.1,7.248.374,7.12,2.782-1.245,23.294-.512,46.591-.1,69.886.065,3.651.082,7.3,1.233,10.934Zm10.268-78.864c2.078-.185,4.109-.364,3.9-1.532-.095-.533-.01-.883-1.874-1.018-2.257-.163-4.387-.6-6.6-.034-1.3.332-1.182.889-.923,1.388.7,1.352,3.667.35,5.237.8.253.073.253.29.37.44-2.163.143-5.578-.571-5.275,1.259.149.9,1.121,1.5,3.573,1.347,4.842-.3.877-1.618,1.623-2.4C830.648,545.892,830.559,545.8,830.543,545.71Zm13.15,15.475c.735,1.373-2.269,3.083,2.852,3.4,5.663.352.414-3.688,7.167-3.068-.021-.328.289-.77-.12-.964a16.211,16.211,0,0,0-7.882-1.27C841.848,559.516,843.863,560.658,843.693,561.185ZM826.711,572.1c.735,1.373-2.269,3.083,2.852,3.4,5.663.352.414-3.688,7.167-3.068-.021-.328.289-.77-.12-.964a16.211,16.211,0,0,0-7.882-1.27C824.866,570.433,826.881,571.575,826.711,572.1Zm13.862-19.96c2.36-.218,5.576.858,5.536-.941-.027-1.189-1.964-1.431-4.347-1.3-2.286.121-5.787-.386-5.767,1.24C836.012,552.617,839.12,552.029,840.573,552.142Zm12.095,25.987c2.148.1,3.03-.381,2.818-1.224-.139-.556.158-1.358-2.217-1.193-2.188.151-4.256.488-4.054,1.621C849.365,578.174,851,578.164,852.667,578.13Zm-21.834,24.26c2.148.1,3.03-.381,2.818-1.224-.139-.556.158-1.358-2.217-1.193-2.188.151-4.256.488-4.054,1.621C827.531,602.435,829.162,602.424,830.833,602.39Zm.136-44.335c-.32-1.2-.06-1.942-2.352-1.8-2.175.136-4.1.5-4.074,1.57.02.748,1.234.977,2.959.968C829.807,558.783,831.085,558.424,830.969,558.055Zm18.455,15.626c-.286-.62-.544-1.235-2.772-1.026-2.051.193-3.593.513-3.435,1.536.147.947,1.795.784,3.255.809C848.767,575.039,849.469,574.5,849.425,573.681Zm-15.769,19.408c-.286-.62-.544-1.235-2.772-1.026-2.051.193-3.593.513-3.435,1.536.147.947,1.795.784,3.255.809C833,594.447,833.7,593.911,833.656,593.089Zm9.7-7.278c-.286-.62-.544-1.235-2.772-1.026-2.051.193-3.593.513-3.435,1.536.147.947,1.795.784,3.255.809C842.7,587.169,843.4,586.632,843.36,585.811Zm-9.7-3.639c-.286-.62-.544-1.235-2.772-1.026-2.051.193-3.593.513-3.435,1.536.147.947,1.795.784,3.255.809C833,583.53,833.7,582.993,833.656,582.172Z" transform="translate(-795.432 -453.072)"/>
  <path class="cls-1" d="M860.987,625.074H819.722l.055-.55c2.352-23.312,1.511-47.032.7-69.973q-.2-5.654-.388-11.311a2.337,2.337,0,0,1,.6-1.838c.789-.8,2.352-1.08,5.583-1.018,9.7.2,18.13.228,25.769.086,3.713-.065,5.923.1,6.971,1.186a2.686,2.686,0,0,1,.658,2.123c-1.071,20.037-.67,40.422-.283,60.135q.1,4.859.185,9.716l.008.443a35.78,35.78,0,0,0,1.2,10.349Zm-40.16-1h38.806a38.726,38.726,0,0,1-1.054-9.982l-.008-.443q-.086-4.856-.185-9.713c-.388-19.731-.789-40.135.284-60.208a1.736,1.736,0,0,0-.378-1.376c-.784-.812-3.062-.94-6.233-.88-7.651.142-16.094.113-25.808-.086-2.807-.059-4.3.165-4.852.721a1.407,1.407,0,0,0-.313,1.1q.181,5.653.388,11.307C822.282,577.31,823.117,600.874,820.827,624.074ZM831.362,602.9c-.17,0-.349,0-.536-.013-1.825.042-3.709.072-3.938-1.208a1.235,1.235,0,0,1,.246-1c.533-.683,1.769-1.032,4.265-1.205,2.084-.141,2.581.419,2.706,1.378a1.816,1.816,0,0,0,.031.193,1.215,1.215,0,0,1-.225,1.113A3.236,3.236,0,0,1,831.362,602.9Zm-.523-1.013h.017c1.823.082,2.221-.29,2.282-.365.024-.029.067-.083.029-.238a2.587,2.587,0,0,1-.053-.308c-.043-.331-.081-.619-1.645-.508-2.038.141-3.23.417-3.546.822a.239.239,0,0,0-.05.212c.08.443,2.092.4,2.95.384Zm.09-6.979-.233,0c-.208,0-.418,0-.629,0-1.373,0-2.92,0-3.112-1.229a1.259,1.259,0,0,1,.249-.99c.543-.7,1.845-.953,3.633-1.122,2.367-.215,2.878.456,3.264,1.3l.053.2a1.421,1.421,0,0,1-.393,1.108A3.9,3.9,0,0,1,830.93,594.91Zm-.671-1,.454,0c1.635.026,2.163-.259,2.329-.432a.4.4,0,0,0,.115-.275c-.217-.46-.47-.8-2.226-.641-.63.06-2.548.24-2.937.74a.254.254,0,0,0-.05.222c.06.387,1.248.386,2.122.383Zm10.38-6.273-.239,0c-.209,0-.421,0-.631,0-1.37,0-2.919.006-3.11-1.229a1.259,1.259,0,0,1,.249-.989c.542-.7,1.845-.952,3.633-1.121,2.367-.224,2.877.455,3.264,1.295l.054.2a1.427,1.427,0,0,1-.394,1.11A3.893,3.893,0,0,1,840.639,587.632Zm-.669-1,.447,0c1.635.029,2.163-.258,2.329-.431a.4.4,0,0,0,.115-.276c-.217-.461-.47-.809-2.226-.64-.63.06-2.549.24-2.937.739a.254.254,0,0,0-.05.222c.06.386,1.251.38,2.12.383Zm-9.041-2.634-.233,0c-.208,0-.418,0-.629,0-1.373,0-2.92,0-3.112-1.229a1.259,1.259,0,0,1,.249-.99c.543-.7,1.845-.953,3.633-1.122,2.367-.216,2.878.456,3.264,1.3l.053.2a1.421,1.421,0,0,1-.393,1.108A3.9,3.9,0,0,1,830.93,583.993Zm-.67-1,.453,0c1.635.029,2.163-.259,2.329-.432a.4.4,0,0,0,.115-.275c-.217-.461-.47-.8-2.226-.641-.63.06-2.548.24-2.937.74a.254.254,0,0,0-.05.222c.06.387,1.251.388,2.122.383Zm21.492-4.346c-1.5,0-2.838-.153-3.029-1.222a1.235,1.235,0,0,1,.246-1c.533-.683,1.769-1.032,4.265-1.205,2.086-.141,2.582.421,2.706,1.378a1.816,1.816,0,0,0,.031.193,1.219,1.219,0,0,1-.225,1.114c-.461.563-1.474.8-3.084.731C852.357,578.637,852.051,578.643,851.752,578.643Zm.922-1.013h.017c1.817.08,2.22-.29,2.282-.366.024-.028.067-.082.029-.238a2.587,2.587,0,0,1-.053-.308c-.043-.331-.083-.616-1.645-.508-2.038.141-3.23.417-3.546.822a.239.239,0,0,0-.05.212c.079.443,2.091.4,2.95.385Zm-22.467-1.605c-.209,0-.434-.008-.675-.022-1.908-.118-2.9-.43-3.321-1.04a1.8,1.8,0,0,1-.033-1.641c.142-.453.219-.745.092-.984l-.1-.187.04-.121c-.023-.051-.065-.125-.1-.179a1.251,1.251,0,0,1-.168-1.245c.293-.541,1.091-.8,2.752-.9a16.735,16.735,0,0,1,8.126,1.317.95.95,0,0,1,.439,1.194,1.2,1.2,0,0,0-.034.189l.027.574-.572-.044c-3.108-.288-3.288.4-3.495,1.185C832.916,575.159,832.489,576.024,830.207,576.024Zm-2.986-4.01a2.309,2.309,0,0,1-.089,1.606c-.123.392-.19.639-.1.774s.542.483,2.56.608c2.3.144,2.433-.4,2.628-1.14.314-1.2.85-2.179,4.086-1.963l0-.018a15.885,15.885,0,0,0-7.554-1.184c-1.694.1-1.929.376-1.938.388a2.621,2.621,0,0,1,.163.27A1.433,1.433,0,0,1,827.221,572.015ZM846.7,575.5l-.239,0c-.208,0-.418,0-.629,0-1.376,0-2.92.006-3.112-1.229a1.259,1.259,0,0,1,.249-.99c.543-.7,1.845-.953,3.633-1.121,2.367-.225,2.877.455,3.264,1.295l.054.2a1.421,1.421,0,0,1-.393,1.109A3.89,3.89,0,0,1,846.7,575.5Zm-.675-1,.453,0c1.644.018,2.163-.258,2.329-.431a.4.4,0,0,0,.115-.276c-.217-.461-.471-.809-2.226-.64-.63.059-2.548.238-2.937.739a.254.254,0,0,0-.05.222c.06.387,1.248.386,2.122.383Zm1.16-9.39c-.209,0-.434-.008-.675-.022-1.908-.118-2.9-.43-3.321-1.041a1.8,1.8,0,0,1-.032-1.64c.142-.453.219-.745.092-.984l-.1-.187.039-.121c-.023-.051-.065-.125-.1-.178a1.256,1.256,0,0,1-.168-1.247c.294-.541,1.091-.8,2.753-.9a16.774,16.774,0,0,1,8.125,1.317.95.95,0,0,1,.439,1.194,1.2,1.2,0,0,0-.034.189l.027.574-.572-.044c-3.109-.288-3.288.4-3.495,1.185C849.9,564.242,849.471,565.107,847.189,565.107ZM844.2,561.1a2.307,2.307,0,0,1-.089,1.606c-.123.391-.191.639-.1.773s.541.484,2.56.609c2.293.146,2.432-.4,2.628-1.14.314-1.2.846-2.176,4.086-1.963l0-.018a15.876,15.876,0,0,0-7.554-1.184c-1.694.1-1.929.375-1.937.387a2.763,2.763,0,0,1,.163.271A1.433,1.433,0,0,1,844.2,561.1Zm-1,.054ZM827.292,559.3c-1.109,0-3.212-.078-3.25-1.455-.042-1.592,2.406-1.949,4.543-2.083,2.224-.141,2.529.576,2.757,1.686.031.147.063.307.108.476a.666.666,0,0,1-.108.582c-.468.642-2.345.786-3.837.794Zm1.957-2.562c-.169,0-.368.008-.6.022-3.366.21-3.611.863-3.605,1.058,0,0,.073.5,2.457.481a8.979,8.979,0,0,0,2.929-.342c-.024-.107-.045-.21-.066-.309C830.225,556.972,830.176,556.733,829.25,556.733Zm15.122-3.968c-.447,0-.937-.036-1.454-.074a14.529,14.529,0,0,0-2.3-.051l-.042,0-.042,0c-.33-.024-.779-.011-1.256,0-1.327.044-2.7.086-3.388-.569a1.284,1.284,0,0,1-.4-.934,1.356,1.356,0,0,1,.4-1c.759-.762,2.422-.747,4.188-.733.577,0,1.147.009,1.658-.017,2.312-.125,3.716.117,4.4.753a1.438,1.438,0,0,1,.472,1.04,1.374,1.374,0,0,1-.41,1.074A2.588,2.588,0,0,1,844.372,552.766Zm-3.064-1.154c.556,0,1.126.042,1.683.083,1.025.075,2.187.161,2.519-.154.029-.027.1-.1.1-.328a.435.435,0,0,0-.152-.329c-.259-.239-1.081-.621-3.668-.487-.529.027-1.122.023-1.719.019-1.337-.015-3.008-.024-3.471.439a.353.353,0,0,0-.1.277.278.278,0,0,0,.087.223c.382.366,1.7.325,2.664.292.484-.016.943-.03,1.323,0C840.811,551.62,841.058,551.611,841.308,551.611Zm-13.056-2.728c-2.035,0-3.166-.6-3.362-1.787a1.373,1.373,0,0,1,.292-1.179,1.485,1.485,0,0,1,.444-.341,1.687,1.687,0,0,1-1.019-.832,1.389,1.389,0,0,1-.13-1.207,1.851,1.851,0,0,1,1.374-.9,14.958,14.958,0,0,1,5.294-.113c.483.048.97.1,1.463.132,1.651.12,2.17.418,2.314,1.328l.017.1a1.232,1.232,0,0,1-.23.992c-.509.666-1.684.884-3.118,1.032l.014.018-.585.078-.006.01a3.568,3.568,0,0,0,.3.352c.335.362.753.813.537,1.354-.228.567-1,.821-2.862.935Q828.6,548.884,828.251,548.884Zm-.446-2.65c-.843,0-1.627.062-1.872.342-.027.031-.1.113-.058.357.152.914,1.745,1.01,3.049.93a6.312,6.312,0,0,0,1.924-.3c-.072-.1-.191-.226-.271-.312a2.015,2.015,0,0,1-.6-.976c-.36,0-.754-.01-1.131-.021C828.515,546.244,828.155,546.233,827.806,546.233Zm1.3-1.545a4.871,4.871,0,0,1,1.322.146.855.855,0,0,1,.479.34c1.272-.116,2.687-.28,3.008-.7a.236.236,0,0,0,.04-.21l-.02-.119c-.038-.243-.062-.39-1.4-.486-.5-.036-1-.086-1.49-.135a14.017,14.017,0,0,0-4.948.087c-.622.158-.705.329-.708.336s-.022.091.105.337c.285.552,1.443.5,2.564.438C828.407,544.706,828.761,544.688,829.1,544.688Z" transform="translate(-795.432 -453.072)"/>
  <path d="M796.014,625.787c1.975-15.211.928-30.423-.078-45.633-.1-1.5,1.5-1.788,5.5-1.64,4.2.155,8.477.276,12.683.2,4.449-.084,5.184.517,5.154,1.833-.207,9.063-.314,18.127-.142,27.191.114,6.018.744,12.035,1.143,18.052Z" transform="translate(-795.432 -453.072)"/>
  <path class="cls-1" d="M820.809,626.287H795.445l.074-.564c1.942-14.962.934-30.2-.042-44.934l-.04-.6a1.692,1.692,0,0,1,.448-1.351c.807-.83,2.652-.929,5.569-.822,4.043.151,8.374.279,12.655.2,3.025-.055,4.477.191,5.168.886a1.915,1.915,0,0,1,.5,1.46c-.249,10.872-.292,19.252-.142,27.169.079,4.143.408,8.362.727,12.442.146,1.861.291,3.724.415,5.586Zm-24.226-1H819.74c-.115-1.681-.247-3.361-.378-5.042-.32-4.095-.651-8.328-.73-12.5-.15-7.933-.106-16.324.142-27.212.01-.451-.092-.618-.2-.73-.591-.594-2.82-.624-4.441-.592-4.3.082-8.653-.047-12.711-.2-2.056-.078-4.238-.074-4.814.519a.694.694,0,0,0-.167.588l.04.6C797.441,595.321,798.44,610.411,796.583,625.287Z" transform="translate(-795.432 -453.072)"/>
  <path d="M954.142,625.5c5.031-38.745,2.365-77.492-.2-116.234-.253-3.824,3.818-4.555,14.009-4.178,10.7.4,21.593.7,32.306.5,11.332-.213,13.206,1.317,13.129,4.67-.527,23.086-.8,46.174-.361,69.26.291,15.328,1.894,30.654,2.91,45.981Z" transform="translate(-795.432 -453.072)"/>
  <path class="cls-1" d="M1016.472,626h-62.9l.074-.564c4.958-38.191,2.386-77.046-.1-114.621l-.1-1.516a3.527,3.527,0,0,1,.925-2.851c1.636-1.684,5.192-2.172,13.6-1.859,10.307.381,21.349.7,32.278.5,7.388-.139,11.028.449,12.6,2.028a4.1,4.1,0,0,1,1.037,3.153c-.632,27.719-.743,49.073-.361,69.238.2,10.578,1.042,21.338,1.855,31.744.363,4.658.74,9.475,1.055,14.214Zm-61.761-1H1015.4c-.307-4.561-.669-9.188-1.019-13.669-.814-10.421-1.657-21.2-1.858-31.8-.383-20.181-.271-41.547.361-69.28a3.057,3.057,0,0,0-.746-2.425c-1.34-1.345-4.882-1.861-11.873-1.733-10.951.2-22.014-.12-32.335-.5-6.569-.243-11.266-.071-12.847,1.557a2.552,2.552,0,0,0-.645,2.087l.1,1.516C957.021,548.188,959.584,586.893,954.71,625Z" transform="translate(-795.432 -453.072)"/>
  <path d="M1016.048,627.5c2.776-21.382,1.3-42.765-.11-64.146-.14-2.11,2.107-2.513,7.731-2.305,5.907.219,11.917.388,17.829.277,6.254-.117,7.288.727,7.246,2.577-.291,12.74-.441,25.482-.2,38.222.16,8.459,1.045,16.917,1.606,25.376Z" transform="translate(-795.432 -453.072)"/>
  <path class="cls-1" d="M1050.685,628h-35.206l.073-.564c2.733-21.049,1.315-42.474-.056-63.193l-.057-.854a2.188,2.188,0,0,1,.573-1.744c.953-.982,2.959-1.267,7.675-1.095,5.685.211,11.777.389,17.8.276,4.186-.073,6.19.253,7.118,1.186a2.5,2.5,0,0,1,.638,1.9c-.35,15.287-.411,27.068-.2,38.2.111,5.828.574,11.76,1.022,17.5.205,2.618.409,5.237.583,7.855Zm-34.068-1h33c-.166-2.437-.356-4.874-.547-7.311-.449-5.752-.914-11.7-1.025-17.556-.211-11.146-.149-22.941.2-38.243a1.489,1.489,0,0,0-.347-1.175c-.684-.686-2.654-.961-6.39-.891-6.055.111-12.158-.066-17.857-.276-3.083-.116-6.057-.1-6.92.791a1.17,1.17,0,0,0-.293.981l.057.854C1017.856,584.759,1019.264,606.037,1016.616,627Z" transform="translate(-795.432 -453.072)"/>
  <path d="M1090.048,626.5c2.776-21.382,1.3-42.765-.11-64.146-.14-2.11,2.107-2.513,7.731-2.305,5.907.219,11.917.388,17.829.277,6.254-.117,7.288.727,7.246,2.577-.291,12.74-.441,25.482-.2,38.222.16,8.459,1.045,16.917,1.606,25.376Z" transform="translate(-795.432 -453.072)"/>
  <path class="cls-1" d="M1124.685,627h-35.206l.073-.564c2.733-21.049,1.315-42.474-.056-63.193l-.057-.854a2.188,2.188,0,0,1,.573-1.744c.953-.982,2.959-1.267,7.675-1.095,5.684.211,11.777.39,17.8.276,4.187-.073,6.19.253,7.118,1.186a2.5,2.5,0,0,1,.638,1.9c-.35,15.287-.411,27.068-.2,38.2.111,5.828.574,11.76,1.022,17.5.205,2.618.409,5.237.583,7.855Zm-34.068-1h33c-.166-2.437-.356-4.874-.547-7.311-.449-5.752-.914-11.7-1.025-17.556-.211-11.146-.149-22.941.2-38.243a1.489,1.489,0,0,0-.347-1.175c-.684-.687-2.654-.963-6.39-.891-6.055.113-12.158-.066-17.857-.276-3.085-.115-6.057-.1-6.92.791a1.17,1.17,0,0,0-.293.981l.057.854C1091.856,583.759,1093.264,605.037,1090.616,626Z" transform="translate(-795.432 -453.072)"/>
  <path class="cls-1" d="M1111.439,572.094c3.059.127,4.315-.491,4.014-1.579-.2-.717.225-1.751-3.158-1.539-3.116.2-6.061.63-5.773,2.091C1106.736,572.151,1109.058,572.138,1111.439,572.094Z" transform="translate(-795.432 -453.072)"/>
  <path class="cls-2" d="M1112.2,572.61q-.363,0-.764-.017c-2.509.045-5.1.091-5.4-1.431a1.375,1.375,0,0,1,.266-1.138c.666-.865,2.45-1.328,5.966-1.549,2.8-.178,3.456.47,3.624,1.644a2.392,2.392,0,0,0,.047.262,1.374,1.374,0,0,1-.229,1.269C1115.193,572.294,1114.042,572.61,1112.2,572.61Zm-.752-1.017h.015c2.714.12,3.334-.4,3.463-.565a.384.384,0,0,0,.05-.381,2.948,2.948,0,0,1-.073-.385c-.066-.463-.138-.938-2.572-.788-3.027.189-4.789.58-5.236,1.161a.38.38,0,0,0-.077.334c.139.7,2.922.65,4.417.624Z" transform="translate(-795.432 -453.072)"/>
  <path class="cls-1" d="M1115.022,581.384c.059-1.15-1.012-1.977-4.565-1.975-2.163,0-4.63.058-3.908,1.227.559.9.444,2.092,4.459,2.078C1113.525,582.7,1115.092,582.395,1115.022,581.384Z" transform="translate(-795.432 -453.072)"/>
  <path class="cls-2" d="M1110.935,583.214c-3.4,0-4.081-.844-4.617-1.946a4,4,0,0,0-.193-.368,1.021,1.021,0,0,1-.087-1.088c.424-.761,1.821-.9,4.421-.9h.02c2.38,0,3.825.354,4.546,1.112a1.8,1.8,0,0,1,.5,1.359,1.264,1.264,0,0,1-.345.94c-.573.617-1.82.884-4.168.892Zm-4.011-2.929c.009.009.021.041.051.089a4.853,4.853,0,0,1,.242.456c.346.712.673,1.384,3.714,1.384h.076c2.411-.009,3.2-.316,3.44-.572a.265.265,0,0,0,.076-.223l0-.03,0-.029a.82.82,0,0,0-.225-.648c-.348-.365-1.294-.8-3.822-.8h-.019C1109.666,579.91,1107.279,579.911,1106.924,580.285Z" transform="translate(-795.432 -453.072)"/>
  <path class="cls-1" d="M1106.821,566.355c-.407-.8-.775-1.593-3.947-1.323-2.921.249-5.118.662-4.892,1.982.209,1.221,2.556,1.012,4.636,1.043C1105.884,568.107,1106.884,567.415,1106.821,566.355Z" transform="translate(-795.432 -453.072)"/>
  <path class="cls-2" d="M1102.943,568.56l-.334,0c-.3,0-.6,0-.9,0-1.953.021-3.972.007-4.223-1.455a1.413,1.413,0,0,1,.274-1.128c.69-.892,2.525-1.219,5.068-1.436,3.223-.272,3.886.513,4.423,1.569l.065.221a1.633,1.633,0,0,1-.448,1.275C1106.247,568.252,1104.994,568.56,1102.943,568.56Zm-.953-1.007q.319,0,.635,0c2.36.049,3.221-.332,3.522-.648a.612.612,0,0,0,.176-.429c-.332-.646-.713-1.177-3.408-.949-1.038.089-3.8.324-4.361,1.052a.408.408,0,0,0-.079.348c.106.628,1.84.638,3.234.623Z" transform="translate(-795.432 -453.072)"/>
  <path d="M1045.156,627.5c3.739-34.244,1.757-68.489-.148-102.73-.188-3.379,2.838-4.025,10.412-3.692,7.955.35,16.048.621,24.01.443,8.422-.188,9.815,1.164,9.758,4.127-.391,20.4-.594,40.809-.268,61.213.216,13.548,1.408,27.093,2.163,40.639Z" transform="translate(-795.432 -453.072)"/>
  <path class="cls-1" d="M1091.61,628H1044.6l.061-.555c3.686-33.747,1.773-68.081-.075-101.284l-.075-1.363a3.406,3.406,0,0,1,.886-2.738c1.518-1.534,4.965-1.705,10.048-1.481,7.663.336,15.872.626,23.977.442,5.314-.118,8.019.356,9.3,1.639a3.924,3.924,0,0,1,.965,3c-.47,24.525-.552,43.4-.268,61.2.148,9.347.773,18.855,1.378,28.052.274,4.189.55,8.378.783,12.567Zm-45.9-1h44.84c-.227-4.01-.489-8.02-.753-12.029-.605-9.208-1.23-18.729-1.38-28.1-.284-17.809-.2-36.693.268-61.231a2.88,2.88,0,0,0-.671-2.27c-1.043-1.041-3.679-1.455-8.576-1.347-8.132.18-16.362-.106-24.042-.443-4.673-.2-8.039-.082-9.293,1.186a2.442,2.442,0,0,0-.6,1.979l.076,1.363C1047.424,559.169,1049.327,593.349,1045.713,627Z" transform="translate(-795.432 -453.072)"/>
  <path class="cls-1" d="M1062.439,536.094c3.059.127,4.315-.491,4.014-1.579-.2-.717.225-1.751-3.158-1.539-3.116.2-6.061.63-5.773,2.091C1057.736,536.151,1060.058,536.138,1062.439,536.094Z" transform="translate(-795.432 -453.072)"/>
  <path class="cls-1" d="M1063.194,536.61q-.363,0-.762-.017c-2.508.048-5.1.091-5.4-1.431a1.375,1.375,0,0,1,.266-1.138c.666-.865,2.45-1.329,5.966-1.549,2.8-.173,3.456.469,3.624,1.644a2.4,2.4,0,0,0,.047.261,1.374,1.374,0,0,1-.229,1.269C1066.193,536.294,1065.041,536.61,1063.194,536.61Zm-.75-1.017h.015c2.706.111,3.335-.4,3.463-.566a.384.384,0,0,0,.05-.38,2.979,2.979,0,0,1-.073-.386c-.066-.463-.139-.942-2.572-.788-3.027.19-4.789.581-5.236,1.161a.379.379,0,0,0-.077.333c.14.7,2.921.653,4.417.625Z" transform="translate(-795.432 -453.072)"/>
  <path class="cls-1" d="M1074.439,536.094c3.059.127,4.315-.491,4.014-1.579-.2-.717.225-1.751-3.158-1.539-3.116.2-6.061.63-5.773,2.091C1069.736,536.151,1072.058,536.138,1074.439,536.094Z" transform="translate(-795.432 -453.072)"/>
  <path class="cls-1" d="M1075.194,536.61q-.363,0-.762-.017c-2.509.048-5.1.091-5.4-1.431a1.375,1.375,0,0,1,.266-1.138c.666-.865,2.45-1.329,5.966-1.549,2.8-.173,3.456.469,3.624,1.644a2.4,2.4,0,0,0,.047.261,1.374,1.374,0,0,1-.229,1.269C1078.193,536.294,1077.041,536.61,1075.194,536.61Zm-.75-1.017h.015c2.708.111,3.334-.4,3.463-.566a.384.384,0,0,0,.05-.38,2.979,2.979,0,0,1-.073-.386c-.066-.463-.14-.942-2.572-.788-3.027.19-4.789.581-5.236,1.161a.379.379,0,0,0-.077.333c.139.7,2.922.653,4.417.625Z" transform="translate(-795.432 -453.072)"/>
  <path class="cls-1" d="M1082.439,536.094c3.059.127,4.315-.491,4.014-1.579-.2-.717.225-1.751-3.158-1.539-3.116.2-6.061.63-5.773,2.091C1077.736,536.151,1080.058,536.138,1082.439,536.094Z" transform="translate(-795.432 -453.072)"/>
  <path class="cls-1" d="M1083.194,536.61q-.363,0-.762-.017c-2.508.048-5.1.091-5.4-1.431a1.375,1.375,0,0,1,.266-1.138c.666-.865,2.45-1.329,5.966-1.549,2.806-.173,3.456.469,3.624,1.644a2.4,2.4,0,0,0,.047.261,1.374,1.374,0,0,1-.229,1.269C1086.193,536.294,1085.041,536.61,1083.194,536.61Zm-.75-1.017h.015c2.706.111,3.335-.4,3.463-.566a.384.384,0,0,0,.05-.38,2.979,2.979,0,0,1-.073-.386c-.066-.463-.139-.942-2.572-.788-3.027.19-4.789.581-5.236,1.161a.379.379,0,0,0-.077.333c.14.7,2.923.653,4.417.625Z" transform="translate(-795.432 -453.072)"/>
  <path class="cls-1" d="M1066.022,545.384c.059-1.15-1.012-1.977-4.565-1.975-2.163,0-4.63.058-3.908,1.227.559.9.444,2.092,4.459,2.078C1064.525,546.7,1066.092,546.395,1066.022,545.384Z" transform="translate(-795.432 -453.072)"/>
  <path class="cls-1" d="M1061.935,547.214c-3.4,0-4.081-.844-4.617-1.946a4,4,0,0,0-.193-.368,1.021,1.021,0,0,1-.087-1.088c.424-.761,1.821-.9,4.421-.9h.02c2.38,0,3.825.354,4.546,1.112a1.8,1.8,0,0,1,.5,1.359,1.264,1.264,0,0,1-.345.94c-.573.617-1.82.884-4.168.892Zm-4.011-2.929c.009.009.021.041.051.089a4.853,4.853,0,0,1,.242.456c.349.718.693,1.381,3.79,1.384,2.411-.009,3.2-.316,3.44-.572a.265.265,0,0,0,.076-.223l0-.03,0-.029a.82.82,0,0,0-.225-.648c-.348-.365-1.294-.8-3.822-.8C1060.722,543.893,1058.282,543.907,1057.924,544.285Z" transform="translate(-795.432 -453.072)"/>
  <path class="cls-1" d="M1075.022,552.384c.059-1.15-1.012-1.977-4.565-1.975-2.163,0-4.63.058-3.908,1.227.559.9.444,2.092,4.459,2.078C1073.525,553.7,1075.092,553.395,1075.022,552.384Z" transform="translate(-795.432 -453.072)"/>
  <path class="cls-1" d="M1070.935,554.214c-3.4,0-4.081-.844-4.617-1.946a4,4,0,0,0-.193-.368,1.021,1.021,0,0,1-.087-1.088c.425-.763,1.8-.894,4.44-.9,2.38,0,3.825.354,4.546,1.112a1.8,1.8,0,0,1,.5,1.359,1.264,1.264,0,0,1-.345.94c-.573.617-1.82.884-4.168.892Zm-4.011-2.929c.009.009.021.041.051.089a4.853,4.853,0,0,1,.242.456c.346.712.673,1.384,3.714,1.384h.076c2.411-.009,3.2-.316,3.44-.572a.265.265,0,0,0,.076-.223l0-.03,0-.029a.82.82,0,0,0-.225-.648c-.348-.365-1.294-.8-3.822-.8C1069.737,550.91,1067.282,550.907,1066.924,551.285Z" transform="translate(-795.432 -453.072)"/>
  <path class="cls-1" d="M1066.022,559.384c.059-1.15-1.012-1.977-4.565-1.975-2.163,0-4.63.058-3.908,1.227.559.9.444,2.092,4.459,2.078C1064.525,560.7,1066.092,560.395,1066.022,559.384Z" transform="translate(-795.432 -453.072)"/>
  <path class="cls-1" d="M1061.935,561.214c-3.4,0-4.081-.844-4.617-1.946a4,4,0,0,0-.193-.368,1.021,1.021,0,0,1-.087-1.088c.424-.761,1.821-.9,4.421-.9,2.37.037,3.843.352,4.565,1.112a1.8,1.8,0,0,1,.5,1.359,1.264,1.264,0,0,1-.345.94c-.573.617-1.82.884-4.168.892Zm-4.011-2.929c.009.009.021.041.051.089a4.853,4.853,0,0,1,.242.456c.349.718.693,1.415,3.79,1.384,2.411-.009,3.2-.316,3.44-.572a.265.265,0,0,0,.076-.223l0-.03,0-.029a.82.82,0,0,0-.225-.648c-.348-.365-1.294-.8-3.822-.8C1060.722,557.872,1058.282,557.908,1057.924,558.285Z" transform="translate(-795.432 -453.072)"/>
  <path class="cls-1" d="M1059.022,569.384c.059-1.15-1.012-1.977-4.565-1.975-2.163,0-4.63.058-3.908,1.227.559.9.444,2.092,4.459,2.078C1057.525,570.7,1059.092,570.395,1059.022,569.384Z" transform="translate(-795.432 -453.072)"/>
  <path class="cls-1" d="M1054.935,571.214c-3.4,0-4.081-.844-4.617-1.946a4,4,0,0,0-.193-.368,1.021,1.021,0,0,1-.087-1.088c.424-.761,1.821-.9,4.421-.9h.02c2.38,0,3.825.354,4.546,1.112a1.8,1.8,0,0,1,.5,1.359,1.264,1.264,0,0,1-.345.94c-.573.617-1.82.884-4.168.892Zm-4.011-2.929c.009.009.021.041.051.089a4.853,4.853,0,0,1,.242.456c.346.712.673,1.384,3.714,1.384h.076c2.411-.009,3.2-.316,3.44-.572a.265.265,0,0,0,.076-.223l0-.03,0-.029a.82.82,0,0,0-.225-.648c-.348-.365-1.294-.8-3.822-.8h-.019C1053.666,567.91,1051.279,567.911,1050.924,568.285Z" transform="translate(-795.432 -453.072)"/>
  <path class="cls-1" d="M1059.022,576.384c.059-1.15-1.012-1.977-4.565-1.975-2.163,0-4.63.058-3.908,1.227.559.9.444,2.092,4.459,2.078C1057.525,577.7,1059.092,577.395,1059.022,576.384Z" transform="translate(-795.432 -453.072)"/>
  <path class="cls-1" d="M1054.935,578.214c-3.4,0-4.081-.844-4.617-1.946a4,4,0,0,0-.193-.368,1.021,1.021,0,0,1-.087-1.088c.424-.761,1.821-.9,4.421-.9h.02c2.38,0,3.825.354,4.546,1.112a1.8,1.8,0,0,1,.5,1.359,1.264,1.264,0,0,1-.345.94c-.573.617-1.82.884-4.168.892Zm-4.011-2.929c.009.009.021.041.051.089a4.853,4.853,0,0,1,.242.456c.346.712.673,1.384,3.714,1.384h.076c2.411-.009,3.2-.316,3.44-.572a.265.265,0,0,0,.076-.223l0-.03,0-.029a.82.82,0,0,0-.225-.648c-.348-.365-1.294-.8-3.822-.8h-.019C1053.666,574.91,1051.279,574.911,1050.924,575.285Z" transform="translate(-795.432 -453.072)"/>
  <path class="cls-1" d="M1059.022,582.384c.059-1.15-1.012-1.977-4.565-1.975-2.163,0-4.63.058-3.908,1.227.559.9.444,2.092,4.459,2.078C1057.525,583.7,1059.092,583.395,1059.022,582.384Z" transform="translate(-795.432 -453.072)"/>
  <path class="cls-1" d="M1054.935,584.214c-3.4,0-4.081-.844-4.617-1.946a4,4,0,0,0-.193-.368,1.021,1.021,0,0,1-.087-1.088c.424-.761,1.821-.9,4.421-.9h.02c2.38,0,3.825.354,4.546,1.112a1.8,1.8,0,0,1,.5,1.359,1.264,1.264,0,0,1-.345.94c-.573.617-1.82.884-4.168.892Zm-4.011-2.929c.009.009.021.041.051.089a4.853,4.853,0,0,1,.242.456c.346.712.673,1.384,3.714,1.384h.076c2.411-.009,3.2-.316,3.44-.572a.265.265,0,0,0,.076-.223l0-.03,0-.029a.82.82,0,0,0-.225-.648c-.348-.365-1.294-.8-3.822-.8h-.019C1053.666,580.91,1051.279,580.911,1050.924,581.285Z" transform="translate(-795.432 -453.072)"/>
  <path class="cls-1" d="M1072.022,580.207c.059-3.034-1.012-5.213-4.565-5.207-2.163,0-4.63.153-3.908,3.235.559,2.386.444,5.518,4.459,5.479C1070.525,583.69,1072.092,582.872,1072.022,580.207Z" transform="translate(-795.432 -453.072)"/>
  <path class="cls-1" d="M1067.935,584.214c-3.774,0-4.265-2.661-4.659-4.8-.066-.362-.132-.721-.213-1.063a3.084,3.084,0,0,1,.359-2.7c.833-1.052,2.45-1.143,4.035-1.146h.015a4.99,4.99,0,0,1,3.707,1.3,5.86,5.86,0,0,1,1.344,4.407,3.781,3.781,0,0,1-.914,2.857,4.8,4.8,0,0,1-3.595,1.151Zm-.462-8.714h-.014c-1.282,0-2.7.063-3.253.766a2.179,2.179,0,0,0-.17,1.854c.084.358.153.732.223,1.11.394,2.137.734,3.983,3.676,3.983H1068a3.979,3.979,0,0,0,2.885-.846,2.857,2.857,0,0,0,.634-2.148V580.2a4.952,4.952,0,0,0-1.058-3.7A3.992,3.992,0,0,0,1067.473,575.5Z" transform="translate(-795.432 -453.072)"/>
  <path class="cls-1" d="M1074.022,593.384c.059-1.15-1.012-1.977-4.565-1.975-2.163,0-4.63.058-3.908,1.227.559.9.444,2.092,4.459,2.078C1072.525,594.7,1074.092,594.395,1074.022,593.384Z" transform="translate(-795.432 -453.072)"/>
  <path class="cls-1" d="M1069.935,595.214c-3.4,0-4.081-.844-4.617-1.946a4,4,0,0,0-.193-.368,1.021,1.021,0,0,1-.087-1.088c.424-.761,1.821-.9,4.421-.9h.02c2.38,0,3.825.354,4.546,1.112a1.8,1.8,0,0,1,.5,1.359,1.264,1.264,0,0,1-.345.94c-.573.617-1.82.884-4.168.892Zm-4.011-2.929c.009.009.021.041.051.089a4.853,4.853,0,0,1,.242.456c.349.718.713,1.382,3.79,1.384,2.411-.009,3.2-.316,3.44-.572a.265.265,0,0,0,.076-.223l0-.03,0-.029a.82.82,0,0,0-.225-.648c-.348-.365-1.294-.8-3.822-.8h-.019C1068.666,591.91,1066.279,591.911,1065.924,592.285Z" transform="translate(-795.432 -453.072)"/>
  <path class="cls-1" d="M1074.022,599.384c.059-1.15-1.012-1.977-4.565-1.975-2.163,0-4.63.058-3.908,1.227.559.9.444,2.092,4.459,2.078C1072.525,600.7,1074.092,600.395,1074.022,599.384Z" transform="translate(-795.432 -453.072)"/>
  <path class="cls-1" d="M1069.935,601.214c-3.4,0-4.081-.844-4.617-1.946a4,4,0,0,0-.193-.368,1.021,1.021,0,0,1-.087-1.088c.424-.761,1.821-.9,4.421-.9h.02c2.38,0,3.825.354,4.546,1.112a1.8,1.8,0,0,1,.5,1.359,1.264,1.264,0,0,1-.345.94c-.573.617-1.82.884-4.168.892Zm-4.011-2.929c.009.009.021.041.051.089a4.853,4.853,0,0,1,.242.456c.349.718.713,1.4,3.79,1.384,2.411-.009,3.2-.316,3.44-.572a.265.265,0,0,0,.076-.223l0-.03,0-.029a.82.82,0,0,0-.225-.648c-.348-.365-1.294-.8-3.822-.8h-.019C1068.666,597.91,1066.279,597.911,1065.924,598.285Z" transform="translate(-795.432 -453.072)"/>
  <path class="cls-1" d="M1065.022,599.384c.059-1.15-1.012-1.977-4.565-1.975-2.163,0-4.63.058-3.908,1.227.559.9.444,2.092,4.459,2.078C1063.525,600.7,1065.092,600.395,1065.022,599.384Z" transform="translate(-795.432 -453.072)"/>
  <path class="cls-1" d="M1060.935,601.214c-3.4,0-4.081-.844-4.617-1.946a4,4,0,0,0-.193-.368,1.021,1.021,0,0,1-.087-1.088c.424-.761,1.821-.9,4.421-.9h.02c2.38,0,3.825.354,4.546,1.112a1.8,1.8,0,0,1,.5,1.359,1.264,1.264,0,0,1-.345.94c-.573.617-1.82.884-4.168.892Zm-4.011-2.929c.009.009.021.041.051.089a4.853,4.853,0,0,1,.242.456c.346.712.673,1.384,3.714,1.384h.076c2.411-.009,3.2-.316,3.44-.572a.265.265,0,0,0,.076-.223l0-.03,0-.029a.82.82,0,0,0-.225-.648c-.348-.365-1.294-.8-3.822-.8h-.019C1059.666,597.91,1057.279,597.911,1056.924,598.285Z" transform="translate(-795.432 -453.072)"/>
  <path class="cls-1" d="M1066.022,607.384c.059-1.15-1.012-1.977-4.565-1.975-2.163,0-4.63.058-3.908,1.227.559.9.444,2.092,4.459,2.078C1064.525,608.7,1066.092,608.395,1066.022,607.384Z" transform="translate(-795.432 -453.072)"/>
  <path class="cls-1" d="M1061.935,609.214c-3.4,0-4.081-.844-4.617-1.946a4,4,0,0,0-.193-.368,1.021,1.021,0,0,1-.087-1.088c.424-.761,1.821-.9,4.421-.9h.02c2.38,0,3.825.354,4.546,1.112a1.8,1.8,0,0,1,.5,1.359,1.264,1.264,0,0,1-.345.94c-.573.617-1.82.884-4.168.892Zm-4.011-2.929c.009.009.021.041.051.089a4.853,4.853,0,0,1,.242.456c.349.718.693,1.416,3.79,1.384,2.411-.009,3.2-.316,3.44-.572a.265.265,0,0,0,.076-.223l0-.03,0-.029a.82.82,0,0,0-.225-.648c-.348-.365-1.294-.8-3.822-.8C1060.722,605.915,1058.282,605.908,1057.924,606.285Z" transform="translate(-795.432 -453.072)"/>
  <path class="cls-1" d="M1065.022,614.384c.059-1.15-1.012-1.977-4.565-1.975-2.163,0-4.63.058-3.908,1.227.559.9.444,2.092,4.459,2.078C1063.525,615.7,1065.092,615.395,1065.022,614.384Z" transform="translate(-795.432 -453.072)"/>
  <path class="cls-1" d="M1060.935,616.214c-3.4,0-4.081-.844-4.617-1.946a4,4,0,0,0-.193-.368,1.021,1.021,0,0,1-.087-1.088c.424-.761,1.821-.9,4.421-.9h.02c2.38,0,3.825.354,4.546,1.112a1.8,1.8,0,0,1,.5,1.359,1.264,1.264,0,0,1-.345.94c-.573.617-1.82.884-4.168.892Zm-4.011-2.929c.009.009.021.041.051.089a4.853,4.853,0,0,1,.242.456c.346.712.673,1.384,3.714,1.384h.076c2.411-.009,3.2-.316,3.44-.572a.265.265,0,0,0,.076-.223l0-.03,0-.029a.82.82,0,0,0-.225-.648c-.348-.365-1.294-.8-3.822-.8h-.019C1059.666,612.91,1057.279,612.911,1056.924,613.285Z" transform="translate(-795.432 -453.072)"/>
  <path class="cls-1" d="M1085.022,559.384c.059-1.15-1.012-1.977-4.565-1.975-2.163,0-4.63.058-3.908,1.227.559.9.444,2.092,4.459,2.078C1083.525,560.7,1085.092,560.395,1085.022,559.384Z" transform="translate(-795.432 -453.072)"/>
  <path class="cls-1" d="M1080.935,561.214c-3.4,0-4.081-.844-4.617-1.946a4,4,0,0,0-.193-.368,1.021,1.021,0,0,1-.087-1.088c.424-.761,1.821-.9,4.421-.9h.02c2.38,0,3.825.354,4.546,1.112a1.8,1.8,0,0,1,.5,1.359,1.264,1.264,0,0,1-.345.94c-.573.617-1.82.884-4.168.892Zm-4.011-2.929c.009.009.021.041.051.089a4.853,4.853,0,0,1,.242.456c.346.712.673,1.384,3.714,1.384h.076c2.411-.009,3.2-.316,3.44-.572a.265.265,0,0,0,.076-.223l0-.03,0-.029a.82.82,0,0,0-.225-.648c-.348-.365-1.294-.8-3.822-.8h-.019C1079.666,557.91,1077.279,557.911,1076.924,558.285Z" transform="translate(-795.432 -453.072)"/>
  <path class="cls-1" d="M1057.821,530.355c-.407-.8-.775-1.593-3.947-1.323-2.921.249-5.118.662-4.892,1.982.209,1.221,2.556,1.012,4.636,1.043C1056.884,532.107,1057.884,531.415,1057.821,530.355Z" transform="translate(-795.432 -453.072)"/>
  <path class="cls-1" d="M1053.943,532.559l-.334,0c-.3,0-.6,0-.9,0-1.954,0-3.971.007-4.222-1.455a1.412,1.412,0,0,1,.274-1.128c.69-.893,2.525-1.22,5.068-1.437,3.224-.279,3.886.513,4.423,1.57l.065.221a1.63,1.63,0,0,1-.448,1.274C1057.247,532.252,1056,532.559,1053.943,532.559Zm-.949-1.006c.211,0,.422,0,.631,0,2.354.034,3.222-.333,3.522-.648a.612.612,0,0,0,.176-.429c-.332-.645-.705-1.178-3.408-.95-1.038.089-3.8.324-4.361,1.052a.408.408,0,0,0-.079.348c.107.629,1.838.622,3.233.624Z" transform="translate(-795.432 -453.072)"/>
  <path d="M901.185,584.749c1.022.508,1.327-.086,1.66-.82a70.523,70.523,0,0,1,12.7-18.453l5.705-5.23,7.586-5.357,10.09-4.211,7.526-1.968-.005.018c.013.434,1.067.845-.483,1.142a21.4,21.4,0,0,0-14.688,9.9c-.119.184-.242.366-.348.557-.007.012.11.094.17.144l.27-.623c1.837-1.278,3.659-2.577,5.513-3.83,2.882-1.946,5.81-3.807,9.3-4.513-1.678,1.768-3.5,3.317-5.22,4.978a28.215,28.215,0,0,0-4.366,6.071,42.289,42.289,0,0,0-3.007,6.609,28.685,28.685,0,0,0-1.917,6.9A58.939,58.939,0,0,1,939.39,563.6a27.949,27.949,0,0,1,11.31-9.144c-1.581,3.137-3.128,6.169-4.6,9.256a50.935,50.935,0,0,0-3.307,9.453c-.845,3.319-1.671,6.649-2.317,10.011-.624,3.248-1.777,6.444-1.309,9.861,1.774-7.69,3.955-15.187,7.7-22.193a41.185,41.185,0,0,1,7.8-10.649,22.705,22.705,0,0,1,12.2-5.886c1.609-.454,3.209-.943,4.83-1.347.995-.248,2.026-.379,2.628.789a9.521,9.521,0,0,0-5.978,1.5c-7.313,4.557-10.645,11.832-13.269,19.525a96.608,96.608,0,0,0-4.436,22.06c-.326,3.405-1.093,6.855-.4,11.086a97.847,97.847,0,0,1,5.207-22.861c2.528-6.824,5.912-13.1,11.067-18.362,2.923-2.982,6.812-4.349,10.225-6.508,1.583-.466,3.146-1.025,4.755-1.362,1-.21,2.154-.51,3.016.494a13.228,13.228,0,0,0-9.412,5.083c-4.221,5.058-6.2,11.048-7.944,17.173-1.98,6.938-2.765,14.1-3.477,21.241a88.941,88.941,0,0,0-.413,16.7c.694-4.119,1.2-7.567,1.864-10.982,1.94-9.908,4.547-19.618,9.578-28.471,2.881-5.07,6.624-9.293,12.676-10.668.579-.132.9-.384.953-.968,1.842-.343,3.632-1,5.545-.911-.189.255-.345.7-.571.738-3.178.549-5.341,2.473-7.2,4.973-3.885,5.234-5.855,11.276-7.3,17.482a119.222,119.222,0,0,0-2.955,19.519c-.232,3.653-1.05,7.328-.43,11.542.5-2.628.877-4.749,1.316-6.857,1.742-8.362,3.806-16.633,8.01-24.164,3.294-5.9,7.179-11.188,14.727-11.864,1.8-.018,3.566-.675,5.382-.33,1.035.2,2.134.336,2.645,1.488-2.443-.511-5.038-1.485-7.056.774a25.16,25.16,0,0,0-4.281,6.1,81.837,81.837,0,0,0-5.194,16.163c-1.594,6.893-2.672,13.879-3.574,20.893-4,.626-8.031.305-12.047.383q-39.923.769-79.847,1.457c-.839.015-1.678-.024-2.517-.038q.009-12.11.019-24.221c2.494,1.614,4.015,1.545,4.442-.268" transform="translate(-795.432 -453.072)"/>
  <path class="cls-1" d="M895.132,626.322c-.445,0-.891-.011-1.336-.022l-1.3-.026.02-25.632.771.5c1.366.884,2.444,1.241,3.033,1a1.237,1.237,0,0,0,.651-.964l.974.229a2.175,2.175,0,0,1-1.251,1.663c-.793.322-1.838.115-3.178-.625l-.018,22.849.321.007c.563.015,1.125.027,1.687.02l14.246-.255q32.743-.586,65.483-1.2l-.3-2.014a32.69,32.69,0,0,1,.139-8.581c.114-1.057.223-2.054.287-3.067a120.191,120.191,0,0,1,2.966-19.6c1.3-5.563,3.2-12.013,7.391-17.667a12.667,12.667,0,0,1,5.658-4.669c-.425.088-.854.189-1.29.294s-.879.209-1.32.3a1.574,1.574,0,0,1-1.265,1.029c-5.1,1.159-8.912,4.376-12.353,10.428-5.345,9.405-7.812,19.594-9.522,28.319-.449,2.3-.83,4.649-1.232,7.139-.2,1.221-.4,2.49-.629,3.831l-.663,3.936-.328-3.978a89.927,89.927,0,0,1,.413-16.793c.762-7.642,1.551-14.521,3.494-21.328,1.694-5.938,3.711-12.169,8.041-17.356a13.815,13.815,0,0,1,7.45-4.882c-.137.024-.28.055-.432.086l-.137.029c-1.106.231-2.221.58-3.3.917-.45.141-.9.281-1.352.415-1.122.706-2.3,1.335-3.448,1.943a26.021,26.021,0,0,0-6.627,4.454c-4.625,4.717-8.106,10.5-10.956,18.187a97.053,97.053,0,0,0-5.18,22.746l-.417,3.512L949.759,608a29.816,29.816,0,0,1,.138-8.984c.093-.751.185-1.491.255-2.23a96.954,96.954,0,0,1,4.461-22.173c2.563-7.514,5.97-15.11,13.478-19.789a11.694,11.694,0,0,1,1.412-.753q-.542.154-1.082.312l-1.409.4a22.133,22.133,0,0,0-11.993,5.767,40.321,40.321,0,0,0-7.708,10.522c-3.975,7.431-6.1,15.326-7.655,22.069l-.613,2.656-.37-2.7a20.911,20.911,0,0,1,.8-7.669c.183-.784.366-1.568.517-2.355.662-3.444,1.511-6.848,2.324-10.039a50.84,50.84,0,0,1,3.34-9.544c1.249-2.621,2.529-5.155,3.883-7.839l.078-.154a28.05,28.05,0,0,0-9.824,8.4,59.081,59.081,0,0,0-7.654,12.363l-1.355,3.153.4-3.408a29.193,29.193,0,0,1,1.946-7.025,42.713,42.713,0,0,1,3.045-6.686,28.61,28.61,0,0,1,4.448-6.176c.646-.625,1.308-1.234,1.971-1.846.642-.592,1.3-1.2,1.941-1.817a30.316,30.316,0,0,0-7.367,3.972c-1.268.856-2.521,1.735-3.774,2.613l-1.616,1.13-.479,1.109-.514-.43c-.427-.33-.384-.6-.282-.778.088-.157.189-.313.292-.471l.069-.107a21.523,21.523,0,0,1,11.609-9.23l-3.412.892-9.973,4.168-7.541,5.325-5.656,5.189A69.111,69.111,0,0,0,903.3,584.135a2.045,2.045,0,0,1-1.036,1.233,1.641,1.641,0,0,1-1.3-.171l.445-.9a.817.817,0,0,0,.521.126c.167-.06.337-.433.46-.705a70.1,70.1,0,0,1,12.788-18.584l5.735-5.26,7.732-5.451,10.09-4.211,8.432-2.21-.2.713a.959.959,0,0,1,.069.086.894.894,0,0,1,.226.882c-.162.421-.675.572-1.205.674a20.931,20.931,0,0,0-12.932,7.647c1.153-.808,2.308-1.614,3.475-2.4,2.975-2.01,5.939-3.873,9.483-4.59l1.551-.313-1.089,1.147c-1.061,1.118-2.19,2.159-3.282,3.165-.657.605-1.313,1.209-1.953,1.829a27.621,27.621,0,0,0-4.246,5.9,41.97,41.97,0,0,0-3.008,6.595c-.336.882-.672,1.791-.971,2.729a71.63,71.63,0,0,1,5.907-8.775,28.372,28.372,0,0,1,11.512-9.3l1.254-.53-1.334,2.646c-1.352,2.678-2.629,5.207-3.874,7.817a49.948,49.948,0,0,0-3.274,9.36c-.809,3.177-1.653,6.564-2.31,9.982-.154.8-.339,1.6-.525,2.393-.127.547-.256,1.1-.374,1.652a78.416,78.416,0,0,1,6.359-16.706,41.27,41.27,0,0,1,7.9-10.776,23.029,23.029,0,0,1,12.463-6.017l1.351-.391c1.145-.33,2.288-.661,3.442-.949.765-.188,2.353-.586,3.193,1.044l.413.8-.9-.073a9.054,9.054,0,0,0-5.674,1.43c-6.84,4.261-10.167,10.781-13.061,19.262a96.02,96.02,0,0,0-4.412,21.946c-.071.747-.164,1.5-.258,2.257-.117.948-.236,1.908-.317,2.9a90.816,90.816,0,0,1,4.418-17.149c2.9-7.827,6.452-13.718,11.178-18.538a26.814,26.814,0,0,1,6.872-4.638c1.147-.611,2.335-1.242,3.442-1.943l.127-.057c.468-.138.935-.284,1.4-.43,1.1-.344,2.238-.7,3.392-.941l.134-.028c.99-.212,2.348-.5,3.364.687l.632.737-.968.086a12.7,12.7,0,0,0-9.071,4.9c-4.205,5.037-6.183,11.155-7.848,16.99-1.92,6.729-2.7,13.561-3.461,21.153a103.587,103.587,0,0,0-.635,11.881c.354-2.182.7-4.263,1.1-6.307,1.725-8.806,4.218-19.092,9.634-28.622,2.229-3.921,6-9.318,13-10.908.454-.1.539-.24.564-.526l.034-.377.372-.069c.538-.1,1.071-.228,1.6-.354a14.635,14.635,0,0,1,4.056-.564l.938.042-.558.754a2.3,2.3,0,0,0-.141.231c-.16.283-.359.636-.747.7-2.644.457-4.766,1.931-6.881,4.778-4.087,5.508-5.942,11.835-7.219,17.3a119.053,119.053,0,0,0-2.942,19.436c-.065,1.035-.181,2.091-.291,3.111-.146,1.353-.295,2.729-.347,4.15.177-.93.351-1.82.536-2.709,1.586-7.614,3.648-16.4,8.063-24.307,3.06-5.481,7-11.391,15.118-12.118a15.152,15.152,0,0,0,2.066-.211,10.127,10.127,0,0,1,3.454-.112l.18.034a3.321,3.321,0,0,1,2.829,1.742l.4.893-.956-.2c-.3-.062-.6-.132-.9-.2-2.109-.487-4.1-.946-5.678.819a24.684,24.684,0,0,0-4.2,5.977,81.787,81.787,0,0,0-5.159,16.065,209.156,209.156,0,0,0-3.565,20.845l-.048.373-.371.058a51.869,51.869,0,0,1-8.561.389c-1.187-.012-2.371-.025-3.554,0q-32.8.631-65.6,1.2l-14.246.255Zm81.706-2.474c.7,0,1.4.007,2.1.014a53.923,53.923,0,0,0,8.025-.321c1.076-8.3,2.169-14.661,3.534-20.567a82.732,82.732,0,0,1,5.228-16.261,25.552,25.552,0,0,1,4.361-6.223,4.54,4.54,0,0,1,2.2-1.412c-.209.029-.419.061-.632.092a15.544,15.544,0,0,1-2.164.221c-7.591.683-11.36,6.35-14.295,11.608-4.346,7.784-6.386,16.481-7.957,24.021-.3,1.421-.562,2.847-.858,4.43l-.836,4.408C975.978,623.851,976.408,623.849,976.838,623.849ZM946.163,549.3l-.28.073c.12-.023.213-.046.286-.065Z" transform="translate(-795.432 -453.072)"/>
  <path class="cls-3" d="M900.514,586.991c.05-1.143-.1-2.144-1.652-1.368" transform="translate(-795.432 -453.072)"/>
  <path class="cls-3" d="M899.019,593.769" transform="translate(-795.432 -453.072)"/>
  <path class="cls-1" d="M987.411,623.979c.9-7.014,1.98-14,3.574-20.893a81.837,81.837,0,0,1,5.194-16.163,25.16,25.16,0,0,1,4.281-6.1c2.018-2.259,4.613-1.286,7.056-.774a1.322,1.322,0,0,1,0,.478,3.29,3.29,0,0,0,1.02,1.988c2.362,5.83,4.981,11.495,4.649,18.131-.384,7.674-.1,15.382-.1,23.076Z" transform="translate(-795.432 -453.072)"/>
  <path d="M986.842,624.485l.073-.569a210.436,210.436,0,0,1,3.583-20.942,82.732,82.732,0,0,1,5.228-16.261,25.552,25.552,0,0,1,4.361-6.223c1.971-2.207,4.456-1.635,6.648-1.128.3.068.59.136.883.2l.329.068.061.331a1.811,1.811,0,0,1,.016.553,2.758,2.758,0,0,0,.831,1.618l.1.081.678,1.659c2.146,5.231,4.363,10.641,4.055,16.8-.267,5.333-.208,10.779-.151,16.046.024,2.335.05,4.671.048,7v.5Zm16.871-44.589a3.622,3.622,0,0,0-2.88,1.26,24.684,24.684,0,0,0-4.2,5.977,81.787,81.787,0,0,0-5.159,16.065c-1.348,5.827-2.429,12.1-3.492,20.275l24.6-.248c0-2.165-.025-4.332-.048-6.5-.057-5.282-.115-10.743.153-16.107.3-5.937-1.781-11-3.981-16.37l-.587-1.437a3.874,3.874,0,0,1-1.091-2.184l-.021-.1.015-.08-.51-.116A12.837,12.837,0,0,0,1003.713,579.9Z" transform="translate(-795.432 -453.072)"/>
  <path class="cls-1" d="M988.347,568.433c-.053.584-.374.837-.953.968-6.051,1.375-9.794,5.6-12.676,10.668-5.031,8.853-7.638,18.563-9.578,28.471-.669,3.415-1.171,6.864-1.864,10.982a88.941,88.941,0,0,1,.413-16.7c.712-7.144,1.5-14.3,3.477-21.241,1.748-6.125,3.723-12.115,7.944-17.173a13.228,13.228,0,0,1,9.412-5.083c2.487,2.006,2.149,5.207,3.28,7.786C987.992,567.543,987.9,568.1,988.347,568.433Z" transform="translate(-795.432 -453.072)"/>
  <path d="M963.106,623.541l-.328-3.978a89.927,89.927,0,0,1,.413-16.793c.762-7.642,1.551-14.521,3.494-21.328,1.694-5.938,3.711-12.169,8.041-17.356a13.637,13.637,0,0,1,9.751-5.26l.2-.018.156.126c1.772,1.43,2.212,3.383,2.638,5.272a14.732,14.732,0,0,0,.788,2.7,2.755,2.755,0,0,1,.162.581c.056.288.092.442.225.543l.223.167-.025.277a1.536,1.536,0,0,1-1.339,1.411c-5.1,1.159-8.912,4.376-12.353,10.428-5.345,9.405-7.812,19.594-9.522,28.319-.449,2.3-.83,4.649-1.232,7.139-.2,1.221-.4,2.49-.629,3.831Zm21.254-63.7a12.7,12.7,0,0,0-8.866,4.885c-4.205,5.037-6.183,11.155-7.848,16.99-1.92,6.729-2.7,13.561-3.461,21.153a103.587,103.587,0,0,0-.635,11.881c.354-2.182.7-4.263,1.1-6.307,1.725-8.806,4.218-19.092,9.634-28.622,2.229-3.921,6-9.318,13-10.908.323-.074.46-.165.521-.314a1.971,1.971,0,0,1-.363-.917,1.913,1.913,0,0,0-.1-.372,15.725,15.725,0,0,1-.848-2.884C986.105,562.688,985.735,561.042,984.36,559.842Z" transform="translate(-795.432 -453.072)"/>
  <path class="cls-1" d="M999.488,578.891c-7.548.676-11.433,5.962-14.727,11.864-4.2,7.531-6.267,15.8-8.01,24.164-.439,2.108-.814,4.229-1.316,6.857-.62-4.214.2-7.89.43-11.542a119.222,119.222,0,0,1,2.955-19.519c1.45-6.206,3.42-12.248,7.3-17.482,1.856-2.5,4.019-4.424,7.2-4.973.226-.039.382-.483.571-.738.89-.246,1.329.072,1.678.97C996.913,571.945,998.716,575.222,999.488,578.891Z" transform="translate(-795.432 -453.072)"/>
  <path d="M975.371,624.776l-.431-2.927a32.69,32.69,0,0,1,.139-8.581c.114-1.057.223-2.054.287-3.067a120.191,120.191,0,0,1,2.966-19.6c1.3-5.563,3.2-12.013,7.391-17.667,2.256-3.039,4.549-4.631,7.424-5.151.041-.058.1-.159.137-.226a3.447,3.447,0,0,1,.206-.333l.1-.14.166-.046a1.734,1.734,0,0,1,2.277,1.271c.411,1.058.875,2.119,1.324,3.147a38.081,38.081,0,0,1,2.617,7.331l.116.55-.561.051c-7.631.685-11.4,6.352-14.335,11.61-4.346,7.784-6.386,16.481-7.957,24.021-.3,1.421-.562,2.847-.858,4.43ZM994.2,567.961c-.018.028-.034.059-.051.089-.16.283-.359.636-.747.7-2.644.457-4.766,1.931-6.881,4.778-4.087,5.508-5.942,11.835-7.219,17.3a119.053,119.053,0,0,0-2.942,19.436c-.065,1.035-.18,2.091-.291,3.111-.146,1.353-.295,2.729-.347,4.15.177-.93.351-1.82.536-2.709,1.586-7.614,3.648-16.4,8.063-24.307,2.987-5.353,6.817-11.112,14.552-12.059a40.264,40.264,0,0,0-2.434-6.6c-.452-1.036-.921-2.108-1.339-3.184C994.847,568.014,994.636,567.875,994.2,567.961Z" transform="translate(-795.432 -453.072)"/>
  <path d="M965.385,482.506c8.376-14.82,26.777-16.4,40.225-3.307-1.99,1.453-3.555.557-5.3-.452-12.172-7.026-19.76-6.34-30.218,2.718C968.637,482.724,967.332,483.8,965.385,482.506Z" transform="translate(-795.432 -453.072)"/>
  <path class="cls-1" d="M967.083,483.213a3.169,3.169,0,0,1-1.767-.6l-.1-.064.058-.1c3.808-6.739,9.833-11.012,16.966-12.033,8.042-1.148,16.595,2.018,23.454,8.7l.106.1-.12.087c-2.06,1.5-3.7.558-5.437-.444-12.092-6.979-19.682-6.3-30.074,2.7A5.069,5.069,0,0,1,967.083,483.213Zm-1.53-.749c1.854,1.167,3.117.066,4.455-1.094,10.492-9.088,18.153-9.779,30.363-2.732,1.7.98,3.172,1.832,5.044.545-6.784-6.554-15.209-9.663-23.137-8.525C975.261,471.663,969.325,475.854,965.553,482.465Z" transform="translate(-795.432 -453.072)"/>
  <path d="M977,509.093c2.127,2.1,4.836,2.652,7.659,3.128,1.454.245,2.546.529,2.835,3.017.548,4.717-1.488,4.272-4.619,3.7-6.548-1.188-10.269-6.306-14.789-10.328a2.2,2.2,0,0,1,.14-.48l3.6-.262q1.217.438,2.431.877l1.4.037Z" transform="translate(-795.432 -453.072)"/>
  <path class="cls-1" d="M985.443,519.535a14.815,14.815,0,0,1-2.468-.321l-.149-.027c-5.189-.942-8.665-4.352-12.026-7.649-.933-.916-1.9-1.862-2.883-2.739l-.1-.092.023-.136a2.425,2.425,0,0,1,.155-.534l.059-.143,3.81-.277.39.141q1.028.37,2.054.741l1.357.036,1.46.331.051.049c2.028,2,4.607,2.568,7.524,3.059,1.592.268,2.743.657,3.042,3.235.229,1.964.024,3.169-.642,3.794A2.3,2.3,0,0,1,985.443,519.535Zm-17.087-11.013c.957.857,1.89,1.773,2.794,2.66,3.307,3.245,6.727,6.6,11.766,7.514l.148.027c1.687.306,3.016.549,3.69-.084.533-.5.692-1.6.487-3.372-.267-2.288-1.173-2.554-2.629-2.8-2.979-.5-5.618-1.085-7.741-3.146l-1.273-.292-1.427-.046q-1.043-.379-2.091-.754l-.291-.1-3.39.247Q968.375,508.446,968.356,508.521Z" transform="translate(-795.432 -453.072)"/>
  <path d="M1005.19,514.93c-1.16,4.534-6.392,6.1-7.658,11.107-.5,1.988-6.269.924-10.67.7,2.668-3.343,4.966-8.443,7.043-8.354,4.078.175,5.23-2.157,7.194-4.222l1.544-.513Z" transform="translate(-795.432 -453.072)"/>
  <path class="cls-1" d="M994.106,527.472c-1.268,0-2.75-.128-4.265-.259-1-.086-2.038-.176-2.992-.225l-.486-.024.3-.381c.856-1.074,1.675-2.331,2.467-3.547,1.712-2.628,3.193-4.9,4.716-4.9h.065c3.284.146,4.555-1.35,6.046-3.074.308-.355.62-.717.956-1.07l.1-.065,1.642-.546,2.821,1.418-.05.195c-.583,2.275-2.183,3.847-3.73,5.367-1.62,1.591-3.295,3.236-3.928,5.739C997.5,527.167,996.061,527.472,994.106,527.472Zm-6.754-.956c.824.051,1.69.126,2.532.2,3.311.286,7.064.611,7.405-.738.667-2.64,2.393-4.335,4.062-5.974,1.521-1.493,2.958-2.905,3.544-4.94l-2.273-1.143-1.385.46c-.314.333-.608.673-.9,1.008-1.512,1.746-2.934,3.392-6.445,3.247h-.044c-1.252,0-2.731,2.272-4.3,4.676C988.846,524.4,988.116,525.515,987.353,526.516Z" transform="translate(-795.432 -453.072)"/>
  <path d="M989.386,490.61c-1.485-2.729-.09-9.763-7.093-5.405.491,1.97,4.231,2.187,3.058,4.918-.873,2.034-2.787,2.011-5.283,1.141,1.362-1.072,6.12-1.64,1.24-3.787a1.934,1.934,0,0,1-1.21-2.01c.166-1.476,1.45-.84,2.263-1.176,4.884-2.014,10.014-2.09,15.186-2.235-1.389,2.211-.551,6.956,1.942,8.132-2.643.274-5.094,2.154-5.5-2.07-.159-1.653.16-4.449-2.338-4.082-3.014.443-1.253,3.1-1.2,4.882C990.475,489.552,990.617,490.273,989.386,490.61Z" transform="translate(-795.432 -453.072)"/>
  <path class="cls-1" d="M982.741,491.952a8.582,8.582,0,0,1-2.714-.57l-.216-.075.18-.141a7.148,7.148,0,0,1,1.52-.774c.854-.361,1.82-.77,1.824-1.25,0-.42-.7-.942-2.077-1.55a2.048,2.048,0,0,1-1.284-2.139c.126-1.119.869-1.142,1.525-1.162a2.408,2.408,0,0,0,.813-.115c4.743-1.956,9.814-2.1,14.717-2.229l.748-.021-.125.2a6.485,6.485,0,0,0-.33,4.907,4.711,4.711,0,0,0,2.221,3.046l.405.191-.446.046a12.8,12.8,0,0,0-1.737.343c-1.152.282-2.145.526-2.877.005a3.325,3.325,0,0,1-1.021-2.531c-.024-.252-.038-.532-.052-.822-.051-1.088-.108-2.321-.781-2.875a1.675,1.675,0,0,0-1.362-.272,1.951,1.951,0,0,0-1.426.707,3.365,3.365,0,0,0,.055,2.5,7.752,7.752,0,0,1,.28,1.545l.006.152a1.364,1.364,0,0,1-1.167,1.664l-.1.026-.047-.087a9.97,9.97,0,0,1-.784-2.753c-.312-1.63-.637-3.315-1.791-3.82-.934-.408-2.327-.027-4.263,1.165a3.649,3.649,0,0,0,1.571,1.65c1.079.756,2.2,1.539,1.457,3.261A2.733,2.733,0,0,1,982.741,491.952Zm-2.4-.727c2.7.893,4.166.544,4.894-1.151.659-1.536-.326-2.226-1.37-2.958a3.633,3.633,0,0,1-1.694-1.881l-.022-.088.077-.048c2.053-1.278,3.548-1.683,4.575-1.231,1.274.557,1.611,2.308,1.936,4a10.5,10.5,0,0,0,.712,2.593c.938-.291.913-.822.888-1.383l-.007-.155a7.625,7.625,0,0,0-.272-1.493c-.244-.979-.5-1.993-.02-2.7a2.175,2.175,0,0,1,1.6-.815,1.918,1.918,0,0,1,1.558.326c.759.625.819,1.917.873,3.057.014.286.026.562.05.811a3.164,3.164,0,0,0,.918,2.351c.643.456,1.584.224,2.672-.045.452-.111.916-.225,1.393-.3a5.266,5.266,0,0,1-2.015-3.014,6.838,6.838,0,0,1,.244-4.912l-.29.008c-4.881.134-9.928.272-14.628,2.211a2.579,2.579,0,0,1-.9.133c-.661.021-1.184.037-1.285.941a1.8,1.8,0,0,0,1.138,1.882c1.522.67,2.229,1.235,2.226,1.78,0,.645-.963,1.05-1.977,1.479A9.742,9.742,0,0,0,980.343,491.226Z" transform="translate(-795.432 -453.072)"/>
  <path d="M1005.19,514.93l-2.548-1.281c4.024-5.85,7.248-11.966,6.571-19.411-.11-1.21-.028-2.558,1.5-2.659,1.71-.114,1.473,1.58,1.69,2.568,1.176,5.354-.5,10.181-2.988,14.819-1.022,1.907-2.081,3.794-3.126,5.69Z" transform="translate(-795.432 -453.072)"/>
  <path class="cls-1" d="M1005.176,515.063l-.041-.021-2.678-1.346.082-.118c3.811-5.54,7.242-11.716,6.55-19.329a3.118,3.118,0,0,1,.413-2.26,1.655,1.655,0,0,1,1.2-.535c1.478-.1,1.622,1.079,1.729,2.026a6.2,6.2,0,0,0,.092.639c1.285,5.853-.928,11.04-3,14.905-.738,1.376-1.507,2.764-2.25,4.106q-.439.792-.877,1.585l-.026.048-.053.013q-.552.135-1.1.274Zm-2.35-1.461,2.379,1.2,1-.25q.425-.769.851-1.537c.743-1.342,1.512-2.729,2.248-4.1,2.052-3.827,4.244-8.961,2.977-14.733a6.679,6.679,0,0,1-.1-.665c-.1-.928-.213-1.891-1.463-1.8a1.4,1.4,0,0,0-1.028.449,2.924,2.924,0,0,0-.355,2.075C1010.032,501.864,1006.631,508.053,1002.826,513.6Z" transform="translate(-795.432 -453.072)"/>
  <path d="M997,499c-5.023.233-.43,4.9-3.247,6.5-1.049-1.374-.57-3.062-.831-4.544a2.249,2.249,0,0,0-2.406-2.007c-1.475-.058-1.361,1.017-1.463,2.014-.647,6.372-1.03,6.639-7.031,5.066l.04.067c.048-1.313.081-2.627.149-3.939.057-1.092.154-2.181.223-3.132,1.03-.3,1.173.228,1.29.692.457,1.821-.541,4.975,1.91,5.055,2.987.1,1.478-2.991,1.638-4.706.15-1.615,1.039-1.77,2.287-1.932,2.559-.331,5.31-2.475,7.384.94Z" transform="translate(-795.432 -453.072)"/>
  <path class="cls-1" d="M986.2,506.958a18.046,18.046,0,0,1-4.013-.761l-.012.322-.217-.361c-.05-.083-.1-.161-.012-.229.012-.333.022-.666.034-1,.03-.912.062-1.855.109-2.782.039-.755.1-1.5.153-2.217.024-.317.049-.624.069-.918l.007-.087.083-.024a1.283,1.283,0,0,1,1,.011,1.116,1.116,0,0,1,.446.771,8.516,8.516,0,0,1,.154,1.887c.018,1.554.034,3.021,1.639,3.073a1.734,1.734,0,0,0,1.409-.425c.49-.544.349-1.568.213-2.558a7.426,7.426,0,0,1-.112-1.61c.163-1.755,1.2-1.889,2.4-2.044a12.4,12.4,0,0,0,1.9-.461c1.932-.576,3.929-1.172,5.527,1.328H997l.265-.012-.325.434-.1-.158,0,0a2.572,2.572,0,0,0-1.871.7,3.132,3.132,0,0,0-.218,2.418c.175,1.225.374,2.614-.932,3.356l-.095.054-.066-.087a4.885,4.885,0,0,1-.758-3.117,9.2,9.2,0,0,0-.1-1.48,2.133,2.133,0,0,0-2.288-1.9c-1.169-.048-1.236.657-1.3,1.548-.009.118-.018.236-.03.354-.336,3.305-.6,4.937-1.583,5.618A2.36,2.36,0,0,1,986.2,506.958Zm-4-1.017c2.67.7,4.363,1.064,5.258.444s1.149-2.211,1.478-5.438c.012-.115.021-.232.029-.348.063-.836.135-1.781,1.447-1.781l.115,0a2.382,2.382,0,0,1,2.524,2.11,9.621,9.621,0,0,1,.1,1.521,4.829,4.829,0,0,0,.641,2.879c1.053-.668.887-1.824.712-3.046a3.341,3.341,0,0,1,.273-2.613,2.685,2.685,0,0,1,1.911-.779c-1.483-2.208-3.276-1.673-5.17-1.107a12.616,12.616,0,0,1-1.937.47c-1.3.168-2.041.335-2.18,1.82a7.345,7.345,0,0,0,.111,1.552c.145,1.046.293,2.129-.274,2.759a1.986,1.986,0,0,1-1.6.507c-1.844-.06-1.863-1.792-1.881-3.32a8.4,8.4,0,0,0-.146-1.829.92.92,0,0,0-.328-.615,1,1,0,0,0-.723-.01c-.02.268-.041.545-.063.831-.056.717-.113,1.458-.152,2.21-.049.925-.079,1.867-.109,2.778C982.219,505.273,982.208,505.607,982.2,505.942Z" transform="translate(-795.432 -453.072)"/>
  <path d="M960.741,485.446c2.764.132,1.791,2.9,3.681,3.026,1.473-.83-.044-2.947,1.546-3.755,2.118-.215,1.341,2.357,2.942,2.956l1.764-3.228c.424,2.9.873,5.884-1.374,7.952-.788.725-1.233-1.125-1.793-1.841-.289-.37-.583-.736-.888-1.121-1.416.807-.578,3.913-2.2,3.247C961.495,491.488,962.3,488.035,960.741,485.446Z" transform="translate(-795.432 -453.072)"/>
  <path class="cls-1" d="M964.82,492.9a1.2,1.2,0,0,1-.45-.1c-1.881-.77-2.263-2.434-2.667-4.2a10.289,10.289,0,0,0-1.068-3.092l-.121-.2.234.011a2.446,2.446,0,0,1,2.372,1.8c.281.621.524,1.158,1.273,1.226.628-.375.631-1.027.634-1.716,0-.739.007-1.576.886-2.022l.044-.013c1.271-.121,1.588.7,1.888,1.5a2.237,2.237,0,0,0,1.011,1.424l1.89-3.458.061.412c.426,2.909.865,5.917-1.419,8.02a.6.6,0,0,1-.524.19c-.408-.075-.689-.637-.987-1.233a5.268,5.268,0,0,0-.464-.813c-.192-.247-.387-.491-.585-.741l-.232-.292a2.881,2.881,0,0,0-.828,1.827c-.134.642-.249,1.2-.631,1.4A.661.661,0,0,1,964.82,492.9Zm-3.852-7.312a11.181,11.181,0,0,1,.978,2.958c.39,1.7.758,3.3,2.518,4.021a.659.659,0,0,0,.553.038c.278-.148.388-.673.5-1.229a2.835,2.835,0,0,1,1.04-2.05l.093-.053.368.464c.2.25.394.5.587.742a5.436,5.436,0,0,1,.49.855c.245.491.523,1.047.809,1.1a.373.373,0,0,0,.31-.128c2.1-1.936,1.787-4.73,1.39-7.472l-1.638,3-.1-.038a2.352,2.352,0,0,1-1.257-1.612c-.289-.771-.551-1.434-1.6-1.339-.723.379-.726,1.065-.729,1.79,0,.742-.007,1.509-.793,1.952l-.033.019-.037,0c-.928-.063-1.229-.73-1.521-1.375A2.212,2.212,0,0,0,960.968,485.589Z" transform="translate(-795.432 -453.072)"/>
  <path d="M1012.735,483.95l.982-3.131c1.4.121,2.516,6.983,1.369,7.612-1.681.923-2.227-.784-3.108-1.627-.458-.438-.85-.944-1.275-1.423-1.717.891-.019,2.959-1.5,3.758-1.2-.356-1.673-7.212-.549-7.7,1.484-.646,1.922.814,2.719,1.544A14.725,14.725,0,0,0,1012.735,483.95Z" transform="translate(-795.432 -453.072)"/>
  <path class="cls-1" d="M1009.22,489.274l-.049-.015c-.75-.222-1.14-2.331-1.246-4.068-.036-.581-.17-3.5.682-3.868,1.188-.517,1.781.247,2.3.924a5.169,5.169,0,0,0,.553.643,6.508,6.508,0,0,0,.808.592c.124.083.257.17.4.268l.961-3.064.1.009c.925.08,1.491,2.429,1.643,3.146.348,1.648.575,4.261-.224,4.7-1.372.75-2.061-.152-2.67-.951a5.972,5.972,0,0,0-.584-.695,12.817,12.817,0,0,1-.889-.974c-.108-.127-.218-.255-.328-.382-.733.429-.709,1.111-.683,1.832s.053,1.457-.728,1.878Zm.125-7.873a1.6,1.6,0,0,0-.639.151c-.425.185-.649,1.709-.532,3.623.122,1.983.556,3.6,1.022,3.826.593-.352.571-.941.547-1.622-.027-.755-.058-1.612.9-2.11l.086-.045.065.073c.135.152.267.306.4.46a12.791,12.791,0,0,0,.87.956,6.121,6.121,0,0,1,.611.724c.6.788,1.168,1.533,2.35.884.5-.276.548-2.3.1-4.429-.339-1.61-.86-2.75-1.323-2.926l-1,3.184-.141-.1c-.194-.137-.371-.254-.534-.362a6.719,6.719,0,0,1-.837-.616,5.159,5.159,0,0,1-.583-.675C1010.3,481.873,1009.942,481.4,1009.345,481.4Z" transform="translate(-795.432 -453.072)"/>
  <path d="M1006.478,489.408c-2.939-2.358-2.939-2.358-4.97.183-1.176-2.479-1.983-5.138-.773-7.531,1.157-2.287,5.117-.431,5.08,2.616C1005.8,486.35,1007.306,487.707,1006.478,489.408Z" transform="translate(-795.432 -453.072)"/>
  <path class="cls-1" d="M1001.48,489.826l-.086-.181c-1.044-2.2-2.075-5.061-.771-7.641a2.027,2.027,0,0,1,2.452-1.006,3.833,3.833,0,0,1,2.864,3.68,5.094,5.094,0,0,0,.456,1.855,3.431,3.431,0,0,1,.193,2.93l-.068.141-.122-.1c-1.475-1.184-2.22-1.777-2.8-1.714-.54.06-1.057.706-1.993,1.878Zm.928-8.663a1.669,1.669,0,0,0-1.562.955c-1.221,2.414-.3,5.115.688,7.239.929-1.16,1.42-1.745,2.036-1.813a1.074,1.074,0,0,1,.12-.006c.635,0,1.337.549,2.738,1.673a3.321,3.321,0,0,0-.267-2.586,5.29,5.29,0,0,1-.473-1.948,3.579,3.579,0,0,0-2.674-3.435A2.572,2.572,0,0,0,1002.408,481.163Z" transform="translate(-795.432 -453.072)"/>
  <path d="M971.826,507.871l-3.6.262a1.842,1.842,0,0,0-.544-.255,41.9,41.9,0,0,1-4.508-9.39c-.316-1.082-.692-2.457.8-2.981,1.63-.573,1.889.84,2.216,1.939A33.794,33.794,0,0,0,971.826,507.871Z" transform="translate(-795.432 -453.072)"/>
  <path class="cls-1" d="M968.187,508.261l-.036-.025a1.744,1.744,0,0,0-.509-.238l-.048-.014-.025-.043a42.385,42.385,0,0,1-4.52-9.418c-.3-1.021-.749-2.562.875-3.134a1.589,1.589,0,0,1,1.291-.008c.59.3.814,1.087,1.013,1.777l.073.252a33.763,33.763,0,0,0,5.624,10.386l.136.183Zm-.428-.489a1.987,1.987,0,0,1,.5.233l3.334-.243a33.618,33.618,0,0,1-5.528-10.281l-.073-.254c-.193-.673-.393-1.369-.888-1.624a1.364,1.364,0,0,0-1.094.021c-1.294.456-1.091,1.551-.717,2.828A41.956,41.956,0,0,0,967.76,507.771Z" transform="translate(-795.432 -453.072)"/>
  <path d="M975.655,508.785l-1.4-.037c.616-3.287-.358-8.2,3.032-9.149,2.965-.826,2.224,4.861,4.777,6.494l-.04-.066c-.571.2-1.464.742-1.668.55C976.845,503.279,976.046,505.561,975.655,508.785Z" transform="translate(-795.432 -453.072)"/>
  <path class="cls-1" d="M975.765,508.913l-1.657-.044.026-.144a22.559,22.559,0,0,0,.265-2.87c.142-2.783.288-5.662,2.856-6.377,1.762-.49,2.3,1.177,2.869,2.945.433,1.354.88,2.751,1.882,3.479l.725-.255-.517.394.181.115-.3.061a.112.112,0,0,1-.1-.022l-.021-.013c-.154.06-.329.14-.5.218-.62.284-1.008.447-1.2.27-1.335-1.254-2.361-1.765-3.046-1.515-.926.336-1.251,2.032-1.447,3.646Zm-1.359-.286,1.139.03c.217-1.733.568-3.366,1.6-3.738.795-.289,1.874.227,3.3,1.567.094.068.635-.181.925-.314.122-.056.247-.114.366-.165a7.323,7.323,0,0,1-1.849-3.508c-.551-1.723-1.03-3.209-2.564-2.78-2.395.667-2.536,3.454-2.673,6.148A24.264,24.264,0,0,1,974.405,508.626Z" transform="translate(-795.432 -453.072)"/>
  <path d="M977.306,483.64c.377,1.523-5.472,1.873-.3,3.658,1.042.359.208.818-.178,1.317-1.391,1.8-1.35,1.836,1.854,3.077-2.47.554-4.92,2.17-5.314-1.373C973.071,487.59,971.262,483.21,977.306,483.64Z" transform="translate(-795.432 -453.072)"/>
  <path class="cls-1" d="M975.167,492.667a1.735,1.735,0,0,1-.977-.259,2.685,2.685,0,0,1-.94-2.076c-.045-.4-.121-.832-.2-1.29-.285-1.614-.608-3.442.395-4.556.711-.789,1.978-1.107,3.872-.972l.091.006.021.088c.167.673-.656,1.119-1.384,1.512-.53.288-1.079.584-1.056.871.018.223.391.61,2.064,1.187.351.121.534.265.579.453.062.263-.173.5-.42.753a3.706,3.706,0,0,0-.279.305c-.587.762-.915,1.208-.831,1.51.11.4,1.007.745,2.632,1.375l.384.149-.4.09c-.467.1-.937.249-1.39.388A7.977,7.977,0,0,1,975.167,492.667Zm1.34-8.932a3.72,3.72,0,0,0-2.879.919c-.921,1.022-.609,2.787-.334,4.345.082.462.159.9.2,1.306a2.474,2.474,0,0,0,.829,1.894c.689.452,1.773.118,2.925-.236.333-.1.675-.207,1.021-.3-1.556-.6-2.278-.915-2.413-1.4-.116-.418.2-.856.875-1.729a3.82,3.82,0,0,1,.3-.328c.181-.184.385-.392.354-.521-.012-.053-.083-.159-.417-.274-1.507-.52-2.2-.952-2.231-1.4s.557-.771,1.187-1.111,1.294-.7,1.272-1.144C976.956,483.743,976.727,483.735,976.507,483.735Z" transform="translate(-795.432 -453.072)"/>
  <path d="M1001.4,498.12c1.68.649,2.724,1.835,2.468,3.7a2.226,2.226,0,0,1-2.7,2.159c-1.744-.317-2.3-1.68-2.188-3.294A2.428,2.428,0,0,1,1001.4,498.12Z" transform="translate(-795.432 -453.072)"/>
  <path class="cls-1" d="M1001.675,504.155a2.974,2.974,0,0,1-.532-.049c-1.611-.293-2.425-1.509-2.291-3.426a2.558,2.558,0,0,1,2.54-2.684l.028,0,.025.01c1.909.738,2.789,2.064,2.547,3.836a2.775,2.775,0,0,1-1.023,1.917A2.167,2.167,0,0,1,1001.675,504.155Zm-.294-5.908A2.306,2.306,0,0,0,999.1,500.7c-.088,1.253.2,2.82,2.086,3.162a2.066,2.066,0,0,0,1.635-.3,2.531,2.531,0,0,0,.922-1.749A3.228,3.228,0,0,0,1001.381,498.247Z" transform="translate(-795.432 -453.072)"/>
</svg>
