<svg id="Layer_1" data-name="Layer 1" xmlns="http://www.w3.org/2000/svg" viewBox="0 0 506.893 260.511">
  <defs>
    <style>
      .cls-1 {
        fill: #fff;
      }

      .cls-2 {
        fill: #fdded3;
      }

      .cls-3 {
        fill: #fefefd;
      }

      .cls-4 {
        fill: #ffda00;
        stroke: #000;
        stroke-miterlimit: 10;
        stroke-width: 3px;
      }

      .cls-5 {
        fill: #fdfdfd;
      }
    </style>
  </defs>
  <title>la</title>
  <g>
    <polygon class="cls-1" points="36.068 199.752 53.068 168.152 96.068 121.488 127.068 106.995 167.068 112.068 175.416 125.945 184.068 140.33 217.068 151.199 256.068 254.101 43.175 254.101 36.068 199.752"/>
    <path d="M969.966,669.606H744.279l-7.962-60.895,18.169-33.771,44.2-47.971,33.423-15.626,44.225,5.609,17.322,28.8L927.213,556.8Zm-216.032-11h200.1l-35.247-93L886.34,554.919l-16.678-27.726-35.775-4.537-28.577,13.36-41.8,45.357L747.684,610.8Z" transform="translate(-705.932 -410.005)"/>
  </g>
  <g>
    <path class="cls-1" d="M900.341,479l-45.646,50.865L846,579.971l.543,84.269L1184,665l-20.65-84.269-27.17-20.5-32.6-26.571-19.563-1.518-23.91-14.424-23.91-12.147s-2.174-6.073-21.736-6.833-20.65,0-20.65,0l-18.476-5.314L955.768,479Z" transform="translate(-705.932 -410.005)"/>
    <path d="M841.079,669.729m0,0-.582-90.213,9.048-52.147L897.887,473.5h59.69L977.8,488.412l16.364,4.707c2.886-.306,8.5-.341,20.5.124,16.369.636,22.815,4.894,25.352,8.1l22.922,11.662,22.794,13.751,19.979,1.55,33.858,27.593,28.652,21.616,22.788,93M852.008,658.754l324.977.73-18.511-75.543-25.77-19.445-31.271-25.484-19.146-1.486-24.854-14.995-25.682-13.047-.5-1.4c-.789-.691-4.618-3.364-17-3.845-12.045-.467-16.7-.341-18.365-.234l-1.072.75-21.945-6.312L953.96,484.5H902.795l-42.952,47.862-8.34,48.065Zm179.41-150.511Z" transform="translate(-705.932 -410.005)"/>
  </g>
  <path d="M987,661c1.65-16.6,1.205-33.206.377-49.821-.1-1.993-.177-3.987-.265-5.98l13.923-.352c.629-.013,1.316-.074,1.121-.924-.06-.263-.7-.393-1.074-.583-4.713-.187-9.434-.653-14.115.37-1.871,6.06-1.184,12.374-1.747,18.561-.228,2.5-.39,3.868-3.5,3.848-3.36-.022-2.856-2-2.7-3.928,1.723-21.973.883-43.946-.086-65.911-.157-3.558.9-4.621,4.4-4.349,6.47.5,12.968.708,19.458.872,2.211.056,2.852.849,2.7,3-1.019,14.5.87,28.988.309,43.436-.224,5.766,1.3,6.158,5.968,5.973,4.595-.182,10.58-.991,13.453,1.436,2.715,2.294.659,8.478.708,12.948.116,10.661.093,21.323.162,31.985A33.517,33.517,0,0,0,1027,661Zm21.353-33.164c1.365-.67,3.73.161,3.862-2.647.1-2.218-1.192-2.387-2.832-2.21-1.927.208-4.218.018-4.337,2.837C1004.946,628.155,1006.889,627.592,1008.353,627.836Zm-16.287,11.082c2.747-.487,5.791,1.391,6.914-2.361a1.779,1.779,0,0,0-1.5-2.553C994.124,633.46,992.876,635.413,992.066,638.919Zm11.515,19.935c1.914-.089,3.54.054,3.466-2.517-.073-2.516-1.635-2.523-3.309-2.363-1.225.117-3.257-.889-3.116,1.749C1000.73,657.751,1001.3,659.318,1003.581,658.854Zm13.163-38.63c1.495-.551,3.889.845,4.2-2.1.235-2.211-1.146-2.357-2.779-2.246-1.929.131-4.234-.214-4.53,2.55C1013.348,621.109,1015.649,619.679,1016.744,620.224Zm-17.473-9.895c-3.258-.27-5.968-.985-7.249,2.146a1.746,1.746,0,0,0,1.375,2.561C997.074,615.911,997.372,612.8,999.271,610.329Zm13.748,12.841c.425,3.662,2.365,4.521,5.452,3.954,1.533-.281,1.982-.907,1.368-2.294C1018.252,621.246,1015.46,623.5,1013.019,623.17Zm-17.049-3.14c1.7.065,3.144.223,3-2.168-.142-2.363-1.755-2.2-3.125-1.945-1.059.2-3.013-.943-3.109,1.28S993.883,620.437,995.97,620.029Z" transform="translate(-705.932 -410.005)"/>
  <path d="M901,661c1.175-9.432.943-18.915,1.028-28.387.016-1.771-.465-3.724,2.524-3.663,24.762.5,49.492-1.94,74.275-.743,5.039.243,6.678,1.793,6.337,6.9-.577,8.621.154,17.271.836,25.891Z" transform="translate(-705.932 -410.005)"/>
  <path d="M1028,661c1.785-8.9.783-17.91.914-26.867.045-3.111.716-4.2,4.084-4.28,10.325-.252,20.576,1.18,30.876,1.023,3.075-.047,2.865,1.648,2.985,3.786.492,8.776-.742,17.627,1.141,26.339Z" transform="translate(-705.932 -410.005)"/>
  <path d="M1053.025,610.153c0,5.183-.117,10.368.059,15.548.067,1.985-.8,2.655-3.616,2.593-5.647-.123-11.261.644-16.945.354-2.742-.14-3.615-.846-3.524-2.8.192-4.118-.236-8.255.084-12.365.219-2.811-1.311-3.5-4.9-3.207-2.965.239-5.994.064-8.97.257-2.694.174-3.574-.55-3.218-2.384.933-4.8,1.463-9.606.129-14.416-.432-1.557.849-1.711,2.566-1.723,11.983-.081,23.95.189,35.916.62,2.572.093,2.414,1.108,2.409,2.322-.018,5.066-.008,10.132-.008,15.2Z" transform="translate(-705.932 -410.005)"/>
  <path d="M1091.1,631.86c-.543,8.163.715,16.949,1.077,25.769.145,3.538-1.013,4.316-4.176,4.089-4.983-.358-9.986-.459-14.981-.629-1.615-.055-2.754-.046-2.543-2.426.439-4.969.493-9.976.567-14.97.037-2.487.029-4.755,3.452-4.687,1.381.028,1.516-.971,1.44-2.055-.073-1.037-.7-1.6-1.629-1.308-3.38,1.059-3.04-1.246-3.094-3.271-.048-1.832-.266-3.67-.171-5.493.09-1.742.54-2.558,2.951-2.228,3.584.491,1.71-2.761,1.893-4.32.191-1.636,1.325-4.644-2.311-3.965-2.386.446-2.951-.254-2.959-2.43-.01-2.453,1.654-2.035,3.092-2.017,4.332.054,8.666.274,12.995.192,3.324-.063,4.739,1,4.483,4.613C1090.84,621.518,1091.1,626.353,1091.1,631.86Zm-6.076-2.868c-.017-1.664-.29-2.659-1.657-2.387-1.53.3-3.577.1-3.876,2.287-.218,1.592,1.215,1.981,2.322,1.731C1083.055,630.341,1085.012,630.685,1085.019,628.992Z" transform="translate(-705.932 -410.005)"/>
  <path d="M1120.1,631.86c-.543,8.163.715,16.949,1.077,25.769.145,3.538-1.013,4.316-4.176,4.089-4.983-.358-9.986-.459-14.981-.629-1.615-.055-2.754-.046-2.543-2.426.439-4.969.493-9.976.567-14.97.037-2.487.029-4.755,3.452-4.687,1.381.028,1.516-.971,1.44-2.055-.073-1.037-.7-1.6-1.629-1.308-3.38,1.059-3.04-1.246-3.094-3.271-.048-1.832-.266-3.67-.171-5.493.09-1.742.54-2.558,2.951-2.228,3.584.491,1.71-2.761,1.893-4.32.191-1.636,1.325-4.644-2.311-3.965-2.386.446-2.951-.254-2.959-2.43-.01-2.453,1.654-2.035,3.092-2.017,4.332.054,8.666.274,12.995.192,3.324-.063,4.739,1,4.483,4.613C1119.84,621.518,1120.1,626.353,1120.1,631.86Zm-6.076-2.868c-.017-1.664-.29-2.659-1.657-2.387-1.53.3-3.577.1-3.876,2.287-.218,1.592,1.215,1.981,2.322,1.731C1112.055,630.341,1114.012,630.685,1114.019,628.992Z" transform="translate(-705.932 -410.005)"/>
  <path class="cls-2" d="M1001.035,604.848l-13.923.352-.145-1.489c4.681-1.023,9.4-.558,14.115-.369Q1001.058,604.1,1001.035,604.848Z" transform="translate(-705.932 -410.005)"/>
  <path class="cls-2" d="M1008.353,627.836c-1.464-.244-3.407.319-3.308-2.021.119-2.818,2.41-2.629,4.337-2.837,1.641-.177,2.936-.007,2.832,2.21C1012.083,628,1009.718,627.166,1008.353,627.836Z" transform="translate(-705.932 -410.005)"/>
  <path class="cls-2" d="M992.066,638.919c.81-3.506,2.058-5.459,5.418-4.913a1.779,1.779,0,0,1,1.5,2.553C997.857,640.31,994.813,638.431,992.066,638.919Z" transform="translate(-705.932 -410.005)"/>
  <path class="cls-2" d="M1003.581,658.854c-2.278.464-2.851-1.1-2.96-3.131-.141-2.638,1.891-1.632,3.116-1.749,1.675-.16,3.237-.153,3.309,2.363C1007.121,658.908,1005.495,658.765,1003.581,658.854Z" transform="translate(-705.932 -410.005)"/>
  <path class="cls-2" d="M1016.744,620.224c-1.094-.545-3.4.885-3.109-1.792.3-2.764,2.6-2.419,4.53-2.55,1.633-.111,3.014.035,2.779,2.246C1020.632,621.069,1018.239,619.673,1016.744,620.224Z" transform="translate(-705.932 -410.005)"/>
  <path class="cls-2" d="M999.271,610.329c-1.9,2.469-2.2,5.582-5.873,4.707a1.746,1.746,0,0,1-1.375-2.561C993.3,609.344,996.013,610.059,999.271,610.329Z" transform="translate(-705.932 -410.005)"/>
  <path class="cls-3" d="M1013.019,623.17c2.441.327,5.232-1.924,6.82,1.66.614,1.387.165,2.013-1.368,2.294C1015.384,627.69,1013.444,626.832,1013.019,623.17Z" transform="translate(-705.932 -410.005)"/>
  <path class="cls-3" d="M995.97,620.029c-2.088.408-3.329-.614-3.233-2.832s2.05-1.084,3.109-1.28c1.369-.254,2.983-.418,3.125,1.945C999.114,620.252,997.674,620.094,995.97,620.029Z" transform="translate(-705.932 -410.005)"/>
  <path class="cls-3" d="M1001.035,604.848q.023-.752.046-1.506c.375.189,1.015.319,1.075.582C1002.352,604.774,1001.664,604.835,1001.035,604.848Z" transform="translate(-705.932 -410.005)"/>
  <path class="cls-2" d="M954.019,593.992c-.007,1.693-1.964,1.349-3.211,1.631-1.107.25-2.539-.139-2.322-1.731.3-2.188,2.346-1.982,3.876-2.287C953.729,591.333,954,592.328,954.019,593.992Z" transform="translate(-705.932 -410.005)"/>
  <path d="M759,665c3.211-51.932,1.381-103.872.366-155.809-.067-3.439,1.214-4.664,6.663-4.482,10.076.336,20.207.468,30.28.164,6.37-.192,8.511.716,8.36,5.328-1.462,44.615-.6,89.236-.116,133.855.076,6.994.1,13.988,1.448,20.942Zm12.057-151.051c2.44-.354,4.825-.7,4.582-2.934-.111-1.021-.011-1.691-2.2-1.949-2.65-.312-5.151-1.142-7.747-.065-1.532.636-1.388,1.7-1.084,2.658.824,2.59,4.306.67,6.149,1.533.3.139.3.555.434.843-2.54.273-6.55-1.093-6.194,2.412.175,1.724,1.316,2.868,4.2,2.58,5.686-.568,1.029-3.1,1.906-4.593C771.18,514.3,771.075,514.113,771.057,513.949Zm15.44,29.64c.863,2.63-2.665,5.905,3.349,6.515,6.65.674.486-7.064,8.415-5.876-.025-.628.34-1.475-.141-1.846a12.742,12.742,0,0,0-9.254-2.432C784.33,540.393,786.7,542.58,786.5,543.589Zm-3.663-17.32c2.771-.417,6.547,1.643,6.5-1.8-.031-2.278-2.306-2.74-5.1-2.5-2.684.231-6.794-.739-6.772,2.375C777.478,527.179,781.127,526.053,782.833,526.27Zm14.2,49.774c2.522.188,3.557-.73,3.309-2.345-.163-1.064.185-2.6-2.6-2.286-2.569.29-5,.935-4.76,3.1C793.157,576.13,795.071,576.11,797.034,576.044Zm-25.476-38.45c-.376-2.3-.071-3.719-2.762-3.444-2.553.261-4.817.951-4.784,3.007.023,1.433,1.449,1.871,3.475,1.854C770.193,538.988,771.693,538.3,771.557,537.594Zm28.431,52.246c.049-1.708-.835-2.935-3.763-2.932-1.783,0-3.817.086-3.222,1.821.461,1.344.366,3.107,3.676,3.085C798.753,591.8,800.045,591.34,799.988,589.84Zm-6.762-22.318c-.335-1.188-.639-2.366-3.254-1.964-2.408.37-4.219.982-4.033,2.943.173,1.813,2.107,1.5,3.822,1.549C792.454,570.124,793.279,569.1,793.226,567.522Z" transform="translate(-705.932 -410.005)"/>
  <path d="M726,663c2.255-22.353.97-44.709.257-67.063-.047-1.48.853-2.007,4.678-1.929,7.075.145,14.188.2,21.26.071,4.473-.083,5.976.308,5.87,2.293-1.027,19.2-.422,38.409-.081,57.614A30.92,30.92,0,0,0,759,663Zm8.465-65.015c1.713-.153,3.388-.3,3.217-1.263-.078-.439-.008-.728-1.545-.839-1.861-.134-3.616-.492-5.439-.028-1.076.274-.974.733-.761,1.144.578,1.115,3.023.288,4.318.66.209.06.208.239.3.363-1.783.118-4.6-.471-4.349,1.038.123.742.924,1.234,2.946,1.111,3.992-.244.723-1.334,1.338-1.977C734.552,598.135,734.478,598.055,734.465,597.985Zm10.841,12.758c.606,1.132-1.871,2.542,2.352,2.8,4.669.29.341-3.04,5.908-2.529-.018-.27.238-.635-.1-.795a13.365,13.365,0,0,0-6.5-1.047C743.785,609.366,745.447,610.308,745.306,610.742Zm-14,9c.606,1.132-1.871,2.542,2.352,2.8,4.669.29.341-3.04,5.908-2.529-.018-.27.238-.635-.1-.795a13.365,13.365,0,0,0-6.5-1.047C729.785,618.366,731.447,619.308,731.306,619.742Zm11.428-16.455c1.946-.18,4.6.707,4.564-.776-.022-.98-1.619-1.179-3.583-1.076-1.884.1-4.771-.318-4.755,1.022C738.974,603.679,741.536,603.194,742.734,603.287Zm9.971,21.424c1.771.081,2.5-.314,2.324-1.009-.115-.458.13-1.119-1.828-.984-1.8.125-3.509.4-3.342,1.336C749.982,624.748,751.326,624.74,752.7,624.711Zm-18,20c1.771.081,2.5-.314,2.324-1.009-.115-.458.13-1.119-1.828-.984-1.8.125-3.509.4-3.342,1.336C731.982,644.748,733.326,644.74,734.7,644.711Zm.112-36.55c-.264-.991-.05-1.6-1.939-1.482-1.793.112-3.382.409-3.359,1.294.016.617,1.017.805,2.44.8C733.859,608.762,734.912,608.466,734.817,608.162Zm15.215,12.882c-.236-.511-.449-1.018-2.285-.846-1.691.159-2.962.423-2.832,1.267.121.781,1.479.647,2.683.667C749.489,622.163,750.068,621.721,750.031,621.044Zm-13,16c-.236-.511-.449-1.018-2.285-.846-1.691.159-2.962.423-2.832,1.267.121.781,1.479.647,2.683.667C736.489,638.163,737.068,637.721,737.031,637.044Zm8-6c-.236-.511-.449-1.018-2.285-.846-1.691.159-2.962.423-2.832,1.267.121.781,1.479.647,2.683.667C744.489,632.163,745.068,631.721,745.031,631.044Zm-8-3c-.236-.511-.449-1.018-2.285-.846-1.691.159-2.962.423-2.832,1.267.121.781,1.479.647,2.683.667C736.489,629.163,737.068,628.721,737.031,628.044Z" transform="translate(-705.932 -410.005)"/>
  <path d="M1124,663c2.255-22.353.97-44.709.257-67.063-.047-1.48.853-2.007,4.678-1.929,7.075.145,14.188.2,21.26.071,4.473-.083,5.976.308,5.87,2.293-1.027,19.2-.422,38.409-.081,57.614A30.92,30.92,0,0,0,1157,663Zm8.465-65.015c1.713-.153,3.388-.3,3.217-1.263-.078-.439-.008-.728-1.545-.839-1.861-.134-3.616-.492-5.439-.028-1.076.274-.974.733-.761,1.144.578,1.115,3.023.288,4.318.66.209.06.208.239.3.363-1.783.118-4.6-.471-4.349,1.038.123.742.924,1.234,2.946,1.111,3.992-.244.723-1.334,1.338-1.977C1132.552,598.135,1132.478,598.055,1132.465,597.985Zm10.841,12.758c.606,1.132-1.871,2.542,2.352,2.8,4.669.29.341-3.04,5.908-2.529-.018-.27.238-.635-.1-.795a13.365,13.365,0,0,0-6.5-1.047C1141.785,609.366,1143.447,610.308,1143.306,610.742Zm-14,9c.606,1.132-1.871,2.542,2.352,2.8,4.669.29.341-3.04,5.908-2.529-.018-.27.238-.635-.1-.795a13.365,13.365,0,0,0-6.5-1.047C1127.785,618.366,1129.447,619.308,1129.306,619.742Zm11.428-16.455c1.946-.18,4.6.707,4.564-.776-.022-.98-1.619-1.179-3.583-1.076-1.884.1-4.771-.318-4.755,1.022C1136.974,603.679,1139.536,603.194,1140.734,603.287Zm9.971,21.424c1.771.081,2.5-.314,2.324-1.009-.115-.458.13-1.119-1.828-.984-1.8.125-3.509.4-3.342,1.336C1147.982,624.748,1149.326,624.74,1150.7,624.711Zm-18,20c1.771.081,2.5-.314,2.324-1.009-.115-.458.13-1.119-1.828-.984-1.8.125-3.509.4-3.342,1.336C1129.982,644.748,1131.326,644.74,1132.7,644.711Zm.112-36.55c-.264-.991-.05-1.6-1.939-1.482-1.793.112-3.382.409-3.359,1.294.016.617,1.017.805,2.44.8C1131.859,608.762,1132.912,608.466,1132.817,608.162Zm15.215,12.882c-.236-.511-.449-1.018-2.285-.846-1.691.159-2.962.423-2.832,1.267.121.781,1.479.647,2.683.667C1147.489,622.163,1148.068,621.721,1148.031,621.044Zm-13,16c-.236-.511-.449-1.018-2.285-.846-1.691.159-2.962.423-2.832,1.267.121.781,1.479.647,2.683.667C1134.489,638.163,1135.068,637.721,1135.031,637.044Zm8-6c-.236-.511-.449-1.018-2.285-.846-1.691.159-2.962.423-2.832,1.267.121.781,1.479.647,2.683.667C1142.489,632.163,1143.068,631.721,1143.031,631.044Zm-8-3c-.236-.511-.449-1.018-2.285-.846-1.691.159-2.962.423-2.832,1.267.121.781,1.479.647,2.683.667C1134.489,629.163,1135.068,628.721,1135.031,628.044Z" transform="translate(-705.932 -410.005)"/>
  <path d="M808,632.015c-.812-2.31.369-3.012,2.426-3.01,2.289,0,4.577,0,7.006,0-.354-1.417-1.216-.979-1.8-.993-7.843-.19-9.514-2.448-7.807-10.205.343-1.56,1.107-1.807,2.366-1.8,1.646.011,3.292,0,5.726,0a6.608,6.608,0,0,0-5.324-1.182c-2.144.225-3.224-.436-2.571-2.764,3.283.371,7.3-2.358,9.573,2.276.974-4.168.975-4.205-2.692-4.288-2.315-.052-4.633.028-6.949.05.006-9.962.1-19.924-.044-29.884-.039-2.582.718-3.709,3.606-3.3-1.082-1.468-4.119-.08-3.509-2.986.441-2.1,2.1-1.8,3.519-1.855,1.955-.081,3.915-.02,5.89-1.052q-3.736,0-7.472,0c-1.042,0-2.058-.059-1.884-1.546.122-1.041.842-1.277,1.741-1.3a48.353,48.353,0,0,1,5.468-.125c2.744.245,2.8-1.349,2.841-3.367.054-2.486-1.291-2.661-3.188-2.366a39.672,39.672,0,0,1-3.958.432c-1.207.065-2.782.788-2.961-1.423-.153-1.894,1.022-2.17,2.492-2.222,1.16-.041,2.316-.164,3.474-.251l1.674-.215c-.263-1.063-1.067-.5-1.664-.552a34.658,34.658,0,0,1-4.282-.148c-2.546-.39-2.213-1.652-.756-3.107,2.994.828,6.9-1.782,8.884,2.822,1.111-3.309.559-4.881-2.957-4.52a67.328,67.328,0,0,1-6.928.038c.031-6.707.03-6.636,6.982-6.5,9.157.173,18.317.284,27.475.282,2.373,0,3.65.337,3.545,3.2-1.384,38.122.079,76.242.193,114.363A1.81,1.81,0,0,1,846,665H807c.026-10.354-.225-20.716.991-31.032l7.452-.5-.032-1.456Zm29.988-54.065c3.338,1.244,5.151.024,4.975-3.235-.192-3.564-2.882-2.768-5.178-2.409-1.459.228-2.925.453-4.4.55-2.523.166-2.776,1.816-2.663,3.8.147,2.567,1.759,2.273,3.511,1.893C835.519,578.268,836.833,578.128,837.984,577.95Zm2.7-10.9c2.174.269,3.43-.553,3.194-3.006-.141-1.461-.13-3.611-2.208-2.794-1.622.638-4.664.122-4.477,3.494C837.331,567.2,838.849,567.213,840.686,567.051Zm-20.71-11.184c-.163,2.028.252,3.266,2.646,3.031,2.368-.232,3.517-1.189,3.5-3.681-.014-1.964-.808-2.519-2.661-2.407C821.341,552.938,819.38,552.992,819.976,555.867Zm9.909,3.157c2.163.26,3.421-.4,3.224-2.926-.132-1.7.1-3.388-2.472-3.119-2.159.225-3.736.726-3.759,3.455C826.858,558.751,827.865,559.321,829.884,559.024Zm-7.535,2.091c-.429.168-2.819-.742-2.16,1.709.444,1.65.043,4.415,3.362,4.334,2.361-.058,2.567-1.155,2.566-3.045C826.117,561.961,825.677,560.541,822.35,561.115Zm3.72,31.333c.079-1.267-.021-2.547-2.291-2.521-3.351.039-1.452,2.725-2.057,4.048-.73,1.6.858,1.985,2.263,1.987C826.308,595.964,826.029,594.292,826.07,592.448Zm5.491,28.373c-1.837.7-4.717-1.4-4.663,2.682.03,2.277.279,3.733,3.194,3.672,2.874-.061,3.436-1.18,2.641-3.63-1.771-.432-1.452,2.883-3.392,1.907a2.486,2.486,0,0,1-1.024-1.581C827.75,621.159,831.105,622.917,831.561,620.821Zm-11-29.721c-.2.275-.45.473-.458.68a2.574,2.574,0,0,0,.269.844c.183-.163.5-.315.516-.493A3.259,3.259,0,0,0,820.563,591.1Z" transform="translate(-705.932 -410.005)"/>
  <path d="M848,665c.316-21.153.687-42.305.884-63.459.026-2.808.747-3.719,3.62-3.631,14.151.433,28.306.783,42.463.912,3.564.032,3,2.114,3,4.233.031,14.994-.01,29.989.145,44.982.059,5.657.577,11.309.886,16.963Z" transform="translate(-705.932 -410.005)"/>
  <path d="M923,626c.316-14.817.687-29.634.884-44.452.026-1.967.747-2.605,3.62-2.544,14.151.3,28.306.549,42.463.639,3.564.023,3,1.481,3,2.965.031,10.5-.01,21.007.145,31.51.059,3.962.577,7.922.886,11.882Z" transform="translate(-705.932 -410.005)"/>
  <path d="M706,664c1.628-38.254.765-76.509-.064-114.761-.082-3.775,1.236-4.5,4.534-4.125a62.122,62.122,0,0,0,10.456.495c3.668-.21,4.274,1.3,4.249,4.611-.17,22.793-.259,45.588-.117,68.382.094,15.134.613,30.266.942,45.4Z" transform="translate(-705.932 -410.005)"/>
  <path d="M826.209,545.008c-1.665,0-3.336.1-4.992-.029-1.433-.108-3.608.905-3.522-2.017.06-2.046.667-3.759,2.966-3.843,3.989-.145,7.993-.176,11.978,0a3.352,3.352,0,0,1,3.274,3.7c-.014,2.756-2.282,1.828-3.719,1.954-1.981.174-3.989.044-5.986.044Z" transform="translate(-705.932 -410.005)"/>
  <path d="M812.223,567.157c-1.452-.607-4.062,1.02-4.063-1.485,0-3.427,3.017-1.3,4.586-1.57,1.282-.223,3.972-1.218,3.99,1.157C816.762,568.56,813.629,566.228,812.223,567.157Z" transform="translate(-705.932 -410.005)"/>
  <path class="cls-2" d="M807.952,610.1c2.317-.021,4.634-.1,6.949-.05,3.667.083,3.666.12,2.692,4.288-2.269-4.634-6.29-1.9-9.573-2.276Z" transform="translate(-705.932 -410.005)"/>
  <path class="cls-2" d="M807.94,553.175a67.328,67.328,0,0,0,6.928-.038c3.516-.362,4.068,1.211,2.957,4.52-1.982-4.6-5.89-1.995-8.884-2.822Z" transform="translate(-705.932 -410.005)"/>
  <path class="cls-2" d="M808,632.015h7.415l.032,1.456-7.452.5Q807.993,632.991,808,632.015Z" transform="translate(-705.932 -410.005)"/>
  <path class="cls-2" d="M813.978,558.09c.6.056,1.4-.511,1.664.552l-1.674.215A6.029,6.029,0,0,0,813.978,558.09Z" transform="translate(-705.932 -410.005)"/>
  <path class="cls-2" d="M793.136,543.589c.132-1.009-1.429-3.2,1.562-3.64a6.492,6.492,0,0,1,6.1,2.432c.317.371.077,1.219.093,1.846-5.23-1.187-1.164,6.55-5.55,5.876C791.378,549.494,793.7,546.219,793.136,543.589Zm2.578.5-1.012.422c.273.211.54.582.821.594.405.017,1.063-.12,1.181-.384C796.937,544.205,796.443,544.057,795.714,544.093Z" transform="translate(-705.932 -410.005)"/>
  <path class="cls-2" d="M790.72,526.27c-1.125-.217-3.532.909-3.545-1.926-.015-3.114,2.7-2.144,4.466-2.375,1.845-.241,3.346.221,3.366,2.5C795.038,527.913,792.548,525.853,790.72,526.27Z" transform="translate(-705.932 -410.005)"/>
  <path class="cls-2" d="M783.041,514.036c-.09-.288-.09-.7-.286-.843-1.216-.863-3.513,1.057-4.056-1.533-.2-.956-.3-2.023.715-2.658,1.712-1.077,3.362-.247,5.11.065,1.444.258,1.378.928,1.451,1.949.161,2.236-1.413,2.579-3.022,2.934Z" transform="translate(-705.932 -410.005)"/>
  <path class="cls-2" d="M800.086,576.044c-1.295.066-2.557.086-2.674-1.526-.157-2.169,1.445-2.815,3.139-3.1,1.839-.315,1.609,1.221,1.717,2.286C802.432,575.314,801.749,576.232,800.086,576.044Z" transform="translate(-705.932 -410.005)"/>
  <path class="cls-2" d="M783.282,537.594c.09.708-.9,1.394-2.685,1.417-1.336.017-2.276-.421-2.292-1.854-.022-2.057,1.471-2.746,3.155-3.007C783.236,533.874,783.034,535.291,783.282,537.594Z" transform="translate(-705.932 -410.005)"/>
  <path class="cls-2" d="M802.036,589.837c.036,1.5-.816,1.963-2.184,1.977-2.183.022-2.121-1.742-2.425-3.085-.393-1.735.949-1.819,2.125-1.821C801.484,586.9,802.067,588.132,802.036,589.837Z" transform="translate(-705.932 -410.005)"/>
  <path class="cls-2" d="M782.952,513.949a1.247,1.247,0,0,1,.028.486c-.578,1.494,2.493,4.025-1.257,4.593-1.9.287-2.652-.856-2.767-2.58-.235-3.505,2.41-2.139,4.085-2.412Z" transform="translate(-705.932 -410.005)"/>
  <path class="cls-2" d="M797.573,567.529c.037,1.568-.507,2.595-2.283,2.521-1.131-.047-2.407.264-2.521-1.549-.123-1.96,1.072-2.573,2.66-2.943C797.154,565.156,797.354,566.334,797.573,567.529Z" transform="translate(-705.932 -410.005)"/>
  <path class="cls-2" d="M837.984,577.95c-1.151.178-2.465.319-3.75.6-1.752.379-3.364.674-3.511-1.893-.113-1.983.14-3.632,2.663-3.8,1.471-.1,2.937-.322,4.4-.55,2.3-.359,4.986-1.155,5.178,2.409C843.135,577.974,841.322,579.194,837.984,577.95Z" transform="translate(-705.932 -410.005)"/>
  <path class="cls-2" d="M840.686,567.051c-1.837.162-3.355.149-3.491-2.306-.187-3.372,2.855-2.856,4.477-3.494,2.077-.817,2.067,1.333,2.208,2.794C844.116,566.5,842.86,567.32,840.686,567.051Z" transform="translate(-705.932 -410.005)"/>
  <path class="cls-2" d="M819.976,555.867c-.6-2.875,1.365-2.929,3.484-3.057,1.853-.112,2.647.443,2.661,2.407.017,2.492-1.132,3.449-3.5,3.681C820.227,559.133,819.813,557.9,819.976,555.867Z" transform="translate(-705.932 -410.005)"/>
  <path class="cls-2" d="M829.884,559.024c-2.019.3-3.026-.273-3.007-2.59.023-2.729,1.6-3.23,3.759-3.455,2.575-.269,2.34,1.42,2.472,3.119C833.305,558.62,832.047,559.284,829.884,559.024Z" transform="translate(-705.932 -410.005)"/>
  <path class="cls-2" d="M822.35,561.115c3.328-.574,3.768.847,3.768,3,0,1.89-.205,2.987-2.566,3.045-3.319.081-2.918-2.684-3.362-4.334C819.531,560.373,821.921,561.283,822.35,561.115Z" transform="translate(-705.932 -410.005)"/>
  <path class="cls-2" d="M826.07,592.448c-.041,1.844.238,3.516-2.085,3.514-1.406,0-2.993-.391-2.263-1.987.605-1.323-1.294-4.009,2.057-4.048C826.049,589.9,826.149,591.18,826.07,592.448Z" transform="translate(-705.932 -410.005)"/>
  <path class="cls-2" d="M831.561,620.821c-.456,2.1-3.811.338-3.244,3.049a2.486,2.486,0,0,0,1.024,1.581c1.939.976,1.621-2.338,3.392-1.907.795,2.45.233,3.569-2.641,3.63-2.916.062-3.164-1.4-3.194-3.672C826.845,619.419,829.724,621.518,831.561,620.821Z" transform="translate(-705.932 -410.005)"/>
  <path class="cls-2" d="M820.563,591.1a3.259,3.259,0,0,1,.328,1.031c-.015.177-.334.329-.516.493a2.574,2.574,0,0,1-.269-.844C820.112,591.573,820.366,591.374,820.563,591.1Z" transform="translate(-705.932 -410.005)"/>
  <path d="M795.714,544.093c.729-.036,1.223.112.991.631-.118.264-.776.4-1.181.384-.281-.012-.548-.383-.821-.594Z" transform="translate(-705.932 -410.005)"/>
  <path class="cls-4" d="M892.533,530.554v5.077h5.87v-5.077h1.584v12.136H898.4V537h-5.87v5.689h-1.584V530.554Z" transform="translate(-705.932 -410.005)"/>
  <path class="cls-4" d="M920.705,536.5c0,4.159-2.539,6.392-5.635,6.392-3.223,0-5.456-2.5-5.456-6.176,0-3.854,2.376-6.374,5.617-6.374C918.562,530.338,920.705,532.877,920.705,536.5Zm-9.435.18c0,2.61,1.4,4.934,3.889,4.934s3.889-2.287,3.889-5.042c0-2.431-1.26-4.951-3.871-4.951S911.271,534.029,911.271,536.676Z" transform="translate(-705.932 -410.005)"/>
  <path class="cls-4" d="M926.534,530.554h1.584v10.821H933.3v1.314h-6.77Z" transform="translate(-705.932 -410.005)"/>
  <path class="cls-4" d="M938.846,530.554h1.584v10.821h5.186v1.314h-6.77Z" transform="translate(-705.932 -410.005)"/>
  <path class="cls-4" d="M953.048,542.689V537.54l-3.854-6.986H951l1.71,3.349c.45.919.828,1.657,1.207,2.5h.036c.324-.792.756-1.584,1.224-2.5l1.747-3.349h1.765l-4.051,6.968v5.168Z" transform="translate(-705.932 -410.005)"/>
  <path class="cls-4" d="M965.233,542.689l-3.079-12.136h1.656l1.441,6.14c.359,1.513.684,3.025.9,4.2h.036c.2-1.206.576-2.646.99-4.213l1.621-6.122h1.639l1.476,6.158c.343,1.44.667,2.881.847,4.159h.035c.253-1.333.595-2.683.973-4.2l1.6-6.122h1.6l-3.439,12.136H971.9l-1.53-6.32a36.34,36.34,0,0,1-.793-3.961h-.035a33.844,33.844,0,0,1-.937,3.961l-1.729,6.32Z" transform="translate(-705.932 -410.005)"/>
  <path class="cls-4" d="M992.668,536.5c0,4.159-2.539,6.392-5.636,6.392-3.224,0-5.456-2.5-5.456-6.176,0-3.854,2.377-6.374,5.618-6.374C990.525,530.338,992.668,532.877,992.668,536.5Zm-9.436.18c0,2.61,1.4,4.934,3.89,4.934s3.89-2.287,3.89-5.042c0-2.431-1.261-4.951-3.871-4.951S983.232,534.029,983.232,536.676Z" transform="translate(-705.932 -410.005)"/>
  <path class="cls-4" d="M1008.886,536.5c0,4.159-2.539,6.392-5.636,6.392-3.223,0-5.456-2.5-5.456-6.176,0-3.854,2.377-6.374,5.618-6.374C1006.742,530.338,1008.886,532.877,1008.886,536.5Zm-9.435.18c0,2.61,1.4,4.934,3.889,4.934s3.889-2.287,3.889-5.042c0-2.431-1.26-4.951-3.871-4.951S999.451,534.029,999.451,536.676Z" transform="translate(-705.932 -410.005)"/>
  <path class="cls-4" d="M1014.731,530.734a20.1,20.1,0,0,1,3.331-.271,7.035,7.035,0,0,1,4.916,1.513,5.54,5.54,0,0,1,1.729,4.357,6.491,6.491,0,0,1-1.747,4.717,7.551,7.551,0,0,1-5.384,1.747,25.08,25.08,0,0,1-2.845-.145Zm1.567,10.73a12.87,12.87,0,0,0,1.584.072c3.367,0,5.168-1.873,5.168-5.149.018-2.863-1.6-4.682-4.916-4.682a8.9,8.9,0,0,0-1.836.162Z" transform="translate(-705.932 -410.005)"/>
  <path d="M1114.713,499.347c3.66,7.776,2,15.584.339,23.467a88.768,88.768,0,0,0-1.044,10.419c-.072.817.084,1.792-.935,2.045-.949.235-1.5-.5-1.874-1.265-6.486-13.457-12.153-27.241-9.884-42.579s11.808-25.168,26.433-31.282c-3.838-1.293-5.445-5.07-10.366-4.492-4.2.494-8.677-1.974-13.106-2.52-2.918-.36-4.08-1.044-2.388-3.944-.76-.042-1.2-.2-1.34-.056-5.328,5.386-12.018,5.111-18.818,4.728a26.771,26.771,0,0,0-9.876,1.14c-.846.276-1.808,1.455-2.642.294-.886-1.233.293-2.07.981-2.987,11.311-15.083,31.383-21.451,49.034-15.376,3.894,1.34,7.6,3.223,11.642,4.962,1.216-2.962-1.027-4.756-2.278-6.912-1.331-2.295-5.436-3.123-3.723-7.1.308-.717-.794-.995-1.4-.857-3.674.838-4.71-1.95-6.225-4.283-2.8-4.308-7-7.045-11.292-9.635-.853-.515-1.934-1-1.654-2.143.314-1.278,1.575-.916,2.526-.909,7.692.057,15.291.754,22.546,3.555,12.7,4.9,19.807,15.261,19.827,28.814q0,1.4,0,2.8l1.391,1.13c.132-.69.021-1.617.431-2.035,13.04-13.325,26.675-15.1,42.8-5.687,6.82,3.982,12.619,9.2,18.168,14.743a1.983,1.983,0,0,1,.579,2.624c-3.049-.6-6.214-1.311-9.411-1.826-7.3-1.175-15.405,1.131-21.9-6.157,2.452,5.389.114,6.142-3.477,5.782-5.015-.5-9.579,2.061-14.527,2.128-.659.009-1.69,1.142-1.857,1.906-.236,1.079,1.067.933,1.779,1.2,2.179.805,4.416,1.476,6.535,2.414,18.572,8.216,27.561,24.531,24.919,45.365-.543,4.28-1.458,8.515-2.313,12.749-.171.845.116,2.219-1.275,2.356-1.226.12-1.6-1.055-2.045-1.877-5.18-9.5-13-17.936-12.162-29.9.031-.438-.091-1.026-.825-.959-2.5,4.867-2.357,4.716-6.517.79-4.9-4.626-8.694-10.3-14.06-14.489-1.643-1.283-2.617-1.451-4.043.15-1.118,1.255-2.986,1.568-1.752,4.237,5.061,10.948,9.442,22.283,11.645,34.1.657,3.526,7.3,18.836,11.722,43.029,4.778,26.122,7.313,61.261,6.451,65.318a2.715,2.715,0,0,0,.406,1.422c3.931,8.886,3.187,18.5,3.447,27.755.152,5.416-1.382,11.077-1.235,16.723.037,1.41-.982,1.268-2.092,1.229q-8.487-.293-16.981-.346c-2.2-.01-3.146-.636-2.268-2.929,2.943-7.69,1.171-15.99,3.25-24.005,1.229-4.738,2.365-10.987,1.073-15.809-2.371-8.845,1.046-17.578-.837-26.006-.832-3.725.724-23.659-2.211-41.352-5.365-32.336-16.485-69.8-19.215-76.335-1.014-2.429-4.391-2.222-5.676-4.552-.634-1.149-1.489-2.177-2.4-3.477-2.705,2.306-3.491,6.574-7.644,6.953,1.318,5.968-4.116,9.228-5.659,14.053-.248.776-.924,1.416-1.163,2.193-1.087,3.53-3.027,2.882-5.236,1.156-.061-.37.037-.882-.633-.7Z" transform="translate(-705.932 -410.005)"/>
  <path class="cls-5" d="M1098.713,512.347l-.336-1.061c.67-.178.572.334.633.7Z" transform="translate(-705.932 -410.005)"/>
</svg>
