<?xml version="1.0" encoding="utf-8"?>
<!-- Generator: Adobe Illustrator 16.0.0, SVG Export Plug-In . SVG Version: 6.00 Build 0)  -->
<!DOCTYPE svg PUBLIC "-//W3C//DTD SVG 1.1//EN" "http://www.w3.org/Graphics/SVG/1.1/DTD/svg11.dtd">
<svg version="1.1" id="Layer_1" xmlns="http://www.w3.org/2000/svg" xmlns:xlink="http://www.w3.org/1999/xlink" x="0px" y="0px"
	 width="600px" height="600px" viewBox="0 0 600 600" enable-background="new 0 0 600 600" xml:space="preserve">
<g>
	<line fill="none" stroke="#000000" stroke-miterlimit="10" x1="300.444" y1="61.179" x2="331.507" y2="46.766"/>
	<line fill="none" stroke="#000000" stroke-miterlimit="10" x1="331.507" y1="46.766" x2="269.384" y2="46.766"/>
	<line fill="none" stroke="#000000" stroke-miterlimit="10" x1="269.384" y1="46.766" x2="300.444" y2="61.179"/>
	<line fill="none" stroke="#000000" stroke-miterlimit="10" x1="331.507" y1="46.766" x2="300.444" y2="34.441"/>
	<line fill="none" stroke="#000000" stroke-miterlimit="10" x1="300.444" y1="34.441" x2="269.384" y2="46.766"/>
	<line fill="none" stroke="#000000" stroke-miterlimit="10" x1="331.507" y1="46.766" x2="366.203" y2="42.585"/>
	<line fill="none" stroke="#000000" stroke-miterlimit="10" x1="366.203" y1="42.585" x2="300.444" y2="34.441"/>
	<line fill="none" stroke="#000000" stroke-miterlimit="10" x1="234.69" y1="42.585" x2="269.384" y2="46.766"/>
	<line fill="none" stroke="#000000" stroke-miterlimit="10" x1="335.502" y1="36.865" x2="300.444" y2="34.441"/>
	<line fill="none" stroke="#000000" stroke-miterlimit="10" x1="265.389" y1="36.865" x2="300.444" y2="34.441"/>
	<line fill="none" stroke="#000000" stroke-miterlimit="10" x1="234.69" y1="42.585" x2="300.444" y2="34.441"/>
	<line fill="none" stroke="#000000" stroke-miterlimit="10" x1="366.203" y1="42.585" x2="335.502" y2="36.865"/>
	<line fill="none" stroke="#000000" stroke-miterlimit="10" x1="234.69" y1="42.585" x2="265.389" y2="36.865"/>
	<line fill="none" stroke="#000000" stroke-miterlimit="10" x1="201.811" y1="53.269" x2="234.69" y2="42.585"/>
	<line fill="none" stroke="#000000" stroke-miterlimit="10" x1="399.079" y1="53.269" x2="366.203" y2="42.585"/>
	<line fill="none" stroke="#000000" stroke-miterlimit="10" x1="72.461" y1="226.822" x2="68.35" y2="192.827"/>
	<line fill="none" stroke="#000000" stroke-miterlimit="10" x1="68.35" y1="192.827" x2="49.153" y2="251.908"/>
	<line fill="none" stroke="#000000" stroke-miterlimit="10" x1="49.153" y1="251.908" x2="72.461" y2="226.822"/>
	<line fill="none" stroke="#000000" stroke-miterlimit="10" x1="68.35" y1="192.827" x2="47.029" y2="218.56"/>
	<line fill="none" stroke="#000000" stroke-miterlimit="10" x1="47.029" y1="218.56" x2="49.153" y2="251.908"/>
	<line fill="none" stroke="#000000" stroke-miterlimit="10" x1="68.35" y1="192.827" x2="75.097" y2="158.537"/>
	<line fill="none" stroke="#000000" stroke-miterlimit="10" x1="75.097" y1="158.537" x2="47.029" y2="218.56"/>
	<line fill="none" stroke="#000000" stroke-miterlimit="10" x1="34.457" y1="283.614" x2="49.153" y2="251.908"/>
	<line fill="none" stroke="#000000" stroke-miterlimit="10" x1="60.17" y1="185.968" x2="47.029" y2="218.56"/>
	<line fill="none" stroke="#000000" stroke-miterlimit="10" x1="38.502" y1="252.648" x2="47.029" y2="218.56"/>
	<line fill="none" stroke="#000000" stroke-miterlimit="10" x1="34.457" y1="283.614" x2="47.029" y2="218.56"/>
	<line fill="none" stroke="#000000" stroke-miterlimit="10" x1="75.097" y1="158.537" x2="60.17" y2="185.968"/>
	<line fill="none" stroke="#000000" stroke-miterlimit="10" x1="34.457" y1="283.614" x2="38.502" y2="252.648"/>
	<line fill="none" stroke="#000000" stroke-miterlimit="10" x1="34.457" y1="318.183" x2="34.457" y2="283.614"/>
	<line fill="none" stroke="#000000" stroke-miterlimit="10" x1="95.415" y1="130.57" x2="75.097" y2="158.537"/>
	<line fill="none" stroke="#000000" stroke-miterlimit="10" x1="300.444" y1="300.898" x2="250.186" y2="284.569"/>
	<line fill="none" stroke="#000000" stroke-miterlimit="10" x1="250.186" y1="284.569" x2="269.384" y2="343.651"/>
	<line fill="none" stroke="#000000" stroke-miterlimit="10" x1="269.384" y1="343.651" x2="300.444" y2="300.898"/>
	<line fill="none" stroke="#000000" stroke-miterlimit="10" x1="250.186" y1="284.569" x2="211.656" y2="329.747"/>
	<line fill="none" stroke="#000000" stroke-miterlimit="10" x1="211.656" y1="329.747" x2="269.384" y2="343.651"/>
	<line fill="none" stroke="#000000" stroke-miterlimit="10" x1="250.186" y1="284.569" x2="194.05" y2="266.329"/>
	<line fill="none" stroke="#000000" stroke-miterlimit="10" x1="194.05" y1="266.329" x2="211.656" y2="329.747"/>
	<line fill="none" stroke="#000000" stroke-miterlimit="10" x1="234.69" y1="391.404" x2="269.384" y2="343.651"/>
	<line fill="none" stroke="#000000" stroke-miterlimit="10" x1="151.948" y1="312.288" x2="211.656" y2="329.747"/>
	<line fill="none" stroke="#000000" stroke-miterlimit="10" x1="173.61" y1="378.97" x2="211.656" y2="329.747"/>
	<line fill="none" stroke="#000000" stroke-miterlimit="10" x1="234.69" y1="391.404" x2="211.656" y2="329.747"/>
	<line fill="none" stroke="#000000" stroke-miterlimit="10" x1="194.05" y1="266.329" x2="151.948" y2="312.288"/>
	<line fill="none" stroke="#000000" stroke-miterlimit="10" x1="173.61" y1="378.97" x2="151.948" y2="312.288"/>
	<line fill="none" stroke="#000000" stroke-miterlimit="10" x1="125.941" y1="455.578" x2="159.543" y2="494.835"/>
	<line fill="none" stroke="#000000" stroke-miterlimit="10" x1="95.415" y1="402.086" x2="125.941" y2="455.578"/>
	<line fill="none" stroke="#000000" stroke-miterlimit="10" x1="234.69" y1="391.404" x2="173.61" y2="378.97"/>
	<line fill="none" stroke="#000000" stroke-miterlimit="10" x1="176.201" y1="471.908" x2="201.811" y2="436.657"/>
	<line fill="none" stroke="#000000" stroke-miterlimit="10" x1="116.89" y1="360.539" x2="143.825" y2="423.108"/>
	<line fill="none" stroke="#000000" stroke-miterlimit="10" x1="201.811" y1="436.657" x2="143.825" y2="423.108"/>
	<line fill="none" stroke="#000000" stroke-miterlimit="10" x1="201.811" y1="436.657" x2="234.69" y2="391.404"/>
	<line fill="none" stroke="#000000" stroke-miterlimit="10" x1="201.811" y1="436.657" x2="173.61" y2="378.97"/>
	<line fill="none" stroke="#000000" stroke-miterlimit="10" x1="159.543" y1="494.835" x2="176.201" y2="471.908"/>
	<line fill="none" stroke="#000000" stroke-miterlimit="10" x1="95.415" y1="402.086" x2="143.825" y2="423.108"/>
	<line fill="none" stroke="#000000" stroke-miterlimit="10" x1="143.825" y1="423.108" x2="125.941" y2="455.578"/>
	<line fill="none" stroke="#000000" stroke-miterlimit="10" x1="173.61" y1="378.97" x2="143.825" y2="423.108"/>
	<line fill="none" stroke="#000000" stroke-miterlimit="10" x1="176.201" y1="471.908" x2="143.825" y2="423.108"/>
	<line fill="none" stroke="#000000" stroke-miterlimit="10" x1="176.201" y1="471.908" x2="125.941" y2="455.578"/>
	<line fill="none" stroke="#000000" stroke-miterlimit="10" x1="116.89" y1="360.539" x2="173.61" y2="378.97"/>
	<line fill="none" stroke="#000000" stroke-miterlimit="10" x1="116.89" y1="360.539" x2="101.906" y2="294.089"/>
	<line fill="none" stroke="#000000" stroke-miterlimit="10" x1="151.948" y1="312.288" x2="101.906" y2="294.089"/>
	<line fill="none" stroke="#000000" stroke-miterlimit="10" x1="95.415" y1="402.086" x2="116.89" y2="360.539"/>
	<line fill="none" stroke="#000000" stroke-miterlimit="10" x1="75.097" y1="339.549" x2="95.415" y2="402.086"/>
	<line fill="none" stroke="#000000" stroke-miterlimit="10" x1="75.097" y1="339.549" x2="116.89" y2="360.539"/>
	<line fill="none" stroke="#000000" stroke-miterlimit="10" x1="68.35" y1="278.331" x2="99.411" y2="235.578"/>
	<line fill="none" stroke="#000000" stroke-miterlimit="10" x1="99.411" y1="235.578" x2="72.461" y2="226.822"/>
	<line fill="none" stroke="#000000" stroke-miterlimit="10" x1="68.35" y1="278.331" x2="101.906" y2="294.089"/>
	<line fill="none" stroke="#000000" stroke-miterlimit="10" x1="151.948" y1="312.288" x2="116.89" y2="360.539"/>
	<line fill="none" stroke="#000000" stroke-miterlimit="10" x1="140.852" y1="249.044" x2="101.906" y2="294.089"/>
	<line fill="none" stroke="#000000" stroke-miterlimit="10" x1="140.852" y1="249.044" x2="151.948" y2="312.288"/>
	<line fill="none" stroke="#000000" stroke-miterlimit="10" x1="140.852" y1="249.044" x2="194.05" y2="266.329"/>
	<line fill="none" stroke="#000000" stroke-miterlimit="10" x1="101.906" y1="294.089" x2="99.411" y2="235.578"/>
	<line fill="none" stroke="#000000" stroke-miterlimit="10" x1="72.461" y1="226.822" x2="68.35" y2="278.331"/>
	<line fill="none" stroke="#000000" stroke-miterlimit="10" x1="140.852" y1="249.044" x2="99.411" y2="235.578"/>
	<line fill="none" stroke="#000000" stroke-miterlimit="10" x1="75.097" y1="339.549" x2="101.906" y2="294.089"/>
	<line fill="none" stroke="#000000" stroke-miterlimit="10" x1="68.35" y1="278.331" x2="75.097" y2="339.549"/>
	<line fill="none" stroke="#000000" stroke-miterlimit="10" x1="300.444" y1="300.898" x2="300.444" y2="248.053"/>
	<line fill="none" stroke="#000000" stroke-miterlimit="10" x1="300.444" y1="248.053" x2="250.186" y2="284.569"/>
	<line fill="none" stroke="#000000" stroke-miterlimit="10" x1="300.444" y1="248.053" x2="245.569" y2="225.37"/>
	<line fill="none" stroke="#000000" stroke-miterlimit="10" x1="245.569" y1="225.37" x2="250.186" y2="284.569"/>
	<line fill="none" stroke="#000000" stroke-miterlimit="10" x1="300.444" y1="248.053" x2="300.444" y2="189.028"/>
	<line fill="none" stroke="#000000" stroke-miterlimit="10" x1="300.444" y1="189.028" x2="245.569" y2="225.37"/>
	<line fill="none" stroke="#000000" stroke-miterlimit="10" x1="243.725" y1="163.186" x2="245.569" y2="225.37"/>
	<line fill="none" stroke="#000000" stroke-miterlimit="10" x1="187.003" y1="204.398" x2="245.569" y2="225.37"/>
	<line fill="none" stroke="#000000" stroke-miterlimit="10" x1="194.05" y1="266.329" x2="245.569" y2="225.37"/>
	<line fill="none" stroke="#000000" stroke-miterlimit="10" x1="300.444" y1="189.028" x2="243.725" y2="163.186"/>
	<line fill="none" stroke="#000000" stroke-miterlimit="10" x1="187.003" y1="204.398" x2="243.725" y2="163.186"/>
	<line fill="none" stroke="#000000" stroke-miterlimit="10" x1="99.411" y1="182.735" x2="72.461" y2="226.822"/>
	<line fill="none" stroke="#000000" stroke-miterlimit="10" x1="140.852" y1="137.171" x2="99.411" y2="182.735"/>
	<line fill="none" stroke="#000000" stroke-miterlimit="10" x1="194.05" y1="266.329" x2="187.003" y2="204.398"/>
	<line fill="none" stroke="#000000" stroke-miterlimit="10" x1="187.003" y1="144.756" x2="135.819" y2="189.709"/>
	<line fill="none" stroke="#000000" stroke-miterlimit="10" x1="140.852" y1="249.044" x2="135.819" y2="189.709"/>
	<line fill="none" stroke="#000000" stroke-miterlimit="10" x1="140.852" y1="249.044" x2="187.003" y2="204.398"/>
	<line fill="none" stroke="#000000" stroke-miterlimit="10" x1="140.852" y1="137.171" x2="135.819" y2="189.709"/>
	<line fill="none" stroke="#000000" stroke-miterlimit="10" x1="135.819" y1="189.709" x2="99.411" y2="182.735"/>
	<line fill="none" stroke="#000000" stroke-miterlimit="10" x1="187.003" y1="204.398" x2="135.819" y2="189.709"/>
	<line fill="none" stroke="#000000" stroke-miterlimit="10" x1="99.411" y1="235.578" x2="135.819" y2="189.709"/>
	<line fill="none" stroke="#000000" stroke-miterlimit="10" x1="99.411" y1="235.578" x2="99.411" y2="182.735"/>
	<line fill="none" stroke="#000000" stroke-miterlimit="10" x1="187.003" y1="144.756" x2="187.003" y2="204.398"/>
	<line fill="none" stroke="#000000" stroke-miterlimit="10" x1="187.003" y1="144.756" x2="245.569" y2="109.972"/>
	<line fill="none" stroke="#000000" stroke-miterlimit="10" x1="243.725" y1="163.186" x2="245.569" y2="109.972"/>
	<line fill="none" stroke="#000000" stroke-miterlimit="10" x1="140.852" y1="137.171" x2="187.003" y2="144.756"/>
	<line fill="none" stroke="#000000" stroke-miterlimit="10" x1="194.05" y1="98.521" x2="140.852" y2="137.171"/>
	<line fill="none" stroke="#000000" stroke-miterlimit="10" x1="194.05" y1="98.521" x2="187.003" y2="144.756"/>
	<line fill="none" stroke="#000000" stroke-miterlimit="10" x1="250.186" y1="73.189" x2="300.444" y2="89.519"/>
	<line fill="none" stroke="#000000" stroke-miterlimit="10" x1="300.444" y1="89.519" x2="300.444" y2="61.179"/>
	<line fill="none" stroke="#000000" stroke-miterlimit="10" x1="250.186" y1="73.189" x2="245.569" y2="109.972"/>
	<line fill="none" stroke="#000000" stroke-miterlimit="10" x1="243.725" y1="163.186" x2="187.003" y2="144.756"/>
	<line fill="none" stroke="#000000" stroke-miterlimit="10" x1="300.444" y1="133.091" x2="245.569" y2="109.972"/>
	<line fill="none" stroke="#000000" stroke-miterlimit="10" x1="300.444" y1="133.091" x2="243.725" y2="163.186"/>
	<line fill="none" stroke="#000000" stroke-miterlimit="10" x1="300.444" y1="133.091" x2="300.444" y2="189.028"/>
	<line fill="none" stroke="#000000" stroke-miterlimit="10" x1="245.569" y1="109.972" x2="300.444" y2="89.519"/>
	<line fill="none" stroke="#000000" stroke-miterlimit="10" x1="300.444" y1="61.179" x2="250.186" y2="73.189"/>
	<line fill="none" stroke="#000000" stroke-miterlimit="10" x1="300.444" y1="133.091" x2="300.444" y2="89.519"/>
	<line fill="none" stroke="#000000" stroke-miterlimit="10" x1="194.05" y1="98.521" x2="245.569" y2="109.972"/>
	<line fill="none" stroke="#000000" stroke-miterlimit="10" x1="250.186" y1="73.189" x2="194.05" y2="98.521"/>
	<line fill="none" stroke="#000000" stroke-miterlimit="10" x1="300.444" y1="300.898" x2="350.706" y2="284.569"/>
	<line fill="none" stroke="#000000" stroke-miterlimit="10" x1="350.706" y1="284.569" x2="300.444" y2="248.053"/>
	<line fill="none" stroke="#000000" stroke-miterlimit="10" x1="350.706" y1="284.569" x2="355.32" y2="225.37"/>
	<line fill="none" stroke="#000000" stroke-miterlimit="10" x1="355.32" y1="225.37" x2="300.444" y2="248.053"/>
	<line fill="none" stroke="#000000" stroke-miterlimit="10" x1="350.706" y1="284.569" x2="406.842" y2="266.329"/>
	<line fill="none" stroke="#000000" stroke-miterlimit="10" x1="406.842" y1="266.329" x2="355.32" y2="225.37"/>
	<line fill="none" stroke="#000000" stroke-miterlimit="10" x1="413.889" y1="204.398" x2="355.32" y2="225.37"/>
	<line fill="none" stroke="#000000" stroke-miterlimit="10" x1="357.168" y1="163.186" x2="355.32" y2="225.37"/>
	<line fill="none" stroke="#000000" stroke-miterlimit="10" x1="300.444" y1="189.028" x2="355.32" y2="225.37"/>
	<line fill="none" stroke="#000000" stroke-miterlimit="10" x1="406.842" y1="266.329" x2="413.889" y2="204.398"/>
	<line fill="none" stroke="#000000" stroke-miterlimit="10" x1="357.168" y1="163.186" x2="413.889" y2="204.398"/>
	<line fill="none" stroke="#000000" stroke-miterlimit="10" x1="350.706" y1="73.189" x2="300.444" y2="61.179"/>
	<line fill="none" stroke="#000000" stroke-miterlimit="10" x1="406.842" y1="98.521" x2="350.706" y2="73.189"/>
	<line fill="none" stroke="#000000" stroke-miterlimit="10" x1="300.444" y1="189.028" x2="357.168" y2="163.186"/>
	<line fill="none" stroke="#000000" stroke-miterlimit="10" x1="413.889" y1="144.756" x2="355.32" y2="109.972"/>
	<line fill="none" stroke="#000000" stroke-miterlimit="10" x1="300.444" y1="133.091" x2="355.32" y2="109.972"/>
	<line fill="none" stroke="#000000" stroke-miterlimit="10" x1="300.444" y1="133.091" x2="357.168" y2="163.186"/>
	<line fill="none" stroke="#000000" stroke-miterlimit="10" x1="406.842" y1="98.521" x2="355.32" y2="109.972"/>
	<line fill="none" stroke="#000000" stroke-miterlimit="10" x1="355.32" y1="109.972" x2="350.706" y2="73.189"/>
	<line fill="none" stroke="#000000" stroke-miterlimit="10" x1="357.168" y1="163.186" x2="355.32" y2="109.972"/>
	<line fill="none" stroke="#000000" stroke-miterlimit="10" x1="300.444" y1="89.519" x2="355.32" y2="109.972"/>
	<line fill="none" stroke="#000000" stroke-miterlimit="10" x1="300.444" y1="89.519" x2="350.706" y2="73.189"/>
	<line fill="none" stroke="#000000" stroke-miterlimit="10" x1="413.889" y1="144.756" x2="357.168" y2="163.186"/>
	<line fill="none" stroke="#000000" stroke-miterlimit="10" x1="413.889" y1="144.756" x2="465.072" y2="189.709"/>
	<line fill="none" stroke="#000000" stroke-miterlimit="10" x1="413.889" y1="204.398" x2="465.072" y2="189.709"/>
	<line fill="none" stroke="#000000" stroke-miterlimit="10" x1="406.842" y1="98.521" x2="413.889" y2="144.756"/>
	<line fill="none" stroke="#000000" stroke-miterlimit="10" x1="460.04" y1="137.171" x2="406.842" y2="98.521"/>
	<line fill="none" stroke="#000000" stroke-miterlimit="10" x1="460.04" y1="137.171" x2="413.889" y2="144.756"/>
	<line fill="none" stroke="#000000" stroke-miterlimit="10" x1="501.48" y1="182.735" x2="501.48" y2="235.578"/>
	<line fill="none" stroke="#000000" stroke-miterlimit="10" x1="501.48" y1="235.578" x2="528.432" y2="226.822"/>
	<line fill="none" stroke="#000000" stroke-miterlimit="10" x1="501.48" y1="182.735" x2="465.072" y2="189.709"/>
	<line fill="none" stroke="#000000" stroke-miterlimit="10" x1="413.889" y1="204.398" x2="413.889" y2="144.756"/>
	<line fill="none" stroke="#000000" stroke-miterlimit="10" x1="460.04" y1="249.044" x2="465.072" y2="189.709"/>
	<line fill="none" stroke="#000000" stroke-miterlimit="10" x1="460.04" y1="249.044" x2="413.889" y2="204.398"/>
	<line fill="none" stroke="#000000" stroke-miterlimit="10" x1="460.04" y1="249.044" x2="406.842" y2="266.329"/>
	<line fill="none" stroke="#000000" stroke-miterlimit="10" x1="465.072" y1="189.709" x2="501.48" y2="235.578"/>
	<line fill="none" stroke="#000000" stroke-miterlimit="10" x1="528.432" y1="226.822" x2="501.48" y2="182.735"/>
	<line fill="none" stroke="#000000" stroke-miterlimit="10" x1="460.04" y1="249.044" x2="501.48" y2="235.578"/>
	<line fill="none" stroke="#000000" stroke-miterlimit="10" x1="460.04" y1="137.171" x2="465.072" y2="189.709"/>
	<line fill="none" stroke="#000000" stroke-miterlimit="10" x1="501.48" y1="182.735" x2="460.04" y2="137.171"/>
	<line fill="none" stroke="#000000" stroke-miterlimit="10" x1="300.444" y1="300.898" x2="331.507" y2="343.651"/>
	<line fill="none" stroke="#000000" stroke-miterlimit="10" x1="331.507" y1="343.651" x2="350.706" y2="284.569"/>
	<line fill="none" stroke="#000000" stroke-miterlimit="10" x1="331.507" y1="343.651" x2="389.235" y2="329.747"/>
	<line fill="none" stroke="#000000" stroke-miterlimit="10" x1="389.235" y1="329.747" x2="350.706" y2="284.569"/>
	<line fill="none" stroke="#000000" stroke-miterlimit="10" x1="331.507" y1="343.651" x2="366.203" y2="391.404"/>
	<line fill="none" stroke="#000000" stroke-miterlimit="10" x1="366.203" y1="391.404" x2="389.235" y2="329.747"/>
	<line fill="none" stroke="#000000" stroke-miterlimit="10" x1="427.277" y1="378.97" x2="389.235" y2="329.747"/>
	<line fill="none" stroke="#000000" stroke-miterlimit="10" x1="448.944" y1="312.288" x2="389.235" y2="329.747"/>
	<line fill="none" stroke="#000000" stroke-miterlimit="10" x1="406.842" y1="266.329" x2="389.235" y2="329.747"/>
	<line fill="none" stroke="#000000" stroke-miterlimit="10" x1="366.203" y1="391.404" x2="427.277" y2="378.97"/>
	<line fill="none" stroke="#000000" stroke-miterlimit="10" x1="448.944" y1="312.288" x2="427.277" y2="378.97"/>
	<line fill="none" stroke="#000000" stroke-miterlimit="10" x1="532.543" y1="278.331" x2="528.432" y2="226.822"/>
	<line fill="none" stroke="#000000" stroke-miterlimit="10" x1="525.796" y1="339.549" x2="532.543" y2="278.331"/>
	<line fill="none" stroke="#000000" stroke-miterlimit="10" x1="406.842" y1="266.329" x2="448.944" y2="312.288"/>
	<line fill="none" stroke="#000000" stroke-miterlimit="10" x1="484" y1="360.539" x2="498.986" y2="294.089"/>
	<line fill="none" stroke="#000000" stroke-miterlimit="10" x1="460.04" y1="249.044" x2="498.986" y2="294.089"/>
	<line fill="none" stroke="#000000" stroke-miterlimit="10" x1="460.04" y1="249.044" x2="448.944" y2="312.288"/>
	<line fill="none" stroke="#000000" stroke-miterlimit="10" x1="525.796" y1="339.549" x2="498.986" y2="294.089"/>
	<line fill="none" stroke="#000000" stroke-miterlimit="10" x1="498.986" y1="294.089" x2="532.543" y2="278.331"/>
	<line fill="none" stroke="#000000" stroke-miterlimit="10" x1="448.944" y1="312.288" x2="498.986" y2="294.089"/>
	<line fill="none" stroke="#000000" stroke-miterlimit="10" x1="501.48" y1="235.578" x2="498.986" y2="294.089"/>
	<line fill="none" stroke="#000000" stroke-miterlimit="10" x1="501.48" y1="235.578" x2="532.543" y2="278.331"/>
	<line fill="none" stroke="#000000" stroke-miterlimit="10" x1="484" y1="360.539" x2="448.944" y2="312.288"/>
	<line fill="none" stroke="#000000" stroke-miterlimit="10" x1="484" y1="360.539" x2="457.065" y2="423.108"/>
	<line fill="none" stroke="#000000" stroke-miterlimit="10" x1="427.277" y1="378.97" x2="457.065" y2="423.108"/>
	<line fill="none" stroke="#000000" stroke-miterlimit="10" x1="525.796" y1="339.549" x2="484" y2="360.539"/>
	<line fill="none" stroke="#000000" stroke-miterlimit="10" x1="505.478" y1="402.086" x2="525.796" y2="339.549"/>
	<line fill="none" stroke="#000000" stroke-miterlimit="10" x1="505.478" y1="402.086" x2="484" y2="360.539"/>
	<line fill="none" stroke="#000000" stroke-miterlimit="10" x1="474.951" y1="455.578" x2="424.692" y2="471.908"/>
	<line fill="none" stroke="#000000" stroke-miterlimit="10" x1="424.692" y1="471.908" x2="441.35" y2="494.835"/>
	<line fill="none" stroke="#000000" stroke-miterlimit="10" x1="474.951" y1="455.578" x2="457.065" y2="423.108"/>
	<line fill="none" stroke="#000000" stroke-miterlimit="10" x1="427.277" y1="378.97" x2="484" y2="360.539"/>
	<line fill="none" stroke="#000000" stroke-miterlimit="10" x1="399.079" y1="436.657" x2="457.065" y2="423.108"/>
	<line fill="none" stroke="#000000" stroke-miterlimit="10" x1="399.079" y1="436.657" x2="427.277" y2="378.97"/>
	<line fill="none" stroke="#000000" stroke-miterlimit="10" x1="399.079" y1="436.657" x2="366.203" y2="391.404"/>
	<line fill="none" stroke="#000000" stroke-miterlimit="10" x1="457.065" y1="423.108" x2="424.692" y2="471.908"/>
	<line fill="none" stroke="#000000" stroke-miterlimit="10" x1="441.35" y1="494.835" x2="474.951" y2="455.578"/>
	<line fill="none" stroke="#000000" stroke-miterlimit="10" x1="399.079" y1="436.657" x2="424.692" y2="471.908"/>
	<line fill="none" stroke="#000000" stroke-miterlimit="10" x1="505.478" y1="402.086" x2="457.065" y2="423.108"/>
	<line fill="none" stroke="#000000" stroke-miterlimit="10" x1="474.951" y1="455.578" x2="505.478" y2="402.086"/>
	<line fill="none" stroke="#000000" stroke-miterlimit="10" x1="38.502" y1="349.149" x2="47.029" y2="383.237"/>
	<line fill="none" stroke="#000000" stroke-miterlimit="10" x1="60.17" y1="415.829" x2="47.029" y2="383.237"/>
	<line fill="none" stroke="#000000" stroke-miterlimit="10" x1="34.457" y1="318.183" x2="38.502" y2="349.149"/>
	<line fill="none" stroke="#000000" stroke-miterlimit="10" x1="60.17" y1="415.829" x2="38.502" y2="349.149"/>
	<line fill="none" stroke="#000000" stroke-miterlimit="10" x1="75.097" y1="443.26" x2="60.17" y2="415.829"/>
	<line fill="none" stroke="#000000" stroke-miterlimit="10" x1="125.941" y1="488.237" x2="95.415" y2="471.228"/>
	<line fill="none" stroke="#000000" stroke-miterlimit="10" x1="60.17" y1="378.97" x2="88.951" y2="440.938"/>
	<line fill="none" stroke="#000000" stroke-miterlimit="10" x1="95.415" y1="471.228" x2="88.951" y2="440.938"/>
	<line fill="none" stroke="#000000" stroke-miterlimit="10" x1="95.415" y1="471.228" x2="75.097" y2="443.26"/>
	<line fill="none" stroke="#000000" stroke-miterlimit="10" x1="95.415" y1="471.228" x2="60.17" y2="415.829"/>
	<line fill="none" stroke="#000000" stroke-miterlimit="10" x1="159.543" y1="494.835" x2="125.941" y2="488.237"/>
	<line fill="none" stroke="#000000" stroke-miterlimit="10" x1="95.415" y1="402.086" x2="88.951" y2="440.938"/>
	<line fill="none" stroke="#000000" stroke-miterlimit="10" x1="88.951" y1="440.938" x2="125.941" y2="455.578"/>
	<line fill="none" stroke="#000000" stroke-miterlimit="10" x1="60.17" y1="415.829" x2="88.951" y2="440.938"/>
	<line fill="none" stroke="#000000" stroke-miterlimit="10" x1="125.941" y1="488.237" x2="88.951" y2="440.938"/>
	<line fill="none" stroke="#000000" stroke-miterlimit="10" x1="125.941" y1="488.237" x2="125.941" y2="455.578"/>
	<line fill="none" stroke="#000000" stroke-miterlimit="10" x1="60.17" y1="378.97" x2="60.17" y2="415.829"/>
	<line fill="none" stroke="#000000" stroke-miterlimit="10" x1="60.17" y1="378.97" x2="47.029" y2="311.918"/>
	<line fill="none" stroke="#000000" stroke-miterlimit="10" x1="38.502" y1="349.149" x2="47.029" y2="311.918"/>
	<line fill="none" stroke="#000000" stroke-miterlimit="10" x1="95.415" y1="402.086" x2="60.17" y2="378.97"/>
	<line fill="none" stroke="#000000" stroke-miterlimit="10" x1="75.097" y1="339.549" x2="60.17" y2="378.97"/>
	<line fill="none" stroke="#000000" stroke-miterlimit="10" x1="68.35" y1="278.331" x2="49.153" y2="251.908"/>
	<line fill="none" stroke="#000000" stroke-miterlimit="10" x1="68.35" y1="278.331" x2="47.029" y2="311.918"/>
	<line fill="none" stroke="#000000" stroke-miterlimit="10" x1="38.502" y1="349.149" x2="60.17" y2="378.97"/>
	<line fill="none" stroke="#000000" stroke-miterlimit="10" x1="34.457" y1="283.614" x2="47.029" y2="311.918"/>
	<line fill="none" stroke="#000000" stroke-miterlimit="10" x1="34.457" y1="283.614" x2="38.502" y2="349.149"/>
	<line fill="none" stroke="#000000" stroke-miterlimit="10" x1="47.029" y1="311.918" x2="49.153" y2="251.908"/>
	<line fill="none" stroke="#000000" stroke-miterlimit="10" x1="75.097" y1="339.549" x2="47.029" y2="311.918"/>
	<line fill="none" stroke="#000000" stroke-miterlimit="10" x1="265.389" y1="564.931" x2="300.444" y2="567.355"/>
	<line fill="none" stroke="#000000" stroke-miterlimit="10" x1="335.502" y1="564.931" x2="300.444" y2="567.355"/>
	<line fill="none" stroke="#000000" stroke-miterlimit="10" x1="234.69" y1="559.212" x2="265.389" y2="564.931"/>
	<line fill="none" stroke="#000000" stroke-miterlimit="10" x1="335.502" y1="564.931" x2="265.389" y2="564.931"/>
	<line fill="none" stroke="#000000" stroke-miterlimit="10" x1="393.63" y1="514.662" x2="441.35" y2="494.835"/>
	<line fill="none" stroke="#000000" stroke-miterlimit="10" x1="333.324" y1="527.163" x2="393.63" y2="514.662"/>
	<line fill="none" stroke="#000000" stroke-miterlimit="10" x1="366.203" y1="559.212" x2="335.502" y2="564.931"/>
	<line fill="none" stroke="#000000" stroke-miterlimit="10" x1="424.692" y1="524.753" x2="399.079" y2="548.529"/>
	<line fill="none" stroke="#000000" stroke-miterlimit="10" x1="300.444" y1="553.541" x2="368.275" y2="545.317"/>
	<line fill="none" stroke="#000000" stroke-miterlimit="10" x1="399.079" y1="548.529" x2="368.275" y2="545.317"/>
	<line fill="none" stroke="#000000" stroke-miterlimit="10" x1="399.079" y1="548.529" x2="366.203" y2="559.212"/>
	<line fill="none" stroke="#000000" stroke-miterlimit="10" x1="399.079" y1="548.529" x2="335.502" y2="564.931"/>
	<line fill="none" stroke="#000000" stroke-miterlimit="10" x1="441.35" y1="494.835" x2="424.692" y2="524.753"/>
	<line fill="none" stroke="#000000" stroke-miterlimit="10" x1="333.324" y1="527.163" x2="368.275" y2="545.317"/>
	<line fill="none" stroke="#000000" stroke-miterlimit="10" x1="368.275" y1="545.317" x2="393.63" y2="514.662"/>
	<line fill="none" stroke="#000000" stroke-miterlimit="10" x1="335.502" y1="564.931" x2="368.275" y2="545.317"/>
	<line fill="none" stroke="#000000" stroke-miterlimit="10" x1="424.692" y1="524.753" x2="368.275" y2="545.317"/>
	<line fill="none" stroke="#000000" stroke-miterlimit="10" x1="424.692" y1="524.753" x2="393.63" y2="514.662"/>
	<line fill="none" stroke="#000000" stroke-miterlimit="10" x1="300.444" y1="553.541" x2="335.502" y2="564.931"/>
	<line fill="none" stroke="#000000" stroke-miterlimit="10" x1="300.444" y1="553.541" x2="232.616" y2="545.317"/>
	<line fill="none" stroke="#000000" stroke-miterlimit="10" x1="265.389" y1="564.931" x2="232.616" y2="545.317"/>
	<line fill="none" stroke="#000000" stroke-miterlimit="10" x1="333.324" y1="527.163" x2="300.444" y2="553.541"/>
	<line fill="none" stroke="#000000" stroke-miterlimit="10" x1="267.566" y1="527.163" x2="333.324" y2="527.163"/>
	<line fill="none" stroke="#000000" stroke-miterlimit="10" x1="267.566" y1="527.163" x2="300.444" y2="553.541"/>
	<line fill="none" stroke="#000000" stroke-miterlimit="10" x1="207.26" y1="514.662" x2="176.201" y2="524.753"/>
	<line fill="none" stroke="#000000" stroke-miterlimit="10" x1="176.201" y1="524.753" x2="159.543" y2="494.835"/>
	<line fill="none" stroke="#000000" stroke-miterlimit="10" x1="207.26" y1="514.662" x2="232.616" y2="545.317"/>
	<line fill="none" stroke="#000000" stroke-miterlimit="10" x1="265.389" y1="564.931" x2="300.444" y2="553.541"/>
	<line fill="none" stroke="#000000" stroke-miterlimit="10" x1="201.811" y1="548.529" x2="232.616" y2="545.317"/>
	<line fill="none" stroke="#000000" stroke-miterlimit="10" x1="201.811" y1="548.529" x2="265.389" y2="564.931"/>
	<line fill="none" stroke="#000000" stroke-miterlimit="10" x1="201.811" y1="548.529" x2="234.69" y2="559.212"/>
	<line fill="none" stroke="#000000" stroke-miterlimit="10" x1="232.616" y1="545.317" x2="176.201" y2="524.753"/>
	<line fill="none" stroke="#000000" stroke-miterlimit="10" x1="159.543" y1="494.835" x2="207.26" y2="514.662"/>
	<line fill="none" stroke="#000000" stroke-miterlimit="10" x1="201.811" y1="548.529" x2="176.201" y2="524.753"/>
	<line fill="none" stroke="#000000" stroke-miterlimit="10" x1="267.566" y1="527.163" x2="232.616" y2="545.317"/>
	<line fill="none" stroke="#000000" stroke-miterlimit="10" x1="207.26" y1="514.662" x2="267.566" y2="527.163"/>
	<line fill="none" stroke="#000000" stroke-miterlimit="10" x1="528.432" y1="226.822" x2="551.74" y2="251.908"/>
	<line fill="none" stroke="#000000" stroke-miterlimit="10" x1="551.74" y1="251.908" x2="532.543" y2="192.827"/>
	<line fill="none" stroke="#000000" stroke-miterlimit="10" x1="532.543" y1="192.827" x2="528.432" y2="226.822"/>
	<line fill="none" stroke="#000000" stroke-miterlimit="10" x1="551.74" y1="251.908" x2="553.861" y2="218.56"/>
	<line fill="none" stroke="#000000" stroke-miterlimit="10" x1="553.861" y1="218.56" x2="532.543" y2="192.827"/>
	<line fill="none" stroke="#000000" stroke-miterlimit="10" x1="551.74" y1="251.908" x2="566.436" y2="283.614"/>
	<line fill="none" stroke="#000000" stroke-miterlimit="10" x1="566.436" y1="283.614" x2="553.861" y2="218.56"/>
	<line fill="none" stroke="#000000" stroke-miterlimit="10" x1="525.796" y1="158.537" x2="532.543" y2="192.827"/>
	<line fill="none" stroke="#000000" stroke-miterlimit="10" x1="562.389" y1="252.648" x2="553.861" y2="218.56"/>
	<line fill="none" stroke="#000000" stroke-miterlimit="10" x1="540.722" y1="185.968" x2="553.861" y2="218.56"/>
	<line fill="none" stroke="#000000" stroke-miterlimit="10" x1="525.796" y1="158.537" x2="553.861" y2="218.56"/>
	<line fill="none" stroke="#000000" stroke-miterlimit="10" x1="566.436" y1="283.614" x2="562.389" y2="252.648"/>
	<line fill="none" stroke="#000000" stroke-miterlimit="10" x1="525.796" y1="158.537" x2="540.722" y2="185.968"/>
	<line fill="none" stroke="#000000" stroke-miterlimit="10" x1="505.478" y1="130.57" x2="525.796" y2="158.537"/>
	<line fill="none" stroke="#000000" stroke-miterlimit="10" x1="566.436" y1="318.183" x2="566.436" y2="283.614"/>
	<line fill="none" stroke="#000000" stroke-miterlimit="10" x1="269.384" y1="343.651" x2="331.507" y2="343.651"/>
	<line fill="none" stroke="#000000" stroke-miterlimit="10" x1="269.384" y1="343.651" x2="300.444" y2="394.257"/>
	<line fill="none" stroke="#000000" stroke-miterlimit="10" x1="300.444" y1="394.257" x2="331.507" y2="343.651"/>
	<line fill="none" stroke="#000000" stroke-miterlimit="10" x1="234.69" y1="391.404" x2="300.444" y2="394.257"/>
	<line fill="none" stroke="#000000" stroke-miterlimit="10" x1="265.389" y1="445.65" x2="300.444" y2="394.257"/>
	<line fill="none" stroke="#000000" stroke-miterlimit="10" x1="335.502" y1="445.65" x2="300.444" y2="394.257"/>
	<line fill="none" stroke="#000000" stroke-miterlimit="10" x1="366.203" y1="391.404" x2="300.444" y2="394.257"/>
	<line fill="none" stroke="#000000" stroke-miterlimit="10" x1="234.69" y1="391.404" x2="265.389" y2="445.65"/>
	<line fill="none" stroke="#000000" stroke-miterlimit="10" x1="335.502" y1="445.65" x2="265.389" y2="445.65"/>
	<line fill="none" stroke="#000000" stroke-miterlimit="10" x1="366.203" y1="391.404" x2="335.502" y2="445.65"/>
	<line fill="none" stroke="#000000" stroke-miterlimit="10" x1="300.444" y1="493.9" x2="368.275" y2="487.617"/>
	<line fill="none" stroke="#000000" stroke-miterlimit="10" x1="399.079" y1="436.657" x2="368.275" y2="487.617"/>
	<line fill="none" stroke="#000000" stroke-miterlimit="10" x1="399.079" y1="436.657" x2="335.502" y2="445.65"/>
	<line fill="none" stroke="#000000" stroke-miterlimit="10" x1="333.324" y1="527.163" x2="368.275" y2="487.617"/>
	<line fill="none" stroke="#000000" stroke-miterlimit="10" x1="368.275" y1="487.617" x2="393.63" y2="514.662"/>
	<line fill="none" stroke="#000000" stroke-miterlimit="10" x1="335.502" y1="445.65" x2="368.275" y2="487.617"/>
	<line fill="none" stroke="#000000" stroke-miterlimit="10" x1="424.692" y1="471.908" x2="368.275" y2="487.617"/>
	<line fill="none" stroke="#000000" stroke-miterlimit="10" x1="424.692" y1="471.908" x2="393.63" y2="514.662"/>
	<line fill="none" stroke="#000000" stroke-miterlimit="10" x1="300.444" y1="493.9" x2="335.502" y2="445.65"/>
	<line fill="none" stroke="#000000" stroke-miterlimit="10" x1="300.444" y1="493.9" x2="232.616" y2="487.617"/>
	<line fill="none" stroke="#000000" stroke-miterlimit="10" x1="265.389" y1="445.65" x2="232.616" y2="487.617"/>
	<line fill="none" stroke="#000000" stroke-miterlimit="10" x1="333.324" y1="527.163" x2="300.444" y2="493.9"/>
	<line fill="none" stroke="#000000" stroke-miterlimit="10" x1="267.566" y1="527.163" x2="300.444" y2="493.9"/>
	<line fill="none" stroke="#000000" stroke-miterlimit="10" x1="207.26" y1="514.662" x2="176.201" y2="471.908"/>
	<line fill="none" stroke="#000000" stroke-miterlimit="10" x1="207.26" y1="514.662" x2="232.616" y2="487.617"/>
	<line fill="none" stroke="#000000" stroke-miterlimit="10" x1="265.389" y1="445.65" x2="300.444" y2="493.9"/>
	<line fill="none" stroke="#000000" stroke-miterlimit="10" x1="201.811" y1="436.657" x2="232.616" y2="487.617"/>
	<line fill="none" stroke="#000000" stroke-miterlimit="10" x1="201.811" y1="436.657" x2="265.389" y2="445.65"/>
	<line fill="none" stroke="#000000" stroke-miterlimit="10" x1="232.616" y1="487.617" x2="176.201" y2="471.908"/>
	<line fill="none" stroke="#000000" stroke-miterlimit="10" x1="267.566" y1="527.163" x2="232.616" y2="487.617"/>
	<line fill="none" stroke="#000000" stroke-miterlimit="10" x1="125.941" y1="488.237" x2="176.201" y2="524.753"/>
	<line fill="none" stroke="#000000" stroke-miterlimit="10" x1="125.941" y1="488.237" x2="143.825" y2="516.467"/>
	<line fill="none" stroke="#000000" stroke-miterlimit="10" x1="143.825" y1="516.467" x2="176.201" y2="524.753"/>
	<line fill="none" stroke="#000000" stroke-miterlimit="10" x1="95.415" y1="471.228" x2="143.825" y2="516.467"/>
	<line fill="none" stroke="#000000" stroke-miterlimit="10" x1="116.89" y1="493.9" x2="143.825" y2="516.467"/>
	<line fill="none" stroke="#000000" stroke-miterlimit="10" x1="173.61" y1="535.11" x2="143.825" y2="516.467"/>
	<line fill="none" stroke="#000000" stroke-miterlimit="10" x1="201.811" y1="548.529" x2="143.825" y2="516.467"/>
	<line fill="none" stroke="#000000" stroke-miterlimit="10" x1="95.415" y1="471.228" x2="116.89" y2="493.9"/>
	<line fill="none" stroke="#000000" stroke-miterlimit="10" x1="201.811" y1="548.529" x2="173.61" y2="535.11"/>
	<line fill="none" stroke="#000000" stroke-miterlimit="10" x1="173.61" y1="66.687" x2="143.825" y2="85.331"/>
	<line fill="none" stroke="#000000" stroke-miterlimit="10" x1="116.89" y1="107.897" x2="143.825" y2="85.331"/>
	<line fill="none" stroke="#000000" stroke-miterlimit="10" x1="201.811" y1="53.269" x2="173.61" y2="66.687"/>
	<line fill="none" stroke="#000000" stroke-miterlimit="10" x1="116.89" y1="107.897" x2="173.61" y2="66.687"/>
	<line fill="none" stroke="#000000" stroke-miterlimit="10" x1="95.415" y1="130.57" x2="116.89" y2="107.897"/>
	<line fill="none" stroke="#000000" stroke-miterlimit="10" x1="151.948" y1="96.506" x2="101.906" y2="143.03"/>
	<line fill="none" stroke="#000000" stroke-miterlimit="10" x1="75.097" y1="158.537" x2="101.906" y2="143.03"/>
	<line fill="none" stroke="#000000" stroke-miterlimit="10" x1="75.097" y1="158.537" x2="116.89" y2="107.897"/>
	<line fill="none" stroke="#000000" stroke-miterlimit="10" x1="140.852" y1="137.171" x2="101.906" y2="143.03"/>
	<line fill="none" stroke="#000000" stroke-miterlimit="10" x1="101.906" y1="143.03" x2="99.411" y2="182.735"/>
	<line fill="none" stroke="#000000" stroke-miterlimit="10" x1="116.89" y1="107.897" x2="101.906" y2="143.03"/>
	<line fill="none" stroke="#000000" stroke-miterlimit="10" x1="68.35" y1="192.827" x2="101.906" y2="143.03"/>
	<line fill="none" stroke="#000000" stroke-miterlimit="10" x1="68.35" y1="192.827" x2="99.411" y2="182.735"/>
	<line fill="none" stroke="#000000" stroke-miterlimit="10" x1="151.948" y1="96.506" x2="116.89" y2="107.897"/>
	<line fill="none" stroke="#000000" stroke-miterlimit="10" x1="151.948" y1="96.506" x2="211.656" y2="63.292"/>
	<line fill="none" stroke="#000000" stroke-miterlimit="10" x1="173.61" y1="66.687" x2="211.656" y2="63.292"/>
	<line fill="none" stroke="#000000" stroke-miterlimit="10" x1="140.852" y1="137.171" x2="151.948" y2="96.506"/>
	<line fill="none" stroke="#000000" stroke-miterlimit="10" x1="194.05" y1="98.521" x2="151.948" y2="96.506"/>
	<line fill="none" stroke="#000000" stroke-miterlimit="10" x1="250.186" y1="73.189" x2="269.384" y2="46.766"/>
	<line fill="none" stroke="#000000" stroke-miterlimit="10" x1="250.186" y1="73.189" x2="211.656" y2="63.292"/>
	<line fill="none" stroke="#000000" stroke-miterlimit="10" x1="173.61" y1="66.687" x2="151.948" y2="96.506"/>
	<line fill="none" stroke="#000000" stroke-miterlimit="10" x1="234.69" y1="42.585" x2="211.656" y2="63.292"/>
	<line fill="none" stroke="#000000" stroke-miterlimit="10" x1="234.69" y1="42.585" x2="173.61" y2="66.687"/>
	<line fill="none" stroke="#000000" stroke-miterlimit="10" x1="211.656" y1="63.292" x2="269.384" y2="46.766"/>
	<line fill="none" stroke="#000000" stroke-miterlimit="10" x1="194.05" y1="98.521" x2="211.656" y2="63.292"/>
	<line fill="none" stroke="#000000" stroke-miterlimit="10" x1="540.722" y1="415.829" x2="553.861" y2="383.237"/>
	<line fill="none" stroke="#000000" stroke-miterlimit="10" x1="562.389" y1="349.149" x2="553.861" y2="383.237"/>
	<line fill="none" stroke="#000000" stroke-miterlimit="10" x1="525.796" y1="443.26" x2="540.722" y2="415.829"/>
	<line fill="none" stroke="#000000" stroke-miterlimit="10" x1="562.389" y1="349.149" x2="540.722" y2="415.829"/>
	<line fill="none" stroke="#000000" stroke-miterlimit="10" x1="566.436" y1="318.183" x2="562.389" y2="349.149"/>
	<line fill="none" stroke="#000000" stroke-miterlimit="10" x1="540.722" y1="378.97" x2="553.861" y2="311.918"/>
	<line fill="none" stroke="#000000" stroke-miterlimit="10" x1="566.436" y1="283.614" x2="553.861" y2="311.918"/>
	<line fill="none" stroke="#000000" stroke-miterlimit="10" x1="566.436" y1="283.614" x2="562.389" y2="349.149"/>
	<line fill="none" stroke="#000000" stroke-miterlimit="10" x1="525.796" y1="339.549" x2="553.861" y2="311.918"/>
	<line fill="none" stroke="#000000" stroke-miterlimit="10" x1="553.861" y1="311.918" x2="532.543" y2="278.331"/>
	<line fill="none" stroke="#000000" stroke-miterlimit="10" x1="562.389" y1="349.149" x2="553.861" y2="311.918"/>
	<line fill="none" stroke="#000000" stroke-miterlimit="10" x1="551.74" y1="251.908" x2="553.861" y2="311.918"/>
	<line fill="none" stroke="#000000" stroke-miterlimit="10" x1="551.74" y1="251.908" x2="532.543" y2="278.331"/>
	<line fill="none" stroke="#000000" stroke-miterlimit="10" x1="540.722" y1="378.97" x2="562.389" y2="349.149"/>
	<line fill="none" stroke="#000000" stroke-miterlimit="10" x1="540.722" y1="378.97" x2="511.939" y2="440.938"/>
	<line fill="none" stroke="#000000" stroke-miterlimit="10" x1="540.722" y1="415.829" x2="511.939" y2="440.938"/>
	<line fill="none" stroke="#000000" stroke-miterlimit="10" x1="525.796" y1="339.549" x2="540.722" y2="378.97"/>
	<line fill="none" stroke="#000000" stroke-miterlimit="10" x1="505.478" y1="402.086" x2="540.722" y2="378.97"/>
	<line fill="none" stroke="#000000" stroke-miterlimit="10" x1="474.951" y1="455.578" x2="474.951" y2="488.237"/>
	<line fill="none" stroke="#000000" stroke-miterlimit="10" x1="474.951" y1="488.237" x2="441.35" y2="494.835"/>
	<line fill="none" stroke="#000000" stroke-miterlimit="10" x1="474.951" y1="455.578" x2="511.939" y2="440.938"/>
	<line fill="none" stroke="#000000" stroke-miterlimit="10" x1="540.722" y1="415.829" x2="540.722" y2="378.97"/>
	<line fill="none" stroke="#000000" stroke-miterlimit="10" x1="505.478" y1="471.228" x2="511.939" y2="440.938"/>
	<line fill="none" stroke="#000000" stroke-miterlimit="10" x1="505.478" y1="471.228" x2="540.722" y2="415.829"/>
	<line fill="none" stroke="#000000" stroke-miterlimit="10" x1="505.478" y1="471.228" x2="525.796" y2="443.26"/>
	<line fill="none" stroke="#000000" stroke-miterlimit="10" x1="511.939" y1="440.938" x2="474.951" y2="488.237"/>
	<line fill="none" stroke="#000000" stroke-miterlimit="10" x1="505.478" y1="471.228" x2="474.951" y2="488.237"/>
	<line fill="none" stroke="#000000" stroke-miterlimit="10" x1="505.478" y1="402.086" x2="511.939" y2="440.938"/>
	<line fill="none" stroke="#000000" stroke-miterlimit="10" x1="424.692" y1="524.753" x2="474.951" y2="488.237"/>
	<line fill="none" stroke="#000000" stroke-miterlimit="10" x1="424.692" y1="524.753" x2="457.065" y2="516.467"/>
	<line fill="none" stroke="#000000" stroke-miterlimit="10" x1="457.065" y1="516.467" x2="474.951" y2="488.237"/>
	<line fill="none" stroke="#000000" stroke-miterlimit="10" x1="399.079" y1="548.529" x2="457.065" y2="516.467"/>
	<line fill="none" stroke="#000000" stroke-miterlimit="10" x1="427.277" y1="535.11" x2="457.065" y2="516.467"/>
	<line fill="none" stroke="#000000" stroke-miterlimit="10" x1="484" y1="493.9" x2="457.065" y2="516.467"/>
	<line fill="none" stroke="#000000" stroke-miterlimit="10" x1="505.478" y1="471.228" x2="457.065" y2="516.467"/>
	<line fill="none" stroke="#000000" stroke-miterlimit="10" x1="399.079" y1="548.529" x2="427.277" y2="535.11"/>
	<line fill="none" stroke="#000000" stroke-miterlimit="10" x1="505.478" y1="471.228" x2="484" y2="493.9"/>
	<line fill="none" stroke="#000000" stroke-miterlimit="10" x1="484" y1="107.897" x2="457.065" y2="85.331"/>
	<line fill="none" stroke="#000000" stroke-miterlimit="10" x1="427.277" y1="66.687" x2="457.065" y2="85.331"/>
	<line fill="none" stroke="#000000" stroke-miterlimit="10" x1="505.478" y1="130.57" x2="484" y2="107.897"/>
	<line fill="none" stroke="#000000" stroke-miterlimit="10" x1="427.277" y1="66.687" x2="484" y2="107.897"/>
	<line fill="none" stroke="#000000" stroke-miterlimit="10" x1="399.079" y1="53.269" x2="427.277" y2="66.687"/>
	<line fill="none" stroke="#000000" stroke-miterlimit="10" x1="448.944" y1="96.506" x2="389.235" y2="63.292"/>
	<line fill="none" stroke="#000000" stroke-miterlimit="10" x1="366.203" y1="42.585" x2="389.235" y2="63.292"/>
	<line fill="none" stroke="#000000" stroke-miterlimit="10" x1="366.203" y1="42.585" x2="427.277" y2="66.687"/>
	<line fill="none" stroke="#000000" stroke-miterlimit="10" x1="406.842" y1="98.521" x2="389.235" y2="63.292"/>
	<line fill="none" stroke="#000000" stroke-miterlimit="10" x1="389.235" y1="63.292" x2="350.706" y2="73.189"/>
	<line fill="none" stroke="#000000" stroke-miterlimit="10" x1="427.277" y1="66.687" x2="389.235" y2="63.292"/>
	<line fill="none" stroke="#000000" stroke-miterlimit="10" x1="331.507" y1="46.766" x2="389.235" y2="63.292"/>
	<line fill="none" stroke="#000000" stroke-miterlimit="10" x1="331.507" y1="46.766" x2="350.706" y2="73.189"/>
	<line fill="none" stroke="#000000" stroke-miterlimit="10" x1="448.944" y1="96.506" x2="427.277" y2="66.687"/>
	<line fill="none" stroke="#000000" stroke-miterlimit="10" x1="448.944" y1="96.506" x2="498.986" y2="143.03"/>
	<line fill="none" stroke="#000000" stroke-miterlimit="10" x1="484" y1="107.897" x2="498.986" y2="143.03"/>
	<line fill="none" stroke="#000000" stroke-miterlimit="10" x1="406.842" y1="98.521" x2="448.944" y2="96.506"/>
	<line fill="none" stroke="#000000" stroke-miterlimit="10" x1="460.04" y1="137.171" x2="448.944" y2="96.506"/>
	<line fill="none" stroke="#000000" stroke-miterlimit="10" x1="501.48" y1="182.735" x2="532.543" y2="192.827"/>
	<line fill="none" stroke="#000000" stroke-miterlimit="10" x1="501.48" y1="182.735" x2="498.986" y2="143.03"/>
	<line fill="none" stroke="#000000" stroke-miterlimit="10" x1="484" y1="107.897" x2="448.944" y2="96.506"/>
	<line fill="none" stroke="#000000" stroke-miterlimit="10" x1="525.796" y1="158.537" x2="498.986" y2="143.03"/>
	<line fill="none" stroke="#000000" stroke-miterlimit="10" x1="525.796" y1="158.537" x2="484" y2="107.897"/>
	<line fill="none" stroke="#000000" stroke-miterlimit="10" x1="498.986" y1="143.03" x2="532.543" y2="192.827"/>
	<line fill="none" stroke="#000000" stroke-miterlimit="10" x1="460.04" y1="137.171" x2="498.986" y2="143.03"/>
</g>
</svg>
