<?xml version="1.0" encoding="utf-8"?>
<!-- Generator: Adobe Illustrator 16.0.0, SVG Export Plug-In . SVG Version: 6.00 Build 0)  -->
<!DOCTYPE svg PUBLIC "-//W3C//DTD SVG 1.1//EN" "http://www.w3.org/Graphics/SVG/1.1/DTD/svg11.dtd">
<svg version="1.1" id="Layer_1" xmlns="http://www.w3.org/2000/svg" xmlns:xlink="http://www.w3.org/1999/xlink" x="0px" y="0px"
	 width="600px" height="600px" viewBox="0 0 600 600" enable-background="new 0 0 600 600" xml:space="preserve">
<g>
	<line fill="none" stroke="#000000" stroke-miterlimit="10" x1="83.964" y1="142.635" x2="32.779" y2="300.169"/>
	<line fill="none" stroke="#000000" stroke-miterlimit="10" x1="72.807" y1="226.092" x2="83.964" y2="142.635"/>
	<line fill="none" stroke="#000000" stroke-miterlimit="10" x1="32.779" y1="300.169" x2="72.807" y2="226.092"/>
	<line fill="none" stroke="#000000" stroke-miterlimit="10" x1="383.614" y1="45.273" x2="217.971" y2="45.273"/>
	<line fill="none" stroke="#000000" stroke-miterlimit="10" x1="300.793" y1="60.45" x2="383.614" y2="45.273"/>
	<line fill="none" stroke="#000000" stroke-miterlimit="10" x1="217.971" y1="45.273" x2="300.793" y2="60.45"/>
	<line fill="none" stroke="#000000" stroke-miterlimit="10" x1="159.89" y1="494.105" x2="83.964" y2="370.621"/>
	<line fill="none" stroke="#000000" stroke-miterlimit="10" x1="83.964" y1="370.621" x2="32.779" y2="300.169"/>
	<line fill="none" stroke="#000000" stroke-miterlimit="10" x1="83.964" y1="457.703" x2="83.964" y2="370.621"/>
	<line fill="none" stroke="#000000" stroke-miterlimit="10" x1="32.779" y1="300.169" x2="83.964" y2="457.703"/>
	<line fill="none" stroke="#000000" stroke-miterlimit="10" x1="83.964" y1="457.703" x2="159.89" y2="494.105"/>
	<line fill="none" stroke="#000000" stroke-miterlimit="10" x1="72.807" y1="226.092" x2="83.964" y2="370.621"/>
	<line fill="none" stroke="#000000" stroke-miterlimit="10" x1="83.964" y1="457.703" x2="217.971" y2="555.065"/>
	<line fill="none" stroke="#000000" stroke-miterlimit="10" x1="217.971" y1="555.065" x2="159.89" y2="494.105"/>
	<line fill="none" stroke="#000000" stroke-miterlimit="10" x1="441.695" y1="494.105" x2="300.793" y2="528.157"/>
	<line fill="none" stroke="#000000" stroke-miterlimit="10" x1="300.793" y1="528.157" x2="217.971" y2="414.161"/>
	<line fill="none" stroke="#000000" stroke-miterlimit="10" x1="383.614" y1="414.161" x2="300.793" y2="528.157"/>
	<line fill="none" stroke="#000000" stroke-miterlimit="10" x1="217.971" y1="414.161" x2="383.614" y2="414.161"/>
	<line fill="none" stroke="#000000" stroke-miterlimit="10" x1="300.793" y1="300.169" x2="217.971" y2="414.161"/>
	<line fill="none" stroke="#000000" stroke-miterlimit="10" x1="383.614" y1="414.161" x2="300.793" y2="300.169"/>
	<line fill="none" stroke="#000000" stroke-miterlimit="10" x1="159.89" y1="494.105" x2="217.971" y2="414.161"/>
	<line fill="none" stroke="#000000" stroke-miterlimit="10" x1="383.614" y1="414.161" x2="441.695" y2="494.105"/>
	<line fill="none" stroke="#000000" stroke-miterlimit="10" x1="159.89" y1="494.105" x2="300.793" y2="528.157"/>
	<line fill="none" stroke="#000000" stroke-miterlimit="10" x1="300.793" y1="528.157" x2="217.971" y2="555.065"/>
	<line fill="none" stroke="#000000" stroke-miterlimit="10" x1="383.614" y1="555.065" x2="300.793" y2="528.157"/>
	<line fill="none" stroke="#000000" stroke-miterlimit="10" x1="217.971" y1="555.065" x2="383.614" y2="555.065"/>
	<line fill="none" stroke="#000000" stroke-miterlimit="10" x1="383.614" y1="555.065" x2="441.695" y2="494.105"/>
	<line fill="none" stroke="#000000" stroke-miterlimit="10" x1="83.964" y1="370.621" x2="166.785" y2="256.627"/>
	<line fill="none" stroke="#000000" stroke-miterlimit="10" x1="217.971" y1="414.161" x2="83.964" y2="370.621"/>
	<line fill="none" stroke="#000000" stroke-miterlimit="10" x1="166.785" y1="256.627" x2="217.971" y2="414.161"/>
	<line fill="none" stroke="#000000" stroke-miterlimit="10" x1="300.793" y1="300.169" x2="166.785" y2="256.627"/>
	<line fill="none" stroke="#000000" stroke-miterlimit="10" x1="72.807" y1="226.092" x2="166.785" y2="256.627"/>
	<line fill="none" stroke="#000000" stroke-miterlimit="10" x1="72.807" y1="226.092" x2="166.785" y2="115.725"/>
	<line fill="none" stroke="#000000" stroke-miterlimit="10" x1="166.785" y1="115.725" x2="300.793" y2="159.266"/>
	<line fill="none" stroke="#000000" stroke-miterlimit="10" x1="166.785" y1="256.627" x2="166.785" y2="115.725"/>
	<line fill="none" stroke="#000000" stroke-miterlimit="10" x1="300.793" y1="159.266" x2="166.785" y2="256.627"/>
	<line fill="none" stroke="#000000" stroke-miterlimit="10" x1="300.793" y1="300.169" x2="300.793" y2="159.266"/>
	<line fill="none" stroke="#000000" stroke-miterlimit="10" x1="300.793" y1="60.45" x2="300.793" y2="159.266"/>
	<line fill="none" stroke="#000000" stroke-miterlimit="10" x1="300.793" y1="60.45" x2="166.785" y2="115.725"/>
	<line fill="none" stroke="#000000" stroke-miterlimit="10" x1="300.793" y1="60.45" x2="434.8" y2="115.725"/>
	<line fill="none" stroke="#000000" stroke-miterlimit="10" x1="434.8" y1="115.725" x2="434.8" y2="256.627"/>
	<line fill="none" stroke="#000000" stroke-miterlimit="10" x1="300.793" y1="159.266" x2="434.8" y2="115.725"/>
	<line fill="none" stroke="#000000" stroke-miterlimit="10" x1="434.8" y1="256.627" x2="300.793" y2="159.266"/>
	<line fill="none" stroke="#000000" stroke-miterlimit="10" x1="300.793" y1="300.169" x2="434.8" y2="256.627"/>
	<line fill="none" stroke="#000000" stroke-miterlimit="10" x1="528.779" y1="226.092" x2="434.8" y2="256.627"/>
	<line fill="none" stroke="#000000" stroke-miterlimit="10" x1="528.779" y1="226.092" x2="434.8" y2="115.725"/>
	<line fill="none" stroke="#000000" stroke-miterlimit="10" x1="528.779" y1="226.092" x2="517.621" y2="370.621"/>
	<line fill="none" stroke="#000000" stroke-miterlimit="10" x1="517.621" y1="370.621" x2="383.614" y2="414.161"/>
	<line fill="none" stroke="#000000" stroke-miterlimit="10" x1="434.8" y1="256.627" x2="517.621" y2="370.621"/>
	<line fill="none" stroke="#000000" stroke-miterlimit="10" x1="383.614" y1="414.161" x2="434.8" y2="256.627"/>
	<line fill="none" stroke="#000000" stroke-miterlimit="10" x1="441.695" y1="494.105" x2="517.621" y2="370.621"/>
	<line fill="none" stroke="#000000" stroke-miterlimit="10" x1="166.785" y1="115.725" x2="217.971" y2="45.273"/>
	<line fill="none" stroke="#000000" stroke-miterlimit="10" x1="83.964" y1="142.635" x2="166.785" y2="115.725"/>
	<line fill="none" stroke="#000000" stroke-miterlimit="10" x1="217.971" y1="45.273" x2="83.964" y2="142.635"/>
	<line fill="none" stroke="#000000" stroke-miterlimit="10" x1="434.8" y1="115.725" x2="517.621" y2="142.635"/>
	<line fill="none" stroke="#000000" stroke-miterlimit="10" x1="383.614" y1="45.273" x2="434.8" y2="115.725"/>
	<line fill="none" stroke="#000000" stroke-miterlimit="10" x1="517.621" y1="142.635" x2="383.614" y2="45.273"/>
	<line fill="none" stroke="#000000" stroke-miterlimit="10" x1="528.779" y1="226.092" x2="517.621" y2="142.635"/>
	<line fill="none" stroke="#000000" stroke-miterlimit="10" x1="517.621" y1="370.621" x2="517.621" y2="457.703"/>
	<line fill="none" stroke="#000000" stroke-miterlimit="10" x1="568.806" y1="300.169" x2="517.621" y2="370.621"/>
	<line fill="none" stroke="#000000" stroke-miterlimit="10" x1="517.621" y1="457.703" x2="568.806" y2="300.169"/>
	<line fill="none" stroke="#000000" stroke-miterlimit="10" x1="441.695" y1="494.105" x2="517.621" y2="457.703"/>
	<line fill="none" stroke="#000000" stroke-miterlimit="10" x1="568.806" y1="300.169" x2="528.779" y2="226.092"/>
	<line fill="none" stroke="#000000" stroke-miterlimit="10" x1="568.806" y1="300.169" x2="517.621" y2="142.635"/>
	<line fill="none" stroke="#000000" stroke-miterlimit="10" x1="383.614" y1="555.065" x2="517.621" y2="457.703"/>
</g>
</svg>
