<?xml version="1.0" encoding="utf-8"?>
<!-- Generator: Adobe Illustrator 16.0.0, SVG Export Plug-In . SVG Version: 6.00 Build 0)  -->
<!DOCTYPE svg PUBLIC "-//W3C//DTD SVG 1.1//EN" "http://www.w3.org/Graphics/SVG/1.1/DTD/svg11.dtd">
<svg version="1.1" id="Layer_1" xmlns="http://www.w3.org/2000/svg" xmlns:xlink="http://www.w3.org/1999/xlink" x="0px" y="0px"
	 width="600px" height="600px" viewBox="0 0 600 600" enable-background="new 0 0 600 600" xml:space="preserve">
<g>
	<line fill="none" stroke="#000000" stroke-miterlimit="10" x1="159.832" y1="107.069" x2="300.735" y2="61.286"/>
	<line fill="none" stroke="#000000" stroke-miterlimit="10" x1="300.735" y1="61.286" x2="441.638" y2="107.069"/>
	<line fill="none" stroke="#000000" stroke-miterlimit="10" x1="72.749" y1="375.083" x2="72.749" y2="226.928"/>
	<line fill="none" stroke="#000000" stroke-miterlimit="10" x1="72.749" y1="226.928" x2="159.832" y2="107.069"/>
	<line fill="none" stroke="#000000" stroke-miterlimit="10" x1="159.832" y1="494.94" x2="300.735" y2="301.004"/>
	<line fill="none" stroke="#000000" stroke-miterlimit="10" x1="300.735" y1="301.004" x2="72.749" y2="226.928"/>
	<line fill="none" stroke="#000000" stroke-miterlimit="10" x1="72.749" y1="226.928" x2="159.832" y2="494.94"/>
	<line fill="none" stroke="#000000" stroke-miterlimit="10" x1="300.735" y1="301.004" x2="300.735" y2="61.286"/>
	<line fill="none" stroke="#000000" stroke-miterlimit="10" x1="300.735" y1="61.286" x2="72.749" y2="226.928"/>
	<line fill="none" stroke="#000000" stroke-miterlimit="10" x1="300.735" y1="301.004" x2="528.722" y2="226.928"/>
	<line fill="none" stroke="#000000" stroke-miterlimit="10" x1="528.722" y1="226.928" x2="300.735" y2="61.286"/>
	<line fill="none" stroke="#000000" stroke-miterlimit="10" x1="300.735" y1="301.004" x2="441.638" y2="494.94"/>
	<line fill="none" stroke="#000000" stroke-miterlimit="10" x1="441.638" y1="494.94" x2="528.722" y2="226.928"/>
	<line fill="none" stroke="#000000" stroke-miterlimit="10" x1="159.832" y1="494.94" x2="72.749" y2="375.083"/>
	<line fill="none" stroke="#000000" stroke-miterlimit="10" x1="441.638" y1="494.94" x2="300.735" y2="540.725"/>
	<line fill="none" stroke="#000000" stroke-miterlimit="10" x1="300.735" y1="540.725" x2="159.832" y2="494.94"/>
	<line fill="none" stroke="#000000" stroke-miterlimit="10" x1="159.832" y1="494.94" x2="441.638" y2="494.94"/>
	<line fill="none" stroke="#000000" stroke-miterlimit="10" x1="441.638" y1="107.069" x2="528.722" y2="226.928"/>
	<line fill="none" stroke="#000000" stroke-miterlimit="10" x1="528.722" y1="226.928" x2="528.722" y2="375.083"/>
	<line fill="none" stroke="#000000" stroke-miterlimit="10" x1="528.722" y1="375.083" x2="441.638" y2="494.94"/>
</g>
</svg>
