<?xml version="1.0" encoding="utf-8"?>
<!-- Generator: Adobe Illustrator 16.0.0, SVG Export Plug-In . SVG Version: 6.00 Build 0)  -->
<!DOCTYPE svg PUBLIC "-//W3C//DTD SVG 1.1//EN" "http://www.w3.org/Graphics/SVG/1.1/DTD/svg11.dtd">
<svg version="1.1" id="Layer_1" xmlns="http://www.w3.org/2000/svg" xmlns:xlink="http://www.w3.org/1999/xlink" x="0px" y="0px"
	 width="600px" height="600px" viewBox="0 0 600 600" enable-background="new 0 0 600 600" xml:space="preserve">
<g>
	<line fill="none" stroke="#000000" stroke-miterlimit="10" x1="300.128" y1="60.455" x2="339.691" y2="43.786"/>
	<line fill="none" stroke="#000000" stroke-miterlimit="10" x1="260.562" y1="43.786" x2="339.691" y2="43.786"/>
	<line fill="none" stroke="#000000" stroke-miterlimit="10" x1="260.562" y1="43.786" x2="300.128" y2="60.455"/>
	<line fill="none" stroke="#000000" stroke-miterlimit="10" x1="382.947" y1="45.278" x2="339.691" y2="43.786"/>
	<line fill="none" stroke="#000000" stroke-miterlimit="10" x1="260.562" y1="43.786" x2="217.307" y2="45.278"/>
	<line fill="none" stroke="#000000" stroke-miterlimit="10" x1="339.691" y1="43.786" x2="300.128" y2="32.159"/>
	<line fill="none" stroke="#000000" stroke-miterlimit="10" x1="300.128" y1="32.159" x2="260.562" y2="43.786"/>
	<line fill="none" stroke="#000000" stroke-miterlimit="10" x1="382.947" y1="45.278" x2="300.128" y2="32.159"/>
	<line fill="none" stroke="#000000" stroke-miterlimit="10" x1="300.128" y1="32.159" x2="217.307" y2="45.278"/>
	<line fill="none" stroke="#000000" stroke-miterlimit="10" x1="72.14" y1="226.097" x2="68.512" y2="183.316"/>
	<line fill="none" stroke="#000000" stroke-miterlimit="10" x1="44.061" y1="258.573" x2="68.512" y2="183.316"/>
	<line fill="none" stroke="#000000" stroke-miterlimit="10" x1="44.061" y1="258.573" x2="72.14" y2="226.097"/>
	<line fill="none" stroke="#000000" stroke-miterlimit="10" x1="83.299" y1="142.64" x2="68.512" y2="183.316"/>
	<line fill="none" stroke="#000000" stroke-miterlimit="10" x1="44.061" y1="258.573" x2="32.113" y2="300.174"/>
	<line fill="none" stroke="#000000" stroke-miterlimit="10" x1="68.512" y1="183.316" x2="45.23" y2="217.354"/>
	<line fill="none" stroke="#000000" stroke-miterlimit="10" x1="45.23" y1="217.354" x2="44.061" y2="258.573"/>
	<line fill="none" stroke="#000000" stroke-miterlimit="10" x1="83.299" y1="142.64" x2="45.23" y2="217.354"/>
	<line fill="none" stroke="#000000" stroke-miterlimit="10" x1="45.23" y1="217.354" x2="32.113" y2="300.174"/>
	<line fill="none" stroke="#000000" stroke-miterlimit="10" x1="300.128" y1="300.174" x2="236.109" y2="279.373"/>
	<line fill="none" stroke="#000000" stroke-miterlimit="10" x1="260.562" y1="354.628" x2="236.109" y2="279.373"/>
	<line fill="none" stroke="#000000" stroke-miterlimit="10" x1="260.562" y1="354.628" x2="300.128" y2="300.174"/>
	<line fill="none" stroke="#000000" stroke-miterlimit="10" x1="72.14" y1="226.097" x2="108.077" y2="237.774"/>
	<line fill="none" stroke="#000000" stroke-miterlimit="10" x1="108.077" y1="237.774" x2="68.512" y2="292.229"/>
	<line fill="none" stroke="#000000" stroke-miterlimit="10" x1="68.512" y1="292.229" x2="72.14" y2="226.097"/>
	<line fill="none" stroke="#000000" stroke-miterlimit="10" x1="159.223" y1="494.11" x2="117.417" y2="442.742"/>
	<line fill="none" stroke="#000000" stroke-miterlimit="10" x1="117.417" y1="442.742" x2="181.436" y2="463.54"/>
	<line fill="none" stroke="#000000" stroke-miterlimit="10" x1="181.436" y1="463.54" x2="159.223" y2="494.11"/>
	<line fill="none" stroke="#000000" stroke-miterlimit="10" x1="108.077" y1="237.774" x2="166.121" y2="256.632"/>
	<line fill="none" stroke="#000000" stroke-miterlimit="10" x1="166.121" y1="256.632" x2="236.109" y2="279.373"/>
	<line fill="none" stroke="#000000" stroke-miterlimit="10" x1="260.562" y1="354.628" x2="217.307" y2="414.166"/>
	<line fill="none" stroke="#000000" stroke-miterlimit="10" x1="217.307" y1="414.166" x2="181.436" y2="463.54"/>
	<line fill="none" stroke="#000000" stroke-miterlimit="10" x1="68.512" y1="292.229" x2="83.299" y2="370.626"/>
	<line fill="none" stroke="#000000" stroke-miterlimit="10" x1="83.299" y1="370.626" x2="117.417" y2="442.742"/>
	<line fill="none" stroke="#000000" stroke-miterlimit="10" x1="142.592" y1="397.144" x2="186.133" y2="337.213"/>
	<line fill="none" stroke="#000000" stroke-miterlimit="10" x1="186.133" y1="337.213" x2="115.684" y2="314.322"/>
	<line fill="none" stroke="#000000" stroke-miterlimit="10" x1="115.684" y1="314.322" x2="142.592" y2="397.144"/>
	<line fill="none" stroke="#000000" stroke-miterlimit="10" x1="236.109" y1="279.373" x2="186.133" y2="337.213"/>
	<line fill="none" stroke="#000000" stroke-miterlimit="10" x1="186.133" y1="337.213" x2="260.562" y2="354.628"/>
	<line fill="none" stroke="#000000" stroke-miterlimit="10" x1="166.121" y1="256.632" x2="186.133" y2="337.213"/>
	<line fill="none" stroke="#000000" stroke-miterlimit="10" x1="186.133" y1="337.213" x2="217.307" y2="414.166"/>
	<line fill="none" stroke="#000000" stroke-miterlimit="10" x1="166.121" y1="256.632" x2="115.684" y2="314.322"/>
	<line fill="none" stroke="#000000" stroke-miterlimit="10" x1="142.592" y1="397.144" x2="217.307" y2="414.166"/>
	<line fill="none" stroke="#000000" stroke-miterlimit="10" x1="108.077" y1="237.774" x2="115.684" y2="314.322"/>
	<line fill="none" stroke="#000000" stroke-miterlimit="10" x1="142.592" y1="397.144" x2="181.436" y2="463.54"/>
	<line fill="none" stroke="#000000" stroke-miterlimit="10" x1="115.684" y1="314.322" x2="68.512" y2="292.229"/>
	<line fill="none" stroke="#000000" stroke-miterlimit="10" x1="115.684" y1="314.322" x2="83.299" y2="370.626"/>
	<line fill="none" stroke="#000000" stroke-miterlimit="10" x1="83.299" y1="370.626" x2="142.592" y2="397.144"/>
	<line fill="none" stroke="#000000" stroke-miterlimit="10" x1="142.592" y1="397.144" x2="117.417" y2="442.742"/>
	<line fill="none" stroke="#000000" stroke-miterlimit="10" x1="300.128" y1="300.174" x2="300.128" y2="232.863"/>
	<line fill="none" stroke="#000000" stroke-miterlimit="10" x1="236.109" y1="279.373" x2="300.128" y2="232.863"/>
	<line fill="none" stroke="#000000" stroke-miterlimit="10" x1="300.128" y1="60.455" x2="300.128" y2="98.241"/>
	<line fill="none" stroke="#000000" stroke-miterlimit="10" x1="300.128" y1="98.241" x2="236.109" y2="77.439"/>
	<line fill="none" stroke="#000000" stroke-miterlimit="10" x1="236.109" y1="77.439" x2="300.128" y2="60.455"/>
	<line fill="none" stroke="#000000" stroke-miterlimit="10" x1="72.14" y1="226.097" x2="108.077" y2="170.461"/>
	<line fill="none" stroke="#000000" stroke-miterlimit="10" x1="108.077" y1="170.461" x2="108.077" y2="237.774"/>
	<line fill="none" stroke="#000000" stroke-miterlimit="10" x1="300.128" y1="98.241" x2="300.128" y2="159.27"/>
	<line fill="none" stroke="#000000" stroke-miterlimit="10" x1="300.128" y1="159.27" x2="300.128" y2="232.863"/>
	<line fill="none" stroke="#000000" stroke-miterlimit="10" x1="236.109" y1="77.439" x2="166.121" y2="115.729"/>
	<line fill="none" stroke="#000000" stroke-miterlimit="10" x1="166.121" y1="115.729" x2="108.077" y2="170.461"/>
	<line fill="none" stroke="#000000" stroke-miterlimit="10" x1="159.223" y1="180.315" x2="229.676" y2="203.205"/>
	<line fill="none" stroke="#000000" stroke-miterlimit="10" x1="229.676" y1="203.205" x2="229.676" y2="129.128"/>
	<line fill="none" stroke="#000000" stroke-miterlimit="10" x1="229.676" y1="129.128" x2="159.223" y2="180.315"/>
	<line fill="none" stroke="#000000" stroke-miterlimit="10" x1="300.128" y1="232.863" x2="229.676" y2="203.205"/>
	<line fill="none" stroke="#000000" stroke-miterlimit="10" x1="229.676" y1="203.205" x2="236.109" y2="279.373"/>
	<line fill="none" stroke="#000000" stroke-miterlimit="10" x1="300.128" y1="159.27" x2="229.676" y2="203.205"/>
	<line fill="none" stroke="#000000" stroke-miterlimit="10" x1="229.676" y1="203.205" x2="166.121" y2="256.632"/>
	<line fill="none" stroke="#000000" stroke-miterlimit="10" x1="300.128" y1="159.27" x2="229.676" y2="129.128"/>
	<line fill="none" stroke="#000000" stroke-miterlimit="10" x1="159.223" y1="180.315" x2="166.121" y2="256.632"/>
	<line fill="none" stroke="#000000" stroke-miterlimit="10" x1="300.128" y1="98.241" x2="229.676" y2="129.128"/>
	<line fill="none" stroke="#000000" stroke-miterlimit="10" x1="159.223" y1="180.315" x2="108.077" y2="237.774"/>
	<line fill="none" stroke="#000000" stroke-miterlimit="10" x1="229.676" y1="129.128" x2="236.109" y2="77.439"/>
	<line fill="none" stroke="#000000" stroke-miterlimit="10" x1="229.676" y1="129.128" x2="166.121" y2="115.729"/>
	<line fill="none" stroke="#000000" stroke-miterlimit="10" x1="166.121" y1="115.729" x2="159.223" y2="180.315"/>
	<line fill="none" stroke="#000000" stroke-miterlimit="10" x1="159.223" y1="180.315" x2="108.077" y2="170.461"/>
	<line fill="none" stroke="#000000" stroke-miterlimit="10" x1="300.128" y1="300.174" x2="364.144" y2="279.373"/>
	<line fill="none" stroke="#000000" stroke-miterlimit="10" x1="300.128" y1="232.863" x2="364.144" y2="279.373"/>
	<line fill="none" stroke="#000000" stroke-miterlimit="10" x1="528.114" y1="226.097" x2="492.176" y2="237.774"/>
	<line fill="none" stroke="#000000" stroke-miterlimit="10" x1="492.176" y1="237.774" x2="492.176" y2="170.461"/>
	<line fill="none" stroke="#000000" stroke-miterlimit="10" x1="492.176" y1="170.461" x2="528.114" y2="226.097"/>
	<line fill="none" stroke="#000000" stroke-miterlimit="10" x1="300.128" y1="60.455" x2="364.144" y2="77.439"/>
	<line fill="none" stroke="#000000" stroke-miterlimit="10" x1="364.144" y1="77.439" x2="300.128" y2="98.241"/>
	<line fill="none" stroke="#000000" stroke-miterlimit="10" x1="492.176" y1="237.774" x2="434.135" y2="256.632"/>
	<line fill="none" stroke="#000000" stroke-miterlimit="10" x1="434.135" y1="256.632" x2="364.144" y2="279.373"/>
	<line fill="none" stroke="#000000" stroke-miterlimit="10" x1="492.176" y1="170.461" x2="434.135" y2="115.729"/>
	<line fill="none" stroke="#000000" stroke-miterlimit="10" x1="434.135" y1="115.729" x2="364.144" y2="77.439"/>
	<line fill="none" stroke="#000000" stroke-miterlimit="10" x1="370.578" y1="129.128" x2="370.578" y2="203.205"/>
	<line fill="none" stroke="#000000" stroke-miterlimit="10" x1="370.578" y1="203.205" x2="441.029" y2="180.315"/>
	<line fill="none" stroke="#000000" stroke-miterlimit="10" x1="441.029" y1="180.315" x2="370.578" y2="129.128"/>
	<line fill="none" stroke="#000000" stroke-miterlimit="10" x1="364.144" y1="279.373" x2="370.578" y2="203.205"/>
	<line fill="none" stroke="#000000" stroke-miterlimit="10" x1="370.578" y1="203.205" x2="300.128" y2="232.863"/>
	<line fill="none" stroke="#000000" stroke-miterlimit="10" x1="434.135" y1="256.632" x2="370.578" y2="203.205"/>
	<line fill="none" stroke="#000000" stroke-miterlimit="10" x1="370.578" y1="203.205" x2="300.128" y2="159.27"/>
	<line fill="none" stroke="#000000" stroke-miterlimit="10" x1="434.135" y1="256.632" x2="441.029" y2="180.315"/>
	<line fill="none" stroke="#000000" stroke-miterlimit="10" x1="370.578" y1="129.128" x2="300.128" y2="159.27"/>
	<line fill="none" stroke="#000000" stroke-miterlimit="10" x1="492.176" y1="237.774" x2="441.029" y2="180.315"/>
	<line fill="none" stroke="#000000" stroke-miterlimit="10" x1="370.578" y1="129.128" x2="300.128" y2="98.241"/>
	<line fill="none" stroke="#000000" stroke-miterlimit="10" x1="441.029" y1="180.315" x2="492.176" y2="170.461"/>
	<line fill="none" stroke="#000000" stroke-miterlimit="10" x1="441.029" y1="180.315" x2="434.135" y2="115.729"/>
	<line fill="none" stroke="#000000" stroke-miterlimit="10" x1="434.135" y1="115.729" x2="370.578" y2="129.128"/>
	<line fill="none" stroke="#000000" stroke-miterlimit="10" x1="370.578" y1="129.128" x2="364.144" y2="77.439"/>
	<line fill="none" stroke="#000000" stroke-miterlimit="10" x1="300.128" y1="300.174" x2="339.691" y2="354.628"/>
	<line fill="none" stroke="#000000" stroke-miterlimit="10" x1="364.144" y1="279.373" x2="339.691" y2="354.628"/>
	<line fill="none" stroke="#000000" stroke-miterlimit="10" x1="441.029" y1="494.11" x2="418.82" y2="463.54"/>
	<line fill="none" stroke="#000000" stroke-miterlimit="10" x1="418.82" y1="463.54" x2="482.836" y2="442.742"/>
	<line fill="none" stroke="#000000" stroke-miterlimit="10" x1="482.836" y1="442.742" x2="441.029" y2="494.11"/>
	<line fill="none" stroke="#000000" stroke-miterlimit="10" x1="528.114" y1="226.097" x2="531.742" y2="292.229"/>
	<line fill="none" stroke="#000000" stroke-miterlimit="10" x1="531.742" y1="292.229" x2="492.176" y2="237.774"/>
	<line fill="none" stroke="#000000" stroke-miterlimit="10" x1="418.82" y1="463.54" x2="382.947" y2="414.166"/>
	<line fill="none" stroke="#000000" stroke-miterlimit="10" x1="382.947" y1="414.166" x2="339.691" y2="354.628"/>
	<line fill="none" stroke="#000000" stroke-miterlimit="10" x1="482.836" y1="442.742" x2="516.955" y2="370.626"/>
	<line fill="none" stroke="#000000" stroke-miterlimit="10" x1="516.955" y1="370.626" x2="531.742" y2="292.229"/>
	<line fill="none" stroke="#000000" stroke-miterlimit="10" x1="484.571" y1="314.322" x2="414.12" y2="337.213"/>
	<line fill="none" stroke="#000000" stroke-miterlimit="10" x1="414.12" y1="337.213" x2="457.662" y2="397.144"/>
	<line fill="none" stroke="#000000" stroke-miterlimit="10" x1="457.662" y1="397.144" x2="484.571" y2="314.322"/>
	<line fill="none" stroke="#000000" stroke-miterlimit="10" x1="339.691" y1="354.628" x2="414.12" y2="337.213"/>
	<line fill="none" stroke="#000000" stroke-miterlimit="10" x1="414.12" y1="337.213" x2="364.144" y2="279.373"/>
	<line fill="none" stroke="#000000" stroke-miterlimit="10" x1="382.947" y1="414.166" x2="414.12" y2="337.213"/>
	<line fill="none" stroke="#000000" stroke-miterlimit="10" x1="414.12" y1="337.213" x2="434.135" y2="256.632"/>
	<line fill="none" stroke="#000000" stroke-miterlimit="10" x1="382.947" y1="414.166" x2="457.662" y2="397.144"/>
	<line fill="none" stroke="#000000" stroke-miterlimit="10" x1="484.571" y1="314.322" x2="434.135" y2="256.632"/>
	<line fill="none" stroke="#000000" stroke-miterlimit="10" x1="418.82" y1="463.54" x2="457.662" y2="397.144"/>
	<line fill="none" stroke="#000000" stroke-miterlimit="10" x1="484.571" y1="314.322" x2="492.176" y2="237.774"/>
	<line fill="none" stroke="#000000" stroke-miterlimit="10" x1="457.662" y1="397.144" x2="482.836" y2="442.742"/>
	<line fill="none" stroke="#000000" stroke-miterlimit="10" x1="457.662" y1="397.144" x2="516.955" y2="370.626"/>
	<line fill="none" stroke="#000000" stroke-miterlimit="10" x1="516.955" y1="370.626" x2="484.571" y2="314.322"/>
	<line fill="none" stroke="#000000" stroke-miterlimit="10" x1="484.571" y1="314.322" x2="531.742" y2="292.229"/>
	<line fill="none" stroke="#000000" stroke-miterlimit="10" x1="44.061" y1="258.573" x2="68.512" y2="292.229"/>
	<line fill="none" stroke="#000000" stroke-miterlimit="10" x1="117.417" y1="442.742" x2="117.417" y2="484.342"/>
	<line fill="none" stroke="#000000" stroke-miterlimit="10" x1="117.417" y1="484.342" x2="159.223" y2="494.11"/>
	<line fill="none" stroke="#000000" stroke-miterlimit="10" x1="83.299" y1="457.709" x2="117.417" y2="484.342"/>
	<line fill="none" stroke="#000000" stroke-miterlimit="10" x1="72.14" y1="420.032" x2="45.23" y2="382.995"/>
	<line fill="none" stroke="#000000" stroke-miterlimit="10" x1="45.23" y1="382.995" x2="45.23" y2="337.213"/>
	<line fill="none" stroke="#000000" stroke-miterlimit="10" x1="45.23" y1="337.213" x2="72.14" y2="420.032"/>
	<line fill="none" stroke="#000000" stroke-miterlimit="10" x1="32.113" y1="300.174" x2="45.23" y2="382.995"/>
	<line fill="none" stroke="#000000" stroke-miterlimit="10" x1="45.23" y1="382.995" x2="83.299" y2="457.709"/>
	<line fill="none" stroke="#000000" stroke-miterlimit="10" x1="32.113" y1="300.174" x2="45.23" y2="337.213"/>
	<line fill="none" stroke="#000000" stroke-miterlimit="10" x1="72.14" y1="420.032" x2="83.299" y2="457.709"/>
	<line fill="none" stroke="#000000" stroke-miterlimit="10" x1="44.061" y1="258.573" x2="45.23" y2="337.213"/>
	<line fill="none" stroke="#000000" stroke-miterlimit="10" x1="72.14" y1="420.032" x2="117.417" y2="484.342"/>
	<line fill="none" stroke="#000000" stroke-miterlimit="10" x1="45.23" y1="337.213" x2="68.512" y2="292.229"/>
	<line fill="none" stroke="#000000" stroke-miterlimit="10" x1="45.23" y1="337.213" x2="83.299" y2="370.626"/>
	<line fill="none" stroke="#000000" stroke-miterlimit="10" x1="83.299" y1="370.626" x2="72.14" y2="420.032"/>
	<line fill="none" stroke="#000000" stroke-miterlimit="10" x1="72.14" y1="420.032" x2="117.417" y2="442.742"/>
	<line fill="none" stroke="#000000" stroke-miterlimit="10" x1="159.223" y1="494.11" x2="181.436" y2="530.854"/>
	<line fill="none" stroke="#000000" stroke-miterlimit="10" x1="181.436" y1="530.854" x2="220.998" y2="517.997"/>
	<line fill="none" stroke="#000000" stroke-miterlimit="10" x1="220.998" y1="517.997" x2="159.223" y2="494.11"/>
	<line fill="none" stroke="#000000" stroke-miterlimit="10" x1="441.029" y1="494.11" x2="379.256" y2="517.997"/>
	<line fill="none" stroke="#000000" stroke-miterlimit="10" x1="379.256" y1="517.997" x2="418.82" y2="530.854"/>
	<line fill="none" stroke="#000000" stroke-miterlimit="10" x1="418.82" y1="530.854" x2="441.029" y2="494.11"/>
	<line fill="none" stroke="#000000" stroke-miterlimit="10" x1="181.436" y1="530.854" x2="217.307" y2="555.07"/>
	<line fill="none" stroke="#000000" stroke-miterlimit="10" x1="382.947" y1="555.07" x2="418.82" y2="530.854"/>
	<line fill="none" stroke="#000000" stroke-miterlimit="10" x1="220.998" y1="517.997" x2="300.128" y2="528.16"/>
	<line fill="none" stroke="#000000" stroke-miterlimit="10" x1="300.128" y1="528.16" x2="379.256" y2="517.997"/>
	<line fill="none" stroke="#000000" stroke-miterlimit="10" x1="343.668" y1="554.041" x2="300.128" y2="568.188"/>
	<line fill="none" stroke="#000000" stroke-miterlimit="10" x1="300.128" y1="568.188" x2="256.585" y2="554.041"/>
	<line fill="none" stroke="#000000" stroke-miterlimit="10" x1="256.585" y1="554.041" x2="343.668" y2="554.041"/>
	<line fill="none" stroke="#000000" stroke-miterlimit="10" x1="217.307" y1="555.07" x2="300.128" y2="568.188"/>
	<line fill="none" stroke="#000000" stroke-miterlimit="10" x1="300.128" y1="568.188" x2="382.947" y2="555.07"/>
	<line fill="none" stroke="#000000" stroke-miterlimit="10" x1="217.307" y1="555.07" x2="256.585" y2="554.041"/>
	<line fill="none" stroke="#000000" stroke-miterlimit="10" x1="343.668" y1="554.041" x2="382.947" y2="555.07"/>
	<line fill="none" stroke="#000000" stroke-miterlimit="10" x1="181.436" y1="530.854" x2="256.585" y2="554.041"/>
	<line fill="none" stroke="#000000" stroke-miterlimit="10" x1="343.668" y1="554.041" x2="418.82" y2="530.854"/>
	<line fill="none" stroke="#000000" stroke-miterlimit="10" x1="256.585" y1="554.041" x2="220.998" y2="517.997"/>
	<line fill="none" stroke="#000000" stroke-miterlimit="10" x1="256.585" y1="554.041" x2="300.128" y2="528.16"/>
	<line fill="none" stroke="#000000" stroke-miterlimit="10" x1="300.128" y1="528.16" x2="343.668" y2="554.041"/>
	<line fill="none" stroke="#000000" stroke-miterlimit="10" x1="343.668" y1="554.041" x2="379.256" y2="517.997"/>
	<line fill="none" stroke="#000000" stroke-miterlimit="10" x1="528.114" y1="226.097" x2="556.193" y2="258.573"/>
	<line fill="none" stroke="#000000" stroke-miterlimit="10" x1="531.742" y1="183.316" x2="556.193" y2="258.573"/>
	<line fill="none" stroke="#000000" stroke-miterlimit="10" x1="531.742" y1="183.316" x2="528.114" y2="226.097"/>
	<line fill="none" stroke="#000000" stroke-miterlimit="10" x1="568.14" y1="300.174" x2="556.193" y2="258.573"/>
	<line fill="none" stroke="#000000" stroke-miterlimit="10" x1="531.742" y1="183.316" x2="516.955" y2="142.64"/>
	<line fill="none" stroke="#000000" stroke-miterlimit="10" x1="556.193" y1="258.573" x2="555.023" y2="217.354"/>
	<line fill="none" stroke="#000000" stroke-miterlimit="10" x1="555.023" y1="217.354" x2="531.742" y2="183.316"/>
	<line fill="none" stroke="#000000" stroke-miterlimit="10" x1="568.14" y1="300.174" x2="555.023" y2="217.354"/>
	<line fill="none" stroke="#000000" stroke-miterlimit="10" x1="555.023" y1="217.354" x2="516.955" y2="142.64"/>
	<line fill="none" stroke="#000000" stroke-miterlimit="10" x1="339.691" y1="354.628" x2="260.562" y2="354.628"/>
	<line fill="none" stroke="#000000" stroke-miterlimit="10" x1="181.436" y1="463.54" x2="220.998" y2="517.997"/>
	<line fill="none" stroke="#000000" stroke-miterlimit="10" x1="379.256" y1="517.997" x2="418.82" y2="463.54"/>
	<line fill="none" stroke="#000000" stroke-miterlimit="10" x1="343.668" y1="479.963" x2="300.128" y2="420.032"/>
	<line fill="none" stroke="#000000" stroke-miterlimit="10" x1="300.128" y1="420.032" x2="256.585" y2="479.963"/>
	<line fill="none" stroke="#000000" stroke-miterlimit="10" x1="256.585" y1="479.963" x2="343.668" y2="479.963"/>
	<line fill="none" stroke="#000000" stroke-miterlimit="10" x1="260.562" y1="354.628" x2="300.128" y2="420.032"/>
	<line fill="none" stroke="#000000" stroke-miterlimit="10" x1="300.128" y1="420.032" x2="339.691" y2="354.628"/>
	<line fill="none" stroke="#000000" stroke-miterlimit="10" x1="217.307" y1="414.166" x2="300.128" y2="420.032"/>
	<line fill="none" stroke="#000000" stroke-miterlimit="10" x1="300.128" y1="420.032" x2="382.947" y2="414.166"/>
	<line fill="none" stroke="#000000" stroke-miterlimit="10" x1="217.307" y1="414.166" x2="256.585" y2="479.963"/>
	<line fill="none" stroke="#000000" stroke-miterlimit="10" x1="343.668" y1="479.963" x2="382.947" y2="414.166"/>
	<line fill="none" stroke="#000000" stroke-miterlimit="10" x1="181.436" y1="463.54" x2="256.585" y2="479.963"/>
	<line fill="none" stroke="#000000" stroke-miterlimit="10" x1="343.668" y1="479.963" x2="418.82" y2="463.54"/>
	<line fill="none" stroke="#000000" stroke-miterlimit="10" x1="256.585" y1="479.963" x2="220.998" y2="517.997"/>
	<line fill="none" stroke="#000000" stroke-miterlimit="10" x1="256.585" y1="479.963" x2="300.128" y2="528.16"/>
	<line fill="none" stroke="#000000" stroke-miterlimit="10" x1="300.128" y1="528.16" x2="343.668" y2="479.963"/>
	<line fill="none" stroke="#000000" stroke-miterlimit="10" x1="343.668" y1="479.963" x2="379.256" y2="517.997"/>
	<line fill="none" stroke="#000000" stroke-miterlimit="10" x1="181.436" y1="530.854" x2="117.417" y2="484.342"/>
	<line fill="none" stroke="#000000" stroke-miterlimit="10" x1="117.417" y1="484.342" x2="142.592" y2="517.002"/>
	<line fill="none" stroke="#000000" stroke-miterlimit="10" x1="142.592" y1="517.002" x2="181.436" y2="530.854"/>
	<line fill="none" stroke="#000000" stroke-miterlimit="10" x1="83.299" y1="457.709" x2="142.592" y2="517.002"/>
	<line fill="none" stroke="#000000" stroke-miterlimit="10" x1="142.592" y1="517.002" x2="217.307" y2="555.07"/>
	<line fill="none" stroke="#000000" stroke-miterlimit="10" x1="260.562" y1="43.786" x2="236.109" y2="77.439"/>
	<line fill="none" stroke="#000000" stroke-miterlimit="10" x1="108.077" y1="170.461" x2="68.512" y2="183.316"/>
	<line fill="none" stroke="#000000" stroke-miterlimit="10" x1="115.684" y1="120.384" x2="142.592" y2="83.347"/>
	<line fill="none" stroke="#000000" stroke-miterlimit="10" x1="142.592" y1="83.347" x2="186.133" y2="69.198"/>
	<line fill="none" stroke="#000000" stroke-miterlimit="10" x1="186.133" y1="69.198" x2="115.684" y2="120.384"/>
	<line fill="none" stroke="#000000" stroke-miterlimit="10" x1="217.307" y1="45.278" x2="142.592" y2="83.347"/>
	<line fill="none" stroke="#000000" stroke-miterlimit="10" x1="142.592" y1="83.347" x2="83.299" y2="142.64"/>
	<line fill="none" stroke="#000000" stroke-miterlimit="10" x1="217.307" y1="45.278" x2="186.133" y2="69.198"/>
	<line fill="none" stroke="#000000" stroke-miterlimit="10" x1="115.684" y1="120.384" x2="83.299" y2="142.64"/>
	<line fill="none" stroke="#000000" stroke-miterlimit="10" x1="260.562" y1="43.786" x2="186.133" y2="69.198"/>
	<line fill="none" stroke="#000000" stroke-miterlimit="10" x1="115.684" y1="120.384" x2="68.512" y2="183.316"/>
	<line fill="none" stroke="#000000" stroke-miterlimit="10" x1="186.133" y1="69.198" x2="236.109" y2="77.439"/>
	<line fill="none" stroke="#000000" stroke-miterlimit="10" x1="186.133" y1="69.198" x2="166.121" y2="115.729"/>
	<line fill="none" stroke="#000000" stroke-miterlimit="10" x1="166.121" y1="115.729" x2="115.684" y2="120.384"/>
	<line fill="none" stroke="#000000" stroke-miterlimit="10" x1="115.684" y1="120.384" x2="108.077" y2="170.461"/>
	<line fill="none" stroke="#000000" stroke-miterlimit="10" x1="441.029" y1="494.11" x2="482.836" y2="484.342"/>
	<line fill="none" stroke="#000000" stroke-miterlimit="10" x1="482.836" y1="484.342" x2="482.836" y2="442.742"/>
	<line fill="none" stroke="#000000" stroke-miterlimit="10" x1="531.742" y1="292.229" x2="556.193" y2="258.573"/>
	<line fill="none" stroke="#000000" stroke-miterlimit="10" x1="482.836" y1="484.342" x2="516.955" y2="457.709"/>
	<line fill="none" stroke="#000000" stroke-miterlimit="10" x1="555.023" y1="337.213" x2="555.023" y2="382.995"/>
	<line fill="none" stroke="#000000" stroke-miterlimit="10" x1="555.023" y1="382.995" x2="528.114" y2="420.032"/>
	<line fill="none" stroke="#000000" stroke-miterlimit="10" x1="528.114" y1="420.032" x2="555.023" y2="337.213"/>
	<line fill="none" stroke="#000000" stroke-miterlimit="10" x1="516.955" y1="457.709" x2="555.023" y2="382.995"/>
	<line fill="none" stroke="#000000" stroke-miterlimit="10" x1="555.023" y1="382.995" x2="568.14" y2="300.174"/>
	<line fill="none" stroke="#000000" stroke-miterlimit="10" x1="516.955" y1="457.709" x2="528.114" y2="420.032"/>
	<line fill="none" stroke="#000000" stroke-miterlimit="10" x1="555.023" y1="337.213" x2="568.14" y2="300.174"/>
	<line fill="none" stroke="#000000" stroke-miterlimit="10" x1="482.836" y1="484.342" x2="528.114" y2="420.032"/>
	<line fill="none" stroke="#000000" stroke-miterlimit="10" x1="555.023" y1="337.213" x2="556.193" y2="258.573"/>
	<line fill="none" stroke="#000000" stroke-miterlimit="10" x1="528.114" y1="420.032" x2="482.836" y2="442.742"/>
	<line fill="none" stroke="#000000" stroke-miterlimit="10" x1="528.114" y1="420.032" x2="516.955" y2="370.626"/>
	<line fill="none" stroke="#000000" stroke-miterlimit="10" x1="516.955" y1="370.626" x2="555.023" y2="337.213"/>
	<line fill="none" stroke="#000000" stroke-miterlimit="10" x1="555.023" y1="337.213" x2="531.742" y2="292.229"/>
	<line fill="none" stroke="#000000" stroke-miterlimit="10" x1="482.836" y1="484.342" x2="418.82" y2="530.854"/>
	<line fill="none" stroke="#000000" stroke-miterlimit="10" x1="418.82" y1="530.854" x2="457.662" y2="517.002"/>
	<line fill="none" stroke="#000000" stroke-miterlimit="10" x1="457.662" y1="517.002" x2="482.836" y2="484.342"/>
	<line fill="none" stroke="#000000" stroke-miterlimit="10" x1="382.947" y1="555.07" x2="457.662" y2="517.002"/>
	<line fill="none" stroke="#000000" stroke-miterlimit="10" x1="457.662" y1="517.002" x2="516.955" y2="457.709"/>
	<line fill="none" stroke="#000000" stroke-miterlimit="10" x1="531.742" y1="183.316" x2="492.176" y2="170.461"/>
	<line fill="none" stroke="#000000" stroke-miterlimit="10" x1="364.144" y1="77.439" x2="339.691" y2="43.786"/>
	<line fill="none" stroke="#000000" stroke-miterlimit="10" x1="414.12" y1="69.198" x2="457.662" y2="83.347"/>
	<line fill="none" stroke="#000000" stroke-miterlimit="10" x1="457.662" y1="83.347" x2="484.571" y2="120.384"/>
	<line fill="none" stroke="#000000" stroke-miterlimit="10" x1="484.571" y1="120.384" x2="414.12" y2="69.198"/>
	<line fill="none" stroke="#000000" stroke-miterlimit="10" x1="516.955" y1="142.64" x2="457.662" y2="83.347"/>
	<line fill="none" stroke="#000000" stroke-miterlimit="10" x1="457.662" y1="83.347" x2="382.947" y2="45.278"/>
	<line fill="none" stroke="#000000" stroke-miterlimit="10" x1="516.955" y1="142.64" x2="484.571" y2="120.384"/>
	<line fill="none" stroke="#000000" stroke-miterlimit="10" x1="414.12" y1="69.198" x2="382.947" y2="45.278"/>
	<line fill="none" stroke="#000000" stroke-miterlimit="10" x1="531.742" y1="183.316" x2="484.571" y2="120.384"/>
	<line fill="none" stroke="#000000" stroke-miterlimit="10" x1="414.12" y1="69.198" x2="339.691" y2="43.786"/>
	<line fill="none" stroke="#000000" stroke-miterlimit="10" x1="484.571" y1="120.384" x2="492.176" y2="170.461"/>
	<line fill="none" stroke="#000000" stroke-miterlimit="10" x1="484.571" y1="120.384" x2="434.135" y2="115.729"/>
	<line fill="none" stroke="#000000" stroke-miterlimit="10" x1="434.135" y1="115.729" x2="414.12" y2="69.198"/>
	<line fill="none" stroke="#000000" stroke-miterlimit="10" x1="414.12" y1="69.198" x2="364.144" y2="77.439"/>
</g>
</svg>
