<?xml version="1.0" encoding="utf-8"?>
<!-- Generator: Adobe Illustrator 16.0.0, SVG Export Plug-In . SVG Version: 6.00 Build 0)  -->
<!DOCTYPE svg PUBLIC "-//W3C//DTD SVG 1.1//EN" "http://www.w3.org/Graphics/SVG/1.1/DTD/svg11.dtd">
<svg version="1.1" id="Layer_1" xmlns="http://www.w3.org/2000/svg" xmlns:xlink="http://www.w3.org/1999/xlink" x="0px" y="0px"
	 width="600px" height="600px" viewBox="0 0 600 600" enable-background="new 0 0 600 600" xml:space="preserve">
<g>
	<line fill="none" stroke="#000000" stroke-miterlimit="10" x1="408.615" y1="59.301" x2="354.538" y2="41.729"/>
	<line fill="none" stroke="#000000" stroke-miterlimit="10" x1="354.538" y1="41.729" x2="300.459" y2="36.913"/>
	<line fill="none" stroke="#000000" stroke-miterlimit="10" x1="354.538" y1="41.729" x2="246.383" y2="41.729"/>
	<line fill="none" stroke="#000000" stroke-miterlimit="10" x1="246.383" y1="41.729" x2="300.459" y2="36.913"/>
	<line fill="none" stroke="#000000" stroke-miterlimit="10" x1="192.304" y1="59.301" x2="246.383" y2="41.729"/>
	<line fill="none" stroke="#000000" stroke-miterlimit="10" x1="354.538" y1="41.729" x2="300.459" y2="60.45"/>
	<line fill="none" stroke="#000000" stroke-miterlimit="10" x1="300.459" y1="60.45" x2="246.383" y2="41.729"/>
	<line fill="none" stroke="#000000" stroke-miterlimit="10" x1="104.803" y1="122.874" x2="71.381" y2="168.876"/>
	<line fill="none" stroke="#000000" stroke-miterlimit="10" x1="71.381" y1="168.876" x2="50.089" y2="218.819"/>
	<line fill="none" stroke="#000000" stroke-miterlimit="10" x1="71.381" y1="168.876" x2="37.958" y2="271.739"/>
	<line fill="none" stroke="#000000" stroke-miterlimit="10" x1="37.958" y1="271.739" x2="50.089" y2="218.819"/>
	<line fill="none" stroke="#000000" stroke-miterlimit="10" x1="37.958" y1="328.6" x2="37.958" y2="271.739"/>
	<line fill="none" stroke="#000000" stroke-miterlimit="10" x1="71.381" y1="168.876" x2="72.473" y2="226.092"/>
	<line fill="none" stroke="#000000" stroke-miterlimit="10" x1="72.473" y1="226.092" x2="37.958" y2="271.739"/>
	<line fill="none" stroke="#000000" stroke-miterlimit="10" x1="72.473" y1="226.092" x2="71.381" y2="317.739"/>
	<line fill="none" stroke="#000000" stroke-miterlimit="10" x1="71.381" y1="317.739" x2="145.722" y2="350.447"/>
	<line fill="none" stroke="#000000" stroke-miterlimit="10" x1="145.722" y1="350.447" x2="125.458" y2="243.308"/>
	<line fill="none" stroke="#000000" stroke-miterlimit="10" x1="125.458" y1="243.308" x2="71.381" y2="317.739"/>
	<line fill="none" stroke="#000000" stroke-miterlimit="10" x1="125.458" y1="243.308" x2="72.473" y2="226.092"/>
	<line fill="none" stroke="#000000" stroke-miterlimit="10" x1="125.458" y1="243.308" x2="212.959" y2="271.739"/>
	<line fill="none" stroke="#000000" stroke-miterlimit="10" x1="212.959" y1="271.739" x2="145.722" y2="350.447"/>
	<line fill="none" stroke="#000000" stroke-miterlimit="10" x1="212.959" y1="271.739" x2="246.383" y2="374.6"/>
	<line fill="none" stroke="#000000" stroke-miterlimit="10" x1="246.383" y1="374.6" x2="145.722" y2="350.447"/>
	<line fill="none" stroke="#000000" stroke-miterlimit="10" x1="145.722" y1="350.447" x2="192.304" y2="449.034"/>
	<line fill="none" stroke="#000000" stroke-miterlimit="10" x1="192.304" y1="449.034" x2="246.383" y2="374.6"/>
	<line fill="none" stroke="#000000" stroke-miterlimit="10" x1="145.722" y1="350.447" x2="104.803" y2="420.604"/>
	<line fill="none" stroke="#000000" stroke-miterlimit="10" x1="104.803" y1="420.604" x2="192.304" y2="449.034"/>
	<line fill="none" stroke="#000000" stroke-miterlimit="10" x1="71.381" y1="317.739" x2="104.803" y2="420.604"/>
	<line fill="none" stroke="#000000" stroke-miterlimit="10" x1="104.803" y1="420.604" x2="159.557" y2="494.105"/>
	<line fill="none" stroke="#000000" stroke-miterlimit="10" x1="159.557" y1="494.105" x2="192.304" y2="449.034"/>
	<line fill="none" stroke="#000000" stroke-miterlimit="10" x1="212.959" y1="271.739" x2="300.459" y2="300.169"/>
	<line fill="none" stroke="#000000" stroke-miterlimit="10" x1="300.459" y1="300.169" x2="246.383" y2="374.6"/>
	<line fill="none" stroke="#000000" stroke-miterlimit="10" x1="300.459" y1="60.45" x2="212.959" y2="87.733"/>
	<line fill="none" stroke="#000000" stroke-miterlimit="10" x1="212.959" y1="87.733" x2="204.826" y2="168.542"/>
	<line fill="none" stroke="#000000" stroke-miterlimit="10" x1="204.826" y1="168.542" x2="300.459" y2="116.163"/>
	<line fill="none" stroke="#000000" stroke-miterlimit="10" x1="300.459" y1="116.163" x2="212.959" y2="87.733"/>
	<line fill="none" stroke="#000000" stroke-miterlimit="10" x1="300.459" y1="116.163" x2="300.459" y2="60.45"/>
	<line fill="none" stroke="#000000" stroke-miterlimit="10" x1="300.459" y1="116.163" x2="300.459" y2="208.165"/>
	<line fill="none" stroke="#000000" stroke-miterlimit="10" x1="300.459" y1="208.165" x2="204.826" y2="168.542"/>
	<line fill="none" stroke="#000000" stroke-miterlimit="10" x1="300.459" y1="208.165" x2="212.959" y2="271.739"/>
	<line fill="none" stroke="#000000" stroke-miterlimit="10" x1="212.959" y1="271.739" x2="204.826" y2="168.542"/>
	<line fill="none" stroke="#000000" stroke-miterlimit="10" x1="204.826" y1="168.542" x2="125.458" y2="243.308"/>
	<line fill="none" stroke="#000000" stroke-miterlimit="10" x1="204.826" y1="168.542" x2="125.458" y2="151.304"/>
	<line fill="none" stroke="#000000" stroke-miterlimit="10" x1="125.458" y1="151.304" x2="125.458" y2="243.308"/>
	<line fill="none" stroke="#000000" stroke-miterlimit="10" x1="212.959" y1="87.733" x2="125.458" y2="151.304"/>
	<line fill="none" stroke="#000000" stroke-miterlimit="10" x1="125.458" y1="151.304" x2="72.473" y2="226.092"/>
	<line fill="none" stroke="#000000" stroke-miterlimit="10" x1="300.459" y1="208.165" x2="300.459" y2="300.169"/>
	<line fill="none" stroke="#000000" stroke-miterlimit="10" x1="528.446" y1="226.092" x2="475.463" y2="151.304"/>
	<line fill="none" stroke="#000000" stroke-miterlimit="10" x1="475.463" y1="151.304" x2="396.094" y2="168.542"/>
	<line fill="none" stroke="#000000" stroke-miterlimit="10" x1="396.094" y1="168.542" x2="475.463" y2="243.308"/>
	<line fill="none" stroke="#000000" stroke-miterlimit="10" x1="475.463" y1="243.308" x2="475.463" y2="151.304"/>
	<line fill="none" stroke="#000000" stroke-miterlimit="10" x1="475.463" y1="243.308" x2="528.446" y2="226.092"/>
	<line fill="none" stroke="#000000" stroke-miterlimit="10" x1="475.463" y1="243.308" x2="387.96" y2="271.739"/>
	<line fill="none" stroke="#000000" stroke-miterlimit="10" x1="387.96" y1="271.739" x2="396.094" y2="168.542"/>
	<line fill="none" stroke="#000000" stroke-miterlimit="10" x1="387.96" y1="271.739" x2="300.459" y2="208.165"/>
	<line fill="none" stroke="#000000" stroke-miterlimit="10" x1="300.459" y1="208.165" x2="396.094" y2="168.542"/>
	<line fill="none" stroke="#000000" stroke-miterlimit="10" x1="396.094" y1="168.542" x2="300.459" y2="116.163"/>
	<line fill="none" stroke="#000000" stroke-miterlimit="10" x1="396.094" y1="168.542" x2="387.96" y2="87.733"/>
	<line fill="none" stroke="#000000" stroke-miterlimit="10" x1="387.96" y1="87.733" x2="300.459" y2="116.163"/>
	<line fill="none" stroke="#000000" stroke-miterlimit="10" x1="475.463" y1="151.304" x2="387.96" y2="87.733"/>
	<line fill="none" stroke="#000000" stroke-miterlimit="10" x1="387.96" y1="87.733" x2="300.459" y2="60.45"/>
	<line fill="none" stroke="#000000" stroke-miterlimit="10" x1="387.96" y1="271.739" x2="300.459" y2="300.169"/>
	<line fill="none" stroke="#000000" stroke-miterlimit="10" x1="441.362" y1="494.105" x2="496.117" y2="420.604"/>
	<line fill="none" stroke="#000000" stroke-miterlimit="10" x1="496.117" y1="420.604" x2="455.198" y2="350.447"/>
	<line fill="none" stroke="#000000" stroke-miterlimit="10" x1="455.198" y1="350.447" x2="408.615" y2="449.034"/>
	<line fill="none" stroke="#000000" stroke-miterlimit="10" x1="408.615" y1="449.034" x2="496.117" y2="420.604"/>
	<line fill="none" stroke="#000000" stroke-miterlimit="10" x1="408.615" y1="449.034" x2="441.362" y2="494.105"/>
	<line fill="none" stroke="#000000" stroke-miterlimit="10" x1="408.615" y1="449.034" x2="354.538" y2="374.6"/>
	<line fill="none" stroke="#000000" stroke-miterlimit="10" x1="354.538" y1="374.6" x2="455.198" y2="350.447"/>
	<line fill="none" stroke="#000000" stroke-miterlimit="10" x1="354.538" y1="374.6" x2="387.96" y2="271.739"/>
	<line fill="none" stroke="#000000" stroke-miterlimit="10" x1="387.96" y1="271.739" x2="455.198" y2="350.447"/>
	<line fill="none" stroke="#000000" stroke-miterlimit="10" x1="455.198" y1="350.447" x2="475.463" y2="243.308"/>
	<line fill="none" stroke="#000000" stroke-miterlimit="10" x1="455.198" y1="350.447" x2="529.54" y2="317.739"/>
	<line fill="none" stroke="#000000" stroke-miterlimit="10" x1="529.54" y1="317.739" x2="475.463" y2="243.308"/>
	<line fill="none" stroke="#000000" stroke-miterlimit="10" x1="496.117" y1="420.604" x2="529.54" y2="317.739"/>
	<line fill="none" stroke="#000000" stroke-miterlimit="10" x1="529.54" y1="317.739" x2="528.446" y2="226.092"/>
	<line fill="none" stroke="#000000" stroke-miterlimit="10" x1="354.538" y1="374.6" x2="300.459" y2="300.169"/>
	<line fill="none" stroke="#000000" stroke-miterlimit="10" x1="71.381" y1="317.739" x2="50.089" y2="381.519"/>
	<line fill="none" stroke="#000000" stroke-miterlimit="10" x1="50.089" y1="381.519" x2="37.958" y2="271.739"/>
	<line fill="none" stroke="#000000" stroke-miterlimit="10" x1="37.958" y1="271.739" x2="71.381" y2="317.739"/>
	<line fill="none" stroke="#000000" stroke-miterlimit="10" x1="37.958" y1="328.6" x2="50.089" y2="381.519"/>
	<line fill="none" stroke="#000000" stroke-miterlimit="10" x1="71.381" y1="431.463" x2="50.089" y2="381.519"/>
	<line fill="none" stroke="#000000" stroke-miterlimit="10" x1="50.089" y1="381.519" x2="104.803" y2="477.465"/>
	<line fill="none" stroke="#000000" stroke-miterlimit="10" x1="104.803" y1="477.465" x2="71.381" y2="431.463"/>
	<line fill="none" stroke="#000000" stroke-miterlimit="10" x1="50.089" y1="381.519" x2="104.803" y2="420.604"/>
	<line fill="none" stroke="#000000" stroke-miterlimit="10" x1="104.803" y1="420.604" x2="104.803" y2="477.465"/>
	<line fill="none" stroke="#000000" stroke-miterlimit="10" x1="159.557" y1="494.105" x2="104.803" y2="477.465"/>
	<line fill="none" stroke="#000000" stroke-miterlimit="10" x1="159.557" y1="494.105" x2="246.383" y2="523.467"/>
	<line fill="none" stroke="#000000" stroke-miterlimit="10" x1="246.383" y1="523.467" x2="300.459" y2="563.425"/>
	<line fill="none" stroke="#000000" stroke-miterlimit="10" x1="300.459" y1="563.425" x2="192.304" y2="541.037"/>
	<line fill="none" stroke="#000000" stroke-miterlimit="10" x1="192.304" y1="541.037" x2="246.383" y2="523.467"/>
	<line fill="none" stroke="#000000" stroke-miterlimit="10" x1="192.304" y1="541.037" x2="159.557" y2="494.105"/>
	<line fill="none" stroke="#000000" stroke-miterlimit="10" x1="192.304" y1="541.037" x2="246.383" y2="558.609"/>
	<line fill="none" stroke="#000000" stroke-miterlimit="10" x1="246.383" y1="558.609" x2="300.459" y2="563.425"/>
	<line fill="none" stroke="#000000" stroke-miterlimit="10" x1="354.538" y1="558.609" x2="300.459" y2="563.425"/>
	<line fill="none" stroke="#000000" stroke-miterlimit="10" x1="300.459" y1="563.425" x2="408.615" y2="541.037"/>
	<line fill="none" stroke="#000000" stroke-miterlimit="10" x1="408.615" y1="541.037" x2="354.538" y2="558.609"/>
	<line fill="none" stroke="#000000" stroke-miterlimit="10" x1="300.459" y1="563.425" x2="354.538" y2="523.467"/>
	<line fill="none" stroke="#000000" stroke-miterlimit="10" x1="354.538" y1="523.467" x2="408.615" y2="541.037"/>
	<line fill="none" stroke="#000000" stroke-miterlimit="10" x1="246.383" y1="523.467" x2="354.538" y2="523.467"/>
	<line fill="none" stroke="#000000" stroke-miterlimit="10" x1="354.538" y1="523.467" x2="441.362" y2="494.105"/>
	<line fill="none" stroke="#000000" stroke-miterlimit="10" x1="441.362" y1="494.105" x2="408.615" y2="541.037"/>
	<line fill="none" stroke="#000000" stroke-miterlimit="10" x1="562.961" y1="328.6" x2="562.961" y2="271.739"/>
	<line fill="none" stroke="#000000" stroke-miterlimit="10" x1="562.961" y1="271.739" x2="550.831" y2="218.819"/>
	<line fill="none" stroke="#000000" stroke-miterlimit="10" x1="562.961" y1="271.739" x2="529.54" y2="168.876"/>
	<line fill="none" stroke="#000000" stroke-miterlimit="10" x1="529.54" y1="168.876" x2="550.831" y2="218.819"/>
	<line fill="none" stroke="#000000" stroke-miterlimit="10" x1="496.117" y1="122.874" x2="529.54" y2="168.876"/>
	<line fill="none" stroke="#000000" stroke-miterlimit="10" x1="562.961" y1="271.739" x2="528.446" y2="226.092"/>
	<line fill="none" stroke="#000000" stroke-miterlimit="10" x1="528.446" y1="226.092" x2="529.54" y2="168.876"/>
	<line fill="none" stroke="#000000" stroke-miterlimit="10" x1="246.383" y1="523.467" x2="300.459" y2="462.869"/>
	<line fill="none" stroke="#000000" stroke-miterlimit="10" x1="300.459" y1="462.869" x2="192.304" y2="449.034"/>
	<line fill="none" stroke="#000000" stroke-miterlimit="10" x1="192.304" y1="449.034" x2="246.383" y2="523.467"/>
	<line fill="none" stroke="#000000" stroke-miterlimit="10" x1="246.383" y1="374.6" x2="300.459" y2="462.869"/>
	<line fill="none" stroke="#000000" stroke-miterlimit="10" x1="246.383" y1="374.6" x2="354.538" y2="374.6"/>
	<line fill="none" stroke="#000000" stroke-miterlimit="10" x1="354.538" y1="374.6" x2="300.459" y2="462.869"/>
	<line fill="none" stroke="#000000" stroke-miterlimit="10" x1="300.459" y1="462.869" x2="408.615" y2="449.034"/>
	<line fill="none" stroke="#000000" stroke-miterlimit="10" x1="300.459" y1="462.869" x2="354.538" y2="523.467"/>
	<line fill="none" stroke="#000000" stroke-miterlimit="10" x1="354.538" y1="523.467" x2="408.615" y2="449.034"/>
	<line fill="none" stroke="#000000" stroke-miterlimit="10" x1="104.803" y1="477.465" x2="145.722" y2="513.148"/>
	<line fill="none" stroke="#000000" stroke-miterlimit="10" x1="104.803" y1="477.465" x2="192.304" y2="541.037"/>
	<line fill="none" stroke="#000000" stroke-miterlimit="10" x1="192.304" y1="541.037" x2="145.722" y2="513.148"/>
	<line fill="none" stroke="#000000" stroke-miterlimit="10" x1="212.959" y1="87.733" x2="145.722" y2="87.19"/>
	<line fill="none" stroke="#000000" stroke-miterlimit="10" x1="145.722" y1="87.19" x2="246.383" y2="41.729"/>
	<line fill="none" stroke="#000000" stroke-miterlimit="10" x1="246.383" y1="41.729" x2="212.959" y2="87.733"/>
	<line fill="none" stroke="#000000" stroke-miterlimit="10" x1="192.304" y1="59.301" x2="145.722" y2="87.19"/>
	<line fill="none" stroke="#000000" stroke-miterlimit="10" x1="104.803" y1="122.874" x2="145.722" y2="87.19"/>
	<line fill="none" stroke="#000000" stroke-miterlimit="10" x1="145.722" y1="87.19" x2="71.381" y2="168.876"/>
	<line fill="none" stroke="#000000" stroke-miterlimit="10" x1="145.722" y1="87.19" x2="125.458" y2="151.304"/>
	<line fill="none" stroke="#000000" stroke-miterlimit="10" x1="125.458" y1="151.304" x2="71.381" y2="168.876"/>
	<line fill="none" stroke="#000000" stroke-miterlimit="10" x1="496.117" y1="420.604" x2="550.831" y2="381.519"/>
	<line fill="none" stroke="#000000" stroke-miterlimit="10" x1="550.831" y1="381.519" x2="496.117" y2="477.465"/>
	<line fill="none" stroke="#000000" stroke-miterlimit="10" x1="496.117" y1="477.465" x2="496.117" y2="420.604"/>
	<line fill="none" stroke="#000000" stroke-miterlimit="10" x1="496.117" y1="477.465" x2="441.362" y2="494.105"/>
	<line fill="none" stroke="#000000" stroke-miterlimit="10" x1="496.117" y1="477.465" x2="529.54" y2="431.463"/>
	<line fill="none" stroke="#000000" stroke-miterlimit="10" x1="529.54" y1="431.463" x2="550.831" y2="381.519"/>
	<line fill="none" stroke="#000000" stroke-miterlimit="10" x1="562.961" y1="328.6" x2="550.831" y2="381.519"/>
	<line fill="none" stroke="#000000" stroke-miterlimit="10" x1="550.831" y1="381.519" x2="562.961" y2="271.739"/>
	<line fill="none" stroke="#000000" stroke-miterlimit="10" x1="550.831" y1="381.519" x2="529.54" y2="317.739"/>
	<line fill="none" stroke="#000000" stroke-miterlimit="10" x1="529.54" y1="317.739" x2="562.961" y2="271.739"/>
	<line fill="none" stroke="#000000" stroke-miterlimit="10" x1="408.615" y1="541.037" x2="455.198" y2="513.148"/>
	<line fill="none" stroke="#000000" stroke-miterlimit="10" x1="408.615" y1="541.037" x2="496.117" y2="477.465"/>
	<line fill="none" stroke="#000000" stroke-miterlimit="10" x1="496.117" y1="477.465" x2="455.198" y2="513.148"/>
	<line fill="none" stroke="#000000" stroke-miterlimit="10" x1="475.463" y1="151.304" x2="455.198" y2="87.19"/>
	<line fill="none" stroke="#000000" stroke-miterlimit="10" x1="455.198" y1="87.19" x2="529.54" y2="168.876"/>
	<line fill="none" stroke="#000000" stroke-miterlimit="10" x1="529.54" y1="168.876" x2="475.463" y2="151.304"/>
	<line fill="none" stroke="#000000" stroke-miterlimit="10" x1="496.117" y1="122.874" x2="455.198" y2="87.19"/>
	<line fill="none" stroke="#000000" stroke-miterlimit="10" x1="408.615" y1="59.301" x2="455.198" y2="87.19"/>
	<line fill="none" stroke="#000000" stroke-miterlimit="10" x1="455.198" y1="87.19" x2="354.538" y2="41.729"/>
	<line fill="none" stroke="#000000" stroke-miterlimit="10" x1="455.198" y1="87.19" x2="387.96" y2="87.733"/>
	<line fill="none" stroke="#000000" stroke-miterlimit="10" x1="387.96" y1="87.733" x2="354.538" y2="41.729"/>
</g>
</svg>
